M48
; DRILL file {KiCad 8.0.6-8.0.6-0~ubuntu24.04.1} date 2024-11-10T23:48:25-0500
; FORMAT={-:-/ absolute / metric / decimal}
; #@! TF.CreationDate,2024-11-10T23:48:25-05:00
; #@! TF.GenerationSoftware,Kicad,Pcbnew,8.0.6-8.0.6-0~ubuntu24.04.1
; #@! TF.FileFunction,Plated,1,4,PTH
FMAT,2
METRIC
; #@! TA.AperFunction,Plated,PTH,ViaDrill
T1C0.400
; #@! TA.AperFunction,Plated,PTH,ComponentDrill
T2C0.719
; #@! TA.AperFunction,Plated,PTH,ComponentDrill
T3C0.762
; #@! TA.AperFunction,Plated,PTH,ComponentDrill
T4C0.787
; #@! TA.AperFunction,Plated,PTH,ComponentDrill
T5C0.800
; #@! TA.AperFunction,Plated,PTH,ComponentDrill
T6C0.810
; #@! TA.AperFunction,Plated,PTH,ComponentDrill
T7C0.864
%
G90
G05
T1
X97.275Y-114.03
X97.275Y-138.795
X97.91Y-112.125
X97.91Y-136.89
X98.545Y-110.22
X98.545Y-134.985
X99.18Y-108.315
X99.18Y-133.08
X123.87Y-124.275
X123.87Y-140.08
X123.87Y-149.04
X124.505Y-121.735
X124.505Y-137.51
X124.505Y-146.5
X125.14Y-119.195
X125.14Y-129.96
X125.14Y-143.96
X125.775Y-116.655
X125.775Y-127.33
X125.775Y-141.42
X126.41Y-114.115
X126.41Y-117.86
X126.41Y-138.88
X127.045Y-111.575
X127.045Y-136.34
X127.68Y-109.035
X127.68Y-133.8
X128.315Y-106.495
X128.315Y-129.51
X139.745Y-117.29
X139.745Y-142.055
X140.38Y-115.385
X140.38Y-140.15
X141.015Y-113.48
X141.015Y-138.245
X141.65Y-111.575
X141.65Y-136.34
X158.175Y-114.03
X158.175Y-138.795
X158.81Y-112.125
X158.81Y-136.89
X159.445Y-110.22
X159.445Y-134.985
X160.08Y-108.315
X160.08Y-133.08
X171.51Y-119.11
X171.51Y-143.875
X172.145Y-116.57
X172.145Y-141.335
X172.78Y-114.03
X172.78Y-138.795
X173.415Y-111.49
X173.415Y-136.255
X174.05Y-108.95
X174.05Y-133.715
X174.685Y-106.41
X174.685Y-131.175
X175.32Y-103.87
X175.32Y-128.635
X175.955Y-101.33
X175.955Y-126.095
X184.5Y-124.355
X184.5Y-149.12
X185.135Y-121.815
X185.135Y-146.58
X185.77Y-119.275
X185.77Y-144.04
X186.405Y-116.735
X186.405Y-141.5
X187.0Y-111.84
X187.04Y-114.195
X187.04Y-138.96
X187.19Y-109.33
X187.675Y-136.42
X188.0Y-107.55
X188.31Y-133.88
X188.945Y-131.34
X200.375Y-117.37
X200.375Y-142.135
X200.79Y-113.03
X201.01Y-115.465
X201.01Y-140.23
X201.06Y-110.85
X201.645Y-138.325
X202.28Y-136.42
X212.47Y-112.75
T2
X108.705Y-101.33
X108.705Y-103.87
X108.705Y-106.41
X108.705Y-108.95
X108.705Y-111.49
X108.705Y-114.03
X108.705Y-116.57
X108.705Y-119.11
X108.705Y-121.65
X108.705Y-126.095
X108.705Y-128.635
X108.705Y-131.175
X108.705Y-133.715
X108.705Y-136.255
X108.705Y-138.795
X108.705Y-141.335
X108.705Y-143.875
X108.705Y-146.415
X116.325Y-101.33
X116.325Y-103.87
X116.325Y-106.41
X116.325Y-108.95
X116.325Y-111.49
X116.325Y-114.03
X116.325Y-116.57
X116.325Y-119.11
X116.325Y-121.65
X116.325Y-126.095
X116.325Y-128.635
X116.325Y-131.175
X116.325Y-133.715
X116.325Y-136.255
X116.325Y-138.795
X116.325Y-141.335
X116.325Y-143.875
X116.325Y-146.415
X122.6Y-103.955
X122.6Y-106.495
X122.6Y-109.035
X122.6Y-111.575
X122.6Y-114.115
X122.6Y-116.655
X122.6Y-119.195
X122.6Y-121.735
X122.6Y-124.275
X122.6Y-128.72
X122.6Y-131.26
X122.6Y-133.8
X122.6Y-136.34
X122.6Y-138.88
X122.6Y-141.42
X122.6Y-143.96
X122.6Y-146.5
X122.6Y-149.04
X130.22Y-103.955
X130.22Y-106.495
X130.22Y-109.035
X130.22Y-111.575
X130.22Y-114.115
X130.22Y-116.655
X130.22Y-119.195
X130.22Y-121.735
X130.22Y-124.275
X130.22Y-128.72
X130.22Y-131.26
X130.22Y-133.8
X130.22Y-136.34
X130.22Y-138.88
X130.22Y-141.42
X130.22Y-143.96
X130.22Y-146.5
X130.22Y-149.04
X169.605Y-101.33
X169.605Y-103.87
X169.605Y-106.41
X169.605Y-108.95
X169.605Y-111.49
X169.605Y-114.03
X169.605Y-116.57
X169.605Y-119.11
X169.605Y-121.65
X169.605Y-126.095
X169.605Y-128.635
X169.605Y-131.175
X169.605Y-133.715
X169.605Y-136.255
X169.605Y-138.795
X169.605Y-141.335
X169.605Y-143.875
X169.605Y-146.415
X177.225Y-101.33
X177.225Y-103.87
X177.225Y-106.41
X177.225Y-108.95
X177.225Y-111.49
X177.225Y-114.03
X177.225Y-116.57
X177.225Y-119.11
X177.225Y-121.65
X177.225Y-126.095
X177.225Y-128.635
X177.225Y-131.175
X177.225Y-133.715
X177.225Y-136.255
X177.225Y-138.795
X177.225Y-141.335
X177.225Y-143.875
X177.225Y-146.415
X183.23Y-104.035
X183.23Y-106.575
X183.23Y-109.115
X183.23Y-111.655
X183.23Y-114.195
X183.23Y-116.735
X183.23Y-119.275
X183.23Y-121.815
X183.23Y-124.355
X183.23Y-128.8
X183.23Y-131.34
X183.23Y-133.88
X183.23Y-136.42
X183.23Y-138.96
X183.23Y-141.5
X183.23Y-144.04
X183.23Y-146.58
X183.23Y-149.12
X190.85Y-104.035
X190.85Y-106.575
X190.85Y-109.115
X190.85Y-111.655
X190.85Y-114.195
X190.85Y-116.735
X190.85Y-119.275
X190.85Y-121.815
X190.85Y-124.355
X190.85Y-128.8
X190.85Y-131.34
X190.85Y-133.88
X190.85Y-136.42
X190.85Y-138.96
X190.85Y-141.5
X190.85Y-144.04
X190.85Y-146.58
X190.85Y-149.12
T3
X215.76Y-104.136
X215.76Y-106.136
T4
X92.957Y-101.266
X92.957Y-103.806
X92.957Y-106.346
X92.957Y-108.886
X92.957Y-111.426
X92.957Y-113.966
X92.957Y-116.506
X92.957Y-119.046
X92.957Y-126.031
X92.957Y-128.571
X92.957Y-131.112
X92.957Y-133.651
X92.957Y-136.191
X92.957Y-138.731
X92.957Y-141.272
X92.957Y-143.811
X100.577Y-101.266
X100.577Y-103.806
X100.577Y-106.346
X100.577Y-108.886
X100.577Y-111.426
X100.577Y-113.966
X100.577Y-116.506
X100.577Y-119.046
X100.577Y-126.031
X100.577Y-128.571
X100.577Y-131.112
X100.577Y-133.651
X100.577Y-136.191
X100.577Y-138.731
X100.577Y-141.272
X100.577Y-143.811
X138.348Y-106.558
X138.348Y-109.099
X138.348Y-111.638
X138.348Y-114.178
X138.348Y-116.718
X138.348Y-119.258
X138.348Y-121.798
X138.348Y-124.338
X138.348Y-131.323
X138.348Y-133.863
X138.348Y-136.403
X138.348Y-138.944
X138.348Y-141.483
X138.348Y-144.023
X138.348Y-146.564
X138.348Y-149.103
X145.968Y-106.558
X145.968Y-109.099
X145.968Y-111.638
X145.968Y-114.178
X145.968Y-116.718
X145.968Y-119.258
X145.968Y-121.798
X145.968Y-124.338
X145.968Y-131.323
X145.968Y-133.863
X145.968Y-136.403
X145.968Y-138.944
X145.968Y-141.483
X145.968Y-144.023
X145.968Y-146.564
X145.968Y-149.103
X153.857Y-101.266
X153.857Y-103.806
X153.857Y-106.346
X153.857Y-108.886
X153.857Y-111.426
X153.857Y-113.966
X153.857Y-116.506
X153.857Y-119.046
X153.857Y-126.031
X153.857Y-128.571
X153.857Y-131.112
X153.857Y-133.651
X153.857Y-136.191
X153.857Y-138.731
X153.857Y-141.272
X153.857Y-143.811
X161.477Y-101.266
X161.477Y-103.806
X161.477Y-106.346
X161.477Y-108.886
X161.477Y-111.426
X161.477Y-113.966
X161.477Y-116.506
X161.477Y-119.046
X161.477Y-126.031
X161.477Y-128.571
X161.477Y-131.112
X161.477Y-133.651
X161.477Y-136.191
X161.477Y-138.731
X161.477Y-141.272
X161.477Y-143.811
X198.978Y-106.638
X198.978Y-109.178
X198.978Y-111.718
X198.978Y-114.258
X198.978Y-116.798
X198.978Y-119.338
X198.978Y-121.878
X198.978Y-124.418
X198.978Y-131.404
X198.978Y-133.944
X198.978Y-136.483
X198.978Y-139.023
X198.978Y-141.564
X198.978Y-144.103
X198.978Y-146.643
X198.978Y-149.183
X206.598Y-106.638
X206.598Y-109.178
X206.598Y-111.718
X206.598Y-114.258
X206.598Y-116.798
X206.598Y-119.338
X206.598Y-121.878
X206.598Y-124.418
X206.598Y-131.404
X206.598Y-133.944
X206.598Y-136.483
X206.598Y-139.023
X206.598Y-141.564
X206.598Y-144.103
X206.598Y-146.643
X206.598Y-149.183
T5
X85.94Y-101.02
X85.94Y-103.56
X85.94Y-106.1
X85.94Y-108.64
X85.94Y-111.18
X85.94Y-113.72
X85.94Y-116.26
X85.94Y-118.8
X85.94Y-121.34
X85.94Y-123.88
X85.94Y-126.42
X85.94Y-128.96
X85.94Y-131.5
X85.94Y-134.04
X85.94Y-136.58
X85.94Y-139.12
X85.94Y-141.66
X85.94Y-144.2
X85.94Y-146.74
X85.94Y-149.28
X88.48Y-101.02
X88.48Y-103.56
X88.48Y-106.1
X88.48Y-108.64
X88.48Y-111.18
X88.48Y-113.72
X88.48Y-116.26
X88.48Y-118.8
X88.48Y-121.34
X88.48Y-123.88
X88.48Y-126.42
X88.48Y-128.96
X88.48Y-131.5
X88.48Y-134.04
X88.48Y-136.58
X88.48Y-139.12
X88.48Y-141.66
X88.48Y-144.2
X88.48Y-146.74
X88.48Y-149.28
X104.641Y-101.33
X104.641Y-103.87
X104.641Y-106.41
X104.641Y-108.95
X104.641Y-111.49
X104.641Y-114.03
X104.641Y-116.57
X104.641Y-119.11
X104.641Y-121.65
X104.641Y-126.095
X104.641Y-128.635
X104.641Y-131.175
X104.641Y-133.715
X104.641Y-136.255
X104.641Y-138.795
X104.641Y-141.335
X104.641Y-143.875
X104.641Y-146.415
X119.35Y-101.08
X119.35Y-103.62
X119.35Y-106.16
X119.35Y-108.7
X119.35Y-111.24
X119.35Y-113.78
X119.35Y-116.32
X119.35Y-118.86
X119.35Y-121.4
X119.35Y-123.94
X119.35Y-126.48
X119.35Y-129.02
X119.35Y-131.56
X119.35Y-134.1
X119.35Y-136.64
X119.35Y-139.18
X119.35Y-141.72
X119.35Y-144.26
X119.35Y-146.8
X119.35Y-149.34
X134.284Y-103.955
X134.284Y-106.495
X134.284Y-109.035
X134.284Y-111.575
X134.284Y-114.115
X134.284Y-116.655
X134.284Y-119.195
X134.284Y-121.735
X134.284Y-124.275
X134.284Y-128.72
X134.284Y-131.26
X134.284Y-133.8
X134.284Y-136.34
X134.284Y-138.88
X134.284Y-141.42
X134.284Y-143.96
X134.284Y-146.5
X134.284Y-149.04
X165.541Y-101.33
X165.541Y-103.87
X165.541Y-106.41
X165.541Y-108.95
X165.541Y-111.49
X165.541Y-114.03
X165.541Y-116.57
X165.541Y-119.11
X165.541Y-121.65
X165.541Y-126.095
X165.541Y-128.635
X165.541Y-131.175
X165.541Y-133.715
X165.541Y-136.255
X165.541Y-138.795
X165.541Y-141.335
X165.541Y-143.875
X165.541Y-146.415
X180.25Y-101.08
X180.25Y-103.62
X180.25Y-106.16
X180.25Y-108.7
X180.25Y-111.24
X180.25Y-113.78
X180.25Y-116.32
X180.25Y-118.86
X180.25Y-121.4
X180.25Y-123.94
X180.25Y-126.48
X180.25Y-129.02
X180.25Y-131.56
X180.25Y-134.1
X180.25Y-136.64
X180.25Y-139.18
X180.25Y-141.72
X180.25Y-144.26
X180.25Y-146.8
X180.25Y-149.34
X194.914Y-104.035
X194.914Y-106.575
X194.914Y-109.115
X194.914Y-111.655
X194.914Y-114.195
X194.914Y-116.735
X194.914Y-119.275
X194.914Y-121.815
X194.914Y-124.355
X194.914Y-128.8
X194.914Y-131.34
X194.914Y-133.88
X194.914Y-136.42
X194.914Y-138.96
X194.914Y-141.5
X194.914Y-144.04
X194.914Y-146.58
X194.914Y-149.12
T6
X92.99Y-122.44
X93.0Y-147.6
X95.53Y-122.44
X95.54Y-147.6
X143.4Y-103.73
X143.45Y-127.96
X145.94Y-103.73
X145.99Y-127.96
X153.89Y-122.44
X153.9Y-147.6
X156.43Y-122.44
X156.44Y-147.6
X192.73Y-101.27
X195.27Y-101.27
X204.05Y-127.87
X206.59Y-127.87
T7
X210.32Y-118.82
X215.32Y-118.82
M30
