%TF.GenerationSoftware,KiCad,Pcbnew,8.0.5-8.0.5-0~ubuntu24.04.1*%
%TF.CreationDate,2024-10-16T20:19:07-04:00*%
%TF.ProjectId,array,61727261-792e-46b6-9963-61645f706362,rev?*%
%TF.SameCoordinates,Original*%
%TF.FileFunction,Drillmap*%
%TF.FilePolarity,Positive*%
%FSLAX45Y45*%
G04 Gerber Fmt 4.5, Leading zero omitted, Abs format (unit mm)*
G04 Created by KiCad (PCBNEW 8.0.5-8.0.5-0~ubuntu24.04.1) date 2024-10-16 20:19:07*
%MOMM*%
%LPD*%
G01*
G04 APERTURE LIST*
%ADD10C,0.200000*%
G04 APERTURE END LIST*
D10*
X9000000Y-5130000D02*
X16620000Y-5130000D01*
X16620000Y-12750000D01*
X9000000Y-12750000D01*
X9000000Y-5130000D01*
X9250777Y-13071484D02*
X9250777Y-12871484D01*
X9250777Y-12871484D02*
X9298396Y-12871484D01*
X9298396Y-12871484D02*
X9326967Y-12881008D01*
X9326967Y-12881008D02*
X9346015Y-12900055D01*
X9346015Y-12900055D02*
X9355539Y-12919103D01*
X9355539Y-12919103D02*
X9365063Y-12957198D01*
X9365063Y-12957198D02*
X9365063Y-12985769D01*
X9365063Y-12985769D02*
X9355539Y-13023865D01*
X9355539Y-13023865D02*
X9346015Y-13042912D01*
X9346015Y-13042912D02*
X9326967Y-13061960D01*
X9326967Y-13061960D02*
X9298396Y-13071484D01*
X9298396Y-13071484D02*
X9250777Y-13071484D01*
X9450777Y-13071484D02*
X9450777Y-12938150D01*
X9450777Y-12976246D02*
X9460301Y-12957198D01*
X9460301Y-12957198D02*
X9469824Y-12947674D01*
X9469824Y-12947674D02*
X9488872Y-12938150D01*
X9488872Y-12938150D02*
X9507920Y-12938150D01*
X9574586Y-13071484D02*
X9574586Y-12938150D01*
X9574586Y-12871484D02*
X9565063Y-12881008D01*
X9565063Y-12881008D02*
X9574586Y-12890531D01*
X9574586Y-12890531D02*
X9584110Y-12881008D01*
X9584110Y-12881008D02*
X9574586Y-12871484D01*
X9574586Y-12871484D02*
X9574586Y-12890531D01*
X9698396Y-13071484D02*
X9679348Y-13061960D01*
X9679348Y-13061960D02*
X9669824Y-13042912D01*
X9669824Y-13042912D02*
X9669824Y-12871484D01*
X9803158Y-13071484D02*
X9784110Y-13061960D01*
X9784110Y-13061960D02*
X9774586Y-13042912D01*
X9774586Y-13042912D02*
X9774586Y-12871484D01*
X10031729Y-13071484D02*
X10031729Y-12871484D01*
X10031729Y-12871484D02*
X10098396Y-13014341D01*
X10098396Y-13014341D02*
X10165063Y-12871484D01*
X10165063Y-12871484D02*
X10165063Y-13071484D01*
X10346015Y-13071484D02*
X10346015Y-12966722D01*
X10346015Y-12966722D02*
X10336491Y-12947674D01*
X10336491Y-12947674D02*
X10317444Y-12938150D01*
X10317444Y-12938150D02*
X10279348Y-12938150D01*
X10279348Y-12938150D02*
X10260301Y-12947674D01*
X10346015Y-13061960D02*
X10326967Y-13071484D01*
X10326967Y-13071484D02*
X10279348Y-13071484D01*
X10279348Y-13071484D02*
X10260301Y-13061960D01*
X10260301Y-13061960D02*
X10250777Y-13042912D01*
X10250777Y-13042912D02*
X10250777Y-13023865D01*
X10250777Y-13023865D02*
X10260301Y-13004817D01*
X10260301Y-13004817D02*
X10279348Y-12995293D01*
X10279348Y-12995293D02*
X10326967Y-12995293D01*
X10326967Y-12995293D02*
X10346015Y-12985769D01*
X10441253Y-12938150D02*
X10441253Y-13138150D01*
X10441253Y-12947674D02*
X10460301Y-12938150D01*
X10460301Y-12938150D02*
X10498396Y-12938150D01*
X10498396Y-12938150D02*
X10517444Y-12947674D01*
X10517444Y-12947674D02*
X10526967Y-12957198D01*
X10526967Y-12957198D02*
X10536491Y-12976246D01*
X10536491Y-12976246D02*
X10536491Y-13033388D01*
X10536491Y-13033388D02*
X10526967Y-13052436D01*
X10526967Y-13052436D02*
X10517444Y-13061960D01*
X10517444Y-13061960D02*
X10498396Y-13071484D01*
X10498396Y-13071484D02*
X10460301Y-13071484D01*
X10460301Y-13071484D02*
X10441253Y-13061960D01*
X10622205Y-13052436D02*
X10631729Y-13061960D01*
X10631729Y-13061960D02*
X10622205Y-13071484D01*
X10622205Y-13071484D02*
X10612682Y-13061960D01*
X10612682Y-13061960D02*
X10622205Y-13052436D01*
X10622205Y-13052436D02*
X10622205Y-13071484D01*
X10622205Y-12947674D02*
X10631729Y-12957198D01*
X10631729Y-12957198D02*
X10622205Y-12966722D01*
X10622205Y-12966722D02*
X10612682Y-12957198D01*
X10612682Y-12957198D02*
X10622205Y-12947674D01*
X10622205Y-12947674D02*
X10622205Y-12966722D01*
M02*
