G04 #@! TF.GenerationSoftware,KiCad,Pcbnew,8.0.6-8.0.6-0~ubuntu24.04.1*
G04 #@! TF.CreationDate,2024-11-10T23:48:13-05:00*
G04 #@! TF.ProjectId,array,61727261-792e-46b6-9963-61645f706362,rev?*
G04 #@! TF.SameCoordinates,Original*
G04 #@! TF.FileFunction,Copper,L2,Inr*
G04 #@! TF.FilePolarity,Positive*
%FSLAX46Y46*%
G04 Gerber Fmt 4.6, Leading zero omitted, Abs format (unit mm)*
G04 Created by KiCad (PCBNEW 8.0.6-8.0.6-0~ubuntu24.04.1) date 2024-11-10 23:48:13*
%MOMM*%
%LPD*%
G01*
G04 APERTURE LIST*
G04 #@! TA.AperFunction,ComponentPad*
%ADD10C,1.270000*%
G04 #@! TD*
G04 #@! TA.AperFunction,ComponentPad*
%ADD11C,1.371600*%
G04 #@! TD*
G04 #@! TA.AperFunction,ComponentPad*
%ADD12R,1.318000X1.318000*%
G04 #@! TD*
G04 #@! TA.AperFunction,ComponentPad*
%ADD13C,1.318000*%
G04 #@! TD*
G04 #@! TA.AperFunction,ComponentPad*
%ADD14C,1.500000*%
G04 #@! TD*
G04 #@! TA.AperFunction,ComponentPad*
%ADD15R,1.227074X1.227074*%
G04 #@! TD*
G04 #@! TA.AperFunction,ComponentPad*
%ADD16C,1.227074*%
G04 #@! TD*
G04 #@! TA.AperFunction,ComponentPad*
%ADD17C,1.200000*%
G04 #@! TD*
G04 #@! TA.AperFunction,ComponentPad*
%ADD18R,1.295400X1.295400*%
G04 #@! TD*
G04 #@! TA.AperFunction,ComponentPad*
%ADD19C,1.295400*%
G04 #@! TD*
G04 #@! TA.AperFunction,ViaPad*
%ADD20C,0.600000*%
G04 #@! TD*
G04 #@! TA.AperFunction,ViaPad*
%ADD21C,0.800000*%
G04 #@! TD*
G04 #@! TA.AperFunction,ViaPad*
%ADD22C,0.700000*%
G04 #@! TD*
G04 #@! TA.AperFunction,Conductor*
%ADD23C,0.400000*%
G04 #@! TD*
G04 #@! TA.AperFunction,Conductor*
%ADD24C,0.500000*%
G04 #@! TD*
G04 #@! TA.AperFunction,Conductor*
%ADD25C,0.300000*%
G04 #@! TD*
G04 APERTURE END LIST*
D10*
X215760000Y-106135650D03*
X215760000Y-104135650D03*
D11*
X210320000Y-118820000D03*
X215320000Y-118820000D03*
D12*
X156430000Y-122440000D03*
D13*
X153890000Y-122440000D03*
D12*
X204050000Y-127870000D03*
D13*
X206590000Y-127870000D03*
D14*
X119350000Y-149340000D03*
X119350000Y-146800000D03*
X119350000Y-144260000D03*
X119350000Y-141720000D03*
X119350000Y-139180000D03*
X119350000Y-136640000D03*
X119350000Y-134100000D03*
X119350000Y-131560000D03*
X119350000Y-129020000D03*
X119350000Y-126480000D03*
X119350000Y-123940000D03*
X119350000Y-121400000D03*
X119350000Y-118860000D03*
X119350000Y-116320000D03*
X119350000Y-113780000D03*
X119350000Y-111240000D03*
X119350000Y-108700000D03*
X119350000Y-106160000D03*
X119350000Y-103620000D03*
X119350000Y-101080000D03*
D12*
X156440000Y-147600000D03*
D13*
X153900000Y-147600000D03*
D12*
X143450000Y-127960000D03*
D13*
X145990000Y-127960000D03*
D12*
X195270000Y-101270000D03*
D13*
X192730000Y-101270000D03*
D14*
X85940000Y-101020000D03*
X85940000Y-103560000D03*
X85940000Y-106100000D03*
X85940000Y-108640000D03*
X85940000Y-111180000D03*
X85940000Y-113720000D03*
X85940000Y-116260000D03*
X85940000Y-118800000D03*
X85940000Y-121340000D03*
X85940000Y-123880000D03*
X85940000Y-126420000D03*
X85940000Y-128960000D03*
X85940000Y-131500000D03*
X85940000Y-134040000D03*
X85940000Y-136580000D03*
X85940000Y-139120000D03*
X85940000Y-141660000D03*
X85940000Y-144200000D03*
X85940000Y-146740000D03*
X85940000Y-149280000D03*
X88480000Y-149280000D03*
X88480000Y-146740000D03*
X88480000Y-144200000D03*
X88480000Y-141660000D03*
X88480000Y-139120000D03*
X88480000Y-136580000D03*
X88480000Y-134040000D03*
X88480000Y-131500000D03*
X88480000Y-128960000D03*
X88480000Y-126420000D03*
X88480000Y-123880000D03*
X88480000Y-121340000D03*
X88480000Y-118800000D03*
X88480000Y-116260000D03*
X88480000Y-113720000D03*
X88480000Y-111180000D03*
X88480000Y-108640000D03*
X88480000Y-106100000D03*
X88480000Y-103560000D03*
X88480000Y-101020000D03*
X180250000Y-101080000D03*
X180250000Y-103620000D03*
X180250000Y-106160000D03*
X180250000Y-108700000D03*
X180250000Y-111240000D03*
X180250000Y-113780000D03*
X180250000Y-116320000D03*
X180250000Y-118860000D03*
X180250000Y-121400000D03*
X180250000Y-123940000D03*
X180250000Y-126480000D03*
X180250000Y-129020000D03*
X180250000Y-131560000D03*
X180250000Y-134100000D03*
X180250000Y-136640000D03*
X180250000Y-139180000D03*
X180250000Y-141720000D03*
X180250000Y-144260000D03*
X180250000Y-146800000D03*
X180250000Y-149340000D03*
D12*
X143400000Y-103730000D03*
D13*
X145940000Y-103730000D03*
D12*
X95530000Y-122440000D03*
D13*
X92990000Y-122440000D03*
D12*
X95540000Y-147600000D03*
D13*
X93000000Y-147600000D03*
D15*
X190850000Y-149120000D03*
D16*
X190850000Y-146580000D03*
X190850000Y-144040000D03*
X190850000Y-141500000D03*
X190850000Y-138960000D03*
X190850000Y-136420000D03*
X190850000Y-133880000D03*
X190850000Y-131340000D03*
X190850000Y-128800000D03*
X183230000Y-128800000D03*
X183230000Y-131340000D03*
X183230000Y-133880000D03*
X183230000Y-136420000D03*
X183230000Y-138960000D03*
X183230000Y-141500000D03*
X183230000Y-144040000D03*
X183230000Y-146580000D03*
X183230000Y-149120000D03*
D17*
X134284000Y-103955000D03*
X134284000Y-106495000D03*
X134284000Y-109035000D03*
X134284000Y-111575000D03*
X134284000Y-114115000D03*
X134284000Y-116655000D03*
X134284000Y-119195000D03*
X134284000Y-121735000D03*
X134284000Y-124275000D03*
X194914000Y-128800000D03*
X194914000Y-131340000D03*
X194914000Y-133880000D03*
X194914000Y-136420000D03*
X194914000Y-138960000D03*
X194914000Y-141500000D03*
X194914000Y-144040000D03*
X194914000Y-146580000D03*
X194914000Y-149120000D03*
X165541000Y-121650000D03*
X165541000Y-119110000D03*
X165541000Y-116570000D03*
X165541000Y-114030000D03*
X165541000Y-111490000D03*
X165541000Y-108950000D03*
X165541000Y-106410000D03*
X165541000Y-103870000D03*
X165541000Y-101330000D03*
D18*
X206598000Y-124418500D03*
D19*
X206598000Y-121878500D03*
X206598000Y-119338500D03*
X206598000Y-116798500D03*
X206598000Y-114258500D03*
X206598000Y-111718500D03*
X206598000Y-109178500D03*
X206598000Y-106638500D03*
X198978000Y-106638500D03*
X198978000Y-109178500D03*
X198978000Y-111718500D03*
X198978000Y-114258500D03*
X198978000Y-116798500D03*
X198978000Y-119338500D03*
X198978000Y-121878500D03*
X198978000Y-124418500D03*
D15*
X190850000Y-124355000D03*
D16*
X190850000Y-121815000D03*
X190850000Y-119275000D03*
X190850000Y-116735000D03*
X190850000Y-114195000D03*
X190850000Y-111655000D03*
X190850000Y-109115000D03*
X190850000Y-106575000D03*
X190850000Y-104035000D03*
X183230000Y-104035000D03*
X183230000Y-106575000D03*
X183230000Y-109115000D03*
X183230000Y-111655000D03*
X183230000Y-114195000D03*
X183230000Y-116735000D03*
X183230000Y-119275000D03*
X183230000Y-121815000D03*
X183230000Y-124355000D03*
D18*
X153857000Y-126031500D03*
D19*
X153857000Y-128571500D03*
X153857000Y-131111500D03*
X153857000Y-133651500D03*
X153857000Y-136191500D03*
X153857000Y-138731500D03*
X153857000Y-141271500D03*
X153857000Y-143811500D03*
X161477000Y-143811500D03*
X161477000Y-141271500D03*
X161477000Y-138731500D03*
X161477000Y-136191500D03*
X161477000Y-133651500D03*
X161477000Y-131111500D03*
X161477000Y-128571500D03*
X161477000Y-126031500D03*
D15*
X169605000Y-126095000D03*
D16*
X169605000Y-128635000D03*
X169605000Y-131175000D03*
X169605000Y-133715000D03*
X169605000Y-136255000D03*
X169605000Y-138795000D03*
X169605000Y-141335000D03*
X169605000Y-143875000D03*
X169605000Y-146415000D03*
X177225000Y-146415000D03*
X177225000Y-143875000D03*
X177225000Y-141335000D03*
X177225000Y-138795000D03*
X177225000Y-136255000D03*
X177225000Y-133715000D03*
X177225000Y-131175000D03*
X177225000Y-128635000D03*
X177225000Y-126095000D03*
D17*
X194914000Y-104035000D03*
X194914000Y-106575000D03*
X194914000Y-109115000D03*
X194914000Y-111655000D03*
X194914000Y-114195000D03*
X194914000Y-116735000D03*
X194914000Y-119275000D03*
X194914000Y-121815000D03*
X194914000Y-124355000D03*
D18*
X206598000Y-149183500D03*
D19*
X206598000Y-146643500D03*
X206598000Y-144103500D03*
X206598000Y-141563500D03*
X206598000Y-139023500D03*
X206598000Y-136483500D03*
X206598000Y-133943500D03*
X206598000Y-131403500D03*
X198978000Y-131403500D03*
X198978000Y-133943500D03*
X198978000Y-136483500D03*
X198978000Y-139023500D03*
X198978000Y-141563500D03*
X198978000Y-144103500D03*
X198978000Y-146643500D03*
X198978000Y-149183500D03*
D15*
X130220000Y-124275000D03*
D16*
X130220000Y-121735000D03*
X130220000Y-119195000D03*
X130220000Y-116655000D03*
X130220000Y-114115000D03*
X130220000Y-111575000D03*
X130220000Y-109035000D03*
X130220000Y-106495000D03*
X130220000Y-103955000D03*
X122600000Y-103955000D03*
X122600000Y-106495000D03*
X122600000Y-109035000D03*
X122600000Y-111575000D03*
X122600000Y-114115000D03*
X122600000Y-116655000D03*
X122600000Y-119195000D03*
X122600000Y-121735000D03*
X122600000Y-124275000D03*
D18*
X145968000Y-149103500D03*
D19*
X145968000Y-146563500D03*
X145968000Y-144023500D03*
X145968000Y-141483500D03*
X145968000Y-138943500D03*
X145968000Y-136403500D03*
X145968000Y-133863500D03*
X145968000Y-131323500D03*
X138348000Y-131323500D03*
X138348000Y-133863500D03*
X138348000Y-136403500D03*
X138348000Y-138943500D03*
X138348000Y-141483500D03*
X138348000Y-144023500D03*
X138348000Y-146563500D03*
X138348000Y-149103500D03*
D18*
X145968000Y-124338500D03*
D19*
X145968000Y-121798500D03*
X145968000Y-119258500D03*
X145968000Y-116718500D03*
X145968000Y-114178500D03*
X145968000Y-111638500D03*
X145968000Y-109098500D03*
X145968000Y-106558500D03*
X138348000Y-106558500D03*
X138348000Y-109098500D03*
X138348000Y-111638500D03*
X138348000Y-114178500D03*
X138348000Y-116718500D03*
X138348000Y-119258500D03*
X138348000Y-121798500D03*
X138348000Y-124338500D03*
D17*
X134284000Y-128720000D03*
X134284000Y-131260000D03*
X134284000Y-133800000D03*
X134284000Y-136340000D03*
X134284000Y-138880000D03*
X134284000Y-141420000D03*
X134284000Y-143960000D03*
X134284000Y-146500000D03*
X134284000Y-149040000D03*
X165541000Y-146415000D03*
X165541000Y-143875000D03*
X165541000Y-141335000D03*
X165541000Y-138795000D03*
X165541000Y-136255000D03*
X165541000Y-133715000D03*
X165541000Y-131175000D03*
X165541000Y-128635000D03*
X165541000Y-126095000D03*
D15*
X130220000Y-149040000D03*
D16*
X130220000Y-146500000D03*
X130220000Y-143960000D03*
X130220000Y-141420000D03*
X130220000Y-138880000D03*
X130220000Y-136340000D03*
X130220000Y-133800000D03*
X130220000Y-131260000D03*
X130220000Y-128720000D03*
X122600000Y-128720000D03*
X122600000Y-131260000D03*
X122600000Y-133800000D03*
X122600000Y-136340000D03*
X122600000Y-138880000D03*
X122600000Y-141420000D03*
X122600000Y-143960000D03*
X122600000Y-146500000D03*
X122600000Y-149040000D03*
D18*
X92957000Y-126031500D03*
D19*
X92957000Y-128571500D03*
X92957000Y-131111500D03*
X92957000Y-133651500D03*
X92957000Y-136191500D03*
X92957000Y-138731500D03*
X92957000Y-141271500D03*
X92957000Y-143811500D03*
X100577000Y-143811500D03*
X100577000Y-141271500D03*
X100577000Y-138731500D03*
X100577000Y-136191500D03*
X100577000Y-133651500D03*
X100577000Y-131111500D03*
X100577000Y-128571500D03*
X100577000Y-126031500D03*
D17*
X104641000Y-121650000D03*
X104641000Y-119110000D03*
X104641000Y-116570000D03*
X104641000Y-114030000D03*
X104641000Y-111490000D03*
X104641000Y-108950000D03*
X104641000Y-106410000D03*
X104641000Y-103870000D03*
X104641000Y-101330000D03*
D15*
X108705000Y-101330000D03*
D16*
X108705000Y-103870000D03*
X108705000Y-106410000D03*
X108705000Y-108950000D03*
X108705000Y-111490000D03*
X108705000Y-114030000D03*
X108705000Y-116570000D03*
X108705000Y-119110000D03*
X108705000Y-121650000D03*
X116325000Y-121650000D03*
X116325000Y-119110000D03*
X116325000Y-116570000D03*
X116325000Y-114030000D03*
X116325000Y-111490000D03*
X116325000Y-108950000D03*
X116325000Y-106410000D03*
X116325000Y-103870000D03*
X116325000Y-101330000D03*
D15*
X108705000Y-126095000D03*
D16*
X108705000Y-128635000D03*
X108705000Y-131175000D03*
X108705000Y-133715000D03*
X108705000Y-136255000D03*
X108705000Y-138795000D03*
X108705000Y-141335000D03*
X108705000Y-143875000D03*
X108705000Y-146415000D03*
X116325000Y-146415000D03*
X116325000Y-143875000D03*
X116325000Y-141335000D03*
X116325000Y-138795000D03*
X116325000Y-136255000D03*
X116325000Y-133715000D03*
X116325000Y-131175000D03*
X116325000Y-128635000D03*
X116325000Y-126095000D03*
D18*
X92957000Y-101266500D03*
D19*
X92957000Y-103806500D03*
X92957000Y-106346500D03*
X92957000Y-108886500D03*
X92957000Y-111426500D03*
X92957000Y-113966500D03*
X92957000Y-116506500D03*
X92957000Y-119046500D03*
X100577000Y-119046500D03*
X100577000Y-116506500D03*
X100577000Y-113966500D03*
X100577000Y-111426500D03*
X100577000Y-108886500D03*
X100577000Y-106346500D03*
X100577000Y-103806500D03*
X100577000Y-101266500D03*
D17*
X104641000Y-146415000D03*
X104641000Y-143875000D03*
X104641000Y-141335000D03*
X104641000Y-138795000D03*
X104641000Y-136255000D03*
X104641000Y-133715000D03*
X104641000Y-131175000D03*
X104641000Y-128635000D03*
X104641000Y-126095000D03*
D18*
X153857000Y-101266500D03*
D19*
X153857000Y-103806500D03*
X153857000Y-106346500D03*
X153857000Y-108886500D03*
X153857000Y-111426500D03*
X153857000Y-113966500D03*
X153857000Y-116506500D03*
X153857000Y-119046500D03*
X161477000Y-119046500D03*
X161477000Y-116506500D03*
X161477000Y-113966500D03*
X161477000Y-111426500D03*
X161477000Y-108886500D03*
X161477000Y-106346500D03*
X161477000Y-103806500D03*
X161477000Y-101266500D03*
D15*
X169605000Y-101330000D03*
D16*
X169605000Y-103870000D03*
X169605000Y-106410000D03*
X169605000Y-108950000D03*
X169605000Y-111490000D03*
X169605000Y-114030000D03*
X169605000Y-116570000D03*
X169605000Y-119110000D03*
X169605000Y-121650000D03*
X177225000Y-121650000D03*
X177225000Y-119110000D03*
X177225000Y-116570000D03*
X177225000Y-114030000D03*
X177225000Y-111490000D03*
X177225000Y-108950000D03*
X177225000Y-106410000D03*
X177225000Y-103870000D03*
X177225000Y-101330000D03*
D20*
X212470000Y-112750000D03*
D21*
X173415000Y-111490000D03*
X128315000Y-106495000D03*
X200375000Y-142135000D03*
X188000000Y-107550000D03*
X141015000Y-113480000D03*
X171510000Y-119110000D03*
X127680000Y-109035000D03*
X175955000Y-101330000D03*
X187190000Y-109330000D03*
X125140000Y-119195000D03*
X188310000Y-133880000D03*
X188945000Y-131340000D03*
X140380000Y-140150000D03*
X123870000Y-124275000D03*
X125775000Y-116655000D03*
X141650000Y-136340000D03*
X175320000Y-103870000D03*
X186405000Y-116735000D03*
X159445000Y-110220000D03*
X185135000Y-121815000D03*
X172145000Y-141335000D03*
X201010000Y-140230000D03*
X159445000Y-134985000D03*
X187040000Y-114195000D03*
X127045000Y-136340000D03*
X158810000Y-112125000D03*
X127680000Y-133800000D03*
X184500000Y-124355000D03*
X185770000Y-144040000D03*
X139745000Y-117290000D03*
X200375000Y-117370000D03*
X160080000Y-133080000D03*
X158810000Y-136890000D03*
X201010000Y-115465000D03*
X124505000Y-121735000D03*
X172780000Y-114030000D03*
X201060000Y-110850000D03*
X200790000Y-113030000D03*
X185770000Y-119275000D03*
X174685000Y-131175000D03*
X128315000Y-129510000D03*
X124505000Y-146500000D03*
X158175000Y-138795000D03*
D22*
X126410000Y-117860000D03*
D21*
X174050000Y-133715000D03*
X125140000Y-143960000D03*
X160080000Y-108315000D03*
X141650000Y-111575000D03*
D22*
X125140000Y-129960000D03*
D21*
X186405000Y-141500000D03*
X172145000Y-116570000D03*
X126410000Y-114115000D03*
X174050000Y-108950000D03*
X141015000Y-138245000D03*
X202280000Y-136420000D03*
X171510000Y-143875000D03*
X125775000Y-141420000D03*
X175955000Y-126095000D03*
D22*
X123870000Y-140080000D03*
D21*
X127045000Y-111575000D03*
X139745000Y-142055000D03*
X187000000Y-111840000D03*
X140380000Y-115385000D03*
X187040000Y-138960000D03*
X172780000Y-138795000D03*
X201645000Y-138325000D03*
X175320000Y-128635000D03*
X123870000Y-149040000D03*
D22*
X125775000Y-127330000D03*
D21*
X187675000Y-136420000D03*
D22*
X124505000Y-137510000D03*
D21*
X174685000Y-106410000D03*
X184500000Y-149120000D03*
X173415000Y-136255000D03*
X158175000Y-114030000D03*
X185135000Y-146580000D03*
X126410000Y-138880000D03*
X98545000Y-110220000D03*
X98545000Y-134985000D03*
X97910000Y-112125000D03*
X99180000Y-133080000D03*
X97910000Y-136890000D03*
X97275000Y-138795000D03*
X99180000Y-108315000D03*
X97275000Y-114030000D03*
D23*
X215760000Y-106135650D02*
X215745650Y-106150000D01*
X215745650Y-106150000D02*
X209040000Y-106150000D01*
X205590000Y-107920000D02*
X204360000Y-109150000D01*
X209040000Y-106150000D02*
X207270000Y-107920000D01*
X207270000Y-107920000D02*
X205590000Y-107920000D01*
X198978000Y-149183500D02*
X204050000Y-144111500D01*
X204050000Y-144111500D02*
X204050000Y-127870000D01*
X204360000Y-109150000D02*
X199820000Y-104610000D01*
X196990000Y-104610000D02*
X196020000Y-103640000D01*
X199820000Y-104610000D02*
X196990000Y-104610000D01*
X196020000Y-103640000D02*
X196020000Y-103100000D01*
X195270000Y-102350000D02*
X195270000Y-101270000D01*
X196020000Y-103100000D02*
X195270000Y-102350000D01*
X95540000Y-147600000D02*
X95540000Y-131068500D01*
X95540000Y-131068500D02*
X100577000Y-126031500D01*
X116325000Y-121650000D02*
X117250000Y-121650000D01*
X117250000Y-121650000D02*
X118270000Y-122670000D01*
X118270000Y-122670000D02*
X120160000Y-122670000D01*
X120160000Y-122670000D02*
X121060000Y-123570000D01*
X121060000Y-123570000D02*
X121060000Y-127180000D01*
X121060000Y-127180000D02*
X122600000Y-128720000D01*
X177225000Y-121650000D02*
X177225000Y-123625000D01*
X177225000Y-123625000D02*
X178500000Y-124900000D01*
X178500000Y-124900000D02*
X178500000Y-127260000D01*
X178500000Y-127260000D02*
X178380000Y-127380000D01*
X178380000Y-127380000D02*
X178500000Y-127380000D01*
X178500000Y-127380000D02*
X178850000Y-127730000D01*
X178850000Y-127730000D02*
X181900000Y-127730000D01*
X183230000Y-128800000D02*
X182160000Y-127730000D01*
X182160000Y-127730000D02*
X181900000Y-127730000D01*
X204360000Y-109150000D02*
X204360000Y-119036500D01*
X204360000Y-119036500D02*
X198978000Y-124418500D01*
X161477000Y-126031500D02*
X162825500Y-127380000D01*
X162825500Y-127380000D02*
X178380000Y-127380000D01*
X181900000Y-127730000D02*
X182720000Y-126910000D01*
X182720000Y-126910000D02*
X197150000Y-126910000D01*
X197150000Y-126246500D02*
X197150000Y-126910000D01*
X197150000Y-126910000D02*
X197150000Y-147355500D01*
X198978000Y-124418500D02*
X197150000Y-126246500D01*
X197150000Y-147355500D02*
X198978000Y-149183500D01*
D24*
X100577000Y-101266500D02*
X102250000Y-102939500D01*
X102250000Y-102939500D02*
X102250000Y-124358500D01*
X102250000Y-124358500D02*
X100577000Y-126031500D01*
D23*
X143400000Y-103730000D02*
X143400000Y-119286500D01*
X143400000Y-119286500D02*
X138348000Y-124338500D01*
D25*
X97275000Y-138795000D02*
X97275000Y-132535000D01*
X97275000Y-132535000D02*
X99910000Y-129900000D01*
X99910000Y-129900000D02*
X111460000Y-129900000D01*
X111460000Y-129900000D02*
X114000000Y-132440000D01*
X114000000Y-132440000D02*
X117760000Y-132440000D01*
X117760000Y-132440000D02*
X118150000Y-132830000D01*
X118150000Y-132830000D02*
X121790000Y-132830000D01*
X121790000Y-132830000D02*
X122050000Y-132570000D01*
X122050000Y-132570000D02*
X137054500Y-132570000D01*
X137054500Y-132570000D02*
X138348000Y-133863500D01*
X138348000Y-136403500D02*
X136984500Y-135040000D01*
X117630000Y-135380000D02*
X117280000Y-135030000D01*
X136984500Y-135040000D02*
X121830000Y-135040000D01*
X121490000Y-135380000D02*
X117630000Y-135380000D01*
X121830000Y-135040000D02*
X121490000Y-135380000D01*
X117280000Y-135030000D02*
X112580000Y-135030000D01*
X112580000Y-135030000D02*
X109960000Y-132410000D01*
X109960000Y-132410000D02*
X98920000Y-132410000D01*
X98920000Y-132410000D02*
X97910000Y-133420000D01*
X97910000Y-133420000D02*
X97910000Y-136890000D01*
X111210000Y-134950000D02*
X113850000Y-137590000D01*
X104250000Y-134950000D02*
X111210000Y-134950000D01*
X100577000Y-136191500D02*
X103008500Y-136191500D01*
X103008500Y-136191500D02*
X104250000Y-134950000D01*
X113850000Y-137590000D02*
X117360000Y-137590000D01*
X117360000Y-137590000D02*
X117720000Y-137950000D01*
X138348000Y-141483500D02*
X137111500Y-142720000D01*
X137111500Y-142720000D02*
X121890000Y-142720000D01*
X121890000Y-142720000D02*
X121610000Y-143000000D01*
X121610000Y-143000000D02*
X117470000Y-143000000D01*
X117470000Y-143000000D02*
X117050000Y-142580000D01*
X117050000Y-142580000D02*
X115150000Y-142580000D01*
X115150000Y-142580000D02*
X110120000Y-137550000D01*
X110120000Y-137550000D02*
X101310000Y-137550000D01*
X101310000Y-137550000D02*
X101220000Y-137460000D01*
X101220000Y-137460000D02*
X99880000Y-137460000D01*
X99880000Y-137460000D02*
X99310000Y-136890000D01*
X99310000Y-136890000D02*
X99310000Y-134918500D01*
X99310000Y-134918500D02*
X100577000Y-133651500D01*
X134284000Y-149040000D02*
X130220000Y-149040000D01*
X145968000Y-149103500D02*
X142729500Y-149103500D01*
X163953500Y-101330000D02*
X165541000Y-101330000D01*
X160969000Y-107680000D02*
X164271000Y-107680000D01*
X161477000Y-103806500D02*
X163953500Y-101330000D01*
X138348000Y-146563500D02*
X135871500Y-149040000D01*
X157095500Y-103806500D02*
X160969000Y-107680000D01*
X135554000Y-145230000D02*
X134284000Y-146500000D01*
X138856000Y-145230000D02*
X135554000Y-145230000D01*
X165541000Y-103870000D02*
X169605000Y-103870000D01*
X157095500Y-101266500D02*
X160969000Y-105140000D01*
X160969000Y-105140000D02*
X164271000Y-105140000D01*
X134284000Y-146500000D02*
X130220000Y-146500000D01*
X153857000Y-103806500D02*
X157095500Y-103806500D01*
X164271000Y-107680000D02*
X165541000Y-106410000D01*
X165541000Y-101330000D02*
X169605000Y-101330000D01*
X153857000Y-101266500D02*
X157095500Y-101266500D01*
X164271000Y-105140000D02*
X165541000Y-103870000D01*
X165541000Y-106410000D02*
X169605000Y-106410000D01*
X135871500Y-149040000D02*
X134284000Y-149040000D01*
X142729500Y-149103500D02*
X138856000Y-145230000D01*
X153110000Y-134920000D02*
X156840000Y-134920000D01*
X124120000Y-138280000D02*
X125920000Y-138280000D01*
X156840000Y-129840000D02*
X160080000Y-133080000D01*
X139745000Y-142055000D02*
X139745000Y-134995000D01*
X141015000Y-135815000D02*
X141680000Y-135150000D01*
X146830000Y-137680000D02*
X142990000Y-137680000D01*
X147060000Y-137450000D02*
X146830000Y-137680000D01*
X123560000Y-137720000D02*
X124120000Y-138280000D01*
X144900000Y-129840000D02*
X156840000Y-129840000D01*
X141680000Y-135150000D02*
X152880000Y-135150000D01*
X152820000Y-132600000D02*
X153030000Y-132390000D01*
X140380000Y-140150000D02*
X140380000Y-135260000D01*
X152880000Y-135150000D02*
X153110000Y-134920000D01*
X153030000Y-132390000D02*
X156850000Y-132390000D01*
X125920000Y-138280000D02*
X126560000Y-137640000D01*
X156850000Y-132390000D02*
X159445000Y-134985000D01*
X126560000Y-137640000D02*
X137044500Y-137640000D01*
X156840000Y-134920000D02*
X158810000Y-136890000D01*
X137044500Y-137640000D02*
X138348000Y-138943500D01*
X143040000Y-132600000D02*
X152820000Y-132600000D01*
X122060000Y-137720000D02*
X123560000Y-137720000D01*
X121830000Y-137950000D02*
X122060000Y-137720000D01*
X117720000Y-137950000D02*
X121830000Y-137950000D01*
X156830000Y-137450000D02*
X147060000Y-137450000D01*
X141015000Y-138245000D02*
X141015000Y-135815000D01*
X140380000Y-135260000D02*
X143040000Y-132600000D01*
X142990000Y-137680000D02*
X141650000Y-136340000D01*
X158175000Y-138795000D02*
X156830000Y-137450000D01*
X139745000Y-134995000D02*
X144900000Y-129840000D01*
M02*
