G04 #@! TF.GenerationSoftware,KiCad,Pcbnew,8.0.6-8.0.6-0~ubuntu24.04.1*
G04 #@! TF.CreationDate,2024-11-10T23:48:13-05:00*
G04 #@! TF.ProjectId,array,61727261-792e-46b6-9963-61645f706362,rev?*
G04 #@! TF.SameCoordinates,Original*
G04 #@! TF.FileFunction,Copper,L1,Top*
G04 #@! TF.FilePolarity,Positive*
%FSLAX46Y46*%
G04 Gerber Fmt 4.6, Leading zero omitted, Abs format (unit mm)*
G04 Created by KiCad (PCBNEW 8.0.6-8.0.6-0~ubuntu24.04.1) date 2024-11-10 23:48:13*
%MOMM*%
%LPD*%
G01*
G04 APERTURE LIST*
G04 #@! TA.AperFunction,ComponentPad*
%ADD10C,1.270000*%
G04 #@! TD*
G04 #@! TA.AperFunction,SMDPad,CuDef*
%ADD11R,5.000000X1.500000*%
G04 #@! TD*
G04 #@! TA.AperFunction,SMDPad,CuDef*
%ADD12R,3.505200X1.778000*%
G04 #@! TD*
G04 #@! TA.AperFunction,ComponentPad*
%ADD13C,1.371600*%
G04 #@! TD*
G04 #@! TA.AperFunction,SMDPad,CuDef*
%ADD14R,2.500000X4.000000*%
G04 #@! TD*
G04 #@! TA.AperFunction,ComponentPad*
%ADD15R,1.318000X1.318000*%
G04 #@! TD*
G04 #@! TA.AperFunction,ComponentPad*
%ADD16C,1.318000*%
G04 #@! TD*
G04 #@! TA.AperFunction,ComponentPad*
%ADD17C,1.500000*%
G04 #@! TD*
G04 #@! TA.AperFunction,ComponentPad*
%ADD18R,1.227074X1.227074*%
G04 #@! TD*
G04 #@! TA.AperFunction,ComponentPad*
%ADD19C,1.227074*%
G04 #@! TD*
G04 #@! TA.AperFunction,ComponentPad*
%ADD20C,1.200000*%
G04 #@! TD*
G04 #@! TA.AperFunction,ComponentPad*
%ADD21R,1.295400X1.295400*%
G04 #@! TD*
G04 #@! TA.AperFunction,ComponentPad*
%ADD22C,1.295400*%
G04 #@! TD*
G04 #@! TA.AperFunction,ViaPad*
%ADD23C,0.600000*%
G04 #@! TD*
G04 #@! TA.AperFunction,ViaPad*
%ADD24C,0.800000*%
G04 #@! TD*
G04 #@! TA.AperFunction,ViaPad*
%ADD25C,0.700000*%
G04 #@! TD*
G04 #@! TA.AperFunction,Conductor*
%ADD26C,0.300000*%
G04 #@! TD*
G04 #@! TA.AperFunction,Conductor*
%ADD27C,0.500000*%
G04 #@! TD*
G04 #@! TA.AperFunction,Conductor*
%ADD28C,0.400000*%
G04 #@! TD*
G04 APERTURE END LIST*
D10*
X215760000Y-106135650D03*
X215760000Y-104135650D03*
D11*
X215630000Y-115300000D03*
X215630000Y-112760000D03*
X215630000Y-110220000D03*
D12*
X210000000Y-114146200D03*
X210000000Y-108913800D03*
D13*
X210320000Y-118820000D03*
X215320000Y-118820000D03*
D14*
X197980000Y-101590000D03*
X203980000Y-101590000D03*
D15*
X156430000Y-122440000D03*
D16*
X153890000Y-122440000D03*
D15*
X204050000Y-127870000D03*
D16*
X206590000Y-127870000D03*
D17*
X119350000Y-149340000D03*
X119350000Y-146800000D03*
X119350000Y-144260000D03*
X119350000Y-141720000D03*
X119350000Y-139180000D03*
X119350000Y-136640000D03*
X119350000Y-134100000D03*
X119350000Y-131560000D03*
X119350000Y-129020000D03*
X119350000Y-126480000D03*
X119350000Y-123940000D03*
X119350000Y-121400000D03*
X119350000Y-118860000D03*
X119350000Y-116320000D03*
X119350000Y-113780000D03*
X119350000Y-111240000D03*
X119350000Y-108700000D03*
X119350000Y-106160000D03*
X119350000Y-103620000D03*
X119350000Y-101080000D03*
D15*
X156440000Y-147600000D03*
D16*
X153900000Y-147600000D03*
D15*
X143450000Y-127960000D03*
D16*
X145990000Y-127960000D03*
D15*
X195270000Y-101270000D03*
D16*
X192730000Y-101270000D03*
D17*
X85940000Y-101020000D03*
X85940000Y-103560000D03*
X85940000Y-106100000D03*
X85940000Y-108640000D03*
X85940000Y-111180000D03*
X85940000Y-113720000D03*
X85940000Y-116260000D03*
X85940000Y-118800000D03*
X85940000Y-121340000D03*
X85940000Y-123880000D03*
X85940000Y-126420000D03*
X85940000Y-128960000D03*
X85940000Y-131500000D03*
X85940000Y-134040000D03*
X85940000Y-136580000D03*
X85940000Y-139120000D03*
X85940000Y-141660000D03*
X85940000Y-144200000D03*
X85940000Y-146740000D03*
X85940000Y-149280000D03*
X88480000Y-149280000D03*
X88480000Y-146740000D03*
X88480000Y-144200000D03*
X88480000Y-141660000D03*
X88480000Y-139120000D03*
X88480000Y-136580000D03*
X88480000Y-134040000D03*
X88480000Y-131500000D03*
X88480000Y-128960000D03*
X88480000Y-126420000D03*
X88480000Y-123880000D03*
X88480000Y-121340000D03*
X88480000Y-118800000D03*
X88480000Y-116260000D03*
X88480000Y-113720000D03*
X88480000Y-111180000D03*
X88480000Y-108640000D03*
X88480000Y-106100000D03*
X88480000Y-103560000D03*
X88480000Y-101020000D03*
X180250000Y-101080000D03*
X180250000Y-103620000D03*
X180250000Y-106160000D03*
X180250000Y-108700000D03*
X180250000Y-111240000D03*
X180250000Y-113780000D03*
X180250000Y-116320000D03*
X180250000Y-118860000D03*
X180250000Y-121400000D03*
X180250000Y-123940000D03*
X180250000Y-126480000D03*
X180250000Y-129020000D03*
X180250000Y-131560000D03*
X180250000Y-134100000D03*
X180250000Y-136640000D03*
X180250000Y-139180000D03*
X180250000Y-141720000D03*
X180250000Y-144260000D03*
X180250000Y-146800000D03*
X180250000Y-149340000D03*
D15*
X143400000Y-103730000D03*
D16*
X145940000Y-103730000D03*
D15*
X95530000Y-122440000D03*
D16*
X92990000Y-122440000D03*
D15*
X95540000Y-147600000D03*
D16*
X93000000Y-147600000D03*
D18*
X190850000Y-149120000D03*
D19*
X190850000Y-146580000D03*
X190850000Y-144040000D03*
X190850000Y-141500000D03*
X190850000Y-138960000D03*
X190850000Y-136420000D03*
X190850000Y-133880000D03*
X190850000Y-131340000D03*
X190850000Y-128800000D03*
X183230000Y-128800000D03*
X183230000Y-131340000D03*
X183230000Y-133880000D03*
X183230000Y-136420000D03*
X183230000Y-138960000D03*
X183230000Y-141500000D03*
X183230000Y-144040000D03*
X183230000Y-146580000D03*
X183230000Y-149120000D03*
D20*
X134284000Y-103955000D03*
X134284000Y-106495000D03*
X134284000Y-109035000D03*
X134284000Y-111575000D03*
X134284000Y-114115000D03*
X134284000Y-116655000D03*
X134284000Y-119195000D03*
X134284000Y-121735000D03*
X134284000Y-124275000D03*
X194914000Y-128800000D03*
X194914000Y-131340000D03*
X194914000Y-133880000D03*
X194914000Y-136420000D03*
X194914000Y-138960000D03*
X194914000Y-141500000D03*
X194914000Y-144040000D03*
X194914000Y-146580000D03*
X194914000Y-149120000D03*
X165541000Y-121650000D03*
X165541000Y-119110000D03*
X165541000Y-116570000D03*
X165541000Y-114030000D03*
X165541000Y-111490000D03*
X165541000Y-108950000D03*
X165541000Y-106410000D03*
X165541000Y-103870000D03*
X165541000Y-101330000D03*
D21*
X206598000Y-124418500D03*
D22*
X206598000Y-121878500D03*
X206598000Y-119338500D03*
X206598000Y-116798500D03*
X206598000Y-114258500D03*
X206598000Y-111718500D03*
X206598000Y-109178500D03*
X206598000Y-106638500D03*
X198978000Y-106638500D03*
X198978000Y-109178500D03*
X198978000Y-111718500D03*
X198978000Y-114258500D03*
X198978000Y-116798500D03*
X198978000Y-119338500D03*
X198978000Y-121878500D03*
X198978000Y-124418500D03*
D18*
X190850000Y-124355000D03*
D19*
X190850000Y-121815000D03*
X190850000Y-119275000D03*
X190850000Y-116735000D03*
X190850000Y-114195000D03*
X190850000Y-111655000D03*
X190850000Y-109115000D03*
X190850000Y-106575000D03*
X190850000Y-104035000D03*
X183230000Y-104035000D03*
X183230000Y-106575000D03*
X183230000Y-109115000D03*
X183230000Y-111655000D03*
X183230000Y-114195000D03*
X183230000Y-116735000D03*
X183230000Y-119275000D03*
X183230000Y-121815000D03*
X183230000Y-124355000D03*
D21*
X153857000Y-126031500D03*
D22*
X153857000Y-128571500D03*
X153857000Y-131111500D03*
X153857000Y-133651500D03*
X153857000Y-136191500D03*
X153857000Y-138731500D03*
X153857000Y-141271500D03*
X153857000Y-143811500D03*
X161477000Y-143811500D03*
X161477000Y-141271500D03*
X161477000Y-138731500D03*
X161477000Y-136191500D03*
X161477000Y-133651500D03*
X161477000Y-131111500D03*
X161477000Y-128571500D03*
X161477000Y-126031500D03*
D18*
X169605000Y-126095000D03*
D19*
X169605000Y-128635000D03*
X169605000Y-131175000D03*
X169605000Y-133715000D03*
X169605000Y-136255000D03*
X169605000Y-138795000D03*
X169605000Y-141335000D03*
X169605000Y-143875000D03*
X169605000Y-146415000D03*
X177225000Y-146415000D03*
X177225000Y-143875000D03*
X177225000Y-141335000D03*
X177225000Y-138795000D03*
X177225000Y-136255000D03*
X177225000Y-133715000D03*
X177225000Y-131175000D03*
X177225000Y-128635000D03*
X177225000Y-126095000D03*
D20*
X194914000Y-104035000D03*
X194914000Y-106575000D03*
X194914000Y-109115000D03*
X194914000Y-111655000D03*
X194914000Y-114195000D03*
X194914000Y-116735000D03*
X194914000Y-119275000D03*
X194914000Y-121815000D03*
X194914000Y-124355000D03*
D21*
X206598000Y-149183500D03*
D22*
X206598000Y-146643500D03*
X206598000Y-144103500D03*
X206598000Y-141563500D03*
X206598000Y-139023500D03*
X206598000Y-136483500D03*
X206598000Y-133943500D03*
X206598000Y-131403500D03*
X198978000Y-131403500D03*
X198978000Y-133943500D03*
X198978000Y-136483500D03*
X198978000Y-139023500D03*
X198978000Y-141563500D03*
X198978000Y-144103500D03*
X198978000Y-146643500D03*
X198978000Y-149183500D03*
D18*
X130220000Y-124275000D03*
D19*
X130220000Y-121735000D03*
X130220000Y-119195000D03*
X130220000Y-116655000D03*
X130220000Y-114115000D03*
X130220000Y-111575000D03*
X130220000Y-109035000D03*
X130220000Y-106495000D03*
X130220000Y-103955000D03*
X122600000Y-103955000D03*
X122600000Y-106495000D03*
X122600000Y-109035000D03*
X122600000Y-111575000D03*
X122600000Y-114115000D03*
X122600000Y-116655000D03*
X122600000Y-119195000D03*
X122600000Y-121735000D03*
X122600000Y-124275000D03*
D21*
X145968000Y-149103500D03*
D22*
X145968000Y-146563500D03*
X145968000Y-144023500D03*
X145968000Y-141483500D03*
X145968000Y-138943500D03*
X145968000Y-136403500D03*
X145968000Y-133863500D03*
X145968000Y-131323500D03*
X138348000Y-131323500D03*
X138348000Y-133863500D03*
X138348000Y-136403500D03*
X138348000Y-138943500D03*
X138348000Y-141483500D03*
X138348000Y-144023500D03*
X138348000Y-146563500D03*
X138348000Y-149103500D03*
D21*
X145968000Y-124338500D03*
D22*
X145968000Y-121798500D03*
X145968000Y-119258500D03*
X145968000Y-116718500D03*
X145968000Y-114178500D03*
X145968000Y-111638500D03*
X145968000Y-109098500D03*
X145968000Y-106558500D03*
X138348000Y-106558500D03*
X138348000Y-109098500D03*
X138348000Y-111638500D03*
X138348000Y-114178500D03*
X138348000Y-116718500D03*
X138348000Y-119258500D03*
X138348000Y-121798500D03*
X138348000Y-124338500D03*
D20*
X134284000Y-128720000D03*
X134284000Y-131260000D03*
X134284000Y-133800000D03*
X134284000Y-136340000D03*
X134284000Y-138880000D03*
X134284000Y-141420000D03*
X134284000Y-143960000D03*
X134284000Y-146500000D03*
X134284000Y-149040000D03*
X165541000Y-146415000D03*
X165541000Y-143875000D03*
X165541000Y-141335000D03*
X165541000Y-138795000D03*
X165541000Y-136255000D03*
X165541000Y-133715000D03*
X165541000Y-131175000D03*
X165541000Y-128635000D03*
X165541000Y-126095000D03*
D18*
X130220000Y-149040000D03*
D19*
X130220000Y-146500000D03*
X130220000Y-143960000D03*
X130220000Y-141420000D03*
X130220000Y-138880000D03*
X130220000Y-136340000D03*
X130220000Y-133800000D03*
X130220000Y-131260000D03*
X130220000Y-128720000D03*
X122600000Y-128720000D03*
X122600000Y-131260000D03*
X122600000Y-133800000D03*
X122600000Y-136340000D03*
X122600000Y-138880000D03*
X122600000Y-141420000D03*
X122600000Y-143960000D03*
X122600000Y-146500000D03*
X122600000Y-149040000D03*
D21*
X92957000Y-126031500D03*
D22*
X92957000Y-128571500D03*
X92957000Y-131111500D03*
X92957000Y-133651500D03*
X92957000Y-136191500D03*
X92957000Y-138731500D03*
X92957000Y-141271500D03*
X92957000Y-143811500D03*
X100577000Y-143811500D03*
X100577000Y-141271500D03*
X100577000Y-138731500D03*
X100577000Y-136191500D03*
X100577000Y-133651500D03*
X100577000Y-131111500D03*
X100577000Y-128571500D03*
X100577000Y-126031500D03*
D20*
X104641000Y-121650000D03*
X104641000Y-119110000D03*
X104641000Y-116570000D03*
X104641000Y-114030000D03*
X104641000Y-111490000D03*
X104641000Y-108950000D03*
X104641000Y-106410000D03*
X104641000Y-103870000D03*
X104641000Y-101330000D03*
D18*
X108705000Y-101330000D03*
D19*
X108705000Y-103870000D03*
X108705000Y-106410000D03*
X108705000Y-108950000D03*
X108705000Y-111490000D03*
X108705000Y-114030000D03*
X108705000Y-116570000D03*
X108705000Y-119110000D03*
X108705000Y-121650000D03*
X116325000Y-121650000D03*
X116325000Y-119110000D03*
X116325000Y-116570000D03*
X116325000Y-114030000D03*
X116325000Y-111490000D03*
X116325000Y-108950000D03*
X116325000Y-106410000D03*
X116325000Y-103870000D03*
X116325000Y-101330000D03*
D18*
X108705000Y-126095000D03*
D19*
X108705000Y-128635000D03*
X108705000Y-131175000D03*
X108705000Y-133715000D03*
X108705000Y-136255000D03*
X108705000Y-138795000D03*
X108705000Y-141335000D03*
X108705000Y-143875000D03*
X108705000Y-146415000D03*
X116325000Y-146415000D03*
X116325000Y-143875000D03*
X116325000Y-141335000D03*
X116325000Y-138795000D03*
X116325000Y-136255000D03*
X116325000Y-133715000D03*
X116325000Y-131175000D03*
X116325000Y-128635000D03*
X116325000Y-126095000D03*
D21*
X92957000Y-101266500D03*
D22*
X92957000Y-103806500D03*
X92957000Y-106346500D03*
X92957000Y-108886500D03*
X92957000Y-111426500D03*
X92957000Y-113966500D03*
X92957000Y-116506500D03*
X92957000Y-119046500D03*
X100577000Y-119046500D03*
X100577000Y-116506500D03*
X100577000Y-113966500D03*
X100577000Y-111426500D03*
X100577000Y-108886500D03*
X100577000Y-106346500D03*
X100577000Y-103806500D03*
X100577000Y-101266500D03*
D20*
X104641000Y-146415000D03*
X104641000Y-143875000D03*
X104641000Y-141335000D03*
X104641000Y-138795000D03*
X104641000Y-136255000D03*
X104641000Y-133715000D03*
X104641000Y-131175000D03*
X104641000Y-128635000D03*
X104641000Y-126095000D03*
D21*
X153857000Y-101266500D03*
D22*
X153857000Y-103806500D03*
X153857000Y-106346500D03*
X153857000Y-108886500D03*
X153857000Y-111426500D03*
X153857000Y-113966500D03*
X153857000Y-116506500D03*
X153857000Y-119046500D03*
X161477000Y-119046500D03*
X161477000Y-116506500D03*
X161477000Y-113966500D03*
X161477000Y-111426500D03*
X161477000Y-108886500D03*
X161477000Y-106346500D03*
X161477000Y-103806500D03*
X161477000Y-101266500D03*
D18*
X169605000Y-101330000D03*
D19*
X169605000Y-103870000D03*
X169605000Y-106410000D03*
X169605000Y-108950000D03*
X169605000Y-111490000D03*
X169605000Y-114030000D03*
X169605000Y-116570000D03*
X169605000Y-119110000D03*
X169605000Y-121650000D03*
X177225000Y-121650000D03*
X177225000Y-119110000D03*
X177225000Y-116570000D03*
X177225000Y-114030000D03*
X177225000Y-111490000D03*
X177225000Y-108950000D03*
X177225000Y-106410000D03*
X177225000Y-103870000D03*
X177225000Y-101330000D03*
D23*
X212470000Y-112750000D03*
D24*
X173415000Y-111490000D03*
X128315000Y-106495000D03*
X200375000Y-142135000D03*
X188000000Y-107550000D03*
X141015000Y-113480000D03*
X171510000Y-119110000D03*
X127680000Y-109035000D03*
X175955000Y-101330000D03*
X187190000Y-109330000D03*
X125140000Y-119195000D03*
X188310000Y-133880000D03*
X188945000Y-131340000D03*
X140380000Y-140150000D03*
X123870000Y-124275000D03*
X125775000Y-116655000D03*
X141650000Y-136340000D03*
X175320000Y-103870000D03*
X186405000Y-116735000D03*
X159445000Y-110220000D03*
X185135000Y-121815000D03*
X172145000Y-141335000D03*
X201010000Y-140230000D03*
X159445000Y-134985000D03*
X187040000Y-114195000D03*
X127045000Y-136340000D03*
X158810000Y-112125000D03*
X127680000Y-133800000D03*
X184500000Y-124355000D03*
X185770000Y-144040000D03*
X139745000Y-117290000D03*
X200375000Y-117370000D03*
X160080000Y-133080000D03*
X158810000Y-136890000D03*
X201010000Y-115465000D03*
X124505000Y-121735000D03*
X172780000Y-114030000D03*
X201060000Y-110850000D03*
X200790000Y-113030000D03*
X185770000Y-119275000D03*
X174685000Y-131175000D03*
X128315000Y-129510000D03*
X124505000Y-146500000D03*
X158175000Y-138795000D03*
D25*
X126410000Y-117860000D03*
D24*
X174050000Y-133715000D03*
X125140000Y-143960000D03*
X160080000Y-108315000D03*
X141650000Y-111575000D03*
D25*
X125140000Y-129960000D03*
D24*
X186405000Y-141500000D03*
X172145000Y-116570000D03*
X126410000Y-114115000D03*
X174050000Y-108950000D03*
X141015000Y-138245000D03*
X202280000Y-136420000D03*
X171510000Y-143875000D03*
X125775000Y-141420000D03*
X175955000Y-126095000D03*
D25*
X123870000Y-140080000D03*
D24*
X127045000Y-111575000D03*
X139745000Y-142055000D03*
X187000000Y-111840000D03*
X140380000Y-115385000D03*
X187040000Y-138960000D03*
X172780000Y-138795000D03*
X201645000Y-138325000D03*
X175320000Y-128635000D03*
X123870000Y-149040000D03*
D25*
X125775000Y-127330000D03*
D24*
X187675000Y-136420000D03*
D25*
X124505000Y-137510000D03*
D24*
X174685000Y-106410000D03*
X184500000Y-149120000D03*
X173415000Y-136255000D03*
X158175000Y-114030000D03*
X185135000Y-146580000D03*
X126410000Y-138880000D03*
X98545000Y-110220000D03*
X98545000Y-134985000D03*
X97910000Y-112125000D03*
X99180000Y-133080000D03*
X97910000Y-136890000D03*
X97275000Y-138795000D03*
X99180000Y-108315000D03*
X97275000Y-114030000D03*
D26*
X123870000Y-140080000D02*
X121590000Y-140080000D01*
X121590000Y-140080000D02*
X120690000Y-139180000D01*
X120690000Y-139180000D02*
X119350000Y-139180000D01*
D27*
X210000000Y-114146200D02*
X210000000Y-114602000D01*
X215550000Y-115220000D02*
X215630000Y-115300000D01*
X210000000Y-114602000D02*
X210618000Y-115220000D01*
X210618000Y-115220000D02*
X215550000Y-115220000D01*
X181560000Y-147900000D02*
X181340000Y-148120000D01*
X185950000Y-147900000D02*
X181560000Y-147900000D01*
X195640000Y-145300000D02*
X188550000Y-145300000D01*
X195740000Y-145400000D02*
X195640000Y-145300000D01*
X208260000Y-144480000D02*
X207340000Y-145400000D01*
X208260000Y-120538000D02*
X208260000Y-144480000D01*
X209978000Y-118820000D02*
X208260000Y-120538000D01*
X188550000Y-145300000D02*
X185950000Y-147900000D01*
X210320000Y-118820000D02*
X209978000Y-118820000D01*
X181340000Y-148120000D02*
X171310000Y-148120000D01*
X210448000Y-118692000D02*
X210320000Y-118820000D01*
X210448000Y-114594200D02*
X210448000Y-118692000D01*
X207340000Y-145400000D02*
X195740000Y-145400000D01*
X210000000Y-114146200D02*
X210448000Y-114594200D01*
X171310000Y-148120000D02*
X169605000Y-146415000D01*
X212480000Y-107440000D02*
X212480000Y-111580000D01*
X212480000Y-111580000D02*
X212480000Y-112740000D01*
X208640000Y-111550000D02*
X212450000Y-111550000D01*
X212450000Y-111550000D02*
X212480000Y-111580000D01*
X212480000Y-112740000D02*
X212470000Y-112750000D01*
X206630000Y-101590000D02*
X209195000Y-104155000D01*
X209195000Y-104155000D02*
X212480000Y-107440000D01*
D28*
X215760000Y-104135650D02*
X209214350Y-104135650D01*
X209214350Y-104135650D02*
X209195000Y-104155000D01*
X215760000Y-106135650D02*
X215760000Y-110090000D01*
X215760000Y-110090000D02*
X215630000Y-110220000D01*
D27*
X180250000Y-129020000D02*
X182860000Y-126410000D01*
X197980000Y-101590000D02*
X197980000Y-103510000D01*
X197980000Y-103510000D02*
X198660000Y-104190000D01*
X198660000Y-104190000D02*
X202440000Y-104190000D01*
X202440000Y-104190000D02*
X203450000Y-105200000D01*
X203450000Y-105200000D02*
X208320000Y-105200000D01*
X208320000Y-105200000D02*
X210000000Y-106880000D01*
X210000000Y-106880000D02*
X210000000Y-108913800D01*
X169605000Y-146415000D02*
X168010000Y-148010000D01*
X168010000Y-148010000D02*
X158830000Y-148010000D01*
X158830000Y-148010000D02*
X157540000Y-149300000D01*
X157540000Y-149300000D02*
X149090000Y-149300000D01*
X149090000Y-149300000D02*
X147620000Y-147830000D01*
X147620000Y-147830000D02*
X121100000Y-147830000D01*
X121100000Y-147830000D02*
X120850000Y-148080000D01*
X120850000Y-148080000D02*
X110370000Y-148080000D01*
X110370000Y-148080000D02*
X108705000Y-146415000D01*
X183230000Y-104035000D02*
X182395000Y-104870000D01*
X149910000Y-105080000D02*
X146820000Y-101990000D01*
X182395000Y-104870000D02*
X178370000Y-104870000D01*
X178370000Y-104870000D02*
X178090000Y-105150000D01*
X146820000Y-101990000D02*
X132185000Y-101990000D01*
X178090000Y-105150000D02*
X162420000Y-105150000D01*
X132185000Y-101990000D02*
X130220000Y-103955000D01*
X162420000Y-105150000D02*
X162350000Y-105080000D01*
X162350000Y-105080000D02*
X149910000Y-105080000D01*
D26*
X201060000Y-110850000D02*
X199325000Y-109115000D01*
X199325000Y-109115000D02*
X199041500Y-109115000D01*
X199041500Y-109115000D02*
X198978000Y-109178500D01*
X200790000Y-113030000D02*
X199415000Y-111655000D01*
X199415000Y-111655000D02*
X199041500Y-111655000D01*
X199041500Y-111655000D02*
X198978000Y-111718500D01*
X206598000Y-133943500D02*
X203359500Y-133943500D01*
X203359500Y-133943500D02*
X199596000Y-130180000D01*
X199596000Y-130180000D02*
X197580000Y-130180000D01*
X197580000Y-130180000D02*
X196420000Y-131340000D01*
X196420000Y-131340000D02*
X194914000Y-131340000D01*
X183230000Y-111655000D02*
X186815000Y-111655000D01*
X186815000Y-111655000D02*
X187000000Y-111840000D01*
X187190000Y-109330000D02*
X186975000Y-109115000D01*
X186975000Y-109115000D02*
X183230000Y-109115000D01*
X183230000Y-106575000D02*
X187025000Y-106575000D01*
X187025000Y-106575000D02*
X188000000Y-107550000D01*
D27*
X193305000Y-104035000D02*
X191630000Y-102360000D01*
X191630000Y-102360000D02*
X191260000Y-101990000D01*
D28*
X192730000Y-101270000D02*
X191640000Y-102360000D01*
X191640000Y-102360000D02*
X191630000Y-102360000D01*
D27*
X194914000Y-104035000D02*
X193305000Y-104035000D01*
X191260000Y-101990000D02*
X185275000Y-101990000D01*
X185275000Y-101990000D02*
X183230000Y-104035000D01*
D28*
X100577000Y-126031500D02*
X99121500Y-126031500D01*
X99121500Y-126031500D02*
X95530000Y-122440000D01*
D27*
X145968000Y-131323500D02*
X145968000Y-127982000D01*
X145968000Y-127982000D02*
X145990000Y-127960000D01*
X92957000Y-143811500D02*
X90805500Y-141660000D01*
X90805500Y-141660000D02*
X88480000Y-141660000D01*
X92957000Y-119046500D02*
X92957000Y-122407000D01*
X92957000Y-122407000D02*
X92990000Y-122440000D01*
X104641000Y-121650000D02*
X99170000Y-121650000D01*
X99170000Y-121650000D02*
X96566500Y-119046500D01*
X96566500Y-119046500D02*
X92957000Y-119046500D01*
X93000000Y-147600000D02*
X93000000Y-143854500D01*
X93000000Y-143854500D02*
X92957000Y-143811500D01*
X104641000Y-146415000D02*
X99255000Y-146415000D01*
X99255000Y-146415000D02*
X96651500Y-143811500D01*
X96651500Y-143811500D02*
X92957000Y-143811500D01*
X116325000Y-146415000D02*
X115050000Y-145140000D01*
X104641000Y-146415000D02*
X106085000Y-146415000D01*
X115050000Y-145140000D02*
X112800000Y-142890000D01*
X106085000Y-146415000D02*
X107360000Y-145140000D01*
X107360000Y-145140000D02*
X115050000Y-145140000D01*
X108705000Y-121650000D02*
X104641000Y-121650000D01*
D26*
X122600000Y-131260000D02*
X126565000Y-131260000D01*
X126565000Y-131260000D02*
X128315000Y-129510000D01*
D27*
X112800000Y-142890000D02*
X112800000Y-125745000D01*
X112800000Y-125745000D02*
X108705000Y-121650000D01*
X122600000Y-103955000D02*
X121005000Y-102360000D01*
X121005000Y-102360000D02*
X117930000Y-102360000D01*
X117930000Y-102360000D02*
X117690000Y-102600000D01*
X117690000Y-102600000D02*
X115600000Y-102600000D01*
X115600000Y-102600000D02*
X110780000Y-107420000D01*
X110780000Y-119620000D02*
X110735000Y-119620000D01*
X110780000Y-107420000D02*
X110780000Y-119620000D01*
X110735000Y-119620000D02*
X108705000Y-121650000D01*
X145968000Y-106558500D02*
X141778500Y-106558500D01*
X141778500Y-106558500D02*
X139175000Y-103955000D01*
X139175000Y-103955000D02*
X134284000Y-103955000D01*
X122600000Y-103955000D02*
X123895000Y-105250000D01*
X123895000Y-105250000D02*
X132989000Y-105250000D01*
X132989000Y-105250000D02*
X134284000Y-103955000D01*
X134284000Y-128720000D02*
X130220000Y-128720000D01*
X145968000Y-131323500D02*
X142003500Y-131323500D01*
X142003500Y-131323500D02*
X139400000Y-128720000D01*
X139400000Y-128720000D02*
X134284000Y-128720000D01*
X152150000Y-142104500D02*
X152150000Y-131400000D01*
X152150000Y-131400000D02*
X152150000Y-124170000D01*
X145968000Y-131323500D02*
X152073500Y-131323500D01*
X152073500Y-131323500D02*
X152150000Y-131400000D01*
X153857000Y-143811500D02*
X152150000Y-142104500D01*
X152150000Y-124170000D02*
X152160000Y-124170000D01*
X152160000Y-124170000D02*
X153890000Y-122440000D01*
X153857000Y-143811500D02*
X153857000Y-147557000D01*
X153857000Y-147557000D02*
X153900000Y-147600000D01*
X153857000Y-119046500D02*
X153857000Y-122407000D01*
X153857000Y-122407000D02*
X153890000Y-122440000D01*
X145968000Y-106558500D02*
X151100000Y-111690500D01*
X151100000Y-111690500D02*
X151100000Y-116289500D01*
X151100000Y-116289500D02*
X153857000Y-119046500D01*
X179260000Y-120410000D02*
X171010000Y-120410000D01*
X171010000Y-120410000D02*
X166781000Y-120410000D01*
X169605000Y-121650000D02*
X170845000Y-120410000D01*
X170845000Y-120410000D02*
X171010000Y-120410000D01*
X153857000Y-119046500D02*
X158166500Y-119046500D01*
X158166500Y-119046500D02*
X160770000Y-121650000D01*
X160770000Y-121650000D02*
X165541000Y-121650000D01*
X180250000Y-121400000D02*
X179260000Y-120410000D01*
X166781000Y-120410000D02*
X165541000Y-121650000D01*
X165541000Y-146415000D02*
X158905000Y-146415000D01*
X158905000Y-146415000D02*
X156301500Y-143811500D01*
X156301500Y-143811500D02*
X153857000Y-143811500D01*
X177225000Y-146415000D02*
X178590000Y-145050000D01*
X178590000Y-145050000D02*
X178590000Y-130680000D01*
X178590000Y-130680000D02*
X180250000Y-129020000D01*
X185570000Y-126410000D02*
X182860000Y-126410000D01*
X200270000Y-126410000D02*
X194960000Y-126410000D01*
X194914000Y-128800000D02*
X194914000Y-126456000D01*
X194914000Y-126456000D02*
X194960000Y-126410000D01*
X206590000Y-127870000D02*
X206590000Y-131395500D01*
X206590000Y-131395500D02*
X206598000Y-131403500D01*
X203540000Y-123140000D02*
X202725000Y-123955000D01*
X202725000Y-123955000D02*
X200270000Y-126410000D01*
X206590000Y-127870000D02*
X202725000Y-124005000D01*
X202725000Y-124005000D02*
X202725000Y-123955000D01*
X180250000Y-121400000D02*
X181830000Y-122980000D01*
X181830000Y-122980000D02*
X181830000Y-125380000D01*
X181830000Y-125380000D02*
X182860000Y-126410000D01*
X208640000Y-111550000D02*
X207210000Y-112980000D01*
X207210000Y-112980000D02*
X205830000Y-112980000D01*
X205830000Y-112980000D02*
X203540000Y-115270000D01*
X203540000Y-115270000D02*
X203540000Y-123140000D01*
X205850000Y-110450000D02*
X204310000Y-108910000D01*
X204310000Y-108910000D02*
X200470000Y-105070000D01*
X206598000Y-106638500D02*
X204326500Y-108910000D01*
X204326500Y-108910000D02*
X204310000Y-108910000D01*
X208640000Y-111550000D02*
X207540000Y-110450000D01*
X207540000Y-110450000D02*
X205850000Y-110450000D01*
X200470000Y-105070000D02*
X195949000Y-105070000D01*
X195949000Y-105070000D02*
X194914000Y-104035000D01*
D26*
X116325000Y-114030000D02*
X114070000Y-116285000D01*
X114070000Y-116285000D02*
X114070000Y-141150000D01*
X115500000Y-142580000D02*
X118490000Y-142580000D01*
X114070000Y-141150000D02*
X115500000Y-142580000D01*
X118490000Y-142580000D02*
X119350000Y-141720000D01*
D28*
X145940000Y-103730000D02*
X145940000Y-106530500D01*
X145940000Y-106530500D02*
X145968000Y-106558500D01*
D27*
X88480000Y-103560000D02*
X88480000Y-101020000D01*
X203980000Y-101590000D02*
X206630000Y-101590000D01*
X212530000Y-112760000D02*
X215630000Y-112760000D01*
D26*
X97275000Y-114030000D02*
X95925000Y-112680000D01*
X95925000Y-112680000D02*
X92510000Y-112680000D01*
X92510000Y-112680000D02*
X91670000Y-113520000D01*
X91670000Y-113520000D02*
X91670000Y-118470000D01*
X91670000Y-118470000D02*
X90940000Y-119200000D01*
X90340000Y-121270000D02*
X90340000Y-127100000D01*
X90940000Y-119200000D02*
X90940000Y-120670000D01*
X90940000Y-120670000D02*
X90340000Y-121270000D01*
X90340000Y-127100000D02*
X88480000Y-128960000D01*
X97910000Y-112125000D02*
X95945000Y-110160000D01*
X95945000Y-110160000D02*
X92180000Y-110160000D01*
X92180000Y-110160000D02*
X91700000Y-110640000D01*
X91700000Y-110640000D02*
X91700000Y-112520000D01*
X91700000Y-112520000D02*
X91070000Y-113150000D01*
X91070000Y-113150000D02*
X91070000Y-118250000D01*
X89780000Y-121010000D02*
X89780000Y-125120000D01*
X91070000Y-118250000D02*
X90330000Y-118990000D01*
X90330000Y-118990000D02*
X90330000Y-120460000D01*
X90330000Y-120460000D02*
X89780000Y-121010000D01*
X89780000Y-125120000D02*
X88480000Y-126420000D01*
X98545000Y-110220000D02*
X95935000Y-107610000D01*
X95935000Y-107610000D02*
X92140000Y-107610000D01*
X92140000Y-107610000D02*
X91140000Y-108610000D01*
X91140000Y-108610000D02*
X91140000Y-112210000D01*
X91140000Y-112210000D02*
X90450000Y-112900000D01*
X90450000Y-112900000D02*
X90450000Y-118040000D01*
X90450000Y-118040000D02*
X89760000Y-118730000D01*
X89760000Y-118730000D02*
X89760000Y-120060000D01*
X89760000Y-120060000D02*
X88480000Y-121340000D01*
X99180000Y-108315000D02*
X95935000Y-105070000D01*
X95935000Y-105070000D02*
X92080000Y-105070000D01*
X90530000Y-111980000D02*
X89830000Y-112680000D01*
X92080000Y-105070000D02*
X90530000Y-106620000D01*
X90530000Y-106620000D02*
X90530000Y-111980000D01*
X89830000Y-112680000D02*
X89830000Y-117450000D01*
X89830000Y-117450000D02*
X88480000Y-118800000D01*
X100577000Y-106346500D02*
X100016500Y-106346500D01*
X100016500Y-106346500D02*
X96190000Y-102520000D01*
X89960000Y-111680000D02*
X88480000Y-113160000D01*
X96190000Y-102520000D02*
X91900000Y-102520000D01*
X91900000Y-102520000D02*
X89960000Y-104460000D01*
X89960000Y-104460000D02*
X89960000Y-111680000D01*
X88480000Y-113160000D02*
X88480000Y-113720000D01*
X119350000Y-146800000D02*
X121040000Y-145110000D01*
X121040000Y-145110000D02*
X121040000Y-141490000D01*
X121040000Y-141490000D02*
X120010000Y-140460000D01*
X120010000Y-140460000D02*
X117210000Y-140460000D01*
X117210000Y-140460000D02*
X116810000Y-140060000D01*
X116810000Y-140060000D02*
X115810000Y-140060000D01*
X115810000Y-140060000D02*
X115130000Y-139380000D01*
X115130000Y-139380000D02*
X115130000Y-117765000D01*
X115130000Y-117765000D02*
X116325000Y-116570000D01*
X116325000Y-111490000D02*
X117460000Y-112625000D01*
X117460000Y-112625000D02*
X117460000Y-129670000D01*
X117460000Y-129670000D02*
X119350000Y-131560000D01*
X116325000Y-108950000D02*
X117990000Y-110615000D01*
X117990000Y-110615000D02*
X117990000Y-120040000D01*
X117990000Y-120040000D02*
X119350000Y-121400000D01*
X116325000Y-106410000D02*
X117990000Y-108075000D01*
X117990000Y-108075000D02*
X117990000Y-109880000D01*
X117990000Y-109880000D02*
X119350000Y-111240000D01*
X116325000Y-103870000D02*
X118615000Y-106160000D01*
X118615000Y-106160000D02*
X119350000Y-106160000D01*
X116325000Y-101330000D02*
X119100000Y-101330000D01*
X119100000Y-101330000D02*
X119350000Y-101080000D01*
X160715000Y-138795000D02*
X161413500Y-138795000D01*
X164271000Y-115300000D02*
X165541000Y-114030000D01*
X203359500Y-136483500D02*
X199486000Y-132610000D01*
X119350000Y-118860000D02*
X120350000Y-117860000D01*
X142729500Y-144023500D02*
X138856000Y-140150000D01*
X124505000Y-137490000D02*
X120200000Y-137490000D01*
X138411500Y-111575000D02*
X138348000Y-111638500D01*
X194914000Y-119275000D02*
X190850000Y-119275000D01*
X165541000Y-133715000D02*
X169605000Y-133715000D01*
X122600000Y-141420000D02*
X125775000Y-141420000D01*
X203359500Y-131403500D02*
X206598000Y-131403500D01*
X142729500Y-133863500D02*
X138856000Y-129990000D01*
X160715000Y-116570000D02*
X161413500Y-116570000D01*
X177225000Y-111490000D02*
X180000000Y-111490000D01*
X160715000Y-108950000D02*
X161413500Y-108950000D01*
X185770000Y-119275000D02*
X183230000Y-119275000D01*
X134284000Y-133800000D02*
X130220000Y-133800000D01*
X160969000Y-132445000D02*
X164271000Y-132445000D01*
X139745000Y-142055000D02*
X139110000Y-141420000D01*
X125775000Y-127310000D02*
X120180000Y-127310000D01*
X183230000Y-131340000D02*
X188945000Y-131340000D01*
X153857000Y-141271500D02*
X157095500Y-141271500D01*
X139110000Y-109035000D02*
X138411500Y-109035000D01*
X203359500Y-144103500D02*
X199486000Y-140230000D01*
X135554000Y-132530000D02*
X134284000Y-133800000D01*
X138348000Y-144023500D02*
X138538500Y-144023500D01*
X134284000Y-138880000D02*
X130220000Y-138880000D01*
X201010000Y-115465000D02*
X199740000Y-114195000D01*
X194914000Y-109115000D02*
X190850000Y-109115000D01*
X145968000Y-111638500D02*
X142729500Y-111638500D01*
X135554000Y-135070000D02*
X134284000Y-136340000D01*
X206598000Y-144103500D02*
X203359500Y-144103500D01*
X164271000Y-129905000D02*
X165541000Y-128635000D01*
X135554000Y-137610000D02*
X134284000Y-138880000D01*
X185135000Y-146580000D02*
X183230000Y-146580000D01*
X138856000Y-112845000D02*
X135554000Y-112845000D01*
X134284000Y-111575000D02*
X130220000Y-111575000D01*
X165541000Y-128635000D02*
X169605000Y-128635000D01*
X194914000Y-128800000D02*
X200756000Y-128800000D01*
X142729500Y-116718500D02*
X138856000Y-112845000D01*
X160969000Y-112760000D02*
X164271000Y-112760000D01*
X157095500Y-128571500D02*
X160969000Y-132445000D01*
X194914000Y-141500000D02*
X190850000Y-141500000D01*
X157095500Y-111426500D02*
X160969000Y-115300000D01*
X165541000Y-141335000D02*
X169605000Y-141335000D01*
X194914000Y-121815000D02*
X190850000Y-121815000D01*
X120200000Y-137490000D02*
X119350000Y-136640000D01*
X200375000Y-117370000D02*
X199740000Y-116735000D01*
X183230000Y-116735000D02*
X186405000Y-116735000D01*
X165541000Y-143875000D02*
X169605000Y-143875000D01*
X153857000Y-128571500D02*
X157095500Y-128571500D01*
X201010000Y-140230000D02*
X199740000Y-138960000D01*
X199041500Y-116735000D02*
X198978000Y-116798500D01*
X139110000Y-111575000D02*
X138411500Y-111575000D01*
X199486000Y-135150000D02*
X196184000Y-135150000D01*
X158175000Y-114030000D02*
X160715000Y-116570000D01*
X165541000Y-131175000D02*
X169605000Y-131175000D01*
X194914000Y-138960000D02*
X190850000Y-138960000D01*
X160969000Y-110220000D02*
X164271000Y-110220000D01*
X177225000Y-116570000D02*
X180000000Y-116570000D01*
X187040000Y-114195000D02*
X183230000Y-114195000D01*
X177225000Y-106410000D02*
X180000000Y-106410000D01*
X160715000Y-111490000D02*
X161413500Y-111490000D01*
X122600000Y-149040000D02*
X123870000Y-149040000D01*
X153857000Y-131111500D02*
X157095500Y-131111500D01*
X183230000Y-149120000D02*
X184500000Y-149120000D01*
X194914000Y-116735000D02*
X190850000Y-116735000D01*
X145968000Y-133863500D02*
X142729500Y-133863500D01*
X139110000Y-138880000D02*
X138411500Y-138880000D01*
X145968000Y-136403500D02*
X142729500Y-136403500D01*
X161413500Y-133715000D02*
X161477000Y-133651500D01*
X164271000Y-140065000D02*
X165541000Y-138795000D01*
X173415000Y-136255000D02*
X177225000Y-136255000D01*
X164271000Y-112760000D02*
X165541000Y-111490000D01*
X139110000Y-136340000D02*
X138411500Y-136340000D01*
X183230000Y-144040000D02*
X180470000Y-144040000D01*
X141650000Y-111575000D02*
X139110000Y-109035000D01*
X145968000Y-144023500D02*
X142729500Y-144023500D01*
X142729500Y-114178500D02*
X138856000Y-110305000D01*
X183230000Y-141500000D02*
X180470000Y-141500000D01*
X196184000Y-140230000D02*
X194914000Y-141500000D01*
X164271000Y-117840000D02*
X165541000Y-116570000D01*
X199486000Y-140230000D02*
X196184000Y-140230000D01*
X153857000Y-111426500D02*
X157095500Y-111426500D01*
X138856000Y-120465000D02*
X135554000Y-120465000D01*
X180470000Y-133880000D02*
X180250000Y-134100000D01*
X199740000Y-114195000D02*
X199041500Y-114195000D01*
X126410000Y-114115000D02*
X122600000Y-114115000D01*
X135554000Y-140150000D02*
X134284000Y-141420000D01*
X160969000Y-142605000D02*
X164271000Y-142605000D01*
X158810000Y-112125000D02*
X160715000Y-114030000D01*
X206598000Y-141563500D02*
X203359500Y-141563500D01*
X199740000Y-133880000D02*
X199041500Y-133880000D01*
X200375000Y-142135000D02*
X199740000Y-141500000D01*
X203359500Y-139023500D02*
X199486000Y-135150000D01*
X164271000Y-120380000D02*
X165541000Y-119110000D01*
X142729500Y-146563500D02*
X138856000Y-142690000D01*
X138856000Y-129990000D02*
X135554000Y-129990000D01*
X160080000Y-108315000D02*
X160715000Y-108950000D01*
X177225000Y-126095000D02*
X175955000Y-126095000D01*
X135554000Y-120465000D02*
X134284000Y-121735000D01*
X153857000Y-106346500D02*
X157095500Y-106346500D01*
X134284000Y-136340000D02*
X130220000Y-136340000D01*
X174685000Y-106410000D02*
X177225000Y-106410000D01*
X125140000Y-129960000D02*
X120290000Y-129960000D01*
X160715000Y-141335000D02*
X161413500Y-141335000D01*
X157095500Y-141271500D02*
X160969000Y-145145000D01*
X153857000Y-133651500D02*
X157095500Y-133651500D01*
X183230000Y-136420000D02*
X187675000Y-136420000D01*
X198978000Y-144103500D02*
X199168500Y-144103500D01*
X196184000Y-132610000D02*
X194914000Y-133880000D01*
X199486000Y-137690000D02*
X196184000Y-137690000D01*
X194914000Y-136420000D02*
X190850000Y-136420000D01*
X165541000Y-119110000D02*
X169605000Y-119110000D01*
X165541000Y-126095000D02*
X169605000Y-126095000D01*
X164271000Y-110220000D02*
X165541000Y-108950000D01*
X188310000Y-133880000D02*
X183230000Y-133880000D01*
X200756000Y-128800000D02*
X203359500Y-131403500D01*
X134284000Y-109035000D02*
X130220000Y-109035000D01*
X165541000Y-136255000D02*
X169605000Y-136255000D01*
X180470000Y-149120000D02*
X180250000Y-149340000D01*
X135554000Y-110305000D02*
X134284000Y-111575000D01*
X122600000Y-111575000D02*
X127045000Y-111575000D01*
X138856000Y-115385000D02*
X135554000Y-115385000D01*
X199486000Y-132610000D02*
X196184000Y-132610000D01*
X160969000Y-145145000D02*
X164271000Y-145145000D01*
X135554000Y-117925000D02*
X134284000Y-119195000D01*
X177225000Y-143875000D02*
X171510000Y-143875000D01*
X180000000Y-111490000D02*
X180250000Y-111240000D01*
X177225000Y-108950000D02*
X174050000Y-108950000D01*
X183230000Y-138960000D02*
X180470000Y-138960000D01*
X194914000Y-133880000D02*
X190850000Y-133880000D01*
X180470000Y-146580000D02*
X180250000Y-146800000D01*
X140380000Y-115385000D02*
X139110000Y-114115000D01*
X138856000Y-132530000D02*
X135554000Y-132530000D01*
X185770000Y-144040000D02*
X183230000Y-144040000D01*
X174685000Y-131175000D02*
X177225000Y-131175000D01*
X180000000Y-119110000D02*
X180250000Y-118860000D01*
X157095500Y-108886500D02*
X160969000Y-112760000D01*
X157095500Y-133651500D02*
X160969000Y-137525000D01*
X157095500Y-136191500D02*
X160969000Y-140065000D01*
X194914000Y-146580000D02*
X190850000Y-146580000D01*
X126410000Y-138880000D02*
X122600000Y-138880000D01*
X140380000Y-140150000D02*
X139110000Y-138880000D01*
X183230000Y-146580000D02*
X180470000Y-146580000D01*
X141015000Y-138245000D02*
X139110000Y-136340000D01*
X160969000Y-137525000D02*
X164271000Y-137525000D01*
X135554000Y-142690000D02*
X134284000Y-143960000D01*
X158810000Y-136890000D02*
X160715000Y-138795000D01*
X120180000Y-127310000D02*
X119350000Y-126480000D01*
X183230000Y-133880000D02*
X180470000Y-133880000D01*
X153857000Y-108886500D02*
X157095500Y-108886500D01*
X145968000Y-146563500D02*
X142729500Y-146563500D01*
X120290000Y-129960000D02*
X119350000Y-129020000D01*
X164271000Y-132445000D02*
X165541000Y-131175000D01*
X153857000Y-116506500D02*
X157095500Y-116506500D01*
X160969000Y-117840000D02*
X164271000Y-117840000D01*
X194914000Y-106575000D02*
X190850000Y-106575000D01*
X153857000Y-138731500D02*
X157095500Y-138731500D01*
X159445000Y-134985000D02*
X160715000Y-136255000D01*
X142729500Y-138943500D02*
X138856000Y-135070000D01*
X134284000Y-116655000D02*
X130220000Y-116655000D01*
X139110000Y-116655000D02*
X138411500Y-116655000D01*
X180000000Y-116570000D02*
X180250000Y-116320000D01*
X134284000Y-106495000D02*
X130220000Y-106495000D01*
X160969000Y-115300000D02*
X164271000Y-115300000D01*
X145968000Y-116718500D02*
X142729500Y-116718500D01*
X142729500Y-109098500D02*
X138856000Y-105225000D01*
X139110000Y-133800000D02*
X138411500Y-133800000D01*
X180470000Y-138960000D02*
X180250000Y-139180000D01*
X142729500Y-111638500D02*
X138856000Y-107765000D01*
X165541000Y-114030000D02*
X169605000Y-114030000D01*
X142729500Y-119258500D02*
X138856000Y-115385000D01*
X183230000Y-149120000D02*
X180470000Y-149120000D01*
X180470000Y-136420000D02*
X180250000Y-136640000D01*
X194914000Y-114195000D02*
X190850000Y-114195000D01*
X177225000Y-138795000D02*
X172780000Y-138795000D01*
X161477000Y-128571500D02*
X163953500Y-126095000D01*
X160080000Y-133080000D02*
X160715000Y-133715000D01*
X157095500Y-131111500D02*
X160969000Y-134985000D01*
X159445000Y-110220000D02*
X160715000Y-111490000D01*
X180000000Y-106410000D02*
X180250000Y-106160000D01*
X199041500Y-114195000D02*
X198978000Y-114258500D01*
X203359500Y-141563500D02*
X199486000Y-137690000D01*
X196184000Y-135150000D02*
X194914000Y-136420000D01*
X134284000Y-119195000D02*
X130220000Y-119195000D01*
X122600000Y-124275000D02*
X123870000Y-124275000D01*
X135554000Y-129990000D02*
X134284000Y-131260000D01*
X138856000Y-117925000D02*
X135554000Y-117925000D01*
X177225000Y-119110000D02*
X180000000Y-119110000D01*
X199740000Y-141500000D02*
X199041500Y-141500000D01*
X164271000Y-134985000D02*
X165541000Y-133715000D01*
X164271000Y-137525000D02*
X165541000Y-136255000D01*
X194914000Y-131340000D02*
X190850000Y-131340000D01*
X138411500Y-109035000D02*
X138348000Y-109098500D01*
X165541000Y-111490000D02*
X169605000Y-111490000D01*
X139110000Y-114115000D02*
X138411500Y-114115000D01*
X138856000Y-135070000D02*
X135554000Y-135070000D01*
X127680000Y-109035000D02*
X122600000Y-109035000D01*
X165541000Y-116570000D02*
X169605000Y-116570000D01*
X172145000Y-141335000D02*
X177225000Y-141335000D01*
X177225000Y-114030000D02*
X180000000Y-114030000D01*
X177225000Y-119110000D02*
X171510000Y-119110000D01*
X160969000Y-140065000D02*
X164271000Y-140065000D01*
X180470000Y-131340000D02*
X180250000Y-131560000D01*
X153857000Y-126031500D02*
X157095500Y-126031500D01*
X196184000Y-137690000D02*
X194914000Y-138960000D01*
X173415000Y-111490000D02*
X177225000Y-111490000D01*
X138411500Y-116655000D02*
X138348000Y-116718500D01*
X138348000Y-121798500D02*
X135871500Y-124275000D01*
X177225000Y-101330000D02*
X180000000Y-101330000D01*
X161413500Y-138795000D02*
X161477000Y-138731500D01*
X145968000Y-141483500D02*
X142729500Y-141483500D01*
X157095500Y-106346500D02*
X160969000Y-110220000D01*
X157095500Y-113966500D02*
X160969000Y-117840000D01*
X183230000Y-141500000D02*
X186405000Y-141500000D01*
X198978000Y-121878500D02*
X196501500Y-124355000D01*
X160715000Y-133715000D02*
X161413500Y-133715000D01*
X161413500Y-136255000D02*
X161477000Y-136191500D01*
X153857000Y-113966500D02*
X157095500Y-113966500D01*
X199740000Y-136420000D02*
X199041500Y-136420000D01*
X145968000Y-109098500D02*
X142729500Y-109098500D01*
X180470000Y-141500000D02*
X180250000Y-141720000D01*
X134284000Y-124275000D02*
X130220000Y-124275000D01*
X142729500Y-121798500D02*
X138856000Y-117925000D01*
X206598000Y-136483500D02*
X203359500Y-136483500D01*
X139745000Y-117290000D02*
X139110000Y-116655000D01*
X180000000Y-108950000D02*
X180250000Y-108700000D01*
X194914000Y-124355000D02*
X190850000Y-124355000D01*
X163953500Y-126095000D02*
X165541000Y-126095000D01*
X141650000Y-136340000D02*
X139110000Y-133800000D01*
X145968000Y-138943500D02*
X142729500Y-138943500D01*
X145968000Y-114178500D02*
X142729500Y-114178500D01*
X142729500Y-141483500D02*
X138856000Y-137610000D01*
X127680000Y-133800000D02*
X122600000Y-133800000D01*
X175320000Y-103870000D02*
X177225000Y-103870000D01*
X164271000Y-145145000D02*
X165541000Y-143875000D01*
X157095500Y-138731500D02*
X160969000Y-142605000D01*
X196501500Y-124355000D02*
X194914000Y-124355000D01*
X122600000Y-136340000D02*
X127045000Y-136340000D01*
X175320000Y-128635000D02*
X177225000Y-128635000D01*
X138856000Y-110305000D02*
X135554000Y-110305000D01*
X206598000Y-139023500D02*
X203359500Y-139023500D01*
X165541000Y-108950000D02*
X169605000Y-108950000D01*
X135554000Y-107765000D02*
X134284000Y-109035000D01*
X160715000Y-136255000D02*
X161413500Y-136255000D01*
X145968000Y-119258500D02*
X142729500Y-119258500D01*
X134284000Y-131260000D02*
X130220000Y-131260000D01*
X177225000Y-108950000D02*
X180000000Y-108950000D01*
X135871500Y-124275000D02*
X134284000Y-124275000D01*
X157095500Y-116506500D02*
X160969000Y-120380000D01*
X134284000Y-121735000D02*
X130220000Y-121735000D01*
X158175000Y-138795000D02*
X160715000Y-141335000D01*
X180470000Y-144040000D02*
X180250000Y-144260000D01*
X139110000Y-141420000D02*
X138411500Y-141420000D01*
X160969000Y-120380000D02*
X164271000Y-120380000D01*
X135554000Y-105225000D02*
X134284000Y-106495000D01*
X177225000Y-101330000D02*
X175955000Y-101330000D01*
X122600000Y-106495000D02*
X128315000Y-106495000D01*
X199740000Y-138960000D02*
X199041500Y-138960000D01*
X177225000Y-103870000D02*
X180000000Y-103870000D01*
X125140000Y-119195000D02*
X122600000Y-119195000D01*
X145968000Y-121798500D02*
X142729500Y-121798500D01*
X177225000Y-133715000D02*
X174050000Y-133715000D01*
X165541000Y-138795000D02*
X169605000Y-138795000D01*
X138856000Y-105225000D02*
X135554000Y-105225000D01*
X135554000Y-115385000D02*
X134284000Y-116655000D01*
X185135000Y-121815000D02*
X183230000Y-121815000D01*
X183230000Y-136420000D02*
X180470000Y-136420000D01*
X177225000Y-114030000D02*
X172780000Y-114030000D01*
X153857000Y-136191500D02*
X157095500Y-136191500D01*
X125140000Y-143960000D02*
X122600000Y-143960000D01*
X180000000Y-114030000D02*
X180250000Y-113780000D01*
X134284000Y-143960000D02*
X130220000Y-143960000D01*
X124505000Y-146500000D02*
X122600000Y-146500000D01*
X157095500Y-126031500D02*
X160969000Y-129905000D01*
X160969000Y-134985000D02*
X164271000Y-134985000D01*
X199740000Y-116735000D02*
X199041500Y-116735000D01*
X160715000Y-114030000D02*
X161413500Y-114030000D01*
X145968000Y-124338500D02*
X142729500Y-124338500D01*
X135554000Y-112845000D02*
X134284000Y-114115000D01*
X122600000Y-116655000D02*
X125775000Y-116655000D01*
X138411500Y-114115000D02*
X138348000Y-114178500D01*
X172145000Y-116570000D02*
X177225000Y-116570000D01*
X138856000Y-142690000D02*
X135554000Y-142690000D01*
X180000000Y-101330000D02*
X180250000Y-101080000D01*
X134284000Y-114115000D02*
X130220000Y-114115000D01*
X142729500Y-124338500D02*
X138856000Y-120465000D01*
X164271000Y-142605000D02*
X165541000Y-141335000D01*
X180000000Y-103870000D02*
X180250000Y-103620000D01*
X201645000Y-138325000D02*
X199740000Y-136420000D01*
X120350000Y-117860000D02*
X126410000Y-117860000D01*
X134284000Y-141420000D02*
X130220000Y-141420000D01*
X138856000Y-107765000D02*
X135554000Y-107765000D01*
X138856000Y-137610000D02*
X135554000Y-137610000D01*
X194914000Y-111655000D02*
X190850000Y-111655000D01*
X187040000Y-138960000D02*
X183230000Y-138960000D01*
X124505000Y-121735000D02*
X122600000Y-121735000D01*
X138856000Y-140150000D02*
X135554000Y-140150000D01*
X160969000Y-129905000D02*
X164271000Y-129905000D01*
X141015000Y-113480000D02*
X139110000Y-111575000D01*
X183230000Y-124355000D02*
X184500000Y-124355000D01*
X142729500Y-136403500D02*
X138856000Y-132530000D01*
X202280000Y-136420000D02*
X199740000Y-133880000D01*
X161413500Y-141335000D02*
X161477000Y-141271500D01*
X183230000Y-131340000D02*
X180470000Y-131340000D01*
X103371000Y-115300000D02*
X104641000Y-114030000D01*
X99815000Y-138795000D02*
X100513500Y-138795000D01*
X104641000Y-133715000D02*
X108705000Y-133715000D01*
X99815000Y-116570000D02*
X100513500Y-116570000D01*
X99815000Y-108950000D02*
X100513500Y-108950000D01*
X100069000Y-132445000D02*
X103371000Y-132445000D01*
X92957000Y-141271500D02*
X96195500Y-141271500D01*
X103053500Y-101330000D02*
X104641000Y-101330000D01*
X103371000Y-129905000D02*
X104641000Y-128635000D01*
X104641000Y-128635000D02*
X108705000Y-128635000D01*
X100069000Y-112760000D02*
X103371000Y-112760000D01*
X96195500Y-128571500D02*
X100069000Y-132445000D01*
X96195500Y-111426500D02*
X100069000Y-115300000D01*
X104641000Y-141335000D02*
X108705000Y-141335000D01*
X104641000Y-119110000D02*
X108705000Y-119110000D01*
X100069000Y-107680000D02*
X103371000Y-107680000D01*
X104641000Y-143875000D02*
X108705000Y-143875000D01*
X92957000Y-128571500D02*
X96195500Y-128571500D01*
X97275000Y-114030000D02*
X99815000Y-116570000D01*
X104641000Y-131175000D02*
X108705000Y-131175000D01*
X100069000Y-110220000D02*
X103371000Y-110220000D01*
X99815000Y-111490000D02*
X100513500Y-111490000D01*
X92957000Y-131111500D02*
X96195500Y-131111500D01*
X100577000Y-103806500D02*
X103053500Y-101330000D01*
X100513500Y-133715000D02*
X100577000Y-133651500D01*
X103371000Y-140065000D02*
X104641000Y-138795000D01*
X103371000Y-112760000D02*
X104641000Y-111490000D01*
X103371000Y-117840000D02*
X104641000Y-116570000D01*
X96195500Y-103806500D02*
X100069000Y-107680000D01*
X92957000Y-111426500D02*
X96195500Y-111426500D01*
X100069000Y-142605000D02*
X103371000Y-142605000D01*
X97910000Y-112125000D02*
X99815000Y-114030000D01*
X103371000Y-120380000D02*
X104641000Y-119110000D01*
X99180000Y-108315000D02*
X99815000Y-108950000D01*
X92957000Y-106346500D02*
X96195500Y-106346500D01*
X99815000Y-141335000D02*
X100513500Y-141335000D01*
X96195500Y-141271500D02*
X100069000Y-145145000D01*
X92957000Y-133651500D02*
X96195500Y-133651500D01*
X104641000Y-106410000D02*
X108705000Y-106410000D01*
X104641000Y-138795000D02*
X108705000Y-138795000D01*
X92957000Y-136191500D02*
X96195500Y-136191500D01*
X96195500Y-126031500D02*
X100069000Y-129905000D01*
X104641000Y-126095000D02*
X108705000Y-126095000D01*
X103371000Y-110220000D02*
X104641000Y-108950000D01*
X104641000Y-136255000D02*
X108705000Y-136255000D01*
X100069000Y-145145000D02*
X103371000Y-145145000D01*
X96195500Y-108886500D02*
X100069000Y-112760000D01*
X96195500Y-133651500D02*
X100069000Y-137525000D01*
X96195500Y-136191500D02*
X100069000Y-140065000D01*
X100069000Y-137525000D02*
X103371000Y-137525000D01*
X104641000Y-103870000D02*
X108705000Y-103870000D01*
X97910000Y-136890000D02*
X99815000Y-138795000D01*
X92957000Y-108886500D02*
X96195500Y-108886500D01*
X103371000Y-132445000D02*
X104641000Y-131175000D01*
X92957000Y-116506500D02*
X96195500Y-116506500D01*
X100069000Y-117840000D02*
X103371000Y-117840000D01*
X92957000Y-138731500D02*
X96195500Y-138731500D01*
X98545000Y-134985000D02*
X99815000Y-136255000D01*
X96195500Y-101266500D02*
X100069000Y-105140000D01*
X100069000Y-115300000D02*
X103371000Y-115300000D01*
X104641000Y-114030000D02*
X108705000Y-114030000D01*
X100069000Y-105140000D02*
X103371000Y-105140000D01*
X100577000Y-128571500D02*
X103053500Y-126095000D01*
X99180000Y-133080000D02*
X99815000Y-133715000D01*
X96195500Y-131111500D02*
X100069000Y-134985000D01*
X98545000Y-110220000D02*
X99815000Y-111490000D01*
X103371000Y-134985000D02*
X104641000Y-133715000D01*
X103371000Y-137525000D02*
X104641000Y-136255000D01*
X104641000Y-111490000D02*
X108705000Y-111490000D01*
X104641000Y-116570000D02*
X108705000Y-116570000D01*
X100069000Y-140065000D02*
X103371000Y-140065000D01*
X92957000Y-126031500D02*
X96195500Y-126031500D01*
X100513500Y-138795000D02*
X100577000Y-138731500D01*
X96195500Y-106346500D02*
X100069000Y-110220000D01*
X96195500Y-113966500D02*
X100069000Y-117840000D01*
X92957000Y-103806500D02*
X96195500Y-103806500D01*
X99815000Y-133715000D02*
X100513500Y-133715000D01*
X100513500Y-136255000D02*
X100577000Y-136191500D01*
X92957000Y-113966500D02*
X96195500Y-113966500D01*
X103371000Y-107680000D02*
X104641000Y-106410000D01*
X104641000Y-101330000D02*
X108705000Y-101330000D01*
X92957000Y-101266500D02*
X96195500Y-101266500D01*
X103053500Y-126095000D02*
X104641000Y-126095000D01*
X103371000Y-145145000D02*
X104641000Y-143875000D01*
X96195500Y-138731500D02*
X100069000Y-142605000D01*
X104641000Y-108950000D02*
X108705000Y-108950000D01*
X99815000Y-136255000D02*
X100513500Y-136255000D01*
X103371000Y-105140000D02*
X104641000Y-103870000D01*
X96195500Y-116506500D02*
X100069000Y-120380000D01*
X97275000Y-138795000D02*
X99815000Y-141335000D01*
X100069000Y-120380000D02*
X103371000Y-120380000D01*
X100069000Y-134985000D02*
X103371000Y-134985000D01*
X99815000Y-114030000D02*
X100513500Y-114030000D01*
X103371000Y-142605000D02*
X104641000Y-141335000D01*
X100069000Y-129905000D02*
X103371000Y-129905000D01*
X100513500Y-141335000D02*
X100577000Y-141271500D01*
D28*
X193240000Y-126410000D02*
X193270000Y-126410000D01*
D27*
X190850000Y-128800000D02*
X193240000Y-126410000D01*
X193270000Y-126410000D02*
X185570000Y-126410000D01*
X194960000Y-126410000D02*
X193270000Y-126410000D01*
M02*
