G04 #@! TF.GenerationSoftware,KiCad,Pcbnew,8.0.6-8.0.6-0~ubuntu24.04.1*
G04 #@! TF.CreationDate,2024-11-10T23:48:13-05:00*
G04 #@! TF.ProjectId,array,61727261-792e-46b6-9963-61645f706362,rev?*
G04 #@! TF.SameCoordinates,Original*
G04 #@! TF.FileFunction,Legend,Top*
G04 #@! TF.FilePolarity,Positive*
%FSLAX46Y46*%
G04 Gerber Fmt 4.6, Leading zero omitted, Abs format (unit mm)*
G04 Created by KiCad (PCBNEW 8.0.6-8.0.6-0~ubuntu24.04.1) date 2024-11-10 23:48:13*
%MOMM*%
%LPD*%
G01*
G04 APERTURE LIST*
G04 Aperture macros list*
%AMRoundRect*
0 Rectangle with rounded corners*
0 $1 Rounding radius*
0 $2 $3 $4 $5 $6 $7 $8 $9 X,Y pos of 4 corners*
0 Add a 4 corners polygon primitive as box body*
4,1,4,$2,$3,$4,$5,$6,$7,$8,$9,$2,$3,0*
0 Add four circle primitives for the rounded corners*
1,1,$1+$1,$2,$3*
1,1,$1+$1,$4,$5*
1,1,$1+$1,$6,$7*
1,1,$1+$1,$8,$9*
0 Add four rect primitives between the rounded corners*
20,1,$1+$1,$2,$3,$4,$5,0*
20,1,$1+$1,$4,$5,$6,$7,0*
20,1,$1+$1,$6,$7,$8,$9,0*
20,1,$1+$1,$8,$9,$2,$3,0*%
G04 Aperture macros list end*
%ADD10C,1.000000*%
%ADD11C,0.000000*%
%ADD12C,0.160000*%
%ADD13C,0.100000*%
%ADD14C,0.300000*%
%ADD15C,0.150000*%
%ADD16C,0.152400*%
%ADD17C,0.120000*%
%ADD18C,0.127000*%
%ADD19C,1.270000*%
%ADD20R,5.000000X1.500000*%
%ADD21R,3.505200X1.778000*%
%ADD22C,1.371600*%
%ADD23R,2.500000X4.000000*%
%ADD24RoundRect,0.102000X0.659000X0.659000X-0.659000X0.659000X-0.659000X-0.659000X0.659000X-0.659000X0*%
%ADD25C,1.522000*%
%ADD26RoundRect,0.102000X-0.659000X-0.659000X0.659000X-0.659000X0.659000X0.659000X-0.659000X0.659000X0*%
%ADD27C,1.500000*%
%ADD28R,1.227074X1.227074*%
%ADD29C,1.227074*%
%ADD30C,1.200000*%
%ADD31R,1.295400X1.295400*%
%ADD32C,1.295400*%
G04 APERTURE END LIST*
D10*
X210400000Y-120850000D02*
X210400000Y-126075000D01*
X210400000Y-126075000D02*
X214740000Y-120985000D01*
X216710000Y-121650000D02*
X212370000Y-126740000D01*
X216710000Y-130570000D02*
X216710000Y-121650000D01*
D11*
G36*
X212888750Y-132624878D02*
G01*
X212888750Y-133940122D01*
X211958872Y-134870000D01*
X210643628Y-134870000D01*
X209713750Y-133940122D01*
X209713750Y-132624878D01*
X210643628Y-131695000D01*
X211958872Y-131695000D01*
X212888750Y-132624878D01*
G37*
G36*
X212886250Y-128934878D02*
G01*
X212886250Y-130250122D01*
X211956372Y-131180000D01*
X210641128Y-131180000D01*
X209711250Y-130250122D01*
X209711250Y-128934878D01*
X210641128Y-128005000D01*
X211956372Y-128005000D01*
X212886250Y-128934878D01*
G37*
G36*
X212897378Y-139997439D02*
G01*
X212897378Y-141312683D01*
X211967500Y-142242561D01*
X210652256Y-142242561D01*
X209722378Y-141312683D01*
X209722378Y-139997439D01*
X210652256Y-139067561D01*
X211967500Y-139067561D01*
X212897378Y-139997439D01*
G37*
G36*
X212894878Y-136307439D02*
G01*
X212894878Y-137622683D01*
X211965000Y-138552561D01*
X210649756Y-138552561D01*
X209719878Y-137622683D01*
X209719878Y-136307439D01*
X210649756Y-135377561D01*
X211965000Y-135377561D01*
X212894878Y-136307439D01*
G37*
G36*
X212892439Y-143664878D02*
G01*
X212892439Y-144980122D01*
X211962561Y-145910000D01*
X210647317Y-145910000D01*
X209717439Y-144980122D01*
X209717439Y-143664878D01*
X210647317Y-142735000D01*
X211962561Y-142735000D01*
X212892439Y-143664878D01*
G37*
G36*
X212894939Y-147334939D02*
G01*
X212894939Y-148650183D01*
X211965061Y-149580061D01*
X210649817Y-149580061D01*
X209719939Y-148650183D01*
X209719939Y-147334939D01*
X210649817Y-146405061D01*
X211965061Y-146405061D01*
X212894939Y-147334939D01*
G37*
G36*
X217010500Y-102614000D02*
G01*
X216860500Y-102614000D01*
X216860500Y-101864000D01*
X217010500Y-101864000D01*
X217010500Y-102614000D01*
G37*
G36*
X217310500Y-102314000D02*
G01*
X216560500Y-102314000D01*
X216560500Y-102164000D01*
X217310500Y-102164000D01*
X217310500Y-102314000D01*
G37*
G36*
X212810500Y-102314000D02*
G01*
X212060500Y-102314000D01*
X212060500Y-102164000D01*
X212810500Y-102164000D01*
X212810500Y-102314000D01*
G37*
G36*
X216210500Y-102314000D02*
G01*
X214910500Y-102314000D01*
X214910500Y-102164000D01*
X216210500Y-102164000D01*
X216210500Y-102314000D01*
G37*
G36*
X213985500Y-102314000D02*
G01*
X213135500Y-102314000D01*
X213135500Y-102164000D01*
X213985500Y-102164000D01*
X213985500Y-102314000D01*
G37*
G36*
X212475044Y-101489945D02*
G01*
X212513960Y-101492754D01*
X212552209Y-101497384D01*
X212589748Y-101503795D01*
X212626536Y-101511945D01*
X212662532Y-101521794D01*
X212697695Y-101533300D01*
X212731984Y-101546422D01*
X212765357Y-101561118D01*
X212797774Y-101577348D01*
X212829193Y-101595071D01*
X212859572Y-101614244D01*
X212888871Y-101634827D01*
X212917049Y-101656780D01*
X212944064Y-101680059D01*
X212969875Y-101704625D01*
X212994441Y-101730436D01*
X213017720Y-101757451D01*
X213039672Y-101785629D01*
X213060256Y-101814928D01*
X213079429Y-101845307D01*
X213097151Y-101876726D01*
X213113381Y-101909142D01*
X213128078Y-101942516D01*
X213141200Y-101976804D01*
X213152706Y-102011968D01*
X213162554Y-102047964D01*
X213170705Y-102084752D01*
X213177116Y-102122291D01*
X213181746Y-102160539D01*
X213184554Y-102199456D01*
X213185500Y-102239000D01*
X213184554Y-102278544D01*
X213181746Y-102317461D01*
X213177116Y-102355709D01*
X213170705Y-102393248D01*
X213162554Y-102430036D01*
X213152706Y-102466032D01*
X213141200Y-102501196D01*
X213128078Y-102535484D01*
X213113381Y-102568858D01*
X213097151Y-102601274D01*
X213079429Y-102632693D01*
X213060256Y-102663072D01*
X213039672Y-102692371D01*
X213017720Y-102720549D01*
X212994441Y-102747564D01*
X212969875Y-102773375D01*
X212944064Y-102797941D01*
X212917049Y-102821220D01*
X212888871Y-102843173D01*
X212859572Y-102863756D01*
X212829193Y-102882929D01*
X212797774Y-102900652D01*
X212765357Y-102916882D01*
X212731984Y-102931578D01*
X212697695Y-102944700D01*
X212662532Y-102956206D01*
X212626536Y-102966055D01*
X212589748Y-102974205D01*
X212552209Y-102980616D01*
X212513960Y-102985246D01*
X212475044Y-102988055D01*
X212435500Y-102989000D01*
X212395956Y-102988055D01*
X212357039Y-102985246D01*
X212318791Y-102980616D01*
X212281252Y-102974205D01*
X212244464Y-102966055D01*
X212208467Y-102956206D01*
X212173304Y-102944700D01*
X212139015Y-102931578D01*
X212105642Y-102916882D01*
X212073226Y-102900652D01*
X212041807Y-102882929D01*
X212011428Y-102863756D01*
X211982128Y-102843173D01*
X211953951Y-102821220D01*
X211926936Y-102797941D01*
X211901125Y-102773375D01*
X211876559Y-102747564D01*
X211853279Y-102720549D01*
X211831327Y-102692371D01*
X211810744Y-102663072D01*
X211791571Y-102632693D01*
X211773848Y-102601274D01*
X211757618Y-102568858D01*
X211742922Y-102535484D01*
X211729800Y-102501196D01*
X211718294Y-102466032D01*
X211708445Y-102430036D01*
X211700295Y-102393248D01*
X211693884Y-102355709D01*
X211689253Y-102317461D01*
X211686445Y-102278544D01*
X211685500Y-102239000D01*
X211685512Y-102238500D01*
X211850000Y-102238500D01*
X211850737Y-102269344D01*
X211852928Y-102299699D01*
X211856539Y-102329533D01*
X211861540Y-102358813D01*
X211867897Y-102387508D01*
X211875579Y-102415585D01*
X211884554Y-102443013D01*
X211894789Y-102469758D01*
X211906252Y-102495789D01*
X211918912Y-102521074D01*
X211932735Y-102545580D01*
X211947690Y-102569276D01*
X211963745Y-102592130D01*
X211980868Y-102614108D01*
X211999026Y-102635180D01*
X212018187Y-102655312D01*
X212038320Y-102674474D01*
X212059392Y-102692632D01*
X212081370Y-102709755D01*
X212104223Y-102725810D01*
X212127919Y-102740765D01*
X212152426Y-102754588D01*
X212177711Y-102767248D01*
X212203742Y-102778711D01*
X212230487Y-102788946D01*
X212257914Y-102797920D01*
X212285992Y-102805603D01*
X212314686Y-102811960D01*
X212343967Y-102816960D01*
X212373800Y-102820572D01*
X212404156Y-102822763D01*
X212435000Y-102823500D01*
X212465844Y-102822763D01*
X212496199Y-102820572D01*
X212526033Y-102816960D01*
X212555313Y-102811960D01*
X212584008Y-102805603D01*
X212612085Y-102797920D01*
X212639512Y-102788946D01*
X212666258Y-102778711D01*
X212692289Y-102767248D01*
X212717574Y-102754588D01*
X212742080Y-102740765D01*
X212765776Y-102725810D01*
X212788629Y-102709755D01*
X212810608Y-102692632D01*
X212831680Y-102674474D01*
X212851812Y-102655312D01*
X212870974Y-102635180D01*
X212889132Y-102614108D01*
X212906254Y-102592130D01*
X212922309Y-102569276D01*
X212937265Y-102545580D01*
X212951088Y-102521074D01*
X212963747Y-102495789D01*
X212975211Y-102469758D01*
X212985446Y-102443013D01*
X212994420Y-102415585D01*
X213002102Y-102387508D01*
X213008460Y-102358813D01*
X213013460Y-102329533D01*
X213017072Y-102299699D01*
X213019262Y-102269344D01*
X213020000Y-102238500D01*
X213019262Y-102207656D01*
X213017072Y-102177301D01*
X213013460Y-102147467D01*
X213008460Y-102118187D01*
X213002102Y-102089492D01*
X212994420Y-102061415D01*
X212985446Y-102033987D01*
X212975211Y-102007242D01*
X212963747Y-101981211D01*
X212951088Y-101955926D01*
X212937265Y-101931420D01*
X212922309Y-101907724D01*
X212906254Y-101884870D01*
X212889132Y-101862892D01*
X212870974Y-101841820D01*
X212851812Y-101821687D01*
X212831680Y-101802526D01*
X212810608Y-101784368D01*
X212788629Y-101767245D01*
X212765776Y-101751190D01*
X212742080Y-101736235D01*
X212717574Y-101722412D01*
X212692289Y-101709752D01*
X212666258Y-101698289D01*
X212639512Y-101688054D01*
X212612085Y-101679079D01*
X212584008Y-101671397D01*
X212555313Y-101665040D01*
X212526033Y-101660039D01*
X212496199Y-101656428D01*
X212465844Y-101654237D01*
X212435000Y-101653500D01*
X212404156Y-101654237D01*
X212373800Y-101656428D01*
X212343967Y-101660039D01*
X212314686Y-101665040D01*
X212285992Y-101671397D01*
X212257914Y-101679079D01*
X212230487Y-101688054D01*
X212203742Y-101698289D01*
X212177711Y-101709752D01*
X212152426Y-101722412D01*
X212127919Y-101736235D01*
X212104223Y-101751190D01*
X212081370Y-101767245D01*
X212059392Y-101784368D01*
X212038320Y-101802526D01*
X212018187Y-101821687D01*
X211999026Y-101841820D01*
X211980868Y-101862892D01*
X211963745Y-101884870D01*
X211947690Y-101907724D01*
X211932735Y-101931420D01*
X211918912Y-101955926D01*
X211906252Y-101981211D01*
X211894789Y-102007242D01*
X211884554Y-102033987D01*
X211875579Y-102061415D01*
X211867897Y-102089492D01*
X211861540Y-102118187D01*
X211856539Y-102147467D01*
X211852928Y-102177301D01*
X211850737Y-102207656D01*
X211850000Y-102238500D01*
X211685512Y-102238500D01*
X211686445Y-102199456D01*
X211689253Y-102160539D01*
X211693884Y-102122291D01*
X211700295Y-102084752D01*
X211708445Y-102047964D01*
X211718294Y-102011968D01*
X211729800Y-101976804D01*
X211742922Y-101942516D01*
X211757618Y-101909142D01*
X211773848Y-101876726D01*
X211791571Y-101845307D01*
X211810744Y-101814928D01*
X211831327Y-101785629D01*
X211853279Y-101757451D01*
X211876559Y-101730436D01*
X211901125Y-101704625D01*
X211926936Y-101680059D01*
X211953951Y-101656780D01*
X211982128Y-101634827D01*
X212011428Y-101614244D01*
X212041807Y-101595071D01*
X212073226Y-101577348D01*
X212105642Y-101561118D01*
X212139015Y-101546422D01*
X212173304Y-101533300D01*
X212208467Y-101521794D01*
X212244464Y-101511945D01*
X212281252Y-101503795D01*
X212318791Y-101497384D01*
X212357039Y-101492754D01*
X212395956Y-101489945D01*
X212435500Y-101489000D01*
X212475044Y-101489945D01*
G37*
G36*
X216975044Y-101489945D02*
G01*
X217013961Y-101492754D01*
X217052209Y-101497384D01*
X217089748Y-101503795D01*
X217126536Y-101511945D01*
X217162532Y-101521794D01*
X217197696Y-101533300D01*
X217231984Y-101546422D01*
X217265358Y-101561118D01*
X217297774Y-101577348D01*
X217329193Y-101595071D01*
X217359572Y-101614244D01*
X217388871Y-101634827D01*
X217417049Y-101656780D01*
X217444064Y-101680059D01*
X217469875Y-101704625D01*
X217494441Y-101730436D01*
X217517720Y-101757451D01*
X217539673Y-101785629D01*
X217560256Y-101814928D01*
X217579429Y-101845307D01*
X217597152Y-101876726D01*
X217613382Y-101909142D01*
X217628078Y-101942516D01*
X217641200Y-101976804D01*
X217652706Y-102011968D01*
X217662555Y-102047964D01*
X217670705Y-102084752D01*
X217677116Y-102122291D01*
X217681746Y-102160539D01*
X217684555Y-102199456D01*
X217685500Y-102239000D01*
X217684555Y-102278544D01*
X217681746Y-102317461D01*
X217677116Y-102355709D01*
X217670705Y-102393248D01*
X217662555Y-102430036D01*
X217652706Y-102466032D01*
X217641200Y-102501196D01*
X217628078Y-102535484D01*
X217613382Y-102568858D01*
X217597152Y-102601274D01*
X217579429Y-102632693D01*
X217560256Y-102663072D01*
X217539673Y-102692371D01*
X217517720Y-102720549D01*
X217494441Y-102747564D01*
X217469875Y-102773375D01*
X217444064Y-102797941D01*
X217417049Y-102821220D01*
X217388871Y-102843173D01*
X217359572Y-102863756D01*
X217329193Y-102882929D01*
X217297774Y-102900652D01*
X217265358Y-102916882D01*
X217231984Y-102931578D01*
X217197696Y-102944700D01*
X217162532Y-102956206D01*
X217126536Y-102966055D01*
X217089748Y-102974205D01*
X217052209Y-102980616D01*
X217013961Y-102985246D01*
X216975044Y-102988055D01*
X216935500Y-102989000D01*
X216895956Y-102988055D01*
X216857039Y-102985246D01*
X216818791Y-102980616D01*
X216781252Y-102974205D01*
X216744464Y-102966055D01*
X216708468Y-102956206D01*
X216673304Y-102944700D01*
X216639016Y-102931578D01*
X216605642Y-102916882D01*
X216573226Y-102900652D01*
X216541807Y-102882929D01*
X216511428Y-102863756D01*
X216482129Y-102843173D01*
X216453951Y-102821220D01*
X216426936Y-102797941D01*
X216401125Y-102773375D01*
X216376559Y-102747564D01*
X216353280Y-102720549D01*
X216331327Y-102692371D01*
X216310744Y-102663072D01*
X216291571Y-102632693D01*
X216273848Y-102601274D01*
X216257618Y-102568858D01*
X216242922Y-102535484D01*
X216229800Y-102501196D01*
X216218294Y-102466032D01*
X216208445Y-102430036D01*
X216200295Y-102393248D01*
X216193884Y-102355709D01*
X216189254Y-102317461D01*
X216186445Y-102278544D01*
X216185500Y-102239000D01*
X216185512Y-102238500D01*
X216350000Y-102238500D01*
X216350737Y-102269344D01*
X216352928Y-102299699D01*
X216356540Y-102329533D01*
X216361540Y-102358813D01*
X216367897Y-102387508D01*
X216375580Y-102415585D01*
X216384554Y-102443013D01*
X216394789Y-102469758D01*
X216406252Y-102495789D01*
X216418912Y-102521074D01*
X216432735Y-102545580D01*
X216447690Y-102569276D01*
X216463745Y-102592130D01*
X216480868Y-102614108D01*
X216499026Y-102635180D01*
X216518188Y-102655312D01*
X216538320Y-102674474D01*
X216559392Y-102692632D01*
X216581370Y-102709755D01*
X216604224Y-102725810D01*
X216627920Y-102740765D01*
X216652426Y-102754588D01*
X216677711Y-102767248D01*
X216703742Y-102778711D01*
X216730487Y-102788946D01*
X216757915Y-102797920D01*
X216785992Y-102805603D01*
X216814686Y-102811960D01*
X216843967Y-102816960D01*
X216873801Y-102820572D01*
X216904156Y-102822763D01*
X216935000Y-102823500D01*
X216965844Y-102822763D01*
X216996199Y-102820572D01*
X217026033Y-102816960D01*
X217055313Y-102811960D01*
X217084008Y-102805603D01*
X217112085Y-102797920D01*
X217139512Y-102788946D01*
X217166258Y-102778711D01*
X217192289Y-102767248D01*
X217217574Y-102754588D01*
X217242080Y-102740765D01*
X217265776Y-102725810D01*
X217288629Y-102709755D01*
X217310608Y-102692632D01*
X217331680Y-102674474D01*
X217351812Y-102655312D01*
X217370974Y-102635180D01*
X217389132Y-102614108D01*
X217406254Y-102592130D01*
X217422309Y-102569276D01*
X217437265Y-102545580D01*
X217451088Y-102521074D01*
X217463747Y-102495789D01*
X217475211Y-102469758D01*
X217485446Y-102443013D01*
X217494420Y-102415585D01*
X217502102Y-102387508D01*
X217508460Y-102358813D01*
X217513460Y-102329533D01*
X217517072Y-102299699D01*
X217519262Y-102269344D01*
X217520000Y-102238500D01*
X217519262Y-102207656D01*
X217517072Y-102177301D01*
X217513460Y-102147467D01*
X217508460Y-102118187D01*
X217502102Y-102089492D01*
X217494420Y-102061415D01*
X217485446Y-102033987D01*
X217475211Y-102007242D01*
X217463747Y-101981211D01*
X217451088Y-101955926D01*
X217437265Y-101931420D01*
X217422309Y-101907724D01*
X217406254Y-101884870D01*
X217389132Y-101862892D01*
X217370974Y-101841820D01*
X217351812Y-101821687D01*
X217331680Y-101802526D01*
X217310608Y-101784368D01*
X217288629Y-101767245D01*
X217265776Y-101751190D01*
X217242080Y-101736235D01*
X217217574Y-101722412D01*
X217192289Y-101709752D01*
X217166258Y-101698289D01*
X217139512Y-101688054D01*
X217112085Y-101679079D01*
X217084008Y-101671397D01*
X217055313Y-101665040D01*
X217026033Y-101660039D01*
X216996199Y-101656428D01*
X216965844Y-101654237D01*
X216935000Y-101653500D01*
X216904156Y-101654237D01*
X216873801Y-101656428D01*
X216843967Y-101660039D01*
X216814686Y-101665040D01*
X216785992Y-101671397D01*
X216757915Y-101679079D01*
X216730487Y-101688054D01*
X216703742Y-101698289D01*
X216677711Y-101709752D01*
X216652426Y-101722412D01*
X216627920Y-101736235D01*
X216604224Y-101751190D01*
X216581370Y-101767245D01*
X216559392Y-101784368D01*
X216538320Y-101802526D01*
X216518188Y-101821687D01*
X216499026Y-101841820D01*
X216480868Y-101862892D01*
X216463745Y-101884870D01*
X216447690Y-101907724D01*
X216432735Y-101931420D01*
X216418912Y-101955926D01*
X216406252Y-101981211D01*
X216394789Y-102007242D01*
X216384554Y-102033987D01*
X216375580Y-102061415D01*
X216367897Y-102089492D01*
X216361540Y-102118187D01*
X216356540Y-102147467D01*
X216352928Y-102177301D01*
X216350737Y-102207656D01*
X216350000Y-102238500D01*
X216185512Y-102238500D01*
X216186445Y-102199456D01*
X216189254Y-102160539D01*
X216193884Y-102122291D01*
X216200295Y-102084752D01*
X216208445Y-102047964D01*
X216218294Y-102011968D01*
X216229800Y-101976804D01*
X216242922Y-101942516D01*
X216257618Y-101909142D01*
X216273848Y-101876726D01*
X216291571Y-101845307D01*
X216310744Y-101814928D01*
X216331327Y-101785629D01*
X216353280Y-101757451D01*
X216376559Y-101730436D01*
X216401125Y-101704625D01*
X216426936Y-101680059D01*
X216453951Y-101656780D01*
X216482129Y-101634827D01*
X216511428Y-101614244D01*
X216541807Y-101595071D01*
X216573226Y-101577348D01*
X216605642Y-101561118D01*
X216639016Y-101546422D01*
X216673304Y-101533300D01*
X216708468Y-101521794D01*
X216744464Y-101511945D01*
X216781252Y-101503795D01*
X216818791Y-101497384D01*
X216857039Y-101492754D01*
X216895956Y-101489945D01*
X216935500Y-101489000D01*
X216975044Y-101489945D01*
G37*
G36*
X214736000Y-101491500D02*
G01*
X214773000Y-101495000D01*
X214810000Y-101500500D01*
X214846500Y-101507500D01*
X214882500Y-101516000D01*
X214918000Y-101527000D01*
X214953000Y-101540000D01*
X214987500Y-101554000D01*
X215021500Y-101569500D01*
X215054000Y-101587000D01*
X215086000Y-101606000D01*
X215117000Y-101627000D01*
X215147000Y-101649000D01*
X215175500Y-101672500D01*
X215203000Y-101697500D01*
X215229500Y-101724000D01*
X215254500Y-101751500D01*
X215278000Y-101780000D01*
X215300000Y-101810000D01*
X215166000Y-101903500D01*
X215149500Y-101880000D01*
X215131000Y-101857500D01*
X215111500Y-101836000D01*
X215091000Y-101815000D01*
X215069000Y-101795500D01*
X215046500Y-101777000D01*
X215023000Y-101760000D01*
X214999000Y-101743500D01*
X214974000Y-101728500D01*
X214948000Y-101715000D01*
X214922000Y-101702000D01*
X214895000Y-101691000D01*
X214867500Y-101681500D01*
X214839500Y-101673000D01*
X214811000Y-101666000D01*
X214782500Y-101660500D01*
X214753500Y-101656500D01*
X214724500Y-101654000D01*
X214695500Y-101652500D01*
X214666500Y-101653000D01*
X214637000Y-101654500D01*
X214608000Y-101657500D01*
X214579500Y-101662000D01*
X214551000Y-101668000D01*
X214522500Y-101675500D01*
X214495000Y-101684500D01*
X214467500Y-101694500D01*
X214441000Y-101705500D01*
X214414500Y-101718000D01*
X214389000Y-101732500D01*
X214364000Y-101747500D01*
X214340000Y-101764000D01*
X214317000Y-101782000D01*
X214295000Y-101800500D01*
X214273500Y-101820500D01*
X214253500Y-101841500D01*
X214234000Y-101863500D01*
X214215500Y-101886500D01*
X214198500Y-101910000D01*
X214183000Y-101934500D01*
X214168500Y-101960000D01*
X214155000Y-101986000D01*
X214143000Y-102012500D01*
X214132500Y-102039500D01*
X214123500Y-102067500D01*
X214115500Y-102095500D01*
X214109000Y-102124000D01*
X214104000Y-102152500D01*
X214100500Y-102181500D01*
X214098000Y-102210500D01*
X214097500Y-102239500D01*
X214098000Y-102269000D01*
X214100500Y-102298000D01*
X214104000Y-102327000D01*
X214109000Y-102355500D01*
X214115500Y-102384000D01*
X214123500Y-102412000D01*
X214132500Y-102439500D01*
X214143500Y-102467000D01*
X214155000Y-102493500D01*
X214168500Y-102519500D01*
X214183000Y-102544500D01*
X214198500Y-102569000D01*
X214215500Y-102593000D01*
X214233500Y-102615500D01*
X214252500Y-102637500D01*
X214273000Y-102658500D01*
X214294000Y-102678500D01*
X214316500Y-102697500D01*
X214339500Y-102715000D01*
X214363500Y-102731500D01*
X214388500Y-102747000D01*
X214414000Y-102761000D01*
X214440000Y-102773500D01*
X214467000Y-102785500D01*
X214494000Y-102796000D01*
X214522000Y-102804500D01*
X214550000Y-102812000D01*
X214578500Y-102818000D01*
X214607500Y-102822500D01*
X214636500Y-102825500D01*
X214665500Y-102827000D01*
X214695000Y-102827500D01*
X214724000Y-102826000D01*
X214753000Y-102823500D01*
X214782000Y-102819500D01*
X214810500Y-102814000D01*
X214838500Y-102807000D01*
X214866500Y-102798500D01*
X214894000Y-102789000D01*
X214921000Y-102777500D01*
X214947500Y-102766000D01*
X214973000Y-102752000D01*
X214998500Y-102737000D01*
X215022500Y-102721000D01*
X215046000Y-102703500D01*
X215068500Y-102685000D01*
X215090000Y-102665500D01*
X215110500Y-102645000D01*
X215130000Y-102623500D01*
X215148500Y-102600500D01*
X215166500Y-102577500D01*
X215299000Y-102670000D01*
X215276500Y-102700000D01*
X215253000Y-102729000D01*
X215228000Y-102756500D01*
X215202000Y-102783000D01*
X215174500Y-102807500D01*
X215145500Y-102831500D01*
X215115500Y-102853500D01*
X215084500Y-102874000D01*
X215053000Y-102893000D01*
X215020000Y-102910500D01*
X214986500Y-102926500D01*
X214952000Y-102940500D01*
X214917000Y-102952500D01*
X214881000Y-102963000D01*
X214845000Y-102971500D01*
X214808500Y-102978500D01*
X214771500Y-102984000D01*
X214734500Y-102987500D01*
X214697500Y-102989000D01*
X214660500Y-102988500D01*
X214623000Y-102986500D01*
X214586500Y-102982500D01*
X214549500Y-102976500D01*
X214513000Y-102969000D01*
X214477000Y-102959500D01*
X214441500Y-102948000D01*
X214407000Y-102935000D01*
X214372500Y-102920500D01*
X214339500Y-102904000D01*
X214306500Y-102886000D01*
X214275000Y-102866500D01*
X214244500Y-102845500D01*
X214215000Y-102823000D01*
X214186500Y-102798500D01*
X214159500Y-102773500D01*
X214133500Y-102746500D01*
X214109000Y-102718500D01*
X214086000Y-102689500D01*
X214064500Y-102659000D01*
X214044500Y-102628000D01*
X214026500Y-102595500D01*
X214009500Y-102562500D01*
X213994000Y-102528500D01*
X213980500Y-102494000D01*
X213969000Y-102458000D01*
X213959000Y-102422500D01*
X213950500Y-102386000D01*
X213944500Y-102349500D01*
X213939500Y-102312500D01*
X213937000Y-102275500D01*
X213936000Y-102238500D01*
X213937000Y-102201000D01*
X213939500Y-102164000D01*
X213944500Y-102127000D01*
X213951000Y-102090500D01*
X213959000Y-102054500D01*
X213969000Y-102018500D01*
X213981000Y-101983500D01*
X213994500Y-101949000D01*
X214009500Y-101915000D01*
X214026500Y-101882000D01*
X214045500Y-101850000D01*
X214065500Y-101818500D01*
X214087000Y-101788000D01*
X214110500Y-101759000D01*
X214135000Y-101731000D01*
X214160500Y-101704500D01*
X214188000Y-101679000D01*
X214216000Y-101655000D01*
X214246000Y-101632500D01*
X214276500Y-101611500D01*
X214308000Y-101592000D01*
X214340500Y-101574000D01*
X214374000Y-101557500D01*
X214408000Y-101543000D01*
X214443000Y-101530000D01*
X214478500Y-101519500D01*
X214514500Y-101510000D01*
X214551000Y-101502500D01*
X214587500Y-101496500D01*
X214624500Y-101492500D01*
X214662000Y-101490500D01*
X214699000Y-101490000D01*
X214736000Y-101491500D01*
G37*
G36*
X214703424Y-101889441D02*
G01*
X214721560Y-101890750D01*
X214739387Y-101892908D01*
X214756886Y-101895896D01*
X214774039Y-101899696D01*
X214790824Y-101904286D01*
X214807224Y-101909649D01*
X214823218Y-101915766D01*
X214838788Y-101922616D01*
X214853913Y-101930180D01*
X214868575Y-101938441D01*
X214882754Y-101947377D01*
X214896430Y-101956970D01*
X214909584Y-101967201D01*
X214922197Y-101978051D01*
X214934250Y-101989500D01*
X214945722Y-102001529D01*
X214956595Y-102014119D01*
X214966849Y-102027250D01*
X214976464Y-102040904D01*
X214985422Y-102055061D01*
X214993703Y-102069702D01*
X215001287Y-102084808D01*
X215008156Y-102100359D01*
X215014289Y-102116337D01*
X215019667Y-102132721D01*
X215024271Y-102149494D01*
X215028082Y-102166635D01*
X215031079Y-102184125D01*
X215033244Y-102201946D01*
X215034557Y-102220077D01*
X215035000Y-102238500D01*
X215034557Y-102256924D01*
X215033244Y-102275060D01*
X215031079Y-102292887D01*
X215028082Y-102310387D01*
X215024271Y-102327539D01*
X215019667Y-102344325D01*
X215014289Y-102360724D01*
X215008156Y-102376719D01*
X215001287Y-102392288D01*
X214993703Y-102407414D01*
X214985422Y-102422075D01*
X214976464Y-102436254D01*
X214966849Y-102449930D01*
X214956595Y-102463084D01*
X214945722Y-102475698D01*
X214934250Y-102487750D01*
X214922197Y-102499222D01*
X214909584Y-102510095D01*
X214896430Y-102520349D01*
X214882754Y-102529965D01*
X214868575Y-102538923D01*
X214853913Y-102547204D01*
X214838788Y-102554788D01*
X214823218Y-102561656D01*
X214807224Y-102567789D01*
X214790824Y-102573167D01*
X214774039Y-102577772D01*
X214756886Y-102581582D01*
X214739387Y-102584580D01*
X214721560Y-102586745D01*
X214703424Y-102588058D01*
X214685000Y-102588500D01*
X214666577Y-102588058D01*
X214648445Y-102586745D01*
X214630625Y-102584580D01*
X214613134Y-102581582D01*
X214595994Y-102577772D01*
X214579221Y-102573167D01*
X214562837Y-102567789D01*
X214546859Y-102561656D01*
X214531308Y-102554788D01*
X214516202Y-102547204D01*
X214501561Y-102538923D01*
X214487404Y-102529965D01*
X214473750Y-102520349D01*
X214460619Y-102510095D01*
X214448029Y-102499222D01*
X214436000Y-102487750D01*
X214424551Y-102475698D01*
X214413701Y-102463084D01*
X214403470Y-102449930D01*
X214393877Y-102436254D01*
X214384940Y-102422075D01*
X214376680Y-102407414D01*
X214369115Y-102392288D01*
X214362265Y-102376719D01*
X214356149Y-102360724D01*
X214350786Y-102344325D01*
X214346195Y-102327539D01*
X214342396Y-102310387D01*
X214339408Y-102292887D01*
X214337249Y-102275060D01*
X214335940Y-102256924D01*
X214335500Y-102238500D01*
X214335940Y-102220077D01*
X214337249Y-102201946D01*
X214339408Y-102184125D01*
X214342396Y-102166635D01*
X214346195Y-102149494D01*
X214350786Y-102132721D01*
X214356149Y-102116337D01*
X214362265Y-102100359D01*
X214369115Y-102084808D01*
X214376680Y-102069702D01*
X214384940Y-102055061D01*
X214393877Y-102040904D01*
X214403470Y-102027250D01*
X214413701Y-102014119D01*
X214424551Y-102001529D01*
X214436000Y-101989500D01*
X214448029Y-101978051D01*
X214460619Y-101967201D01*
X214473750Y-101956970D01*
X214487404Y-101947377D01*
X214501561Y-101938441D01*
X214516202Y-101930180D01*
X214531308Y-101922616D01*
X214546859Y-101915766D01*
X214562837Y-101909649D01*
X214579221Y-101904286D01*
X214595994Y-101899696D01*
X214613134Y-101895896D01*
X214630625Y-101892908D01*
X214648445Y-101890750D01*
X214666577Y-101889441D01*
X214685000Y-101889000D01*
X214703424Y-101889441D01*
G37*
D12*
X212144786Y-101073775D02*
X211687643Y-101073775D01*
X211916215Y-101073775D02*
X211916215Y-100273775D01*
X211916215Y-100273775D02*
X211840024Y-100388060D01*
X211840024Y-100388060D02*
X211763834Y-100464251D01*
X211763834Y-100464251D02*
X211687643Y-100502346D01*
X212449548Y-100349965D02*
X212487644Y-100311870D01*
X212487644Y-100311870D02*
X212563834Y-100273775D01*
X212563834Y-100273775D02*
X212754310Y-100273775D01*
X212754310Y-100273775D02*
X212830501Y-100311870D01*
X212830501Y-100311870D02*
X212868596Y-100349965D01*
X212868596Y-100349965D02*
X212906691Y-100426156D01*
X212906691Y-100426156D02*
X212906691Y-100502346D01*
X212906691Y-100502346D02*
X212868596Y-100616632D01*
X212868596Y-100616632D02*
X212411453Y-101073775D01*
X212411453Y-101073775D02*
X212906691Y-101073775D01*
X213173358Y-100540441D02*
X213363834Y-101073775D01*
X213363834Y-101073775D02*
X213554311Y-100540441D01*
X214735263Y-100654727D02*
X214849549Y-100692822D01*
X214849549Y-100692822D02*
X214887644Y-100730918D01*
X214887644Y-100730918D02*
X214925740Y-100807108D01*
X214925740Y-100807108D02*
X214925740Y-100921394D01*
X214925740Y-100921394D02*
X214887644Y-100997584D01*
X214887644Y-100997584D02*
X214849549Y-101035680D01*
X214849549Y-101035680D02*
X214773359Y-101073775D01*
X214773359Y-101073775D02*
X214468597Y-101073775D01*
X214468597Y-101073775D02*
X214468597Y-100273775D01*
X214468597Y-100273775D02*
X214735263Y-100273775D01*
X214735263Y-100273775D02*
X214811454Y-100311870D01*
X214811454Y-100311870D02*
X214849549Y-100349965D01*
X214849549Y-100349965D02*
X214887644Y-100426156D01*
X214887644Y-100426156D02*
X214887644Y-100502346D01*
X214887644Y-100502346D02*
X214849549Y-100578537D01*
X214849549Y-100578537D02*
X214811454Y-100616632D01*
X214811454Y-100616632D02*
X214735263Y-100654727D01*
X214735263Y-100654727D02*
X214468597Y-100654727D01*
X215611454Y-101073775D02*
X215611454Y-100654727D01*
X215611454Y-100654727D02*
X215573359Y-100578537D01*
X215573359Y-100578537D02*
X215497168Y-100540441D01*
X215497168Y-100540441D02*
X215344787Y-100540441D01*
X215344787Y-100540441D02*
X215268597Y-100578537D01*
X215611454Y-101035680D02*
X215535263Y-101073775D01*
X215535263Y-101073775D02*
X215344787Y-101073775D01*
X215344787Y-101073775D02*
X215268597Y-101035680D01*
X215268597Y-101035680D02*
X215230501Y-100959489D01*
X215230501Y-100959489D02*
X215230501Y-100883299D01*
X215230501Y-100883299D02*
X215268597Y-100807108D01*
X215268597Y-100807108D02*
X215344787Y-100769013D01*
X215344787Y-100769013D02*
X215535263Y-100769013D01*
X215535263Y-100769013D02*
X215611454Y-100730918D01*
X215992407Y-101073775D02*
X215992407Y-100540441D01*
X215992407Y-100692822D02*
X216030502Y-100616632D01*
X216030502Y-100616632D02*
X216068597Y-100578537D01*
X216068597Y-100578537D02*
X216144788Y-100540441D01*
X216144788Y-100540441D02*
X216220978Y-100540441D01*
X216487645Y-101073775D02*
X216487645Y-100540441D01*
X216487645Y-100692822D02*
X216525740Y-100616632D01*
X216525740Y-100616632D02*
X216563835Y-100578537D01*
X216563835Y-100578537D02*
X216640026Y-100540441D01*
X216640026Y-100540441D02*
X216716216Y-100540441D01*
X217287645Y-101035680D02*
X217211454Y-101073775D01*
X217211454Y-101073775D02*
X217059073Y-101073775D01*
X217059073Y-101073775D02*
X216982883Y-101035680D01*
X216982883Y-101035680D02*
X216944787Y-100959489D01*
X216944787Y-100959489D02*
X216944787Y-100654727D01*
X216944787Y-100654727D02*
X216982883Y-100578537D01*
X216982883Y-100578537D02*
X217059073Y-100540441D01*
X217059073Y-100540441D02*
X217211454Y-100540441D01*
X217211454Y-100540441D02*
X217287645Y-100578537D01*
X217287645Y-100578537D02*
X217325740Y-100654727D01*
X217325740Y-100654727D02*
X217325740Y-100730918D01*
X217325740Y-100730918D02*
X216944787Y-100807108D01*
X217782882Y-101073775D02*
X217706692Y-101035680D01*
X217706692Y-101035680D02*
X217668597Y-100959489D01*
X217668597Y-100959489D02*
X217668597Y-100273775D01*
D13*
X215863609Y-116133258D02*
X215863609Y-116418972D01*
X215863609Y-116276115D02*
X215363609Y-116276115D01*
X215363609Y-116276115D02*
X215435038Y-116323734D01*
X215435038Y-116323734D02*
X215482657Y-116371353D01*
X215482657Y-116371353D02*
X215506466Y-116418972D01*
X89964836Y-100513133D02*
X90345789Y-100513133D01*
X90155312Y-100703609D02*
X90155312Y-100322657D01*
X90821979Y-100203609D02*
X90583884Y-100203609D01*
X90583884Y-100203609D02*
X90560075Y-100441704D01*
X90560075Y-100441704D02*
X90583884Y-100417895D01*
X90583884Y-100417895D02*
X90631503Y-100394085D01*
X90631503Y-100394085D02*
X90750551Y-100394085D01*
X90750551Y-100394085D02*
X90798170Y-100417895D01*
X90798170Y-100417895D02*
X90821979Y-100441704D01*
X90821979Y-100441704D02*
X90845789Y-100489323D01*
X90845789Y-100489323D02*
X90845789Y-100608371D01*
X90845789Y-100608371D02*
X90821979Y-100655990D01*
X90821979Y-100655990D02*
X90798170Y-100679800D01*
X90798170Y-100679800D02*
X90750551Y-100703609D01*
X90750551Y-100703609D02*
X90631503Y-100703609D01*
X90631503Y-100703609D02*
X90583884Y-100679800D01*
X90583884Y-100679800D02*
X90560075Y-100655990D01*
X91012455Y-100370276D02*
X91131503Y-100703609D01*
X91131503Y-100703609D02*
X91250550Y-100370276D01*
D14*
X214551425Y-149209774D02*
X214551425Y-149643108D01*
X215232377Y-149643108D02*
X213932377Y-149643108D01*
X213932377Y-149643108D02*
X213932377Y-149024060D01*
X215232377Y-148343107D02*
X215170473Y-148466917D01*
X215170473Y-148466917D02*
X215046663Y-148528822D01*
X215046663Y-148528822D02*
X213932377Y-148528822D01*
X215232377Y-147847870D02*
X214365711Y-147847870D01*
X213932377Y-147847870D02*
X213994282Y-147909774D01*
X213994282Y-147909774D02*
X214056187Y-147847870D01*
X214056187Y-147847870D02*
X213994282Y-147785965D01*
X213994282Y-147785965D02*
X213932377Y-147847870D01*
X213932377Y-147847870D02*
X214056187Y-147847870D01*
X214365711Y-147228822D02*
X215665711Y-147228822D01*
X214427615Y-147228822D02*
X214365711Y-147105012D01*
X214365711Y-147105012D02*
X214365711Y-146857393D01*
X214365711Y-146857393D02*
X214427615Y-146733584D01*
X214427615Y-146733584D02*
X214489520Y-146671679D01*
X214489520Y-146671679D02*
X214613330Y-146609774D01*
X214613330Y-146609774D02*
X214984758Y-146609774D01*
X214984758Y-146609774D02*
X215108568Y-146671679D01*
X215108568Y-146671679D02*
X215170473Y-146733584D01*
X215170473Y-146733584D02*
X215232377Y-146857393D01*
X215232377Y-146857393D02*
X215232377Y-147105012D01*
X215232377Y-147105012D02*
X215170473Y-147228822D01*
X215232377Y-145495489D02*
X213932377Y-145495489D01*
X215170473Y-145495489D02*
X215232377Y-145619298D01*
X215232377Y-145619298D02*
X215232377Y-145866917D01*
X215232377Y-145866917D02*
X215170473Y-145990727D01*
X215170473Y-145990727D02*
X215108568Y-146052632D01*
X215108568Y-146052632D02*
X214984758Y-146114536D01*
X214984758Y-146114536D02*
X214613330Y-146114536D01*
X214613330Y-146114536D02*
X214489520Y-146052632D01*
X214489520Y-146052632D02*
X214427615Y-145990727D01*
X214427615Y-145990727D02*
X214365711Y-145866917D01*
X214365711Y-145866917D02*
X214365711Y-145619298D01*
X214365711Y-145619298D02*
X214427615Y-145495489D01*
X215232377Y-144690727D02*
X215170473Y-144814537D01*
X215170473Y-144814537D02*
X215108568Y-144876442D01*
X215108568Y-144876442D02*
X214984758Y-144938346D01*
X214984758Y-144938346D02*
X214613330Y-144938346D01*
X214613330Y-144938346D02*
X214489520Y-144876442D01*
X214489520Y-144876442D02*
X214427615Y-144814537D01*
X214427615Y-144814537D02*
X214365711Y-144690727D01*
X214365711Y-144690727D02*
X214365711Y-144505013D01*
X214365711Y-144505013D02*
X214427615Y-144381204D01*
X214427615Y-144381204D02*
X214489520Y-144319299D01*
X214489520Y-144319299D02*
X214613330Y-144257394D01*
X214613330Y-144257394D02*
X214984758Y-144257394D01*
X214984758Y-144257394D02*
X215108568Y-144319299D01*
X215108568Y-144319299D02*
X215170473Y-144381204D01*
X215170473Y-144381204D02*
X215232377Y-144505013D01*
X215232377Y-144505013D02*
X215232377Y-144690727D01*
X214365711Y-143885966D02*
X214365711Y-143390728D01*
X213932377Y-143700252D02*
X215046663Y-143700252D01*
X215046663Y-143700252D02*
X215170473Y-143638347D01*
X215170473Y-143638347D02*
X215232377Y-143514537D01*
X215232377Y-143514537D02*
X215232377Y-143390728D01*
X214860949Y-142028823D02*
X214860949Y-141409776D01*
X215232377Y-142152633D02*
X213932377Y-141719300D01*
X213932377Y-141719300D02*
X215232377Y-141285966D01*
X215232377Y-140852633D02*
X214365711Y-140852633D01*
X214613330Y-140852633D02*
X214489520Y-140790728D01*
X214489520Y-140790728D02*
X214427615Y-140728823D01*
X214427615Y-140728823D02*
X214365711Y-140605014D01*
X214365711Y-140605014D02*
X214365711Y-140481204D01*
X215232377Y-140047871D02*
X214365711Y-140047871D01*
X214613330Y-140047871D02*
X214489520Y-139985966D01*
X214489520Y-139985966D02*
X214427615Y-139924061D01*
X214427615Y-139924061D02*
X214365711Y-139800252D01*
X214365711Y-139800252D02*
X214365711Y-139676442D01*
X215232377Y-138685966D02*
X214551425Y-138685966D01*
X214551425Y-138685966D02*
X214427615Y-138747871D01*
X214427615Y-138747871D02*
X214365711Y-138871680D01*
X214365711Y-138871680D02*
X214365711Y-139119299D01*
X214365711Y-139119299D02*
X214427615Y-139243109D01*
X215170473Y-138685966D02*
X215232377Y-138809775D01*
X215232377Y-138809775D02*
X215232377Y-139119299D01*
X215232377Y-139119299D02*
X215170473Y-139243109D01*
X215170473Y-139243109D02*
X215046663Y-139305013D01*
X215046663Y-139305013D02*
X214922853Y-139305013D01*
X214922853Y-139305013D02*
X214799044Y-139243109D01*
X214799044Y-139243109D02*
X214737139Y-139119299D01*
X214737139Y-139119299D02*
X214737139Y-138809775D01*
X214737139Y-138809775D02*
X214675234Y-138685966D01*
X214365711Y-138190728D02*
X215232377Y-137881204D01*
X214365711Y-137571681D02*
X215232377Y-137881204D01*
X215232377Y-137881204D02*
X215541901Y-138005014D01*
X215541901Y-138005014D02*
X215603806Y-138066919D01*
X215603806Y-138066919D02*
X215665711Y-138190728D01*
X215108568Y-135343110D02*
X215170473Y-135405014D01*
X215170473Y-135405014D02*
X215232377Y-135590729D01*
X215232377Y-135590729D02*
X215232377Y-135714538D01*
X215232377Y-135714538D02*
X215170473Y-135900252D01*
X215170473Y-135900252D02*
X215046663Y-136024062D01*
X215046663Y-136024062D02*
X214922853Y-136085967D01*
X214922853Y-136085967D02*
X214675234Y-136147871D01*
X214675234Y-136147871D02*
X214489520Y-136147871D01*
X214489520Y-136147871D02*
X214241901Y-136085967D01*
X214241901Y-136085967D02*
X214118092Y-136024062D01*
X214118092Y-136024062D02*
X213994282Y-135900252D01*
X213994282Y-135900252D02*
X213932377Y-135714538D01*
X213932377Y-135714538D02*
X213932377Y-135590729D01*
X213932377Y-135590729D02*
X213994282Y-135405014D01*
X213994282Y-135405014D02*
X214056187Y-135343110D01*
X215232377Y-134600252D02*
X215170473Y-134724062D01*
X215170473Y-134724062D02*
X215108568Y-134785967D01*
X215108568Y-134785967D02*
X214984758Y-134847871D01*
X214984758Y-134847871D02*
X214613330Y-134847871D01*
X214613330Y-134847871D02*
X214489520Y-134785967D01*
X214489520Y-134785967D02*
X214427615Y-134724062D01*
X214427615Y-134724062D02*
X214365711Y-134600252D01*
X214365711Y-134600252D02*
X214365711Y-134414538D01*
X214365711Y-134414538D02*
X214427615Y-134290729D01*
X214427615Y-134290729D02*
X214489520Y-134228824D01*
X214489520Y-134228824D02*
X214613330Y-134166919D01*
X214613330Y-134166919D02*
X214984758Y-134166919D01*
X214984758Y-134166919D02*
X215108568Y-134228824D01*
X215108568Y-134228824D02*
X215170473Y-134290729D01*
X215170473Y-134290729D02*
X215232377Y-134414538D01*
X215232377Y-134414538D02*
X215232377Y-134600252D01*
X214365711Y-133609777D02*
X215232377Y-133609777D01*
X214489520Y-133609777D02*
X214427615Y-133547872D01*
X214427615Y-133547872D02*
X214365711Y-133424062D01*
X214365711Y-133424062D02*
X214365711Y-133238348D01*
X214365711Y-133238348D02*
X214427615Y-133114539D01*
X214427615Y-133114539D02*
X214551425Y-133052634D01*
X214551425Y-133052634D02*
X215232377Y-133052634D01*
X214365711Y-132619301D02*
X214365711Y-132124063D01*
X213932377Y-132433587D02*
X215046663Y-132433587D01*
X215046663Y-132433587D02*
X215170473Y-132371682D01*
X215170473Y-132371682D02*
X215232377Y-132247872D01*
X215232377Y-132247872D02*
X215232377Y-132124063D01*
X215232377Y-131690730D02*
X214365711Y-131690730D01*
X214613330Y-131690730D02*
X214489520Y-131628825D01*
X214489520Y-131628825D02*
X214427615Y-131566920D01*
X214427615Y-131566920D02*
X214365711Y-131443111D01*
X214365711Y-131443111D02*
X214365711Y-131319301D01*
X215232377Y-130700253D02*
X215170473Y-130824063D01*
X215170473Y-130824063D02*
X215108568Y-130885968D01*
X215108568Y-130885968D02*
X214984758Y-130947872D01*
X214984758Y-130947872D02*
X214613330Y-130947872D01*
X214613330Y-130947872D02*
X214489520Y-130885968D01*
X214489520Y-130885968D02*
X214427615Y-130824063D01*
X214427615Y-130824063D02*
X214365711Y-130700253D01*
X214365711Y-130700253D02*
X214365711Y-130514539D01*
X214365711Y-130514539D02*
X214427615Y-130390730D01*
X214427615Y-130390730D02*
X214489520Y-130328825D01*
X214489520Y-130328825D02*
X214613330Y-130266920D01*
X214613330Y-130266920D02*
X214984758Y-130266920D01*
X214984758Y-130266920D02*
X215108568Y-130328825D01*
X215108568Y-130328825D02*
X215170473Y-130390730D01*
X215170473Y-130390730D02*
X215232377Y-130514539D01*
X215232377Y-130514539D02*
X215232377Y-130700253D01*
X215232377Y-129524063D02*
X215170473Y-129647873D01*
X215170473Y-129647873D02*
X215046663Y-129709778D01*
X215046663Y-129709778D02*
X213932377Y-129709778D01*
X215232377Y-128843111D02*
X215170473Y-128966921D01*
X215170473Y-128966921D02*
X215046663Y-129028826D01*
X215046663Y-129028826D02*
X213932377Y-129028826D01*
X215170473Y-127852636D02*
X215232377Y-127976445D01*
X215232377Y-127976445D02*
X215232377Y-128224064D01*
X215232377Y-128224064D02*
X215170473Y-128347874D01*
X215170473Y-128347874D02*
X215046663Y-128409778D01*
X215046663Y-128409778D02*
X214551425Y-128409778D01*
X214551425Y-128409778D02*
X214427615Y-128347874D01*
X214427615Y-128347874D02*
X214365711Y-128224064D01*
X214365711Y-128224064D02*
X214365711Y-127976445D01*
X214365711Y-127976445D02*
X214427615Y-127852636D01*
X214427615Y-127852636D02*
X214551425Y-127790731D01*
X214551425Y-127790731D02*
X214675234Y-127790731D01*
X214675234Y-127790731D02*
X214799044Y-128409778D01*
X215232377Y-127233588D02*
X214365711Y-127233588D01*
X214613330Y-127233588D02*
X214489520Y-127171683D01*
X214489520Y-127171683D02*
X214427615Y-127109778D01*
X214427615Y-127109778D02*
X214365711Y-126985969D01*
X214365711Y-126985969D02*
X214365711Y-126862159D01*
X216025304Y-149828822D02*
X216025304Y-149085965D01*
X217325304Y-149457393D02*
X216025304Y-149457393D01*
X216458638Y-148776441D02*
X217325304Y-148466917D01*
X216458638Y-148157394D02*
X217325304Y-148466917D01*
X217325304Y-148466917D02*
X217634828Y-148590727D01*
X217634828Y-148590727D02*
X217696733Y-148652632D01*
X217696733Y-148652632D02*
X217758638Y-148776441D01*
X217325304Y-147476441D02*
X217263400Y-147600251D01*
X217263400Y-147600251D02*
X217139590Y-147662156D01*
X217139590Y-147662156D02*
X216025304Y-147662156D01*
X217263400Y-146485966D02*
X217325304Y-146609775D01*
X217325304Y-146609775D02*
X217325304Y-146857394D01*
X217325304Y-146857394D02*
X217263400Y-146981204D01*
X217263400Y-146981204D02*
X217139590Y-147043108D01*
X217139590Y-147043108D02*
X216644352Y-147043108D01*
X216644352Y-147043108D02*
X216520542Y-146981204D01*
X216520542Y-146981204D02*
X216458638Y-146857394D01*
X216458638Y-146857394D02*
X216458638Y-146609775D01*
X216458638Y-146609775D02*
X216520542Y-146485966D01*
X216520542Y-146485966D02*
X216644352Y-146424061D01*
X216644352Y-146424061D02*
X216768161Y-146424061D01*
X216768161Y-146424061D02*
X216891971Y-147043108D01*
X217325304Y-145866918D02*
X216458638Y-145866918D01*
X216706257Y-145866918D02*
X216582447Y-145805013D01*
X216582447Y-145805013D02*
X216520542Y-145743108D01*
X216520542Y-145743108D02*
X216458638Y-145619299D01*
X216458638Y-145619299D02*
X216458638Y-145495489D01*
X216644352Y-143638346D02*
X216706257Y-143452632D01*
X216706257Y-143452632D02*
X216768161Y-143390727D01*
X216768161Y-143390727D02*
X216891971Y-143328823D01*
X216891971Y-143328823D02*
X217077685Y-143328823D01*
X217077685Y-143328823D02*
X217201495Y-143390727D01*
X217201495Y-143390727D02*
X217263400Y-143452632D01*
X217263400Y-143452632D02*
X217325304Y-143576442D01*
X217325304Y-143576442D02*
X217325304Y-144071680D01*
X217325304Y-144071680D02*
X216025304Y-144071680D01*
X216025304Y-144071680D02*
X216025304Y-143638346D01*
X216025304Y-143638346D02*
X216087209Y-143514537D01*
X216087209Y-143514537D02*
X216149114Y-143452632D01*
X216149114Y-143452632D02*
X216272923Y-143390727D01*
X216272923Y-143390727D02*
X216396733Y-143390727D01*
X216396733Y-143390727D02*
X216520542Y-143452632D01*
X216520542Y-143452632D02*
X216582447Y-143514537D01*
X216582447Y-143514537D02*
X216644352Y-143638346D01*
X216644352Y-143638346D02*
X216644352Y-144071680D01*
X217325304Y-142585965D02*
X217263400Y-142709775D01*
X217263400Y-142709775D02*
X217201495Y-142771680D01*
X217201495Y-142771680D02*
X217077685Y-142833584D01*
X217077685Y-142833584D02*
X216706257Y-142833584D01*
X216706257Y-142833584D02*
X216582447Y-142771680D01*
X216582447Y-142771680D02*
X216520542Y-142709775D01*
X216520542Y-142709775D02*
X216458638Y-142585965D01*
X216458638Y-142585965D02*
X216458638Y-142400251D01*
X216458638Y-142400251D02*
X216520542Y-142276442D01*
X216520542Y-142276442D02*
X216582447Y-142214537D01*
X216582447Y-142214537D02*
X216706257Y-142152632D01*
X216706257Y-142152632D02*
X217077685Y-142152632D01*
X217077685Y-142152632D02*
X217201495Y-142214537D01*
X217201495Y-142214537D02*
X217263400Y-142276442D01*
X217263400Y-142276442D02*
X217325304Y-142400251D01*
X217325304Y-142400251D02*
X217325304Y-142585965D01*
X216458638Y-141719299D02*
X217325304Y-141471680D01*
X217325304Y-141471680D02*
X216706257Y-141224061D01*
X216706257Y-141224061D02*
X217325304Y-140976442D01*
X217325304Y-140976442D02*
X216458638Y-140728823D01*
X217263400Y-139738347D02*
X217325304Y-139862156D01*
X217325304Y-139862156D02*
X217325304Y-140109775D01*
X217325304Y-140109775D02*
X217263400Y-140233585D01*
X217263400Y-140233585D02*
X217139590Y-140295489D01*
X217139590Y-140295489D02*
X216644352Y-140295489D01*
X216644352Y-140295489D02*
X216520542Y-140233585D01*
X216520542Y-140233585D02*
X216458638Y-140109775D01*
X216458638Y-140109775D02*
X216458638Y-139862156D01*
X216458638Y-139862156D02*
X216520542Y-139738347D01*
X216520542Y-139738347D02*
X216644352Y-139676442D01*
X216644352Y-139676442D02*
X216768161Y-139676442D01*
X216768161Y-139676442D02*
X216891971Y-140295489D01*
X217325304Y-139119299D02*
X216458638Y-139119299D01*
X216706257Y-139119299D02*
X216582447Y-139057394D01*
X216582447Y-139057394D02*
X216520542Y-138995489D01*
X216520542Y-138995489D02*
X216458638Y-138871680D01*
X216458638Y-138871680D02*
X216458638Y-138747870D01*
X217263400Y-138376441D02*
X217325304Y-138252632D01*
X217325304Y-138252632D02*
X217325304Y-138005013D01*
X217325304Y-138005013D02*
X217263400Y-137881203D01*
X217263400Y-137881203D02*
X217139590Y-137819299D01*
X217139590Y-137819299D02*
X217077685Y-137819299D01*
X217077685Y-137819299D02*
X216953876Y-137881203D01*
X216953876Y-137881203D02*
X216891971Y-138005013D01*
X216891971Y-138005013D02*
X216891971Y-138190727D01*
X216891971Y-138190727D02*
X216830066Y-138314537D01*
X216830066Y-138314537D02*
X216706257Y-138376441D01*
X216706257Y-138376441D02*
X216644352Y-138376441D01*
X216644352Y-138376441D02*
X216520542Y-138314537D01*
X216520542Y-138314537D02*
X216458638Y-138190727D01*
X216458638Y-138190727D02*
X216458638Y-138005013D01*
X216458638Y-138005013D02*
X216520542Y-137881203D01*
X216149114Y-136333584D02*
X216087209Y-136271680D01*
X216087209Y-136271680D02*
X216025304Y-136147870D01*
X216025304Y-136147870D02*
X216025304Y-135838346D01*
X216025304Y-135838346D02*
X216087209Y-135714537D01*
X216087209Y-135714537D02*
X216149114Y-135652632D01*
X216149114Y-135652632D02*
X216272923Y-135590727D01*
X216272923Y-135590727D02*
X216396733Y-135590727D01*
X216396733Y-135590727D02*
X216582447Y-135652632D01*
X216582447Y-135652632D02*
X217325304Y-136395489D01*
X217325304Y-136395489D02*
X217325304Y-135590727D01*
X216025304Y-134785966D02*
X216025304Y-134662156D01*
X216025304Y-134662156D02*
X216087209Y-134538347D01*
X216087209Y-134538347D02*
X216149114Y-134476442D01*
X216149114Y-134476442D02*
X216272923Y-134414537D01*
X216272923Y-134414537D02*
X216520542Y-134352632D01*
X216520542Y-134352632D02*
X216830066Y-134352632D01*
X216830066Y-134352632D02*
X217077685Y-134414537D01*
X217077685Y-134414537D02*
X217201495Y-134476442D01*
X217201495Y-134476442D02*
X217263400Y-134538347D01*
X217263400Y-134538347D02*
X217325304Y-134662156D01*
X217325304Y-134662156D02*
X217325304Y-134785966D01*
X217325304Y-134785966D02*
X217263400Y-134909775D01*
X217263400Y-134909775D02*
X217201495Y-134971680D01*
X217201495Y-134971680D02*
X217077685Y-135033585D01*
X217077685Y-135033585D02*
X216830066Y-135095489D01*
X216830066Y-135095489D02*
X216520542Y-135095489D01*
X216520542Y-135095489D02*
X216272923Y-135033585D01*
X216272923Y-135033585D02*
X216149114Y-134971680D01*
X216149114Y-134971680D02*
X216087209Y-134909775D01*
X216087209Y-134909775D02*
X216025304Y-134785966D01*
X216149114Y-133857394D02*
X216087209Y-133795490D01*
X216087209Y-133795490D02*
X216025304Y-133671680D01*
X216025304Y-133671680D02*
X216025304Y-133362156D01*
X216025304Y-133362156D02*
X216087209Y-133238347D01*
X216087209Y-133238347D02*
X216149114Y-133176442D01*
X216149114Y-133176442D02*
X216272923Y-133114537D01*
X216272923Y-133114537D02*
X216396733Y-133114537D01*
X216396733Y-133114537D02*
X216582447Y-133176442D01*
X216582447Y-133176442D02*
X217325304Y-133919299D01*
X217325304Y-133919299D02*
X217325304Y-133114537D01*
X216458638Y-132000252D02*
X217325304Y-132000252D01*
X215963400Y-132309776D02*
X216891971Y-132619299D01*
X216891971Y-132619299D02*
X216891971Y-131814538D01*
D13*
X90121704Y-103665163D02*
X90121704Y-103498496D01*
X90383609Y-103427068D02*
X90383609Y-103665163D01*
X90383609Y-103665163D02*
X89883609Y-103665163D01*
X89883609Y-103665163D02*
X89883609Y-103427068D01*
X90359800Y-103236591D02*
X90383609Y-103165163D01*
X90383609Y-103165163D02*
X90383609Y-103046115D01*
X90383609Y-103046115D02*
X90359800Y-102998496D01*
X90359800Y-102998496D02*
X90335990Y-102974687D01*
X90335990Y-102974687D02*
X90288371Y-102950877D01*
X90288371Y-102950877D02*
X90240752Y-102950877D01*
X90240752Y-102950877D02*
X90193133Y-102974687D01*
X90193133Y-102974687D02*
X90169323Y-102998496D01*
X90169323Y-102998496D02*
X90145514Y-103046115D01*
X90145514Y-103046115D02*
X90121704Y-103141353D01*
X90121704Y-103141353D02*
X90097895Y-103188972D01*
X90097895Y-103188972D02*
X90074085Y-103212782D01*
X90074085Y-103212782D02*
X90026466Y-103236591D01*
X90026466Y-103236591D02*
X89978847Y-103236591D01*
X89978847Y-103236591D02*
X89931228Y-103212782D01*
X89931228Y-103212782D02*
X89907419Y-103188972D01*
X89907419Y-103188972D02*
X89883609Y-103141353D01*
X89883609Y-103141353D02*
X89883609Y-103022306D01*
X89883609Y-103022306D02*
X89907419Y-102950877D01*
X90383609Y-102736592D02*
X89883609Y-102736592D01*
X89883609Y-102736592D02*
X89883609Y-102546116D01*
X89883609Y-102546116D02*
X89907419Y-102498497D01*
X89907419Y-102498497D02*
X89931228Y-102474687D01*
X89931228Y-102474687D02*
X89978847Y-102450878D01*
X89978847Y-102450878D02*
X90050276Y-102450878D01*
X90050276Y-102450878D02*
X90097895Y-102474687D01*
X90097895Y-102474687D02*
X90121704Y-102498497D01*
X90121704Y-102498497D02*
X90145514Y-102546116D01*
X90145514Y-102546116D02*
X90145514Y-102736592D01*
X89883609Y-102284211D02*
X89883609Y-101974687D01*
X89883609Y-101974687D02*
X90074085Y-102141354D01*
X90074085Y-102141354D02*
X90074085Y-102069925D01*
X90074085Y-102069925D02*
X90097895Y-102022306D01*
X90097895Y-102022306D02*
X90121704Y-101998497D01*
X90121704Y-101998497D02*
X90169323Y-101974687D01*
X90169323Y-101974687D02*
X90288371Y-101974687D01*
X90288371Y-101974687D02*
X90335990Y-101998497D01*
X90335990Y-101998497D02*
X90359800Y-102022306D01*
X90359800Y-102022306D02*
X90383609Y-102069925D01*
X90383609Y-102069925D02*
X90383609Y-102212782D01*
X90383609Y-102212782D02*
X90359800Y-102260401D01*
X90359800Y-102260401D02*
X90335990Y-102284211D01*
X89931228Y-101784211D02*
X89907419Y-101760402D01*
X89907419Y-101760402D02*
X89883609Y-101712783D01*
X89883609Y-101712783D02*
X89883609Y-101593735D01*
X89883609Y-101593735D02*
X89907419Y-101546116D01*
X89907419Y-101546116D02*
X89931228Y-101522307D01*
X89931228Y-101522307D02*
X89978847Y-101498497D01*
X89978847Y-101498497D02*
X90026466Y-101498497D01*
X90026466Y-101498497D02*
X90097895Y-101522307D01*
X90097895Y-101522307D02*
X90383609Y-101808021D01*
X90383609Y-101808021D02*
X90383609Y-101498497D01*
D15*
X87290000Y-102400000D02*
X89740000Y-102400000D01*
X89740000Y-140410000D01*
X87290000Y-140410000D01*
X87290000Y-102400000D01*
D16*
X215777500Y-107803150D02*
X215777500Y-107168150D01*
X215460000Y-107485650D02*
X216095000Y-107485650D01*
D17*
X212950000Y-108950000D02*
X218105000Y-108950000D01*
X212950000Y-108950000D02*
X212950000Y-116570000D01*
X212950000Y-116570000D02*
X218105000Y-116570000D01*
D16*
X211828800Y-112933303D02*
X211828800Y-110126697D01*
X208171200Y-110126697D02*
X208171200Y-112933303D01*
X208695000Y-118820000D02*
X209330000Y-118820000D01*
X209012500Y-118502500D02*
X209012500Y-119137500D01*
D13*
X196630000Y-103665000D02*
X211130000Y-103665000D01*
X196630000Y-103665000D02*
X196630000Y-99515000D01*
X211130000Y-103665000D02*
X211130000Y-99515000D01*
D18*
X157065000Y-123710000D02*
X157065000Y-123419000D01*
X157065000Y-121170000D02*
X157065000Y-121461000D01*
X153255000Y-123419000D02*
X153255000Y-123710000D01*
X153255000Y-121170000D02*
X153255000Y-121461000D01*
X157065000Y-121170000D02*
X153255000Y-121170000D01*
X153255000Y-123710000D02*
X157065000Y-123710000D01*
X203415000Y-126600000D02*
X203415000Y-126891000D01*
X203415000Y-129140000D02*
X203415000Y-128849000D01*
X207225000Y-126891000D02*
X207225000Y-126600000D01*
X207225000Y-129140000D02*
X207225000Y-128849000D01*
X203415000Y-129140000D02*
X207225000Y-129140000D01*
X207225000Y-126600000D02*
X203415000Y-126600000D01*
D17*
X118100000Y-150590000D02*
X118100000Y-99830000D01*
X120600000Y-150590000D02*
X118100000Y-150590000D01*
X118100000Y-148070000D02*
X120600000Y-148070000D01*
X118100000Y-99830000D02*
X120600000Y-99830000D01*
X120600000Y-99830000D02*
X120600000Y-150590000D01*
D18*
X157075000Y-148870000D02*
X157075000Y-148579000D01*
X157075000Y-146330000D02*
X157075000Y-146621000D01*
X153265000Y-148579000D02*
X153265000Y-148870000D01*
X153265000Y-146330000D02*
X153265000Y-146621000D01*
X157075000Y-146330000D02*
X153265000Y-146330000D01*
X153265000Y-148870000D02*
X157075000Y-148870000D01*
X142815000Y-126690000D02*
X142815000Y-126981000D01*
X142815000Y-129230000D02*
X142815000Y-128939000D01*
X146625000Y-126981000D02*
X146625000Y-126690000D01*
X146625000Y-129230000D02*
X146625000Y-128939000D01*
X142815000Y-129230000D02*
X146625000Y-129230000D01*
X146625000Y-126690000D02*
X142815000Y-126690000D01*
X195905000Y-102540000D02*
X195905000Y-102249000D01*
X195905000Y-100000000D02*
X195905000Y-100291000D01*
X192095000Y-102249000D02*
X192095000Y-102540000D01*
X192095000Y-100000000D02*
X192095000Y-100291000D01*
X195905000Y-100000000D02*
X192095000Y-100000000D01*
X192095000Y-102540000D02*
X195905000Y-102540000D01*
D17*
X84860001Y-99765000D02*
X84860000Y-150525000D01*
X89730000Y-99770000D02*
X88050000Y-99770000D01*
X88050000Y-99770000D02*
X88050000Y-100130000D01*
X86370001Y-99770000D02*
X84860001Y-99765000D01*
X88050000Y-100130000D02*
X86370001Y-100130000D01*
X86370001Y-100130000D02*
X86370001Y-99770000D01*
X84860000Y-150525000D02*
X89729999Y-150530000D01*
X89729999Y-150530000D02*
X89730000Y-99770000D01*
X181500000Y-99830000D02*
X181500000Y-150590000D01*
X179000000Y-99830000D02*
X181500000Y-99830000D01*
X181500000Y-102350000D02*
X179000000Y-102350000D01*
X181500000Y-150590000D02*
X179000000Y-150590000D01*
X179000000Y-150590000D02*
X179000000Y-99830000D01*
D18*
X142765000Y-102460000D02*
X142765000Y-102751000D01*
X142765000Y-105000000D02*
X142765000Y-104709000D01*
X146575000Y-102751000D02*
X146575000Y-102460000D01*
X146575000Y-105000000D02*
X146575000Y-104709000D01*
X142765000Y-105000000D02*
X146575000Y-105000000D01*
X146575000Y-102460000D02*
X142765000Y-102460000D01*
X96165000Y-123710000D02*
X96165000Y-123419000D01*
X96165000Y-121170000D02*
X96165000Y-121461000D01*
X92355000Y-123419000D02*
X92355000Y-123710000D01*
X92355000Y-121170000D02*
X92355000Y-121461000D01*
X96165000Y-121170000D02*
X92355000Y-121170000D01*
X92355000Y-123710000D02*
X96165000Y-123710000D01*
X96175000Y-148870000D02*
X96175000Y-148579000D01*
X96175000Y-146330000D02*
X96175000Y-146621000D01*
X92365000Y-148579000D02*
X92365000Y-148870000D01*
X92365000Y-146330000D02*
X92365000Y-146621000D01*
X96175000Y-146330000D02*
X92365000Y-146330000D01*
X92365000Y-148870000D02*
X96175000Y-148870000D01*
D17*
X183712999Y-127403000D02*
X183712999Y-127986273D01*
X183712999Y-129613727D02*
X183712999Y-130526273D01*
X183712999Y-132153727D02*
X183712999Y-133066273D01*
X183712999Y-134693727D02*
X183712999Y-135606273D01*
X183712999Y-137233727D02*
X183712999Y-138146273D01*
X183712999Y-139773727D02*
X183712999Y-140686273D01*
X183712999Y-142313727D02*
X183712999Y-143226273D01*
X183712999Y-144853727D02*
X183712999Y-145766273D01*
X183712999Y-147393727D02*
X183712999Y-148306273D01*
X183712999Y-149933727D02*
X183712999Y-150517000D01*
X183712999Y-150517000D02*
X190367001Y-150517000D01*
X190367001Y-127403000D02*
X183712999Y-127403000D01*
X190367001Y-127986273D02*
X190367001Y-127403000D01*
X190367001Y-130526273D02*
X190367001Y-129613727D01*
X190367001Y-133066273D02*
X190367001Y-132153727D01*
X190367001Y-135606273D02*
X190367001Y-134693727D01*
X190367001Y-138146273D02*
X190367001Y-137233727D01*
X190367001Y-140686273D02*
X190367001Y-139773727D01*
X190367001Y-143226273D02*
X190367001Y-142313727D01*
X190367001Y-145766273D02*
X190367001Y-144853727D01*
X190367001Y-148173723D02*
X190367001Y-147393727D01*
X190367001Y-150517000D02*
X190367001Y-150066277D01*
X133184000Y-102855000D02*
X135384000Y-102855000D01*
X133184000Y-125375000D02*
X133184000Y-102855000D01*
X135384000Y-102855000D02*
X135384000Y-125375000D01*
X135384000Y-105225000D02*
X133184000Y-105225000D01*
X135384000Y-125375000D02*
X133184000Y-125375000D01*
X193814000Y-127700000D02*
X196014000Y-127700000D01*
X193814000Y-150220000D02*
X193814000Y-127700000D01*
X196014000Y-127700000D02*
X196014000Y-150220000D01*
X196014000Y-130070000D02*
X193814000Y-130070000D01*
X196014000Y-150220000D02*
X193814000Y-150220000D01*
X164441000Y-100230000D02*
X166641000Y-100230000D01*
X164441000Y-120380000D02*
X166641000Y-120380000D01*
X164441000Y-122750000D02*
X164441000Y-100230000D01*
X166641000Y-100230000D02*
X166641000Y-122750000D01*
X166641000Y-122750000D02*
X164441000Y-122750000D01*
X199359000Y-105559000D02*
X199359000Y-105735117D01*
X199359000Y-107541883D02*
X199359000Y-108275117D01*
X199359000Y-110081883D02*
X199359000Y-110815117D01*
X199359000Y-112621883D02*
X199359000Y-113355117D01*
X199359000Y-115161883D02*
X199359000Y-115895117D01*
X199359000Y-117701883D02*
X199359000Y-118435117D01*
X199359000Y-120241883D02*
X199359000Y-120975117D01*
X199359000Y-122781883D02*
X199359000Y-123515117D01*
X199359000Y-125321883D02*
X199359000Y-125498000D01*
X199359000Y-125498000D02*
X206217000Y-125498000D01*
X206217000Y-105559000D02*
X199359000Y-105559000D01*
X206217000Y-105735117D02*
X206217000Y-105559000D01*
X206217000Y-108275117D02*
X206217000Y-107541883D01*
X206217000Y-110815117D02*
X206217000Y-110081883D01*
X206217000Y-113355117D02*
X206217000Y-112621883D01*
X206217000Y-115895117D02*
X206217000Y-115161883D01*
X206217000Y-118435117D02*
X206217000Y-117701883D01*
X206217000Y-120975117D02*
X206217000Y-120241883D01*
X206217000Y-123438060D02*
X206217000Y-122781883D01*
X183712999Y-102638000D02*
X183712999Y-103221273D01*
X183712999Y-104848727D02*
X183712999Y-105761273D01*
X183712999Y-107388727D02*
X183712999Y-108301273D01*
X183712999Y-109928727D02*
X183712999Y-110841273D01*
X183712999Y-112468727D02*
X183712999Y-113381273D01*
X183712999Y-115008727D02*
X183712999Y-115921273D01*
X183712999Y-117548727D02*
X183712999Y-118461273D01*
X183712999Y-120088727D02*
X183712999Y-121001273D01*
X183712999Y-122628727D02*
X183712999Y-123541273D01*
X183712999Y-125168727D02*
X183712999Y-125752000D01*
X183712999Y-125752000D02*
X190367001Y-125752000D01*
X190367001Y-102638000D02*
X183712999Y-102638000D01*
X190367001Y-103221273D02*
X190367001Y-102638000D01*
X190367001Y-105761273D02*
X190367001Y-104848727D01*
X190367001Y-108301273D02*
X190367001Y-107388727D01*
X190367001Y-110841273D02*
X190367001Y-109928727D01*
X190367001Y-113381273D02*
X190367001Y-112468727D01*
X190367001Y-115921273D02*
X190367001Y-115008727D01*
X190367001Y-118461273D02*
X190367001Y-117548727D01*
X190367001Y-121001273D02*
X190367001Y-120088727D01*
X190367001Y-123408723D02*
X190367001Y-122628727D01*
X190367001Y-125752000D02*
X190367001Y-125301277D01*
X154238000Y-127011940D02*
X154238000Y-127668117D01*
X154238000Y-129474883D02*
X154238000Y-130208117D01*
X154238000Y-132014883D02*
X154238000Y-132748117D01*
X154238000Y-134554883D02*
X154238000Y-135288117D01*
X154238000Y-137094883D02*
X154238000Y-137828117D01*
X154238000Y-139634883D02*
X154238000Y-140368117D01*
X154238000Y-142174883D02*
X154238000Y-142908117D01*
X154238000Y-144714883D02*
X154238000Y-144891000D01*
X154238000Y-144891000D02*
X161096000Y-144891000D01*
X161096000Y-124952000D02*
X154238000Y-124952000D01*
X161096000Y-125128117D02*
X161096000Y-124952000D01*
X161096000Y-127668117D02*
X161096000Y-126934883D01*
X161096000Y-130208117D02*
X161096000Y-129474883D01*
X161096000Y-132748117D02*
X161096000Y-132014883D01*
X161096000Y-135288117D02*
X161096000Y-134554883D01*
X161096000Y-137828117D02*
X161096000Y-137094883D01*
X161096000Y-140368117D02*
X161096000Y-139634883D01*
X161096000Y-142908117D02*
X161096000Y-142174883D01*
X161096000Y-144891000D02*
X161096000Y-144714883D01*
X170087999Y-124698000D02*
X170087999Y-125148723D01*
X170087999Y-127041277D02*
X170087999Y-127821273D01*
X170087999Y-129448727D02*
X170087999Y-130361273D01*
X170087999Y-131988727D02*
X170087999Y-132901273D01*
X170087999Y-134528727D02*
X170087999Y-135441273D01*
X170087999Y-137068727D02*
X170087999Y-137981273D01*
X170087999Y-139608727D02*
X170087999Y-140521273D01*
X170087999Y-142148727D02*
X170087999Y-143061273D01*
X170087999Y-144688727D02*
X170087999Y-145601273D01*
X170087999Y-147228727D02*
X170087999Y-147812000D01*
X170087999Y-147812000D02*
X176742001Y-147812000D01*
X176742001Y-124698000D02*
X170087999Y-124698000D01*
X176742001Y-125281273D02*
X176742001Y-124698000D01*
X176742001Y-127821273D02*
X176742001Y-126908727D01*
X176742001Y-130361273D02*
X176742001Y-129448727D01*
X176742001Y-132901273D02*
X176742001Y-131988727D01*
X176742001Y-135441273D02*
X176742001Y-134528727D01*
X176742001Y-137981273D02*
X176742001Y-137068727D01*
X176742001Y-140521273D02*
X176742001Y-139608727D01*
X176742001Y-143061273D02*
X176742001Y-142148727D01*
X176742001Y-145601273D02*
X176742001Y-144688727D01*
X176742001Y-147812000D02*
X176742001Y-147228727D01*
X193814000Y-102935000D02*
X196014000Y-102935000D01*
X193814000Y-125455000D02*
X193814000Y-102935000D01*
X196014000Y-102935000D02*
X196014000Y-125455000D01*
X196014000Y-105305000D02*
X193814000Y-105305000D01*
X196014000Y-125455000D02*
X193814000Y-125455000D01*
X199359000Y-130324000D02*
X199359000Y-130500117D01*
X199359000Y-132306883D02*
X199359000Y-133040117D01*
X199359000Y-134846883D02*
X199359000Y-135580117D01*
X199359000Y-137386883D02*
X199359000Y-138120117D01*
X199359000Y-139926883D02*
X199359000Y-140660117D01*
X199359000Y-142466883D02*
X199359000Y-143200117D01*
X199359000Y-145006883D02*
X199359000Y-145740117D01*
X199359000Y-147546883D02*
X199359000Y-148280117D01*
X199359000Y-150086883D02*
X199359000Y-150263000D01*
X199359000Y-150263000D02*
X206217000Y-150263000D01*
X206217000Y-130324000D02*
X199359000Y-130324000D01*
X206217000Y-130500117D02*
X206217000Y-130324000D01*
X206217000Y-133040117D02*
X206217000Y-132306883D01*
X206217000Y-135580117D02*
X206217000Y-134846883D01*
X206217000Y-138120117D02*
X206217000Y-137386883D01*
X206217000Y-140660117D02*
X206217000Y-139926883D01*
X206217000Y-143200117D02*
X206217000Y-142466883D01*
X206217000Y-145740117D02*
X206217000Y-145006883D01*
X206217000Y-148203060D02*
X206217000Y-147546883D01*
X123082999Y-102558000D02*
X123082999Y-103141273D01*
X123082999Y-104768727D02*
X123082999Y-105681273D01*
X123082999Y-107308727D02*
X123082999Y-108221273D01*
X123082999Y-109848727D02*
X123082999Y-110761273D01*
X123082999Y-112388727D02*
X123082999Y-113301273D01*
X123082999Y-114928727D02*
X123082999Y-115841273D01*
X123082999Y-117468727D02*
X123082999Y-118381273D01*
X123082999Y-120008727D02*
X123082999Y-120921273D01*
X123082999Y-122548727D02*
X123082999Y-123461273D01*
X123082999Y-125088727D02*
X123082999Y-125672000D01*
X123082999Y-125672000D02*
X129737001Y-125672000D01*
X129737001Y-102558000D02*
X123082999Y-102558000D01*
X129737001Y-103141273D02*
X129737001Y-102558000D01*
X129737001Y-105681273D02*
X129737001Y-104768727D01*
X129737001Y-108221273D02*
X129737001Y-107308727D01*
X129737001Y-110761273D02*
X129737001Y-109848727D01*
X129737001Y-113301273D02*
X129737001Y-112388727D01*
X129737001Y-115841273D02*
X129737001Y-114928727D01*
X129737001Y-118381273D02*
X129737001Y-117468727D01*
X129737001Y-120921273D02*
X129737001Y-120008727D01*
X129737001Y-123328723D02*
X129737001Y-122548727D01*
X129737001Y-125672000D02*
X129737001Y-125221277D01*
X138729000Y-130244000D02*
X138729000Y-130420117D01*
X138729000Y-132226883D02*
X138729000Y-132960117D01*
X138729000Y-134766883D02*
X138729000Y-135500117D01*
X138729000Y-137306883D02*
X138729000Y-138040117D01*
X138729000Y-139846883D02*
X138729000Y-140580117D01*
X138729000Y-142386883D02*
X138729000Y-143120117D01*
X138729000Y-144926883D02*
X138729000Y-145660117D01*
X138729000Y-147466883D02*
X138729000Y-148200117D01*
X138729000Y-150006883D02*
X138729000Y-150183000D01*
X138729000Y-150183000D02*
X145587000Y-150183000D01*
X145587000Y-130244000D02*
X138729000Y-130244000D01*
X145587000Y-130420117D02*
X145587000Y-130244000D01*
X145587000Y-132960117D02*
X145587000Y-132226883D01*
X145587000Y-135500117D02*
X145587000Y-134766883D01*
X145587000Y-138040117D02*
X145587000Y-137306883D01*
X145587000Y-140580117D02*
X145587000Y-139846883D01*
X145587000Y-143120117D02*
X145587000Y-142386883D01*
X145587000Y-145660117D02*
X145587000Y-144926883D01*
X145587000Y-148123060D02*
X145587000Y-147466883D01*
X138729000Y-105479000D02*
X138729000Y-105655117D01*
X138729000Y-107461883D02*
X138729000Y-108195117D01*
X138729000Y-110001883D02*
X138729000Y-110735117D01*
X138729000Y-112541883D02*
X138729000Y-113275117D01*
X138729000Y-115081883D02*
X138729000Y-115815117D01*
X138729000Y-117621883D02*
X138729000Y-118355117D01*
X138729000Y-120161883D02*
X138729000Y-120895117D01*
X138729000Y-122701883D02*
X138729000Y-123435117D01*
X138729000Y-125241883D02*
X138729000Y-125418000D01*
X138729000Y-125418000D02*
X145587000Y-125418000D01*
X145587000Y-105479000D02*
X138729000Y-105479000D01*
X145587000Y-105655117D02*
X145587000Y-105479000D01*
X145587000Y-108195117D02*
X145587000Y-107461883D01*
X145587000Y-110735117D02*
X145587000Y-110001883D01*
X145587000Y-113275117D02*
X145587000Y-112541883D01*
X145587000Y-115815117D02*
X145587000Y-115081883D01*
X145587000Y-118355117D02*
X145587000Y-117621883D01*
X145587000Y-120895117D02*
X145587000Y-120161883D01*
X145587000Y-123358060D02*
X145587000Y-122701883D01*
X133184000Y-127620000D02*
X135384000Y-127620000D01*
X133184000Y-150140000D02*
X133184000Y-127620000D01*
X135384000Y-127620000D02*
X135384000Y-150140000D01*
X135384000Y-129990000D02*
X133184000Y-129990000D01*
X135384000Y-150140000D02*
X133184000Y-150140000D01*
X164441000Y-124995000D02*
X166641000Y-124995000D01*
X164441000Y-145145000D02*
X166641000Y-145145000D01*
X164441000Y-147515000D02*
X164441000Y-124995000D01*
X166641000Y-124995000D02*
X166641000Y-147515000D01*
X166641000Y-147515000D02*
X164441000Y-147515000D01*
X123082999Y-127323000D02*
X123082999Y-127906273D01*
X123082999Y-129533727D02*
X123082999Y-130446273D01*
X123082999Y-132073727D02*
X123082999Y-132986273D01*
X123082999Y-134613727D02*
X123082999Y-135526273D01*
X123082999Y-137153727D02*
X123082999Y-138066273D01*
X123082999Y-139693727D02*
X123082999Y-140606273D01*
X123082999Y-142233727D02*
X123082999Y-143146273D01*
X123082999Y-144773727D02*
X123082999Y-145686273D01*
X123082999Y-147313727D02*
X123082999Y-148226273D01*
X123082999Y-149853727D02*
X123082999Y-150437000D01*
X123082999Y-150437000D02*
X129737001Y-150437000D01*
X129737001Y-127323000D02*
X123082999Y-127323000D01*
X129737001Y-127906273D02*
X129737001Y-127323000D01*
X129737001Y-130446273D02*
X129737001Y-129533727D01*
X129737001Y-132986273D02*
X129737001Y-132073727D01*
X129737001Y-135526273D02*
X129737001Y-134613727D01*
X129737001Y-138066273D02*
X129737001Y-137153727D01*
X129737001Y-140606273D02*
X129737001Y-139693727D01*
X129737001Y-143146273D02*
X129737001Y-142233727D01*
X129737001Y-145686273D02*
X129737001Y-144773727D01*
X129737001Y-148093723D02*
X129737001Y-147313727D01*
X129737001Y-150437000D02*
X129737001Y-149986277D01*
X93338000Y-127011940D02*
X93338000Y-127668117D01*
X93338000Y-129474883D02*
X93338000Y-130208117D01*
X93338000Y-132014883D02*
X93338000Y-132748117D01*
X93338000Y-134554883D02*
X93338000Y-135288117D01*
X93338000Y-137094883D02*
X93338000Y-137828117D01*
X93338000Y-139634883D02*
X93338000Y-140368117D01*
X93338000Y-142174883D02*
X93338000Y-142908117D01*
X93338000Y-144714883D02*
X93338000Y-144891000D01*
X93338000Y-144891000D02*
X100196000Y-144891000D01*
X100196000Y-124952000D02*
X93338000Y-124952000D01*
X100196000Y-125128117D02*
X100196000Y-124952000D01*
X100196000Y-127668117D02*
X100196000Y-126934883D01*
X100196000Y-130208117D02*
X100196000Y-129474883D01*
X100196000Y-132748117D02*
X100196000Y-132014883D01*
X100196000Y-135288117D02*
X100196000Y-134554883D01*
X100196000Y-137828117D02*
X100196000Y-137094883D01*
X100196000Y-140368117D02*
X100196000Y-139634883D01*
X100196000Y-142908117D02*
X100196000Y-142174883D01*
X100196000Y-144891000D02*
X100196000Y-144714883D01*
X103541000Y-100230000D02*
X105741000Y-100230000D01*
X103541000Y-120380000D02*
X105741000Y-120380000D01*
X103541000Y-122750000D02*
X103541000Y-100230000D01*
X105741000Y-100230000D02*
X105741000Y-122750000D01*
X105741000Y-122750000D02*
X103541000Y-122750000D01*
X109187999Y-99933000D02*
X109187999Y-100383723D01*
X109187999Y-102276277D02*
X109187999Y-103056273D01*
X109187999Y-104683727D02*
X109187999Y-105596273D01*
X109187999Y-107223727D02*
X109187999Y-108136273D01*
X109187999Y-109763727D02*
X109187999Y-110676273D01*
X109187999Y-112303727D02*
X109187999Y-113216273D01*
X109187999Y-114843727D02*
X109187999Y-115756273D01*
X109187999Y-117383727D02*
X109187999Y-118296273D01*
X109187999Y-119923727D02*
X109187999Y-120836273D01*
X109187999Y-122463727D02*
X109187999Y-123047000D01*
X109187999Y-123047000D02*
X115842001Y-123047000D01*
X115842001Y-99933000D02*
X109187999Y-99933000D01*
X115842001Y-100516273D02*
X115842001Y-99933000D01*
X115842001Y-103056273D02*
X115842001Y-102143727D01*
X115842001Y-105596273D02*
X115842001Y-104683727D01*
X115842001Y-108136273D02*
X115842001Y-107223727D01*
X115842001Y-110676273D02*
X115842001Y-109763727D01*
X115842001Y-113216273D02*
X115842001Y-112303727D01*
X115842001Y-115756273D02*
X115842001Y-114843727D01*
X115842001Y-118296273D02*
X115842001Y-117383727D01*
X115842001Y-120836273D02*
X115842001Y-119923727D01*
X115842001Y-123047000D02*
X115842001Y-122463727D01*
X109187999Y-124698000D02*
X109187999Y-125148723D01*
X109187999Y-127041277D02*
X109187999Y-127821273D01*
X109187999Y-129448727D02*
X109187999Y-130361273D01*
X109187999Y-131988727D02*
X109187999Y-132901273D01*
X109187999Y-134528727D02*
X109187999Y-135441273D01*
X109187999Y-137068727D02*
X109187999Y-137981273D01*
X109187999Y-139608727D02*
X109187999Y-140521273D01*
X109187999Y-142148727D02*
X109187999Y-143061273D01*
X109187999Y-144688727D02*
X109187999Y-145601273D01*
X109187999Y-147228727D02*
X109187999Y-147812000D01*
X109187999Y-147812000D02*
X115842001Y-147812000D01*
X115842001Y-124698000D02*
X109187999Y-124698000D01*
X115842001Y-125281273D02*
X115842001Y-124698000D01*
X115842001Y-127821273D02*
X115842001Y-126908727D01*
X115842001Y-130361273D02*
X115842001Y-129448727D01*
X115842001Y-132901273D02*
X115842001Y-131988727D01*
X115842001Y-135441273D02*
X115842001Y-134528727D01*
X115842001Y-137981273D02*
X115842001Y-137068727D01*
X115842001Y-140521273D02*
X115842001Y-139608727D01*
X115842001Y-143061273D02*
X115842001Y-142148727D01*
X115842001Y-145601273D02*
X115842001Y-144688727D01*
X115842001Y-147812000D02*
X115842001Y-147228727D01*
X93338000Y-102246940D02*
X93338000Y-102903117D01*
X93338000Y-104709883D02*
X93338000Y-105443117D01*
X93338000Y-107249883D02*
X93338000Y-107983117D01*
X93338000Y-109789883D02*
X93338000Y-110523117D01*
X93338000Y-112329883D02*
X93338000Y-113063117D01*
X93338000Y-114869883D02*
X93338000Y-115603117D01*
X93338000Y-117409883D02*
X93338000Y-118143117D01*
X93338000Y-119949883D02*
X93338000Y-120126000D01*
X93338000Y-120126000D02*
X100196000Y-120126000D01*
X100196000Y-100187000D02*
X93338000Y-100187000D01*
X100196000Y-100363117D02*
X100196000Y-100187000D01*
X100196000Y-102903117D02*
X100196000Y-102169883D01*
X100196000Y-105443117D02*
X100196000Y-104709883D01*
X100196000Y-107983117D02*
X100196000Y-107249883D01*
X100196000Y-110523117D02*
X100196000Y-109789883D01*
X100196000Y-113063117D02*
X100196000Y-112329883D01*
X100196000Y-115603117D02*
X100196000Y-114869883D01*
X100196000Y-118143117D02*
X100196000Y-117409883D01*
X100196000Y-120126000D02*
X100196000Y-119949883D01*
X103541000Y-124995000D02*
X105741000Y-124995000D01*
X103541000Y-145145000D02*
X105741000Y-145145000D01*
X103541000Y-147515000D02*
X103541000Y-124995000D01*
X105741000Y-124995000D02*
X105741000Y-147515000D01*
X105741000Y-147515000D02*
X103541000Y-147515000D01*
X154238000Y-102246940D02*
X154238000Y-102903117D01*
X154238000Y-104709883D02*
X154238000Y-105443117D01*
X154238000Y-107249883D02*
X154238000Y-107983117D01*
X154238000Y-109789883D02*
X154238000Y-110523117D01*
X154238000Y-112329883D02*
X154238000Y-113063117D01*
X154238000Y-114869883D02*
X154238000Y-115603117D01*
X154238000Y-117409883D02*
X154238000Y-118143117D01*
X154238000Y-119949883D02*
X154238000Y-120126000D01*
X154238000Y-120126000D02*
X161096000Y-120126000D01*
X161096000Y-100187000D02*
X154238000Y-100187000D01*
X161096000Y-100363117D02*
X161096000Y-100187000D01*
X161096000Y-102903117D02*
X161096000Y-102169883D01*
X161096000Y-105443117D02*
X161096000Y-104709883D01*
X161096000Y-107983117D02*
X161096000Y-107249883D01*
X161096000Y-110523117D02*
X161096000Y-109789883D01*
X161096000Y-113063117D02*
X161096000Y-112329883D01*
X161096000Y-115603117D02*
X161096000Y-114869883D01*
X161096000Y-118143117D02*
X161096000Y-117409883D01*
X161096000Y-120126000D02*
X161096000Y-119949883D01*
X170087999Y-99933000D02*
X170087999Y-100383723D01*
X170087999Y-102276277D02*
X170087999Y-103056273D01*
X170087999Y-104683727D02*
X170087999Y-105596273D01*
X170087999Y-107223727D02*
X170087999Y-108136273D01*
X170087999Y-109763727D02*
X170087999Y-110676273D01*
X170087999Y-112303727D02*
X170087999Y-113216273D01*
X170087999Y-114843727D02*
X170087999Y-115756273D01*
X170087999Y-117383727D02*
X170087999Y-118296273D01*
X170087999Y-119923727D02*
X170087999Y-120836273D01*
X170087999Y-122463727D02*
X170087999Y-123047000D01*
X170087999Y-123047000D02*
X176742001Y-123047000D01*
X176742001Y-99933000D02*
X170087999Y-99933000D01*
X176742001Y-100516273D02*
X176742001Y-99933000D01*
X176742001Y-103056273D02*
X176742001Y-102143727D01*
X176742001Y-105596273D02*
X176742001Y-104683727D01*
X176742001Y-108136273D02*
X176742001Y-107223727D01*
X176742001Y-110676273D02*
X176742001Y-109763727D01*
X176742001Y-113216273D02*
X176742001Y-112303727D01*
X176742001Y-115756273D02*
X176742001Y-114843727D01*
X176742001Y-118296273D02*
X176742001Y-117383727D01*
X176742001Y-120836273D02*
X176742001Y-119923727D01*
X176742001Y-123047000D02*
X176742001Y-122463727D01*
%LPC*%
D19*
X215760000Y-106135650D03*
X215760000Y-104135650D03*
D20*
X215630000Y-115300000D03*
X215630000Y-112760000D03*
X215630000Y-110220000D03*
D21*
X210000000Y-114146200D03*
X210000000Y-108913800D03*
D22*
X210320000Y-118820000D03*
X215320000Y-118820000D03*
D23*
X197980000Y-101590000D03*
X203980000Y-101590000D03*
D24*
X156430000Y-122440000D03*
D25*
X153890000Y-122440000D03*
D26*
X204050000Y-127870000D03*
D25*
X206590000Y-127870000D03*
D27*
X119350000Y-149340000D03*
X119350000Y-146800000D03*
X119350000Y-144260000D03*
X119350000Y-141720000D03*
X119350000Y-139180000D03*
X119350000Y-136640000D03*
X119350000Y-134100000D03*
X119350000Y-131560000D03*
X119350000Y-129020000D03*
X119350000Y-126480000D03*
X119350000Y-123940000D03*
X119350000Y-121400000D03*
X119350000Y-118860000D03*
X119350000Y-116320000D03*
X119350000Y-113780000D03*
X119350000Y-111240000D03*
X119350000Y-108700000D03*
X119350000Y-106160000D03*
X119350000Y-103620000D03*
X119350000Y-101080000D03*
D24*
X156440000Y-147600000D03*
D25*
X153900000Y-147600000D03*
D26*
X143450000Y-127960000D03*
D25*
X145990000Y-127960000D03*
D24*
X195270000Y-101270000D03*
D25*
X192730000Y-101270000D03*
D27*
X85940000Y-101020000D03*
X85940000Y-103560000D03*
X85940000Y-106100000D03*
X85940000Y-108640000D03*
X85940000Y-111180000D03*
X85940000Y-113720000D03*
X85940000Y-116260000D03*
X85940000Y-118800000D03*
X85940000Y-121340000D03*
X85940000Y-123880000D03*
X85940000Y-126420000D03*
X85940000Y-128960000D03*
X85940000Y-131500000D03*
X85940000Y-134040000D03*
X85940000Y-136580000D03*
X85940000Y-139120000D03*
X85940000Y-141660000D03*
X85940000Y-144200000D03*
X85940000Y-146740000D03*
X85940000Y-149280000D03*
X88480000Y-149280000D03*
X88480000Y-146740000D03*
X88480000Y-144200000D03*
X88480000Y-141660000D03*
X88480000Y-139120000D03*
X88480000Y-136580000D03*
X88480000Y-134040000D03*
X88480000Y-131500000D03*
X88480000Y-128960000D03*
X88480000Y-126420000D03*
X88480000Y-123880000D03*
X88480000Y-121340000D03*
X88480000Y-118800000D03*
X88480000Y-116260000D03*
X88480000Y-113720000D03*
X88480000Y-111180000D03*
X88480000Y-108640000D03*
X88480000Y-106100000D03*
X88480000Y-103560000D03*
X88480000Y-101020000D03*
X180250000Y-101080000D03*
X180250000Y-103620000D03*
X180250000Y-106160000D03*
X180250000Y-108700000D03*
X180250000Y-111240000D03*
X180250000Y-113780000D03*
X180250000Y-116320000D03*
X180250000Y-118860000D03*
X180250000Y-121400000D03*
X180250000Y-123940000D03*
X180250000Y-126480000D03*
X180250000Y-129020000D03*
X180250000Y-131560000D03*
X180250000Y-134100000D03*
X180250000Y-136640000D03*
X180250000Y-139180000D03*
X180250000Y-141720000D03*
X180250000Y-144260000D03*
X180250000Y-146800000D03*
X180250000Y-149340000D03*
D26*
X143400000Y-103730000D03*
D25*
X145940000Y-103730000D03*
D24*
X95530000Y-122440000D03*
D25*
X92990000Y-122440000D03*
D24*
X95540000Y-147600000D03*
D25*
X93000000Y-147600000D03*
D28*
X190850000Y-149120000D03*
D29*
X190850000Y-146580000D03*
X190850000Y-144040000D03*
X190850000Y-141500000D03*
X190850000Y-138960000D03*
X190850000Y-136420000D03*
X190850000Y-133880000D03*
X190850000Y-131340000D03*
X190850000Y-128800000D03*
X183230000Y-128800000D03*
X183230000Y-131340000D03*
X183230000Y-133880000D03*
X183230000Y-136420000D03*
X183230000Y-138960000D03*
X183230000Y-141500000D03*
X183230000Y-144040000D03*
X183230000Y-146580000D03*
X183230000Y-149120000D03*
D30*
X134284000Y-103955000D03*
X134284000Y-106495000D03*
X134284000Y-109035000D03*
X134284000Y-111575000D03*
X134284000Y-114115000D03*
X134284000Y-116655000D03*
X134284000Y-119195000D03*
X134284000Y-121735000D03*
X134284000Y-124275000D03*
X194914000Y-128800000D03*
X194914000Y-131340000D03*
X194914000Y-133880000D03*
X194914000Y-136420000D03*
X194914000Y-138960000D03*
X194914000Y-141500000D03*
X194914000Y-144040000D03*
X194914000Y-146580000D03*
X194914000Y-149120000D03*
X165541000Y-121650000D03*
X165541000Y-119110000D03*
X165541000Y-116570000D03*
X165541000Y-114030000D03*
X165541000Y-111490000D03*
X165541000Y-108950000D03*
X165541000Y-106410000D03*
X165541000Y-103870000D03*
X165541000Y-101330000D03*
D31*
X206598000Y-124418500D03*
D32*
X206598000Y-121878500D03*
X206598000Y-119338500D03*
X206598000Y-116798500D03*
X206598000Y-114258500D03*
X206598000Y-111718500D03*
X206598000Y-109178500D03*
X206598000Y-106638500D03*
X198978000Y-106638500D03*
X198978000Y-109178500D03*
X198978000Y-111718500D03*
X198978000Y-114258500D03*
X198978000Y-116798500D03*
X198978000Y-119338500D03*
X198978000Y-121878500D03*
X198978000Y-124418500D03*
D28*
X190850000Y-124355000D03*
D29*
X190850000Y-121815000D03*
X190850000Y-119275000D03*
X190850000Y-116735000D03*
X190850000Y-114195000D03*
X190850000Y-111655000D03*
X190850000Y-109115000D03*
X190850000Y-106575000D03*
X190850000Y-104035000D03*
X183230000Y-104035000D03*
X183230000Y-106575000D03*
X183230000Y-109115000D03*
X183230000Y-111655000D03*
X183230000Y-114195000D03*
X183230000Y-116735000D03*
X183230000Y-119275000D03*
X183230000Y-121815000D03*
X183230000Y-124355000D03*
D31*
X153857000Y-126031500D03*
D32*
X153857000Y-128571500D03*
X153857000Y-131111500D03*
X153857000Y-133651500D03*
X153857000Y-136191500D03*
X153857000Y-138731500D03*
X153857000Y-141271500D03*
X153857000Y-143811500D03*
X161477000Y-143811500D03*
X161477000Y-141271500D03*
X161477000Y-138731500D03*
X161477000Y-136191500D03*
X161477000Y-133651500D03*
X161477000Y-131111500D03*
X161477000Y-128571500D03*
X161477000Y-126031500D03*
D28*
X169605000Y-126095000D03*
D29*
X169605000Y-128635000D03*
X169605000Y-131175000D03*
X169605000Y-133715000D03*
X169605000Y-136255000D03*
X169605000Y-138795000D03*
X169605000Y-141335000D03*
X169605000Y-143875000D03*
X169605000Y-146415000D03*
X177225000Y-146415000D03*
X177225000Y-143875000D03*
X177225000Y-141335000D03*
X177225000Y-138795000D03*
X177225000Y-136255000D03*
X177225000Y-133715000D03*
X177225000Y-131175000D03*
X177225000Y-128635000D03*
X177225000Y-126095000D03*
D30*
X194914000Y-104035000D03*
X194914000Y-106575000D03*
X194914000Y-109115000D03*
X194914000Y-111655000D03*
X194914000Y-114195000D03*
X194914000Y-116735000D03*
X194914000Y-119275000D03*
X194914000Y-121815000D03*
X194914000Y-124355000D03*
D31*
X206598000Y-149183500D03*
D32*
X206598000Y-146643500D03*
X206598000Y-144103500D03*
X206598000Y-141563500D03*
X206598000Y-139023500D03*
X206598000Y-136483500D03*
X206598000Y-133943500D03*
X206598000Y-131403500D03*
X198978000Y-131403500D03*
X198978000Y-133943500D03*
X198978000Y-136483500D03*
X198978000Y-139023500D03*
X198978000Y-141563500D03*
X198978000Y-144103500D03*
X198978000Y-146643500D03*
X198978000Y-149183500D03*
D28*
X130220000Y-124275000D03*
D29*
X130220000Y-121735000D03*
X130220000Y-119195000D03*
X130220000Y-116655000D03*
X130220000Y-114115000D03*
X130220000Y-111575000D03*
X130220000Y-109035000D03*
X130220000Y-106495000D03*
X130220000Y-103955000D03*
X122600000Y-103955000D03*
X122600000Y-106495000D03*
X122600000Y-109035000D03*
X122600000Y-111575000D03*
X122600000Y-114115000D03*
X122600000Y-116655000D03*
X122600000Y-119195000D03*
X122600000Y-121735000D03*
X122600000Y-124275000D03*
D31*
X145968000Y-149103500D03*
D32*
X145968000Y-146563500D03*
X145968000Y-144023500D03*
X145968000Y-141483500D03*
X145968000Y-138943500D03*
X145968000Y-136403500D03*
X145968000Y-133863500D03*
X145968000Y-131323500D03*
X138348000Y-131323500D03*
X138348000Y-133863500D03*
X138348000Y-136403500D03*
X138348000Y-138943500D03*
X138348000Y-141483500D03*
X138348000Y-144023500D03*
X138348000Y-146563500D03*
X138348000Y-149103500D03*
D31*
X145968000Y-124338500D03*
D32*
X145968000Y-121798500D03*
X145968000Y-119258500D03*
X145968000Y-116718500D03*
X145968000Y-114178500D03*
X145968000Y-111638500D03*
X145968000Y-109098500D03*
X145968000Y-106558500D03*
X138348000Y-106558500D03*
X138348000Y-109098500D03*
X138348000Y-111638500D03*
X138348000Y-114178500D03*
X138348000Y-116718500D03*
X138348000Y-119258500D03*
X138348000Y-121798500D03*
X138348000Y-124338500D03*
D30*
X134284000Y-128720000D03*
X134284000Y-131260000D03*
X134284000Y-133800000D03*
X134284000Y-136340000D03*
X134284000Y-138880000D03*
X134284000Y-141420000D03*
X134284000Y-143960000D03*
X134284000Y-146500000D03*
X134284000Y-149040000D03*
X165541000Y-146415000D03*
X165541000Y-143875000D03*
X165541000Y-141335000D03*
X165541000Y-138795000D03*
X165541000Y-136255000D03*
X165541000Y-133715000D03*
X165541000Y-131175000D03*
X165541000Y-128635000D03*
X165541000Y-126095000D03*
D28*
X130220000Y-149040000D03*
D29*
X130220000Y-146500000D03*
X130220000Y-143960000D03*
X130220000Y-141420000D03*
X130220000Y-138880000D03*
X130220000Y-136340000D03*
X130220000Y-133800000D03*
X130220000Y-131260000D03*
X130220000Y-128720000D03*
X122600000Y-128720000D03*
X122600000Y-131260000D03*
X122600000Y-133800000D03*
X122600000Y-136340000D03*
X122600000Y-138880000D03*
X122600000Y-141420000D03*
X122600000Y-143960000D03*
X122600000Y-146500000D03*
X122600000Y-149040000D03*
D31*
X92957000Y-126031500D03*
D32*
X92957000Y-128571500D03*
X92957000Y-131111500D03*
X92957000Y-133651500D03*
X92957000Y-136191500D03*
X92957000Y-138731500D03*
X92957000Y-141271500D03*
X92957000Y-143811500D03*
X100577000Y-143811500D03*
X100577000Y-141271500D03*
X100577000Y-138731500D03*
X100577000Y-136191500D03*
X100577000Y-133651500D03*
X100577000Y-131111500D03*
X100577000Y-128571500D03*
X100577000Y-126031500D03*
D30*
X104641000Y-121650000D03*
X104641000Y-119110000D03*
X104641000Y-116570000D03*
X104641000Y-114030000D03*
X104641000Y-111490000D03*
X104641000Y-108950000D03*
X104641000Y-106410000D03*
X104641000Y-103870000D03*
X104641000Y-101330000D03*
D28*
X108705000Y-101330000D03*
D29*
X108705000Y-103870000D03*
X108705000Y-106410000D03*
X108705000Y-108950000D03*
X108705000Y-111490000D03*
X108705000Y-114030000D03*
X108705000Y-116570000D03*
X108705000Y-119110000D03*
X108705000Y-121650000D03*
X116325000Y-121650000D03*
X116325000Y-119110000D03*
X116325000Y-116570000D03*
X116325000Y-114030000D03*
X116325000Y-111490000D03*
X116325000Y-108950000D03*
X116325000Y-106410000D03*
X116325000Y-103870000D03*
X116325000Y-101330000D03*
D28*
X108705000Y-126095000D03*
D29*
X108705000Y-128635000D03*
X108705000Y-131175000D03*
X108705000Y-133715000D03*
X108705000Y-136255000D03*
X108705000Y-138795000D03*
X108705000Y-141335000D03*
X108705000Y-143875000D03*
X108705000Y-146415000D03*
X116325000Y-146415000D03*
X116325000Y-143875000D03*
X116325000Y-141335000D03*
X116325000Y-138795000D03*
X116325000Y-136255000D03*
X116325000Y-133715000D03*
X116325000Y-131175000D03*
X116325000Y-128635000D03*
X116325000Y-126095000D03*
D31*
X92957000Y-101266500D03*
D32*
X92957000Y-103806500D03*
X92957000Y-106346500D03*
X92957000Y-108886500D03*
X92957000Y-111426500D03*
X92957000Y-113966500D03*
X92957000Y-116506500D03*
X92957000Y-119046500D03*
X100577000Y-119046500D03*
X100577000Y-116506500D03*
X100577000Y-113966500D03*
X100577000Y-111426500D03*
X100577000Y-108886500D03*
X100577000Y-106346500D03*
X100577000Y-103806500D03*
X100577000Y-101266500D03*
D30*
X104641000Y-146415000D03*
X104641000Y-143875000D03*
X104641000Y-141335000D03*
X104641000Y-138795000D03*
X104641000Y-136255000D03*
X104641000Y-133715000D03*
X104641000Y-131175000D03*
X104641000Y-128635000D03*
X104641000Y-126095000D03*
D31*
X153857000Y-101266500D03*
D32*
X153857000Y-103806500D03*
X153857000Y-106346500D03*
X153857000Y-108886500D03*
X153857000Y-111426500D03*
X153857000Y-113966500D03*
X153857000Y-116506500D03*
X153857000Y-119046500D03*
X161477000Y-119046500D03*
X161477000Y-116506500D03*
X161477000Y-113966500D03*
X161477000Y-111426500D03*
X161477000Y-108886500D03*
X161477000Y-106346500D03*
X161477000Y-103806500D03*
X161477000Y-101266500D03*
D28*
X169605000Y-101330000D03*
D29*
X169605000Y-103870000D03*
X169605000Y-106410000D03*
X169605000Y-108950000D03*
X169605000Y-111490000D03*
X169605000Y-114030000D03*
X169605000Y-116570000D03*
X169605000Y-119110000D03*
X169605000Y-121650000D03*
X177225000Y-121650000D03*
X177225000Y-119110000D03*
X177225000Y-116570000D03*
X177225000Y-114030000D03*
X177225000Y-111490000D03*
X177225000Y-108950000D03*
X177225000Y-106410000D03*
X177225000Y-103870000D03*
X177225000Y-101330000D03*
%LPD*%
M02*
