G04 #@! TF.GenerationSoftware,KiCad,Pcbnew,8.0.5-8.0.5-0~ubuntu24.04.1*
G04 #@! TF.CreationDate,2024-10-16T20:18:24-04:00*
G04 #@! TF.ProjectId,array,61727261-792e-46b6-9963-61645f706362,rev?*
G04 #@! TF.SameCoordinates,Original*
G04 #@! TF.FileFunction,Legend,Top*
G04 #@! TF.FilePolarity,Positive*
%FSLAX46Y46*%
G04 Gerber Fmt 4.6, Leading zero omitted, Abs format (unit mm)*
G04 Created by KiCad (PCBNEW 8.0.5-8.0.5-0~ubuntu24.04.1) date 2024-10-16 20:18:24*
%MOMM*%
%LPD*%
G01*
G04 APERTURE LIST*
%ADD10C,0.100000*%
%ADD11C,0.200000*%
%ADD12C,0.300000*%
%ADD13C,0.120000*%
%ADD14C,0.152400*%
%ADD15C,1.500000*%
%ADD16R,0.889000X0.812800*%
%ADD17C,1.750000*%
G04 APERTURE END LIST*
D10*
X136631265Y-113586704D02*
X137107455Y-113586704D01*
X136536027Y-113872419D02*
X136869360Y-112872419D01*
X136869360Y-112872419D02*
X137202693Y-113872419D01*
X137869360Y-113348609D02*
X138012217Y-113396228D01*
X138012217Y-113396228D02*
X138059836Y-113443847D01*
X138059836Y-113443847D02*
X138107455Y-113539085D01*
X138107455Y-113539085D02*
X138107455Y-113681942D01*
X138107455Y-113681942D02*
X138059836Y-113777180D01*
X138059836Y-113777180D02*
X138012217Y-113824800D01*
X138012217Y-113824800D02*
X137916979Y-113872419D01*
X137916979Y-113872419D02*
X137536027Y-113872419D01*
X137536027Y-113872419D02*
X137536027Y-112872419D01*
X137536027Y-112872419D02*
X137869360Y-112872419D01*
X137869360Y-112872419D02*
X137964598Y-112920038D01*
X137964598Y-112920038D02*
X138012217Y-112967657D01*
X138012217Y-112967657D02*
X138059836Y-113062895D01*
X138059836Y-113062895D02*
X138059836Y-113158133D01*
X138059836Y-113158133D02*
X138012217Y-113253371D01*
X138012217Y-113253371D02*
X137964598Y-113300990D01*
X137964598Y-113300990D02*
X137869360Y-113348609D01*
X137869360Y-113348609D02*
X137536027Y-113348609D01*
X139107455Y-113777180D02*
X139059836Y-113824800D01*
X139059836Y-113824800D02*
X138916979Y-113872419D01*
X138916979Y-113872419D02*
X138821741Y-113872419D01*
X138821741Y-113872419D02*
X138678884Y-113824800D01*
X138678884Y-113824800D02*
X138583646Y-113729561D01*
X138583646Y-113729561D02*
X138536027Y-113634323D01*
X138536027Y-113634323D02*
X138488408Y-113443847D01*
X138488408Y-113443847D02*
X138488408Y-113300990D01*
X138488408Y-113300990D02*
X138536027Y-113110514D01*
X138536027Y-113110514D02*
X138583646Y-113015276D01*
X138583646Y-113015276D02*
X138678884Y-112920038D01*
X138678884Y-112920038D02*
X138821741Y-112872419D01*
X138821741Y-112872419D02*
X138916979Y-112872419D01*
X138916979Y-112872419D02*
X139059836Y-112920038D01*
X139059836Y-112920038D02*
X139107455Y-112967657D01*
X139536027Y-113872419D02*
X139536027Y-112872419D01*
X139536027Y-112872419D02*
X139774122Y-112872419D01*
X139774122Y-112872419D02*
X139916979Y-112920038D01*
X139916979Y-112920038D02*
X140012217Y-113015276D01*
X140012217Y-113015276D02*
X140059836Y-113110514D01*
X140059836Y-113110514D02*
X140107455Y-113300990D01*
X140107455Y-113300990D02*
X140107455Y-113443847D01*
X140107455Y-113443847D02*
X140059836Y-113634323D01*
X140059836Y-113634323D02*
X140012217Y-113729561D01*
X140012217Y-113729561D02*
X139916979Y-113824800D01*
X139916979Y-113824800D02*
X139774122Y-113872419D01*
X139774122Y-113872419D02*
X139536027Y-113872419D01*
D11*
X97269673Y-121826322D02*
X98031578Y-121826322D01*
X97650625Y-122207275D02*
X97650625Y-121445370D01*
X98650625Y-122207275D02*
X98555387Y-122159656D01*
X98555387Y-122159656D02*
X98507768Y-122112036D01*
X98507768Y-122112036D02*
X98460149Y-122016798D01*
X98460149Y-122016798D02*
X98460149Y-121731084D01*
X98460149Y-121731084D02*
X98507768Y-121635846D01*
X98507768Y-121635846D02*
X98555387Y-121588227D01*
X98555387Y-121588227D02*
X98650625Y-121540608D01*
X98650625Y-121540608D02*
X98793482Y-121540608D01*
X98793482Y-121540608D02*
X98888720Y-121588227D01*
X98888720Y-121588227D02*
X98936339Y-121635846D01*
X98936339Y-121635846D02*
X98983958Y-121731084D01*
X98983958Y-121731084D02*
X98983958Y-122016798D01*
X98983958Y-122016798D02*
X98936339Y-122112036D01*
X98936339Y-122112036D02*
X98888720Y-122159656D01*
X98888720Y-122159656D02*
X98793482Y-122207275D01*
X98793482Y-122207275D02*
X98650625Y-122207275D01*
X99412530Y-121540608D02*
X99412530Y-122207275D01*
X99412530Y-121635846D02*
X99460149Y-121588227D01*
X99460149Y-121588227D02*
X99555387Y-121540608D01*
X99555387Y-121540608D02*
X99698244Y-121540608D01*
X99698244Y-121540608D02*
X99793482Y-121588227D01*
X99793482Y-121588227D02*
X99841101Y-121683465D01*
X99841101Y-121683465D02*
X99841101Y-122207275D01*
X97269673Y-123436266D02*
X98031578Y-123436266D01*
X98650625Y-123817219D02*
X98555387Y-123769600D01*
X98555387Y-123769600D02*
X98507768Y-123721980D01*
X98507768Y-123721980D02*
X98460149Y-123626742D01*
X98460149Y-123626742D02*
X98460149Y-123341028D01*
X98460149Y-123341028D02*
X98507768Y-123245790D01*
X98507768Y-123245790D02*
X98555387Y-123198171D01*
X98555387Y-123198171D02*
X98650625Y-123150552D01*
X98650625Y-123150552D02*
X98793482Y-123150552D01*
X98793482Y-123150552D02*
X98888720Y-123198171D01*
X98888720Y-123198171D02*
X98936339Y-123245790D01*
X98936339Y-123245790D02*
X98983958Y-123341028D01*
X98983958Y-123341028D02*
X98983958Y-123626742D01*
X98983958Y-123626742D02*
X98936339Y-123721980D01*
X98936339Y-123721980D02*
X98888720Y-123769600D01*
X98888720Y-123769600D02*
X98793482Y-123817219D01*
X98793482Y-123817219D02*
X98650625Y-123817219D01*
X99269673Y-123150552D02*
X99650625Y-123150552D01*
X99412530Y-123817219D02*
X99412530Y-122960076D01*
X99412530Y-122960076D02*
X99460149Y-122864838D01*
X99460149Y-122864838D02*
X99555387Y-122817219D01*
X99555387Y-122817219D02*
X99650625Y-122817219D01*
X99841102Y-123150552D02*
X100222054Y-123150552D01*
X99983959Y-123817219D02*
X99983959Y-122960076D01*
X99983959Y-122960076D02*
X100031578Y-122864838D01*
X100031578Y-122864838D02*
X100126816Y-122817219D01*
X100126816Y-122817219D02*
X100222054Y-122817219D01*
D12*
X111261653Y-74950828D02*
X110761653Y-74236542D01*
X110404510Y-74950828D02*
X110404510Y-73450828D01*
X110404510Y-73450828D02*
X110975939Y-73450828D01*
X110975939Y-73450828D02*
X111118796Y-73522257D01*
X111118796Y-73522257D02*
X111190225Y-73593685D01*
X111190225Y-73593685D02*
X111261653Y-73736542D01*
X111261653Y-73736542D02*
X111261653Y-73950828D01*
X111261653Y-73950828D02*
X111190225Y-74093685D01*
X111190225Y-74093685D02*
X111118796Y-74165114D01*
X111118796Y-74165114D02*
X110975939Y-74236542D01*
X110975939Y-74236542D02*
X110404510Y-74236542D01*
X111904510Y-74165114D02*
X112404510Y-74165114D01*
X112618796Y-74950828D02*
X111904510Y-74950828D01*
X111904510Y-74950828D02*
X111904510Y-73450828D01*
X111904510Y-73450828D02*
X112618796Y-73450828D01*
X113190225Y-74522257D02*
X113904511Y-74522257D01*
X113047368Y-74950828D02*
X113547368Y-73450828D01*
X113547368Y-73450828D02*
X114047368Y-74950828D01*
X115404510Y-74950828D02*
X114904510Y-74236542D01*
X114547367Y-74950828D02*
X114547367Y-73450828D01*
X114547367Y-73450828D02*
X115118796Y-73450828D01*
X115118796Y-73450828D02*
X115261653Y-73522257D01*
X115261653Y-73522257D02*
X115333082Y-73593685D01*
X115333082Y-73593685D02*
X115404510Y-73736542D01*
X115404510Y-73736542D02*
X115404510Y-73950828D01*
X115404510Y-73950828D02*
X115333082Y-74093685D01*
X115333082Y-74093685D02*
X115261653Y-74165114D01*
X115261653Y-74165114D02*
X115118796Y-74236542D01*
X115118796Y-74236542D02*
X114547367Y-74236542D01*
X141686653Y-105425828D02*
X141186653Y-104711542D01*
X140829510Y-105425828D02*
X140829510Y-103925828D01*
X140829510Y-103925828D02*
X141400939Y-103925828D01*
X141400939Y-103925828D02*
X141543796Y-103997257D01*
X141543796Y-103997257D02*
X141615225Y-104068685D01*
X141615225Y-104068685D02*
X141686653Y-104211542D01*
X141686653Y-104211542D02*
X141686653Y-104425828D01*
X141686653Y-104425828D02*
X141615225Y-104568685D01*
X141615225Y-104568685D02*
X141543796Y-104640114D01*
X141543796Y-104640114D02*
X141400939Y-104711542D01*
X141400939Y-104711542D02*
X140829510Y-104711542D01*
X142329510Y-104640114D02*
X142829510Y-104640114D01*
X143043796Y-105425828D02*
X142329510Y-105425828D01*
X142329510Y-105425828D02*
X142329510Y-103925828D01*
X142329510Y-103925828D02*
X143043796Y-103925828D01*
X143615225Y-104997257D02*
X144329511Y-104997257D01*
X143472368Y-105425828D02*
X143972368Y-103925828D01*
X143972368Y-103925828D02*
X144472368Y-105425828D01*
X145829510Y-105425828D02*
X145329510Y-104711542D01*
X144972367Y-105425828D02*
X144972367Y-103925828D01*
X144972367Y-103925828D02*
X145543796Y-103925828D01*
X145543796Y-103925828D02*
X145686653Y-103997257D01*
X145686653Y-103997257D02*
X145758082Y-104068685D01*
X145758082Y-104068685D02*
X145829510Y-104211542D01*
X145829510Y-104211542D02*
X145829510Y-104425828D01*
X145829510Y-104425828D02*
X145758082Y-104568685D01*
X145758082Y-104568685D02*
X145686653Y-104640114D01*
X145686653Y-104640114D02*
X145543796Y-104711542D01*
X145543796Y-104711542D02*
X144972367Y-104711542D01*
X111236653Y-105425828D02*
X110736653Y-104711542D01*
X110379510Y-105425828D02*
X110379510Y-103925828D01*
X110379510Y-103925828D02*
X110950939Y-103925828D01*
X110950939Y-103925828D02*
X111093796Y-103997257D01*
X111093796Y-103997257D02*
X111165225Y-104068685D01*
X111165225Y-104068685D02*
X111236653Y-104211542D01*
X111236653Y-104211542D02*
X111236653Y-104425828D01*
X111236653Y-104425828D02*
X111165225Y-104568685D01*
X111165225Y-104568685D02*
X111093796Y-104640114D01*
X111093796Y-104640114D02*
X110950939Y-104711542D01*
X110950939Y-104711542D02*
X110379510Y-104711542D01*
X111879510Y-104640114D02*
X112379510Y-104640114D01*
X112593796Y-105425828D02*
X111879510Y-105425828D01*
X111879510Y-105425828D02*
X111879510Y-103925828D01*
X111879510Y-103925828D02*
X112593796Y-103925828D01*
X113165225Y-104997257D02*
X113879511Y-104997257D01*
X113022368Y-105425828D02*
X113522368Y-103925828D01*
X113522368Y-103925828D02*
X114022368Y-105425828D01*
X115379510Y-105425828D02*
X114879510Y-104711542D01*
X114522367Y-105425828D02*
X114522367Y-103925828D01*
X114522367Y-103925828D02*
X115093796Y-103925828D01*
X115093796Y-103925828D02*
X115236653Y-103997257D01*
X115236653Y-103997257D02*
X115308082Y-104068685D01*
X115308082Y-104068685D02*
X115379510Y-104211542D01*
X115379510Y-104211542D02*
X115379510Y-104425828D01*
X115379510Y-104425828D02*
X115308082Y-104568685D01*
X115308082Y-104568685D02*
X115236653Y-104640114D01*
X115236653Y-104640114D02*
X115093796Y-104711542D01*
X115093796Y-104711542D02*
X114522367Y-104711542D01*
X92868796Y-125487542D02*
X93668796Y-125487542D01*
X93668796Y-125487542D02*
X93154510Y-126687542D01*
X94011653Y-126687542D02*
X94640225Y-125887542D01*
X94011653Y-125887542D02*
X94640225Y-126687542D01*
X94983082Y-125487542D02*
X95783082Y-125487542D01*
X95783082Y-125487542D02*
X95268796Y-126687542D01*
X96983082Y-125487542D02*
X97668797Y-125487542D01*
X97325939Y-126687542D02*
X97325939Y-125487542D01*
X98525940Y-126630400D02*
X98411654Y-126687542D01*
X98411654Y-126687542D02*
X98183083Y-126687542D01*
X98183083Y-126687542D02*
X98068797Y-126630400D01*
X98068797Y-126630400D02*
X98011654Y-126516114D01*
X98011654Y-126516114D02*
X98011654Y-126058971D01*
X98011654Y-126058971D02*
X98068797Y-125944685D01*
X98068797Y-125944685D02*
X98183083Y-125887542D01*
X98183083Y-125887542D02*
X98411654Y-125887542D01*
X98411654Y-125887542D02*
X98525940Y-125944685D01*
X98525940Y-125944685D02*
X98583083Y-126058971D01*
X98583083Y-126058971D02*
X98583083Y-126173257D01*
X98583083Y-126173257D02*
X98011654Y-126287542D01*
X99040225Y-126630400D02*
X99154511Y-126687542D01*
X99154511Y-126687542D02*
X99383082Y-126687542D01*
X99383082Y-126687542D02*
X99497368Y-126630400D01*
X99497368Y-126630400D02*
X99554511Y-126516114D01*
X99554511Y-126516114D02*
X99554511Y-126458971D01*
X99554511Y-126458971D02*
X99497368Y-126344685D01*
X99497368Y-126344685D02*
X99383082Y-126287542D01*
X99383082Y-126287542D02*
X99211654Y-126287542D01*
X99211654Y-126287542D02*
X99097368Y-126230400D01*
X99097368Y-126230400D02*
X99040225Y-126116114D01*
X99040225Y-126116114D02*
X99040225Y-126058971D01*
X99040225Y-126058971D02*
X99097368Y-125944685D01*
X99097368Y-125944685D02*
X99211654Y-125887542D01*
X99211654Y-125887542D02*
X99383082Y-125887542D01*
X99383082Y-125887542D02*
X99497368Y-125944685D01*
X99897368Y-125887542D02*
X100354511Y-125887542D01*
X100068797Y-125487542D02*
X100068797Y-126516114D01*
X100068797Y-126516114D02*
X100125940Y-126630400D01*
X100125940Y-126630400D02*
X100240225Y-126687542D01*
X100240225Y-126687542D02*
X100354511Y-126687542D01*
X102068797Y-126058971D02*
X101668797Y-126058971D01*
X101668797Y-126687542D02*
X101668797Y-125487542D01*
X101668797Y-125487542D02*
X102240225Y-125487542D01*
X102868796Y-126687542D02*
X102754511Y-126630400D01*
X102754511Y-126630400D02*
X102697368Y-126516114D01*
X102697368Y-126516114D02*
X102697368Y-125487542D01*
X103325939Y-126687542D02*
X103325939Y-125887542D01*
X103325939Y-125487542D02*
X103268796Y-125544685D01*
X103268796Y-125544685D02*
X103325939Y-125601828D01*
X103325939Y-125601828D02*
X103383082Y-125544685D01*
X103383082Y-125544685D02*
X103325939Y-125487542D01*
X103325939Y-125487542D02*
X103325939Y-125601828D01*
X103897368Y-125887542D02*
X103897368Y-127087542D01*
X103897368Y-125944685D02*
X104011654Y-125887542D01*
X104011654Y-125887542D02*
X104240225Y-125887542D01*
X104240225Y-125887542D02*
X104354511Y-125944685D01*
X104354511Y-125944685D02*
X104411654Y-126001828D01*
X104411654Y-126001828D02*
X104468796Y-126116114D01*
X104468796Y-126116114D02*
X104468796Y-126458971D01*
X104468796Y-126458971D02*
X104411654Y-126573257D01*
X104411654Y-126573257D02*
X104354511Y-126630400D01*
X104354511Y-126630400D02*
X104240225Y-126687542D01*
X104240225Y-126687542D02*
X104011654Y-126687542D01*
X104011654Y-126687542D02*
X103897368Y-126630400D01*
X105497368Y-126687542D02*
X105497368Y-125487542D01*
X105497368Y-126630400D02*
X105383082Y-126687542D01*
X105383082Y-126687542D02*
X105154510Y-126687542D01*
X105154510Y-126687542D02*
X105040225Y-126630400D01*
X105040225Y-126630400D02*
X104983082Y-126573257D01*
X104983082Y-126573257D02*
X104925939Y-126458971D01*
X104925939Y-126458971D02*
X104925939Y-126116114D01*
X104925939Y-126116114D02*
X104983082Y-126001828D01*
X104983082Y-126001828D02*
X105040225Y-125944685D01*
X105040225Y-125944685D02*
X105154510Y-125887542D01*
X105154510Y-125887542D02*
X105383082Y-125887542D01*
X105383082Y-125887542D02*
X105497368Y-125944685D01*
X106240224Y-126687542D02*
X106125939Y-126630400D01*
X106125939Y-126630400D02*
X106068796Y-126573257D01*
X106068796Y-126573257D02*
X106011653Y-126458971D01*
X106011653Y-126458971D02*
X106011653Y-126116114D01*
X106011653Y-126116114D02*
X106068796Y-126001828D01*
X106068796Y-126001828D02*
X106125939Y-125944685D01*
X106125939Y-125944685D02*
X106240224Y-125887542D01*
X106240224Y-125887542D02*
X106411653Y-125887542D01*
X106411653Y-125887542D02*
X106525939Y-125944685D01*
X106525939Y-125944685D02*
X106583082Y-126001828D01*
X106583082Y-126001828D02*
X106640224Y-126116114D01*
X106640224Y-126116114D02*
X106640224Y-126458971D01*
X106640224Y-126458971D02*
X106583082Y-126573257D01*
X106583082Y-126573257D02*
X106525939Y-126630400D01*
X106525939Y-126630400D02*
X106411653Y-126687542D01*
X106411653Y-126687542D02*
X106240224Y-126687542D01*
X106983081Y-125887542D02*
X107440224Y-125887542D01*
X107154510Y-125487542D02*
X107154510Y-126516114D01*
X107154510Y-126516114D02*
X107211653Y-126630400D01*
X107211653Y-126630400D02*
X107325938Y-126687542D01*
X107325938Y-126687542D02*
X107440224Y-126687542D01*
X108697367Y-126344685D02*
X109268796Y-126344685D01*
X108583081Y-126687542D02*
X108983081Y-125487542D01*
X108983081Y-125487542D02*
X109383081Y-126687542D01*
X109783081Y-126687542D02*
X109783081Y-125887542D01*
X109783081Y-126116114D02*
X109840224Y-126001828D01*
X109840224Y-126001828D02*
X109897367Y-125944685D01*
X109897367Y-125944685D02*
X110011652Y-125887542D01*
X110011652Y-125887542D02*
X110125938Y-125887542D01*
X110525938Y-126687542D02*
X110525938Y-125887542D01*
X110525938Y-126116114D02*
X110583081Y-126001828D01*
X110583081Y-126001828D02*
X110640224Y-125944685D01*
X110640224Y-125944685D02*
X110754509Y-125887542D01*
X110754509Y-125887542D02*
X110868795Y-125887542D01*
X111783081Y-126687542D02*
X111783081Y-126058971D01*
X111783081Y-126058971D02*
X111725938Y-125944685D01*
X111725938Y-125944685D02*
X111611652Y-125887542D01*
X111611652Y-125887542D02*
X111383081Y-125887542D01*
X111383081Y-125887542D02*
X111268795Y-125944685D01*
X111783081Y-126630400D02*
X111668795Y-126687542D01*
X111668795Y-126687542D02*
X111383081Y-126687542D01*
X111383081Y-126687542D02*
X111268795Y-126630400D01*
X111268795Y-126630400D02*
X111211652Y-126516114D01*
X111211652Y-126516114D02*
X111211652Y-126401828D01*
X111211652Y-126401828D02*
X111268795Y-126287542D01*
X111268795Y-126287542D02*
X111383081Y-126230400D01*
X111383081Y-126230400D02*
X111668795Y-126230400D01*
X111668795Y-126230400D02*
X111783081Y-126173257D01*
X112240223Y-125887542D02*
X112525937Y-126687542D01*
X112811652Y-125887542D02*
X112525937Y-126687542D01*
X112525937Y-126687542D02*
X112411652Y-126973257D01*
X112411652Y-126973257D02*
X112354509Y-127030400D01*
X112354509Y-127030400D02*
X112240223Y-127087542D01*
X113325938Y-126630400D02*
X113325938Y-126687542D01*
X113325938Y-126687542D02*
X113268795Y-126801828D01*
X113268795Y-126801828D02*
X113211652Y-126858971D01*
X114754510Y-126687542D02*
X114754510Y-125487542D01*
X114754510Y-125487542D02*
X115040224Y-125487542D01*
X115040224Y-125487542D02*
X115211653Y-125544685D01*
X115211653Y-125544685D02*
X115325938Y-125658971D01*
X115325938Y-125658971D02*
X115383081Y-125773257D01*
X115383081Y-125773257D02*
X115440224Y-126001828D01*
X115440224Y-126001828D02*
X115440224Y-126173257D01*
X115440224Y-126173257D02*
X115383081Y-126401828D01*
X115383081Y-126401828D02*
X115325938Y-126516114D01*
X115325938Y-126516114D02*
X115211653Y-126630400D01*
X115211653Y-126630400D02*
X115040224Y-126687542D01*
X115040224Y-126687542D02*
X114754510Y-126687542D01*
X116411653Y-126630400D02*
X116297367Y-126687542D01*
X116297367Y-126687542D02*
X116068796Y-126687542D01*
X116068796Y-126687542D02*
X115954510Y-126630400D01*
X115954510Y-126630400D02*
X115897367Y-126516114D01*
X115897367Y-126516114D02*
X115897367Y-126058971D01*
X115897367Y-126058971D02*
X115954510Y-125944685D01*
X115954510Y-125944685D02*
X116068796Y-125887542D01*
X116068796Y-125887542D02*
X116297367Y-125887542D01*
X116297367Y-125887542D02*
X116411653Y-125944685D01*
X116411653Y-125944685D02*
X116468796Y-126058971D01*
X116468796Y-126058971D02*
X116468796Y-126173257D01*
X116468796Y-126173257D02*
X115897367Y-126287542D01*
X116925938Y-126630400D02*
X117040224Y-126687542D01*
X117040224Y-126687542D02*
X117268795Y-126687542D01*
X117268795Y-126687542D02*
X117383081Y-126630400D01*
X117383081Y-126630400D02*
X117440224Y-126516114D01*
X117440224Y-126516114D02*
X117440224Y-126458971D01*
X117440224Y-126458971D02*
X117383081Y-126344685D01*
X117383081Y-126344685D02*
X117268795Y-126287542D01*
X117268795Y-126287542D02*
X117097367Y-126287542D01*
X117097367Y-126287542D02*
X116983081Y-126230400D01*
X116983081Y-126230400D02*
X116925938Y-126116114D01*
X116925938Y-126116114D02*
X116925938Y-126058971D01*
X116925938Y-126058971D02*
X116983081Y-125944685D01*
X116983081Y-125944685D02*
X117097367Y-125887542D01*
X117097367Y-125887542D02*
X117268795Y-125887542D01*
X117268795Y-125887542D02*
X117383081Y-125944685D01*
X117954510Y-126687542D02*
X117954510Y-125887542D01*
X117954510Y-125487542D02*
X117897367Y-125544685D01*
X117897367Y-125544685D02*
X117954510Y-125601828D01*
X117954510Y-125601828D02*
X118011653Y-125544685D01*
X118011653Y-125544685D02*
X117954510Y-125487542D01*
X117954510Y-125487542D02*
X117954510Y-125601828D01*
X119040225Y-125887542D02*
X119040225Y-126858971D01*
X119040225Y-126858971D02*
X118983082Y-126973257D01*
X118983082Y-126973257D02*
X118925939Y-127030400D01*
X118925939Y-127030400D02*
X118811653Y-127087542D01*
X118811653Y-127087542D02*
X118640225Y-127087542D01*
X118640225Y-127087542D02*
X118525939Y-127030400D01*
X119040225Y-126630400D02*
X118925939Y-126687542D01*
X118925939Y-126687542D02*
X118697367Y-126687542D01*
X118697367Y-126687542D02*
X118583082Y-126630400D01*
X118583082Y-126630400D02*
X118525939Y-126573257D01*
X118525939Y-126573257D02*
X118468796Y-126458971D01*
X118468796Y-126458971D02*
X118468796Y-126116114D01*
X118468796Y-126116114D02*
X118525939Y-126001828D01*
X118525939Y-126001828D02*
X118583082Y-125944685D01*
X118583082Y-125944685D02*
X118697367Y-125887542D01*
X118697367Y-125887542D02*
X118925939Y-125887542D01*
X118925939Y-125887542D02*
X119040225Y-125944685D01*
X119611653Y-125887542D02*
X119611653Y-126687542D01*
X119611653Y-126001828D02*
X119668796Y-125944685D01*
X119668796Y-125944685D02*
X119783081Y-125887542D01*
X119783081Y-125887542D02*
X119954510Y-125887542D01*
X119954510Y-125887542D02*
X120068796Y-125944685D01*
X120068796Y-125944685D02*
X120125939Y-126058971D01*
X120125939Y-126058971D02*
X120125939Y-126687542D01*
X121154510Y-126630400D02*
X121040224Y-126687542D01*
X121040224Y-126687542D02*
X120811653Y-126687542D01*
X120811653Y-126687542D02*
X120697367Y-126630400D01*
X120697367Y-126630400D02*
X120640224Y-126516114D01*
X120640224Y-126516114D02*
X120640224Y-126058971D01*
X120640224Y-126058971D02*
X120697367Y-125944685D01*
X120697367Y-125944685D02*
X120811653Y-125887542D01*
X120811653Y-125887542D02*
X121040224Y-125887542D01*
X121040224Y-125887542D02*
X121154510Y-125944685D01*
X121154510Y-125944685D02*
X121211653Y-126058971D01*
X121211653Y-126058971D02*
X121211653Y-126173257D01*
X121211653Y-126173257D02*
X120640224Y-126287542D01*
X122240224Y-126687542D02*
X122240224Y-125487542D01*
X122240224Y-126630400D02*
X122125938Y-126687542D01*
X122125938Y-126687542D02*
X121897366Y-126687542D01*
X121897366Y-126687542D02*
X121783081Y-126630400D01*
X121783081Y-126630400D02*
X121725938Y-126573257D01*
X121725938Y-126573257D02*
X121668795Y-126458971D01*
X121668795Y-126458971D02*
X121668795Y-126116114D01*
X121668795Y-126116114D02*
X121725938Y-126001828D01*
X121725938Y-126001828D02*
X121783081Y-125944685D01*
X121783081Y-125944685D02*
X121897366Y-125887542D01*
X121897366Y-125887542D02*
X122125938Y-125887542D01*
X122125938Y-125887542D02*
X122240224Y-125944685D01*
X123725938Y-126687542D02*
X123725938Y-125887542D01*
X123725938Y-125487542D02*
X123668795Y-125544685D01*
X123668795Y-125544685D02*
X123725938Y-125601828D01*
X123725938Y-125601828D02*
X123783081Y-125544685D01*
X123783081Y-125544685D02*
X123725938Y-125487542D01*
X123725938Y-125487542D02*
X123725938Y-125601828D01*
X124297367Y-125887542D02*
X124297367Y-126687542D01*
X124297367Y-126001828D02*
X124354510Y-125944685D01*
X124354510Y-125944685D02*
X124468795Y-125887542D01*
X124468795Y-125887542D02*
X124640224Y-125887542D01*
X124640224Y-125887542D02*
X124754510Y-125944685D01*
X124754510Y-125944685D02*
X124811653Y-126058971D01*
X124811653Y-126058971D02*
X124811653Y-126687542D01*
X126240224Y-125601828D02*
X126297367Y-125544685D01*
X126297367Y-125544685D02*
X126411653Y-125487542D01*
X126411653Y-125487542D02*
X126697367Y-125487542D01*
X126697367Y-125487542D02*
X126811653Y-125544685D01*
X126811653Y-125544685D02*
X126868795Y-125601828D01*
X126868795Y-125601828D02*
X126925938Y-125716114D01*
X126925938Y-125716114D02*
X126925938Y-125830400D01*
X126925938Y-125830400D02*
X126868795Y-126001828D01*
X126868795Y-126001828D02*
X126183081Y-126687542D01*
X126183081Y-126687542D02*
X126925938Y-126687542D01*
X127668795Y-125487542D02*
X127783081Y-125487542D01*
X127783081Y-125487542D02*
X127897367Y-125544685D01*
X127897367Y-125544685D02*
X127954510Y-125601828D01*
X127954510Y-125601828D02*
X128011652Y-125716114D01*
X128011652Y-125716114D02*
X128068795Y-125944685D01*
X128068795Y-125944685D02*
X128068795Y-126230400D01*
X128068795Y-126230400D02*
X128011652Y-126458971D01*
X128011652Y-126458971D02*
X127954510Y-126573257D01*
X127954510Y-126573257D02*
X127897367Y-126630400D01*
X127897367Y-126630400D02*
X127783081Y-126687542D01*
X127783081Y-126687542D02*
X127668795Y-126687542D01*
X127668795Y-126687542D02*
X127554510Y-126630400D01*
X127554510Y-126630400D02*
X127497367Y-126573257D01*
X127497367Y-126573257D02*
X127440224Y-126458971D01*
X127440224Y-126458971D02*
X127383081Y-126230400D01*
X127383081Y-126230400D02*
X127383081Y-125944685D01*
X127383081Y-125944685D02*
X127440224Y-125716114D01*
X127440224Y-125716114D02*
X127497367Y-125601828D01*
X127497367Y-125601828D02*
X127554510Y-125544685D01*
X127554510Y-125544685D02*
X127668795Y-125487542D01*
X128525938Y-125601828D02*
X128583081Y-125544685D01*
X128583081Y-125544685D02*
X128697367Y-125487542D01*
X128697367Y-125487542D02*
X128983081Y-125487542D01*
X128983081Y-125487542D02*
X129097367Y-125544685D01*
X129097367Y-125544685D02*
X129154509Y-125601828D01*
X129154509Y-125601828D02*
X129211652Y-125716114D01*
X129211652Y-125716114D02*
X129211652Y-125830400D01*
X129211652Y-125830400D02*
X129154509Y-126001828D01*
X129154509Y-126001828D02*
X128468795Y-126687542D01*
X128468795Y-126687542D02*
X129211652Y-126687542D01*
X130240224Y-125887542D02*
X130240224Y-126687542D01*
X129954509Y-125430400D02*
X129668795Y-126287542D01*
X129668795Y-126287542D02*
X130411652Y-126287542D01*
X131783081Y-126687542D02*
X131783081Y-125487542D01*
X131783081Y-125944685D02*
X131897367Y-125887542D01*
X131897367Y-125887542D02*
X132125938Y-125887542D01*
X132125938Y-125887542D02*
X132240224Y-125944685D01*
X132240224Y-125944685D02*
X132297367Y-126001828D01*
X132297367Y-126001828D02*
X132354509Y-126116114D01*
X132354509Y-126116114D02*
X132354509Y-126458971D01*
X132354509Y-126458971D02*
X132297367Y-126573257D01*
X132297367Y-126573257D02*
X132240224Y-126630400D01*
X132240224Y-126630400D02*
X132125938Y-126687542D01*
X132125938Y-126687542D02*
X131897367Y-126687542D01*
X131897367Y-126687542D02*
X131783081Y-126630400D01*
X132754509Y-125887542D02*
X133040223Y-126687542D01*
X133325938Y-125887542D02*
X133040223Y-126687542D01*
X133040223Y-126687542D02*
X132925938Y-126973257D01*
X132925938Y-126973257D02*
X132868795Y-127030400D01*
X132868795Y-127030400D02*
X132754509Y-127087542D01*
X134525938Y-125487542D02*
X135211653Y-125487542D01*
X134868795Y-126687542D02*
X134868795Y-125487542D01*
X135497367Y-125887542D02*
X135783081Y-126687542D01*
X136068796Y-125887542D02*
X135783081Y-126687542D01*
X135783081Y-126687542D02*
X135668796Y-126973257D01*
X135668796Y-126973257D02*
X135611653Y-127030400D01*
X135611653Y-127030400D02*
X135497367Y-127087542D01*
X136697367Y-126687542D02*
X136583082Y-126630400D01*
X136583082Y-126630400D02*
X136525939Y-126516114D01*
X136525939Y-126516114D02*
X136525939Y-125487542D01*
X137611653Y-126630400D02*
X137497367Y-126687542D01*
X137497367Y-126687542D02*
X137268796Y-126687542D01*
X137268796Y-126687542D02*
X137154510Y-126630400D01*
X137154510Y-126630400D02*
X137097367Y-126516114D01*
X137097367Y-126516114D02*
X137097367Y-126058971D01*
X137097367Y-126058971D02*
X137154510Y-125944685D01*
X137154510Y-125944685D02*
X137268796Y-125887542D01*
X137268796Y-125887542D02*
X137497367Y-125887542D01*
X137497367Y-125887542D02*
X137611653Y-125944685D01*
X137611653Y-125944685D02*
X137668796Y-126058971D01*
X137668796Y-126058971D02*
X137668796Y-126173257D01*
X137668796Y-126173257D02*
X137097367Y-126287542D01*
X138183081Y-126687542D02*
X138183081Y-125887542D01*
X138183081Y-126116114D02*
X138240224Y-126001828D01*
X138240224Y-126001828D02*
X138297367Y-125944685D01*
X138297367Y-125944685D02*
X138411652Y-125887542D01*
X138411652Y-125887542D02*
X138525938Y-125887542D01*
X140240224Y-126058971D02*
X140411652Y-126116114D01*
X140411652Y-126116114D02*
X140468795Y-126173257D01*
X140468795Y-126173257D02*
X140525938Y-126287542D01*
X140525938Y-126287542D02*
X140525938Y-126458971D01*
X140525938Y-126458971D02*
X140468795Y-126573257D01*
X140468795Y-126573257D02*
X140411652Y-126630400D01*
X140411652Y-126630400D02*
X140297367Y-126687542D01*
X140297367Y-126687542D02*
X139840224Y-126687542D01*
X139840224Y-126687542D02*
X139840224Y-125487542D01*
X139840224Y-125487542D02*
X140240224Y-125487542D01*
X140240224Y-125487542D02*
X140354510Y-125544685D01*
X140354510Y-125544685D02*
X140411652Y-125601828D01*
X140411652Y-125601828D02*
X140468795Y-125716114D01*
X140468795Y-125716114D02*
X140468795Y-125830400D01*
X140468795Y-125830400D02*
X140411652Y-125944685D01*
X140411652Y-125944685D02*
X140354510Y-126001828D01*
X140354510Y-126001828D02*
X140240224Y-126058971D01*
X140240224Y-126058971D02*
X139840224Y-126058971D01*
X141211652Y-126687542D02*
X141097367Y-126630400D01*
X141097367Y-126630400D02*
X141040224Y-126573257D01*
X141040224Y-126573257D02*
X140983081Y-126458971D01*
X140983081Y-126458971D02*
X140983081Y-126116114D01*
X140983081Y-126116114D02*
X141040224Y-126001828D01*
X141040224Y-126001828D02*
X141097367Y-125944685D01*
X141097367Y-125944685D02*
X141211652Y-125887542D01*
X141211652Y-125887542D02*
X141383081Y-125887542D01*
X141383081Y-125887542D02*
X141497367Y-125944685D01*
X141497367Y-125944685D02*
X141554510Y-126001828D01*
X141554510Y-126001828D02*
X141611652Y-126116114D01*
X141611652Y-126116114D02*
X141611652Y-126458971D01*
X141611652Y-126458971D02*
X141554510Y-126573257D01*
X141554510Y-126573257D02*
X141497367Y-126630400D01*
X141497367Y-126630400D02*
X141383081Y-126687542D01*
X141383081Y-126687542D02*
X141211652Y-126687542D01*
X142011652Y-125887542D02*
X142240224Y-126687542D01*
X142240224Y-126687542D02*
X142468795Y-126116114D01*
X142468795Y-126116114D02*
X142697366Y-126687542D01*
X142697366Y-126687542D02*
X142925938Y-125887542D01*
X143840224Y-126630400D02*
X143725938Y-126687542D01*
X143725938Y-126687542D02*
X143497367Y-126687542D01*
X143497367Y-126687542D02*
X143383081Y-126630400D01*
X143383081Y-126630400D02*
X143325938Y-126516114D01*
X143325938Y-126516114D02*
X143325938Y-126058971D01*
X143325938Y-126058971D02*
X143383081Y-125944685D01*
X143383081Y-125944685D02*
X143497367Y-125887542D01*
X143497367Y-125887542D02*
X143725938Y-125887542D01*
X143725938Y-125887542D02*
X143840224Y-125944685D01*
X143840224Y-125944685D02*
X143897367Y-126058971D01*
X143897367Y-126058971D02*
X143897367Y-126173257D01*
X143897367Y-126173257D02*
X143325938Y-126287542D01*
X144411652Y-126687542D02*
X144411652Y-125887542D01*
X144411652Y-126116114D02*
X144468795Y-126001828D01*
X144468795Y-126001828D02*
X144525938Y-125944685D01*
X144525938Y-125944685D02*
X144640223Y-125887542D01*
X144640223Y-125887542D02*
X144754509Y-125887542D01*
X145097366Y-126630400D02*
X145211652Y-126687542D01*
X145211652Y-126687542D02*
X145440223Y-126687542D01*
X145440223Y-126687542D02*
X145554509Y-126630400D01*
X145554509Y-126630400D02*
X145611652Y-126516114D01*
X145611652Y-126516114D02*
X145611652Y-126458971D01*
X145611652Y-126458971D02*
X145554509Y-126344685D01*
X145554509Y-126344685D02*
X145440223Y-126287542D01*
X145440223Y-126287542D02*
X145268795Y-126287542D01*
X145268795Y-126287542D02*
X145154509Y-126230400D01*
X145154509Y-126230400D02*
X145097366Y-126116114D01*
X145097366Y-126116114D02*
X145097366Y-126058971D01*
X145097366Y-126058971D02*
X145154509Y-125944685D01*
X145154509Y-125944685D02*
X145268795Y-125887542D01*
X145268795Y-125887542D02*
X145440223Y-125887542D01*
X145440223Y-125887542D02*
X145554509Y-125944685D01*
X141786653Y-74950828D02*
X141286653Y-74236542D01*
X140929510Y-74950828D02*
X140929510Y-73450828D01*
X140929510Y-73450828D02*
X141500939Y-73450828D01*
X141500939Y-73450828D02*
X141643796Y-73522257D01*
X141643796Y-73522257D02*
X141715225Y-73593685D01*
X141715225Y-73593685D02*
X141786653Y-73736542D01*
X141786653Y-73736542D02*
X141786653Y-73950828D01*
X141786653Y-73950828D02*
X141715225Y-74093685D01*
X141715225Y-74093685D02*
X141643796Y-74165114D01*
X141643796Y-74165114D02*
X141500939Y-74236542D01*
X141500939Y-74236542D02*
X140929510Y-74236542D01*
X142429510Y-74165114D02*
X142929510Y-74165114D01*
X143143796Y-74950828D02*
X142429510Y-74950828D01*
X142429510Y-74950828D02*
X142429510Y-73450828D01*
X142429510Y-73450828D02*
X143143796Y-73450828D01*
X143715225Y-74522257D02*
X144429511Y-74522257D01*
X143572368Y-74950828D02*
X144072368Y-73450828D01*
X144072368Y-73450828D02*
X144572368Y-74950828D01*
X145929510Y-74950828D02*
X145429510Y-74236542D01*
X145072367Y-74950828D02*
X145072367Y-73450828D01*
X145072367Y-73450828D02*
X145643796Y-73450828D01*
X145643796Y-73450828D02*
X145786653Y-73522257D01*
X145786653Y-73522257D02*
X145858082Y-73593685D01*
X145858082Y-73593685D02*
X145929510Y-73736542D01*
X145929510Y-73736542D02*
X145929510Y-73950828D01*
X145929510Y-73950828D02*
X145858082Y-74093685D01*
X145858082Y-74093685D02*
X145786653Y-74165114D01*
X145786653Y-74165114D02*
X145643796Y-74236542D01*
X145643796Y-74236542D02*
X145072367Y-74236542D01*
D11*
X95119673Y-115876322D02*
X95881578Y-115876322D01*
X96500625Y-116257275D02*
X96405387Y-116209656D01*
X96405387Y-116209656D02*
X96357768Y-116162036D01*
X96357768Y-116162036D02*
X96310149Y-116066798D01*
X96310149Y-116066798D02*
X96310149Y-115781084D01*
X96310149Y-115781084D02*
X96357768Y-115685846D01*
X96357768Y-115685846D02*
X96405387Y-115638227D01*
X96405387Y-115638227D02*
X96500625Y-115590608D01*
X96500625Y-115590608D02*
X96643482Y-115590608D01*
X96643482Y-115590608D02*
X96738720Y-115638227D01*
X96738720Y-115638227D02*
X96786339Y-115685846D01*
X96786339Y-115685846D02*
X96833958Y-115781084D01*
X96833958Y-115781084D02*
X96833958Y-116066798D01*
X96833958Y-116066798D02*
X96786339Y-116162036D01*
X96786339Y-116162036D02*
X96738720Y-116209656D01*
X96738720Y-116209656D02*
X96643482Y-116257275D01*
X96643482Y-116257275D02*
X96500625Y-116257275D01*
X97262530Y-115590608D02*
X97262530Y-116257275D01*
X97262530Y-115685846D02*
X97310149Y-115638227D01*
X97310149Y-115638227D02*
X97405387Y-115590608D01*
X97405387Y-115590608D02*
X97548244Y-115590608D01*
X97548244Y-115590608D02*
X97643482Y-115638227D01*
X97643482Y-115638227D02*
X97691101Y-115733465D01*
X97691101Y-115733465D02*
X97691101Y-116257275D01*
X95119673Y-117486266D02*
X95881578Y-117486266D01*
X95500625Y-117867219D02*
X95500625Y-117105314D01*
X96500625Y-117867219D02*
X96405387Y-117819600D01*
X96405387Y-117819600D02*
X96357768Y-117771980D01*
X96357768Y-117771980D02*
X96310149Y-117676742D01*
X96310149Y-117676742D02*
X96310149Y-117391028D01*
X96310149Y-117391028D02*
X96357768Y-117295790D01*
X96357768Y-117295790D02*
X96405387Y-117248171D01*
X96405387Y-117248171D02*
X96500625Y-117200552D01*
X96500625Y-117200552D02*
X96643482Y-117200552D01*
X96643482Y-117200552D02*
X96738720Y-117248171D01*
X96738720Y-117248171D02*
X96786339Y-117295790D01*
X96786339Y-117295790D02*
X96833958Y-117391028D01*
X96833958Y-117391028D02*
X96833958Y-117676742D01*
X96833958Y-117676742D02*
X96786339Y-117771980D01*
X96786339Y-117771980D02*
X96738720Y-117819600D01*
X96738720Y-117819600D02*
X96643482Y-117867219D01*
X96643482Y-117867219D02*
X96500625Y-117867219D01*
X97119673Y-117200552D02*
X97500625Y-117200552D01*
X97262530Y-117867219D02*
X97262530Y-117010076D01*
X97262530Y-117010076D02*
X97310149Y-116914838D01*
X97310149Y-116914838D02*
X97405387Y-116867219D01*
X97405387Y-116867219D02*
X97500625Y-116867219D01*
X97691102Y-117200552D02*
X98072054Y-117200552D01*
X97833959Y-117867219D02*
X97833959Y-117010076D01*
X97833959Y-117010076D02*
X97881578Y-116914838D01*
X97881578Y-116914838D02*
X97976816Y-116867219D01*
X97976816Y-116867219D02*
X98072054Y-116867219D01*
D13*
X126550000Y-118320000D02*
X126550000Y-62480000D01*
X129050000Y-118320000D02*
X126550000Y-118320000D01*
X126550000Y-115800000D02*
X129050000Y-115800000D01*
X126550000Y-62480000D02*
X129050000Y-62480000D01*
X129050000Y-62480000D02*
X129050000Y-118320000D01*
D14*
X160785500Y-89492000D02*
X162439500Y-89492000D01*
X160785500Y-88453140D02*
X160785500Y-89492000D01*
X162439500Y-88251859D02*
X162439500Y-87428141D01*
X160785500Y-86188000D02*
X160785500Y-87226860D01*
X162439500Y-86188000D02*
X160785500Y-86188000D01*
X99870500Y-89502000D02*
X101524500Y-89502000D01*
X99870500Y-88463140D02*
X99870500Y-89502000D01*
X101524500Y-88261859D02*
X101524500Y-87438141D01*
X99870500Y-86198000D02*
X99870500Y-87236860D01*
X101524500Y-86198000D02*
X99870500Y-86198000D01*
X99870500Y-99652000D02*
X101524500Y-99652000D01*
X99870500Y-98613140D02*
X99870500Y-99652000D01*
X101524500Y-98411859D02*
X101524500Y-97588141D01*
X99870500Y-96348000D02*
X99870500Y-97386860D01*
X101524500Y-96348000D02*
X99870500Y-96348000D01*
X99870500Y-69152000D02*
X101524500Y-69152000D01*
X99870500Y-68113140D02*
X99870500Y-69152000D01*
X101524500Y-67911859D02*
X101524500Y-67088141D01*
X99870500Y-65848000D02*
X99870500Y-66886860D01*
X101524500Y-65848000D02*
X99870500Y-65848000D01*
X120148000Y-109792000D02*
X121802000Y-109792000D01*
X120148000Y-108753140D02*
X120148000Y-109792000D01*
X121802000Y-108551859D02*
X121802000Y-107728141D01*
X120148000Y-106488000D02*
X120148000Y-107526860D01*
X121802000Y-106488000D02*
X120148000Y-106488000D01*
D10*
X133175000Y-53895000D02*
X123025000Y-53895000D01*
X123025000Y-124945000D01*
X133175000Y-124945000D01*
X133175000Y-53895000D01*
D14*
X130333000Y-109792000D02*
X131987000Y-109792000D01*
X130333000Y-108753140D02*
X130333000Y-109792000D01*
X131987000Y-108551859D02*
X131987000Y-107728141D01*
X130333000Y-106488000D02*
X130333000Y-107526860D01*
X131987000Y-106488000D02*
X130333000Y-106488000D01*
X150633000Y-109792000D02*
X152287000Y-109792000D01*
X150633000Y-108753140D02*
X150633000Y-109792000D01*
X152287000Y-108551859D02*
X152287000Y-107728141D01*
X150633000Y-106488000D02*
X150633000Y-107526860D01*
X152287000Y-106488000D02*
X150633000Y-106488000D01*
X99868000Y-109802000D02*
X101522000Y-109802000D01*
X99868000Y-108763140D02*
X99868000Y-109802000D01*
X101522000Y-108561859D02*
X101522000Y-107738141D01*
X99868000Y-106498000D02*
X99868000Y-107536860D01*
X101522000Y-106498000D02*
X99868000Y-106498000D01*
X150635500Y-69142000D02*
X152289500Y-69142000D01*
X150635500Y-68103140D02*
X150635500Y-69142000D01*
X152289500Y-67901859D02*
X152289500Y-67078141D01*
X150635500Y-65838000D02*
X150635500Y-66876860D01*
X152289500Y-65838000D02*
X150635500Y-65838000D01*
D10*
X102725000Y-53895000D02*
X92575000Y-53895000D01*
X92575000Y-124945000D01*
X102725000Y-124945000D01*
X102725000Y-53895000D01*
D14*
X109970500Y-89502000D02*
X111624500Y-89502000D01*
X109970500Y-88463140D02*
X109970500Y-89502000D01*
X111624500Y-88261859D02*
X111624500Y-87438141D01*
X109970500Y-86198000D02*
X109970500Y-87236860D01*
X111624500Y-86198000D02*
X109970500Y-86198000D01*
X130335500Y-58992000D02*
X131989500Y-58992000D01*
X130335500Y-57953140D02*
X130335500Y-58992000D01*
X131989500Y-57751859D02*
X131989500Y-56928141D01*
X130335500Y-55688000D02*
X130335500Y-56726860D01*
X131989500Y-55688000D02*
X130335500Y-55688000D01*
X140438000Y-119942000D02*
X142092000Y-119942000D01*
X140438000Y-118903140D02*
X140438000Y-119942000D01*
X142092000Y-118701859D02*
X142092000Y-117878141D01*
X140438000Y-116638000D02*
X140438000Y-117676860D01*
X142092000Y-116638000D02*
X140438000Y-116638000D01*
D10*
X112875000Y-53895000D02*
X102725000Y-53895000D01*
X102725000Y-124945000D01*
X112875000Y-124945000D01*
X112875000Y-53895000D01*
D14*
X130335500Y-89492000D02*
X131989500Y-89492000D01*
X130335500Y-88453140D02*
X130335500Y-89492000D01*
X131989500Y-88251859D02*
X131989500Y-87428141D01*
X130335500Y-86188000D02*
X130335500Y-87226860D01*
X131989500Y-86188000D02*
X130335500Y-86188000D01*
X160788000Y-119942000D02*
X162442000Y-119942000D01*
X160788000Y-118903140D02*
X160788000Y-119942000D01*
X162442000Y-118701859D02*
X162442000Y-117878141D01*
X160788000Y-116638000D02*
X160788000Y-117676860D01*
X162442000Y-116638000D02*
X160788000Y-116638000D01*
X109973000Y-119952000D02*
X111627000Y-119952000D01*
X109973000Y-118913140D02*
X109973000Y-119952000D01*
X111627000Y-118711859D02*
X111627000Y-117888141D01*
X109973000Y-116648000D02*
X109973000Y-117686860D01*
X111627000Y-116648000D02*
X109973000Y-116648000D01*
X150635500Y-79342000D02*
X152289500Y-79342000D01*
X150635500Y-78303140D02*
X150635500Y-79342000D01*
X152289500Y-78101859D02*
X152289500Y-77278141D01*
X150635500Y-76038000D02*
X150635500Y-77076860D01*
X152289500Y-76038000D02*
X150635500Y-76038000D01*
X120153000Y-119942000D02*
X121807000Y-119942000D01*
X120153000Y-118903140D02*
X120153000Y-119942000D01*
X121807000Y-118701859D02*
X121807000Y-117878141D01*
X120153000Y-116638000D02*
X120153000Y-117676860D01*
X121807000Y-116638000D02*
X120153000Y-116638000D01*
X120150500Y-79342000D02*
X121804500Y-79342000D01*
X120150500Y-78303140D02*
X120150500Y-79342000D01*
X121804500Y-78101859D02*
X121804500Y-77278141D01*
X120150500Y-76038000D02*
X120150500Y-77076860D01*
X121804500Y-76038000D02*
X120150500Y-76038000D01*
D10*
X163625000Y-53895000D02*
X153475000Y-53895000D01*
X153475000Y-124945000D01*
X163625000Y-124945000D01*
X163625000Y-53895000D01*
D14*
X109970500Y-69152000D02*
X111624500Y-69152000D01*
X109970500Y-68113140D02*
X109970500Y-69152000D01*
X111624500Y-67911859D02*
X111624500Y-67088141D01*
X109970500Y-65848000D02*
X109970500Y-66886860D01*
X111624500Y-65848000D02*
X109970500Y-65848000D01*
X99870500Y-59002000D02*
X101524500Y-59002000D01*
X99870500Y-57963140D02*
X99870500Y-59002000D01*
X101524500Y-57761859D02*
X101524500Y-56938141D01*
X99870500Y-55698000D02*
X99870500Y-56736860D01*
X101524500Y-55698000D02*
X99870500Y-55698000D01*
X109968000Y-109802000D02*
X111622000Y-109802000D01*
X109968000Y-108763140D02*
X109968000Y-109802000D01*
X111622000Y-108561859D02*
X111622000Y-107738141D01*
X109968000Y-106498000D02*
X109968000Y-107536860D01*
X111622000Y-106498000D02*
X109968000Y-106498000D01*
D10*
X153475000Y-53895000D02*
X143325000Y-53895000D01*
X143325000Y-124945000D01*
X153475000Y-124945000D01*
X153475000Y-53895000D01*
D14*
X120150500Y-89492000D02*
X121804500Y-89492000D01*
X120150500Y-88453140D02*
X120150500Y-89492000D01*
X121804500Y-88251859D02*
X121804500Y-87428141D01*
X120150500Y-86188000D02*
X120150500Y-87226860D01*
X121804500Y-86188000D02*
X120150500Y-86188000D01*
X109970500Y-79352000D02*
X111624500Y-79352000D01*
X109970500Y-78313140D02*
X109970500Y-79352000D01*
X111624500Y-78111859D02*
X111624500Y-77288141D01*
X109970500Y-76048000D02*
X109970500Y-77086860D01*
X111624500Y-76048000D02*
X109970500Y-76048000D01*
X140435500Y-69142000D02*
X142089500Y-69142000D01*
X140435500Y-68103140D02*
X140435500Y-69142000D01*
X142089500Y-67901859D02*
X142089500Y-67078141D01*
X140435500Y-65838000D02*
X140435500Y-66876860D01*
X142089500Y-65838000D02*
X140435500Y-65838000D01*
X140435500Y-58992000D02*
X142089500Y-58992000D01*
X140435500Y-57953140D02*
X140435500Y-58992000D01*
X142089500Y-57751859D02*
X142089500Y-56928141D01*
X140435500Y-55688000D02*
X140435500Y-56726860D01*
X142089500Y-55688000D02*
X140435500Y-55688000D01*
X140433000Y-109792000D02*
X142087000Y-109792000D01*
X140433000Y-108753140D02*
X140433000Y-109792000D01*
X142087000Y-108551859D02*
X142087000Y-107728141D01*
X140433000Y-106488000D02*
X140433000Y-107526860D01*
X142087000Y-106488000D02*
X140433000Y-106488000D01*
X120150500Y-99642000D02*
X121804500Y-99642000D01*
X120150500Y-98603140D02*
X120150500Y-99642000D01*
X121804500Y-98401859D02*
X121804500Y-97578141D01*
X120150500Y-96338000D02*
X120150500Y-97376860D01*
X121804500Y-96338000D02*
X120150500Y-96338000D01*
X160785500Y-99642000D02*
X162439500Y-99642000D01*
X160785500Y-98603140D02*
X160785500Y-99642000D01*
X162439500Y-98401859D02*
X162439500Y-97578141D01*
X160785500Y-96338000D02*
X160785500Y-97376860D01*
X162439500Y-96338000D02*
X160785500Y-96338000D01*
X140435500Y-79342000D02*
X142089500Y-79342000D01*
X140435500Y-78303140D02*
X140435500Y-79342000D01*
X142089500Y-78101859D02*
X142089500Y-77278141D01*
X140435500Y-76038000D02*
X140435500Y-77076860D01*
X142089500Y-76038000D02*
X140435500Y-76038000D01*
X120150500Y-69142000D02*
X121804500Y-69142000D01*
X120150500Y-68103140D02*
X120150500Y-69142000D01*
X121804500Y-67901859D02*
X121804500Y-67078141D01*
X120150500Y-65838000D02*
X120150500Y-66876860D01*
X121804500Y-65838000D02*
X120150500Y-65838000D01*
X160785500Y-69142000D02*
X162439500Y-69142000D01*
X160785500Y-68103140D02*
X160785500Y-69142000D01*
X162439500Y-67901859D02*
X162439500Y-67078141D01*
X160785500Y-65838000D02*
X160785500Y-66876860D01*
X162439500Y-65838000D02*
X160785500Y-65838000D01*
X140435500Y-89492000D02*
X142089500Y-89492000D01*
X140435500Y-88453140D02*
X140435500Y-89492000D01*
X142089500Y-88251859D02*
X142089500Y-87428141D01*
X140435500Y-86188000D02*
X140435500Y-87226860D01*
X142089500Y-86188000D02*
X140435500Y-86188000D01*
D10*
X143325000Y-53895000D02*
X133175000Y-53895000D01*
X133175000Y-124945000D01*
X143325000Y-124945000D01*
X143325000Y-53895000D01*
D14*
X109970500Y-59002000D02*
X111624500Y-59002000D01*
X109970500Y-57963140D02*
X109970500Y-59002000D01*
X111624500Y-57761859D02*
X111624500Y-56938141D01*
X109970500Y-55698000D02*
X109970500Y-56736860D01*
X111624500Y-55698000D02*
X109970500Y-55698000D01*
X160785500Y-79342000D02*
X162439500Y-79342000D01*
X160785500Y-78303140D02*
X160785500Y-79342000D01*
X162439500Y-78101859D02*
X162439500Y-77278141D01*
X160785500Y-76038000D02*
X160785500Y-77076860D01*
X162439500Y-76038000D02*
X160785500Y-76038000D01*
X130335500Y-69142000D02*
X131989500Y-69142000D01*
X130335500Y-68103140D02*
X130335500Y-69142000D01*
X131989500Y-67901859D02*
X131989500Y-67078141D01*
X130335500Y-65838000D02*
X130335500Y-66876860D01*
X131989500Y-65838000D02*
X130335500Y-65838000D01*
X130335500Y-79342000D02*
X131989500Y-79342000D01*
X130335500Y-78303140D02*
X130335500Y-79342000D01*
X131989500Y-78101859D02*
X131989500Y-77278141D01*
X130335500Y-76038000D02*
X130335500Y-77076860D01*
X131989500Y-76038000D02*
X130335500Y-76038000D01*
X140435500Y-99642000D02*
X142089500Y-99642000D01*
X140435500Y-98603140D02*
X140435500Y-99642000D01*
X142089500Y-98401859D02*
X142089500Y-97578141D01*
X140435500Y-96338000D02*
X140435500Y-97376860D01*
X142089500Y-96338000D02*
X140435500Y-96338000D01*
X109970500Y-99652000D02*
X111624500Y-99652000D01*
X109970500Y-98613140D02*
X109970500Y-99652000D01*
X111624500Y-98411859D02*
X111624500Y-97588141D01*
X109970500Y-96348000D02*
X109970500Y-97386860D01*
X111624500Y-96348000D02*
X109970500Y-96348000D01*
X99873000Y-119952000D02*
X101527000Y-119952000D01*
X99873000Y-118913140D02*
X99873000Y-119952000D01*
X101527000Y-118711859D02*
X101527000Y-117888141D01*
X99873000Y-116648000D02*
X99873000Y-117686860D01*
X101527000Y-116648000D02*
X99873000Y-116648000D01*
D10*
X123025000Y-53895000D02*
X112875000Y-53895000D01*
X112875000Y-124945000D01*
X123025000Y-124945000D01*
X123025000Y-53895000D01*
D14*
X130335500Y-99642000D02*
X131989500Y-99642000D01*
X130335500Y-98603140D02*
X130335500Y-99642000D01*
X131989500Y-98401859D02*
X131989500Y-97578141D01*
X130335500Y-96338000D02*
X130335500Y-97376860D01*
X131989500Y-96338000D02*
X130335500Y-96338000D01*
X150635500Y-89492000D02*
X152289500Y-89492000D01*
X150635500Y-88453140D02*
X150635500Y-89492000D01*
X152289500Y-88251859D02*
X152289500Y-87428141D01*
X150635500Y-86188000D02*
X150635500Y-87226860D01*
X152289500Y-86188000D02*
X150635500Y-86188000D01*
X150635500Y-58992000D02*
X152289500Y-58992000D01*
X150635500Y-57953140D02*
X150635500Y-58992000D01*
X152289500Y-57751859D02*
X152289500Y-56928141D01*
X150635500Y-55688000D02*
X150635500Y-56726860D01*
X152289500Y-55688000D02*
X150635500Y-55688000D01*
X120150500Y-58992000D02*
X121804500Y-58992000D01*
X120150500Y-57953140D02*
X120150500Y-58992000D01*
X121804500Y-57751859D02*
X121804500Y-56928141D01*
X120150500Y-55688000D02*
X120150500Y-56726860D01*
X121804500Y-55688000D02*
X120150500Y-55688000D01*
X150635500Y-99642000D02*
X152289500Y-99642000D01*
X150635500Y-98603140D02*
X150635500Y-99642000D01*
X152289500Y-98401859D02*
X152289500Y-97578141D01*
X150635500Y-96338000D02*
X150635500Y-97376860D01*
X152289500Y-96338000D02*
X150635500Y-96338000D01*
X160783000Y-109792000D02*
X162437000Y-109792000D01*
X160783000Y-108753140D02*
X160783000Y-109792000D01*
X162437000Y-108551859D02*
X162437000Y-107728141D01*
X160783000Y-106488000D02*
X160783000Y-107526860D01*
X162437000Y-106488000D02*
X160783000Y-106488000D01*
X130338000Y-119942000D02*
X131992000Y-119942000D01*
X130338000Y-118903140D02*
X130338000Y-119942000D01*
X131992000Y-118701859D02*
X131992000Y-117878141D01*
X130338000Y-116638000D02*
X130338000Y-117676860D01*
X131992000Y-116638000D02*
X130338000Y-116638000D01*
X99870500Y-79352000D02*
X101524500Y-79352000D01*
X99870500Y-78313140D02*
X99870500Y-79352000D01*
X101524500Y-78111859D02*
X101524500Y-77288141D01*
X99870500Y-76048000D02*
X99870500Y-77086860D01*
X101524500Y-76048000D02*
X99870500Y-76048000D01*
X160785500Y-58992000D02*
X162439500Y-58992000D01*
X160785500Y-57953140D02*
X160785500Y-58992000D01*
X162439500Y-57751859D02*
X162439500Y-56928141D01*
X160785500Y-55688000D02*
X160785500Y-56726860D01*
X162439500Y-55688000D02*
X160785500Y-55688000D01*
X150638000Y-119942000D02*
X152292000Y-119942000D01*
X150638000Y-118903140D02*
X150638000Y-119942000D01*
X152292000Y-118701859D02*
X152292000Y-117878141D01*
X150638000Y-116638000D02*
X150638000Y-117676860D01*
X152292000Y-116638000D02*
X150638000Y-116638000D01*
%LPC*%
D15*
X127800000Y-117070000D03*
X127800000Y-114530000D03*
X127800000Y-111990000D03*
X127800000Y-109450000D03*
X127800000Y-106910000D03*
X127800000Y-104370000D03*
X127800000Y-101830000D03*
X127800000Y-99290000D03*
X127800000Y-96750000D03*
X127800000Y-94210000D03*
X127800000Y-91670000D03*
X127800000Y-89130000D03*
X127800000Y-86590000D03*
X127800000Y-84050000D03*
X127800000Y-81510000D03*
X127800000Y-78970000D03*
X127800000Y-76430000D03*
X127800000Y-73890000D03*
X127800000Y-71350000D03*
X127800000Y-68810000D03*
X127800000Y-66270000D03*
X127800000Y-63730000D03*
D16*
X162557499Y-88864999D03*
X162557499Y-86815001D03*
X160667500Y-87840000D03*
X101642499Y-88874999D03*
X101642499Y-86825001D03*
X99752500Y-87850000D03*
X101642499Y-99024999D03*
X101642499Y-96975001D03*
X99752500Y-98000000D03*
X101642499Y-68524999D03*
X101642499Y-66475001D03*
X99752500Y-67500000D03*
X121919999Y-109164999D03*
X121919999Y-107115001D03*
X120030000Y-108140000D03*
D17*
X124600000Y-57340000D03*
X124600000Y-67500000D03*
X124600000Y-77660000D03*
X124600000Y-87820000D03*
X124600000Y-97980000D03*
X124600000Y-108140000D03*
X124600000Y-118300000D03*
X131600000Y-60540000D03*
X131600000Y-70700000D03*
X131600000Y-80860000D03*
X131600000Y-91020000D03*
X131600000Y-101180000D03*
X131600000Y-111340000D03*
X131600000Y-121500000D03*
D16*
X132104999Y-109164999D03*
X132104999Y-107115001D03*
X130215000Y-108140000D03*
X152404999Y-109164999D03*
X152404999Y-107115001D03*
X150515000Y-108140000D03*
X101639999Y-109174999D03*
X101639999Y-107125001D03*
X99750000Y-108150000D03*
X152407499Y-68514999D03*
X152407499Y-66465001D03*
X150517500Y-67490000D03*
D17*
X94150000Y-57340000D03*
X94150000Y-67500000D03*
X94150000Y-77660000D03*
X94150000Y-87820000D03*
X94150000Y-97980000D03*
X94150000Y-108140000D03*
X94150000Y-118300000D03*
X101150000Y-60540000D03*
X101150000Y-70700000D03*
X101150000Y-80860000D03*
X101150000Y-91020000D03*
X101150000Y-101180000D03*
X101150000Y-111340000D03*
X101150000Y-121500000D03*
D16*
X111742499Y-88874999D03*
X111742499Y-86825001D03*
X109852500Y-87850000D03*
X132107499Y-58364999D03*
X132107499Y-56315001D03*
X130217500Y-57340000D03*
X142209999Y-119314999D03*
X142209999Y-117265001D03*
X140320000Y-118290000D03*
D17*
X104300000Y-57340000D03*
X104300000Y-67500000D03*
X104300000Y-77660000D03*
X104300000Y-87820000D03*
X104300000Y-97980000D03*
X104300000Y-108140000D03*
X104300000Y-118300000D03*
X111300000Y-60540000D03*
X111300000Y-70700000D03*
X111300000Y-80860000D03*
X111300000Y-91020000D03*
X111300000Y-101180000D03*
X111300000Y-111340000D03*
X111300000Y-121500000D03*
D16*
X132107499Y-88864999D03*
X132107499Y-86815001D03*
X130217500Y-87840000D03*
X162559999Y-119314999D03*
X162559999Y-117265001D03*
X160670000Y-118290000D03*
X111744999Y-119324999D03*
X111744999Y-117275001D03*
X109855000Y-118300000D03*
X152407499Y-78714999D03*
X152407499Y-76665001D03*
X150517500Y-77690000D03*
X121924999Y-119314999D03*
X121924999Y-117265001D03*
X120035000Y-118290000D03*
X121922499Y-78714999D03*
X121922499Y-76665001D03*
X120032500Y-77690000D03*
D17*
X155050000Y-57340000D03*
X155050000Y-67500000D03*
X155050000Y-77660000D03*
X155050000Y-87820000D03*
X155050000Y-97980000D03*
X155050000Y-108140000D03*
X155050000Y-118300000D03*
X162050000Y-60540000D03*
X162050000Y-70700000D03*
X162050000Y-80860000D03*
X162050000Y-91020000D03*
X162050000Y-101180000D03*
X162050000Y-111340000D03*
X162050000Y-121500000D03*
D16*
X111742499Y-68524999D03*
X111742499Y-66475001D03*
X109852500Y-67500000D03*
X101642499Y-58374999D03*
X101642499Y-56325001D03*
X99752500Y-57350000D03*
X111739999Y-109174999D03*
X111739999Y-107125001D03*
X109850000Y-108150000D03*
D17*
X144900000Y-57340000D03*
X144900000Y-67500000D03*
X144900000Y-77660000D03*
X144900000Y-87820000D03*
X144900000Y-97980000D03*
X144900000Y-108140000D03*
X144900000Y-118300000D03*
X151900000Y-60540000D03*
X151900000Y-70700000D03*
X151900000Y-80860000D03*
X151900000Y-91020000D03*
X151900000Y-101180000D03*
X151900000Y-111340000D03*
X151900000Y-121500000D03*
D16*
X121922499Y-88864999D03*
X121922499Y-86815001D03*
X120032500Y-87840000D03*
X111742499Y-78724999D03*
X111742499Y-76675001D03*
X109852500Y-77700000D03*
X142207499Y-68514999D03*
X142207499Y-66465001D03*
X140317500Y-67490000D03*
X142207499Y-58364999D03*
X142207499Y-56315001D03*
X140317500Y-57340000D03*
X142204999Y-109164999D03*
X142204999Y-107115001D03*
X140315000Y-108140000D03*
X121922499Y-99014999D03*
X121922499Y-96965001D03*
X120032500Y-97990000D03*
X162557499Y-99014999D03*
X162557499Y-96965001D03*
X160667500Y-97990000D03*
X142207499Y-78714999D03*
X142207499Y-76665001D03*
X140317500Y-77690000D03*
X121922499Y-68514999D03*
X121922499Y-66465001D03*
X120032500Y-67490000D03*
X162557499Y-68514999D03*
X162557499Y-66465001D03*
X160667500Y-67490000D03*
X142207499Y-88864999D03*
X142207499Y-86815001D03*
X140317500Y-87840000D03*
D17*
X134750000Y-57340000D03*
X134750000Y-67500000D03*
X134750000Y-77660000D03*
X134750000Y-87820000D03*
X134750000Y-97980000D03*
X134750000Y-108140000D03*
X134750000Y-118300000D03*
X141750000Y-60540000D03*
X141750000Y-70700000D03*
X141750000Y-80860000D03*
X141750000Y-91020000D03*
X141750000Y-101180000D03*
X141750000Y-111340000D03*
X141750000Y-121500000D03*
D16*
X111742499Y-58374999D03*
X111742499Y-56325001D03*
X109852500Y-57350000D03*
X162557499Y-78714999D03*
X162557499Y-76665001D03*
X160667500Y-77690000D03*
X132107499Y-68514999D03*
X132107499Y-66465001D03*
X130217500Y-67490000D03*
X132107499Y-78714999D03*
X132107499Y-76665001D03*
X130217500Y-77690000D03*
X142207499Y-99014999D03*
X142207499Y-96965001D03*
X140317500Y-97990000D03*
X111742499Y-99024999D03*
X111742499Y-96975001D03*
X109852500Y-98000000D03*
X101644999Y-119324999D03*
X101644999Y-117275001D03*
X99755000Y-118300000D03*
D17*
X114450000Y-57340000D03*
X114450000Y-67500000D03*
X114450000Y-77660000D03*
X114450000Y-87820000D03*
X114450000Y-97980000D03*
X114450000Y-108140000D03*
X114450000Y-118300000D03*
X121450000Y-60540000D03*
X121450000Y-70700000D03*
X121450000Y-80860000D03*
X121450000Y-91020000D03*
X121450000Y-101180000D03*
X121450000Y-111340000D03*
X121450000Y-121500000D03*
D16*
X132107499Y-99014999D03*
X132107499Y-96965001D03*
X130217500Y-97990000D03*
X152407499Y-88864999D03*
X152407499Y-86815001D03*
X150517500Y-87840000D03*
X152407499Y-58364999D03*
X152407499Y-56315001D03*
X150517500Y-57340000D03*
X121922499Y-58364999D03*
X121922499Y-56315001D03*
X120032500Y-57340000D03*
X152407499Y-99014999D03*
X152407499Y-96965001D03*
X150517500Y-97990000D03*
X162554999Y-109164999D03*
X162554999Y-107115001D03*
X160665000Y-108140000D03*
X132109999Y-119314999D03*
X132109999Y-117265001D03*
X130220000Y-118290000D03*
X101642499Y-78724999D03*
X101642499Y-76675001D03*
X99752500Y-77700000D03*
X162557499Y-58364999D03*
X162557499Y-56315001D03*
X160667500Y-57340000D03*
X152409999Y-119314999D03*
X152409999Y-117265001D03*
X150520000Y-118290000D03*
%LPD*%
M02*
