M48
; DRILL file {KiCad 8.0.5-8.0.5-0~ubuntu24.04.1} date 2024-10-16T20:18:54-0400
; FORMAT={-:-/ absolute / metric / decimal}
; #@! TF.CreationDate,2024-10-16T20:18:54-04:00
; #@! TF.GenerationSoftware,Kicad,Pcbnew,8.0.5-8.0.5-0~ubuntu24.04.1
; #@! TF.FileFunction,Plated,1,2,PTH
FMAT,2
METRIC
; #@! TA.AperFunction,Plated,PTH,ComponentDrill
T1C0.800
; #@! TA.AperFunction,Plated,PTH,ComponentDrill
T2C1.000
%
G90
G05
T1
X127.8Y-63.73
X127.8Y-66.27
X127.8Y-68.81
X127.8Y-71.35
X127.8Y-73.89
X127.8Y-76.43
X127.8Y-78.97
X127.8Y-81.51
X127.8Y-84.05
X127.8Y-86.59
X127.8Y-89.13
X127.8Y-91.67
X127.8Y-94.21
X127.8Y-96.75
X127.8Y-99.29
X127.8Y-101.83
X127.8Y-104.37
X127.8Y-106.91
X127.8Y-109.45
X127.8Y-111.99
X127.8Y-114.53
X127.8Y-117.07
T2
X94.15Y-57.34
X94.15Y-67.5
X94.15Y-77.66
X94.15Y-87.82
X94.15Y-97.98
X94.15Y-108.14
X94.15Y-118.3
X101.15Y-60.54
X101.15Y-70.7
X101.15Y-80.86
X101.15Y-91.02
X101.15Y-101.18
X101.15Y-111.34
X101.15Y-121.5
X104.3Y-57.34
X104.3Y-67.5
X104.3Y-77.66
X104.3Y-87.82
X104.3Y-97.98
X104.3Y-108.14
X104.3Y-118.3
X111.3Y-60.54
X111.3Y-70.7
X111.3Y-80.86
X111.3Y-91.02
X111.3Y-101.18
X111.3Y-111.34
X111.3Y-121.5
X114.45Y-57.34
X114.45Y-67.5
X114.45Y-77.66
X114.45Y-87.82
X114.45Y-97.98
X114.45Y-108.14
X114.45Y-118.3
X121.45Y-60.54
X121.45Y-70.7
X121.45Y-80.86
X121.45Y-91.02
X121.45Y-101.18
X121.45Y-111.34
X121.45Y-121.5
X124.6Y-57.34
X124.6Y-67.5
X124.6Y-77.66
X124.6Y-87.82
X124.6Y-97.98
X124.6Y-108.14
X124.6Y-118.3
X131.6Y-60.54
X131.6Y-70.7
X131.6Y-80.86
X131.6Y-91.02
X131.6Y-101.18
X131.6Y-111.34
X131.6Y-121.5
X134.75Y-57.34
X134.75Y-67.5
X134.75Y-77.66
X134.75Y-87.82
X134.75Y-97.98
X134.75Y-108.14
X134.75Y-118.3
X141.75Y-60.54
X141.75Y-70.7
X141.75Y-80.86
X141.75Y-91.02
X141.75Y-101.18
X141.75Y-111.34
X141.75Y-121.5
X144.9Y-57.34
X144.9Y-67.5
X144.9Y-77.66
X144.9Y-87.82
X144.9Y-97.98
X144.9Y-108.14
X144.9Y-118.3
X151.9Y-60.54
X151.9Y-70.7
X151.9Y-80.86
X151.9Y-91.02
X151.9Y-101.18
X151.9Y-111.34
X151.9Y-121.5
X155.05Y-57.34
X155.05Y-67.5
X155.05Y-77.66
X155.05Y-87.82
X155.05Y-97.98
X155.05Y-108.14
X155.05Y-118.3
X162.05Y-60.54
X162.05Y-70.7
X162.05Y-80.86
X162.05Y-91.02
X162.05Y-101.18
X162.05Y-111.34
X162.05Y-121.5
M30
