%TF.GenerationSoftware,KiCad,Pcbnew,8.0.6-8.0.6-0~ubuntu24.04.1*%
%TF.CreationDate,2024-11-10T23:40:15-05:00*%
%TF.ProjectId,array,61727261-792e-46b6-9963-61645f706362,rev?*%
%TF.SameCoordinates,Original*%
%TF.FileFunction,Drillmap*%
%TF.FilePolarity,Positive*%
%FSLAX45Y45*%
G04 Gerber Fmt 4.5, Leading zero omitted, Abs format (unit mm)*
G04 Created by KiCad (PCBNEW 8.0.6-8.0.6-0~ubuntu24.04.1) date 2024-11-10 23:40:15*
%MOMM*%
%LPD*%
G01*
G04 APERTURE LIST*
%ADD10C,0.200000*%
%ADD11C,0.100000*%
%ADD12C,0.125000*%
G04 APERTURE END LIST*
D10*
X4480000Y-4481000D02*
X26307500Y-4481000D01*
X26307500Y-12100000D01*
X4480000Y-12100000D01*
X4480000Y-4481000D01*
D11*
X11663000Y-8873000D02*
X11703000Y-8913000D01*
X11703000Y-8873000D02*
X11663000Y-8913000D01*
X11996000Y-8658000D02*
X12036000Y-8698000D01*
X12036000Y-8658000D02*
X11996000Y-8698000D01*
X12010000Y-9645000D02*
X12050000Y-9685000D01*
X12050000Y-9645000D02*
X12010000Y-9685000D01*
X17876500Y-8890500D02*
X17916500Y-8930500D01*
X17916500Y-8890500D02*
X17876500Y-8930500D01*
X18052000Y-8842000D02*
X18092000Y-8882000D01*
X18092000Y-8842000D02*
X18052000Y-8882000D01*
X18070000Y-9805000D02*
X18110000Y-9845000D01*
X18110000Y-9805000D02*
X18070000Y-9845000D01*
X18171000Y-10625000D02*
X18211000Y-10665000D01*
X18211000Y-10625000D02*
X18171000Y-10665000D01*
X18174000Y-7440000D02*
X18214000Y-7480000D01*
X18214000Y-7440000D02*
X18174000Y-7480000D01*
X18226000Y-9700000D02*
X18266000Y-9740000D01*
X18266000Y-9700000D02*
X18226000Y-9740000D01*
X18396000Y-5719000D02*
X18436000Y-5759000D01*
X18436000Y-5719000D02*
X18396000Y-5759000D01*
X18529000Y-5626000D02*
X18569000Y-5666000D01*
X18569000Y-5626000D02*
X18529000Y-5666000D01*
X18563000Y-6531000D02*
X18603000Y-6571000D01*
X18603000Y-6531000D02*
X18563000Y-6571000D01*
X18688000Y-6560000D02*
X18728000Y-6600000D01*
X18728000Y-6560000D02*
X18688000Y-6600000D01*
X12352250Y-5971000D02*
G75*
G02*
X12272250Y-5971000I-40000J0D01*
G01*
X12272250Y-5971000D02*
G75*
G02*
X12352250Y-5971000I40000J0D01*
G01*
X12352250Y-6225000D02*
G75*
G02*
X12272250Y-6225000I-40000J0D01*
G01*
X12272250Y-6225000D02*
G75*
G02*
X12352250Y-6225000I40000J0D01*
G01*
X12352250Y-6479000D02*
G75*
G02*
X12272250Y-6479000I-40000J0D01*
G01*
X12272250Y-6479000D02*
G75*
G02*
X12352250Y-6479000I40000J0D01*
G01*
X12352250Y-6733000D02*
G75*
G02*
X12272250Y-6733000I-40000J0D01*
G01*
X12272250Y-6733000D02*
G75*
G02*
X12352250Y-6733000I40000J0D01*
G01*
X12352250Y-6987000D02*
G75*
G02*
X12272250Y-6987000I-40000J0D01*
G01*
X12272250Y-6987000D02*
G75*
G02*
X12352250Y-6987000I40000J0D01*
G01*
X12352250Y-7241000D02*
G75*
G02*
X12272250Y-7241000I-40000J0D01*
G01*
X12272250Y-7241000D02*
G75*
G02*
X12352250Y-7241000I40000J0D01*
G01*
X12352250Y-7495000D02*
G75*
G02*
X12272250Y-7495000I-40000J0D01*
G01*
X12272250Y-7495000D02*
G75*
G02*
X12352250Y-7495000I40000J0D01*
G01*
X12352250Y-7749000D02*
G75*
G02*
X12272250Y-7749000I-40000J0D01*
G01*
X12272250Y-7749000D02*
G75*
G02*
X12352250Y-7749000I40000J0D01*
G01*
X12352250Y-8003000D02*
G75*
G02*
X12272250Y-8003000I-40000J0D01*
G01*
X12272250Y-8003000D02*
G75*
G02*
X12352250Y-8003000I40000J0D01*
G01*
X12352250Y-8257000D02*
G75*
G02*
X12272250Y-8257000I-40000J0D01*
G01*
X12272250Y-8257000D02*
G75*
G02*
X12352250Y-8257000I40000J0D01*
G01*
X12352250Y-8511000D02*
G75*
G02*
X12272250Y-8511000I-40000J0D01*
G01*
X12272250Y-8511000D02*
G75*
G02*
X12352250Y-8511000I40000J0D01*
G01*
X12352250Y-8765000D02*
G75*
G02*
X12272250Y-8765000I-40000J0D01*
G01*
X12272250Y-8765000D02*
G75*
G02*
X12352250Y-8765000I40000J0D01*
G01*
X12352250Y-9019000D02*
G75*
G02*
X12272250Y-9019000I-40000J0D01*
G01*
X12272250Y-9019000D02*
G75*
G02*
X12352250Y-9019000I40000J0D01*
G01*
X12352250Y-9273000D02*
G75*
G02*
X12272250Y-9273000I-40000J0D01*
G01*
X12272250Y-9273000D02*
G75*
G02*
X12352250Y-9273000I40000J0D01*
G01*
X12352250Y-9527000D02*
G75*
G02*
X12272250Y-9527000I-40000J0D01*
G01*
X12272250Y-9527000D02*
G75*
G02*
X12352250Y-9527000I40000J0D01*
G01*
X12352250Y-9781000D02*
G75*
G02*
X12272250Y-9781000I-40000J0D01*
G01*
X12272250Y-9781000D02*
G75*
G02*
X12352250Y-9781000I40000J0D01*
G01*
X12352250Y-10035000D02*
G75*
G02*
X12272250Y-10035000I-40000J0D01*
G01*
X12272250Y-10035000D02*
G75*
G02*
X12352250Y-10035000I40000J0D01*
G01*
X12352250Y-10289000D02*
G75*
G02*
X12272250Y-10289000I-40000J0D01*
G01*
X12272250Y-10289000D02*
G75*
G02*
X12352250Y-10289000I40000J0D01*
G01*
X12352250Y-10543000D02*
G75*
G02*
X12272250Y-10543000I-40000J0D01*
G01*
X12272250Y-10543000D02*
G75*
G02*
X12352250Y-10543000I40000J0D01*
G01*
X12352250Y-10797000D02*
G75*
G02*
X12272250Y-10797000I-40000J0D01*
G01*
X12272250Y-10797000D02*
G75*
G02*
X12352250Y-10797000I40000J0D01*
G01*
X18442250Y-5971000D02*
G75*
G02*
X18362250Y-5971000I-40000J0D01*
G01*
X18362250Y-5971000D02*
G75*
G02*
X18442250Y-5971000I40000J0D01*
G01*
X18442250Y-6225000D02*
G75*
G02*
X18362250Y-6225000I-40000J0D01*
G01*
X18362250Y-6225000D02*
G75*
G02*
X18442250Y-6225000I40000J0D01*
G01*
X18442250Y-6479000D02*
G75*
G02*
X18362250Y-6479000I-40000J0D01*
G01*
X18362250Y-6479000D02*
G75*
G02*
X18442250Y-6479000I40000J0D01*
G01*
X18442250Y-6733000D02*
G75*
G02*
X18362250Y-6733000I-40000J0D01*
G01*
X18362250Y-6733000D02*
G75*
G02*
X18442250Y-6733000I40000J0D01*
G01*
X18442250Y-6987000D02*
G75*
G02*
X18362250Y-6987000I-40000J0D01*
G01*
X18362250Y-6987000D02*
G75*
G02*
X18442250Y-6987000I40000J0D01*
G01*
X18442250Y-7241000D02*
G75*
G02*
X18362250Y-7241000I-40000J0D01*
G01*
X18362250Y-7241000D02*
G75*
G02*
X18442250Y-7241000I40000J0D01*
G01*
X18442250Y-7495000D02*
G75*
G02*
X18362250Y-7495000I-40000J0D01*
G01*
X18362250Y-7495000D02*
G75*
G02*
X18442250Y-7495000I40000J0D01*
G01*
X18442250Y-7749000D02*
G75*
G02*
X18362250Y-7749000I-40000J0D01*
G01*
X18362250Y-7749000D02*
G75*
G02*
X18442250Y-7749000I40000J0D01*
G01*
X18442250Y-8003000D02*
G75*
G02*
X18362250Y-8003000I-40000J0D01*
G01*
X18362250Y-8003000D02*
G75*
G02*
X18442250Y-8003000I40000J0D01*
G01*
X18442250Y-8257000D02*
G75*
G02*
X18362250Y-8257000I-40000J0D01*
G01*
X18362250Y-8257000D02*
G75*
G02*
X18442250Y-8257000I40000J0D01*
G01*
X18442250Y-8511000D02*
G75*
G02*
X18362250Y-8511000I-40000J0D01*
G01*
X18362250Y-8511000D02*
G75*
G02*
X18442250Y-8511000I40000J0D01*
G01*
X18442250Y-8765000D02*
G75*
G02*
X18362250Y-8765000I-40000J0D01*
G01*
X18362250Y-8765000D02*
G75*
G02*
X18442250Y-8765000I40000J0D01*
G01*
X18442250Y-9019000D02*
G75*
G02*
X18362250Y-9019000I-40000J0D01*
G01*
X18362250Y-9019000D02*
G75*
G02*
X18442250Y-9019000I40000J0D01*
G01*
X18442250Y-9273000D02*
G75*
G02*
X18362250Y-9273000I-40000J0D01*
G01*
X18362250Y-9273000D02*
G75*
G02*
X18442250Y-9273000I40000J0D01*
G01*
X18442250Y-9527000D02*
G75*
G02*
X18362250Y-9527000I-40000J0D01*
G01*
X18362250Y-9527000D02*
G75*
G02*
X18442250Y-9527000I40000J0D01*
G01*
X18442250Y-9781000D02*
G75*
G02*
X18362250Y-9781000I-40000J0D01*
G01*
X18362250Y-9781000D02*
G75*
G02*
X18442250Y-9781000I40000J0D01*
G01*
X18442250Y-10035000D02*
G75*
G02*
X18362250Y-10035000I-40000J0D01*
G01*
X18362250Y-10035000D02*
G75*
G02*
X18442250Y-10035000I40000J0D01*
G01*
X18442250Y-10289000D02*
G75*
G02*
X18362250Y-10289000I-40000J0D01*
G01*
X18362250Y-10289000D02*
G75*
G02*
X18442250Y-10289000I40000J0D01*
G01*
X18442250Y-10543000D02*
G75*
G02*
X18362250Y-10543000I-40000J0D01*
G01*
X18362250Y-10543000D02*
G75*
G02*
X18442250Y-10543000I40000J0D01*
G01*
X18442250Y-10797000D02*
G75*
G02*
X18362250Y-10797000I-40000J0D01*
G01*
X18362250Y-10797000D02*
G75*
G02*
X18442250Y-10797000I40000J0D01*
G01*
D12*
X4895000Y-5020000D02*
X4895000Y-5145000D01*
X4832500Y-5082500D02*
X4957500Y-5082500D01*
X4895000Y-6036000D02*
X4895000Y-6161000D01*
X4832500Y-6098500D02*
X4957500Y-6098500D01*
X4895000Y-7052000D02*
X4895000Y-7177000D01*
X4832500Y-7114500D02*
X4957500Y-7114500D01*
X4895000Y-8068000D02*
X4895000Y-8193000D01*
X4832500Y-8130500D02*
X4957500Y-8130500D01*
X4895000Y-9084000D02*
X4895000Y-9209000D01*
X4832500Y-9146500D02*
X4957500Y-9146500D01*
X4895000Y-10100000D02*
X4895000Y-10225000D01*
X4832500Y-10162500D02*
X4957500Y-10162500D01*
X4895000Y-11116000D02*
X4895000Y-11241000D01*
X4832500Y-11178500D02*
X4957500Y-11178500D01*
X5595000Y-5340000D02*
X5595000Y-5465000D01*
X5532500Y-5402500D02*
X5657500Y-5402500D01*
X5595000Y-6356000D02*
X5595000Y-6481000D01*
X5532500Y-6418500D02*
X5657500Y-6418500D01*
X5595000Y-7372000D02*
X5595000Y-7497000D01*
X5532500Y-7434500D02*
X5657500Y-7434500D01*
X5595000Y-8388000D02*
X5595000Y-8513000D01*
X5532500Y-8450500D02*
X5657500Y-8450500D01*
X5595000Y-9404000D02*
X5595000Y-9529000D01*
X5532500Y-9466500D02*
X5657500Y-9466500D01*
X5595000Y-10420000D02*
X5595000Y-10545000D01*
X5532500Y-10482500D02*
X5657500Y-10482500D01*
X5595000Y-11436000D02*
X5595000Y-11561000D01*
X5532500Y-11498500D02*
X5657500Y-11498500D01*
X5910000Y-5020000D02*
X5910000Y-5145000D01*
X5847500Y-5082500D02*
X5972500Y-5082500D01*
X5910000Y-6036000D02*
X5910000Y-6161000D01*
X5847500Y-6098500D02*
X5972500Y-6098500D01*
X5910000Y-7052000D02*
X5910000Y-7177000D01*
X5847500Y-7114500D02*
X5972500Y-7114500D01*
X5910000Y-8068000D02*
X5910000Y-8193000D01*
X5847500Y-8130500D02*
X5972500Y-8130500D01*
X5910000Y-9084000D02*
X5910000Y-9209000D01*
X5847500Y-9146500D02*
X5972500Y-9146500D01*
X5910000Y-10100000D02*
X5910000Y-10225000D01*
X5847500Y-10162500D02*
X5972500Y-10162500D01*
X5910000Y-11116000D02*
X5910000Y-11241000D01*
X5847500Y-11178500D02*
X5972500Y-11178500D01*
X6610000Y-5340000D02*
X6610000Y-5465000D01*
X6547500Y-5402500D02*
X6672500Y-5402500D01*
X6610000Y-6356000D02*
X6610000Y-6481000D01*
X6547500Y-6418500D02*
X6672500Y-6418500D01*
X6610000Y-7372000D02*
X6610000Y-7497000D01*
X6547500Y-7434500D02*
X6672500Y-7434500D01*
X6610000Y-8388000D02*
X6610000Y-8513000D01*
X6547500Y-8450500D02*
X6672500Y-8450500D01*
X6610000Y-9404000D02*
X6610000Y-9529000D01*
X6547500Y-9466500D02*
X6672500Y-9466500D01*
X6610000Y-10420000D02*
X6610000Y-10545000D01*
X6547500Y-10482500D02*
X6672500Y-10482500D01*
X6610000Y-11436000D02*
X6610000Y-11561000D01*
X6547500Y-11498500D02*
X6672500Y-11498500D01*
X6922750Y-5020000D02*
X6922750Y-5145000D01*
X6860250Y-5082500D02*
X6985250Y-5082500D01*
X6922750Y-6036000D02*
X6922750Y-6161000D01*
X6860250Y-6098500D02*
X6985250Y-6098500D01*
X6922750Y-7052000D02*
X6922750Y-7177000D01*
X6860250Y-7114500D02*
X6985250Y-7114500D01*
X6922750Y-8068000D02*
X6922750Y-8193000D01*
X6860250Y-8130500D02*
X6985250Y-8130500D01*
X6922750Y-9084000D02*
X6922750Y-9209000D01*
X6860250Y-9146500D02*
X6985250Y-9146500D01*
X6922750Y-10100000D02*
X6922750Y-10225000D01*
X6860250Y-10162500D02*
X6985250Y-10162500D01*
X6922750Y-11116000D02*
X6922750Y-11241000D01*
X6860250Y-11178500D02*
X6985250Y-11178500D01*
X7622750Y-5340000D02*
X7622750Y-5465000D01*
X7560250Y-5402500D02*
X7685250Y-5402500D01*
X7622750Y-6356000D02*
X7622750Y-6481000D01*
X7560250Y-6418500D02*
X7685250Y-6418500D01*
X7622750Y-7372000D02*
X7622750Y-7497000D01*
X7560250Y-7434500D02*
X7685250Y-7434500D01*
X7622750Y-8388000D02*
X7622750Y-8513000D01*
X7560250Y-8450500D02*
X7685250Y-8450500D01*
X7622750Y-9404000D02*
X7622750Y-9529000D01*
X7560250Y-9466500D02*
X7685250Y-9466500D01*
X7622750Y-10420000D02*
X7622750Y-10545000D01*
X7560250Y-10482500D02*
X7685250Y-10482500D01*
X7622750Y-11436000D02*
X7622750Y-11561000D01*
X7560250Y-11498500D02*
X7685250Y-11498500D01*
X7937750Y-5020000D02*
X7937750Y-5145000D01*
X7875250Y-5082500D02*
X8000250Y-5082500D01*
X7937750Y-6036000D02*
X7937750Y-6161000D01*
X7875250Y-6098500D02*
X8000250Y-6098500D01*
X7937750Y-7052000D02*
X7937750Y-7177000D01*
X7875250Y-7114500D02*
X8000250Y-7114500D01*
X7937750Y-8068000D02*
X7937750Y-8193000D01*
X7875250Y-8130500D02*
X8000250Y-8130500D01*
X7937750Y-9084000D02*
X7937750Y-9209000D01*
X7875250Y-9146500D02*
X8000250Y-9146500D01*
X7937750Y-10100000D02*
X7937750Y-10225000D01*
X7875250Y-10162500D02*
X8000250Y-10162500D01*
X7937750Y-11116000D02*
X7937750Y-11241000D01*
X7875250Y-11178500D02*
X8000250Y-11178500D01*
X8637750Y-5340000D02*
X8637750Y-5465000D01*
X8575250Y-5402500D02*
X8700250Y-5402500D01*
X8637750Y-6356000D02*
X8637750Y-6481000D01*
X8575250Y-6418500D02*
X8700250Y-6418500D01*
X8637750Y-7372000D02*
X8637750Y-7497000D01*
X8575250Y-7434500D02*
X8700250Y-7434500D01*
X8637750Y-8388000D02*
X8637750Y-8513000D01*
X8575250Y-8450500D02*
X8700250Y-8450500D01*
X8637750Y-9404000D02*
X8637750Y-9529000D01*
X8575250Y-9466500D02*
X8700250Y-9466500D01*
X8637750Y-10420000D02*
X8637750Y-10545000D01*
X8575250Y-10482500D02*
X8700250Y-10482500D01*
X8637750Y-11436000D02*
X8637750Y-11561000D01*
X8575250Y-11498500D02*
X8700250Y-11498500D01*
X8952750Y-5020000D02*
X8952750Y-5145000D01*
X8890250Y-5082500D02*
X9015250Y-5082500D01*
X8952750Y-6036000D02*
X8952750Y-6161000D01*
X8890250Y-6098500D02*
X9015250Y-6098500D01*
X8952750Y-7052000D02*
X8952750Y-7177000D01*
X8890250Y-7114500D02*
X9015250Y-7114500D01*
X8952750Y-8068000D02*
X8952750Y-8193000D01*
X8890250Y-8130500D02*
X9015250Y-8130500D01*
X8952750Y-9084000D02*
X8952750Y-9209000D01*
X8890250Y-9146500D02*
X9015250Y-9146500D01*
X8952750Y-10100000D02*
X8952750Y-10225000D01*
X8890250Y-10162500D02*
X9015250Y-10162500D01*
X8952750Y-11116000D02*
X8952750Y-11241000D01*
X8890250Y-11178500D02*
X9015250Y-11178500D01*
X9652750Y-5340000D02*
X9652750Y-5465000D01*
X9590250Y-5402500D02*
X9715250Y-5402500D01*
X9652750Y-6356000D02*
X9652750Y-6481000D01*
X9590250Y-6418500D02*
X9715250Y-6418500D01*
X9652750Y-7372000D02*
X9652750Y-7497000D01*
X9590250Y-7434500D02*
X9715250Y-7434500D01*
X9652750Y-8388000D02*
X9652750Y-8513000D01*
X9590250Y-8450500D02*
X9715250Y-8450500D01*
X9652750Y-9404000D02*
X9652750Y-9529000D01*
X9590250Y-9466500D02*
X9715250Y-9466500D01*
X9652750Y-10420000D02*
X9652750Y-10545000D01*
X9590250Y-10482500D02*
X9715250Y-10482500D01*
X9652750Y-11436000D02*
X9652750Y-11561000D01*
X9590250Y-11498500D02*
X9715250Y-11498500D01*
X9967750Y-5020000D02*
X9967750Y-5145000D01*
X9905250Y-5082500D02*
X10030250Y-5082500D01*
X9967750Y-6036000D02*
X9967750Y-6161000D01*
X9905250Y-6098500D02*
X10030250Y-6098500D01*
X9967750Y-7052000D02*
X9967750Y-7177000D01*
X9905250Y-7114500D02*
X10030250Y-7114500D01*
X9967750Y-8068000D02*
X9967750Y-8193000D01*
X9905250Y-8130500D02*
X10030250Y-8130500D01*
X9967750Y-9084000D02*
X9967750Y-9209000D01*
X9905250Y-9146500D02*
X10030250Y-9146500D01*
X9967750Y-10100000D02*
X9967750Y-10225000D01*
X9905250Y-10162500D02*
X10030250Y-10162500D01*
X9967750Y-11116000D02*
X9967750Y-11241000D01*
X9905250Y-11178500D02*
X10030250Y-11178500D01*
X10667750Y-5340000D02*
X10667750Y-5465000D01*
X10605250Y-5402500D02*
X10730250Y-5402500D01*
X10667750Y-6356000D02*
X10667750Y-6481000D01*
X10605250Y-6418500D02*
X10730250Y-6418500D01*
X10667750Y-7372000D02*
X10667750Y-7497000D01*
X10605250Y-7434500D02*
X10730250Y-7434500D01*
X10667750Y-8388000D02*
X10667750Y-8513000D01*
X10605250Y-8450500D02*
X10730250Y-8450500D01*
X10667750Y-9404000D02*
X10667750Y-9529000D01*
X10605250Y-9466500D02*
X10730250Y-9466500D01*
X10667750Y-10420000D02*
X10667750Y-10545000D01*
X10605250Y-10482500D02*
X10730250Y-10482500D01*
X10667750Y-11436000D02*
X10667750Y-11561000D01*
X10605250Y-11498500D02*
X10730250Y-11498500D01*
X10982750Y-5020000D02*
X10982750Y-5145000D01*
X10920250Y-5082500D02*
X11045250Y-5082500D01*
X10982750Y-6036000D02*
X10982750Y-6161000D01*
X10920250Y-6098500D02*
X11045250Y-6098500D01*
X10982750Y-7052000D02*
X10982750Y-7177000D01*
X10920250Y-7114500D02*
X11045250Y-7114500D01*
X10982750Y-8068000D02*
X10982750Y-8193000D01*
X10920250Y-8130500D02*
X11045250Y-8130500D01*
X10982750Y-9084000D02*
X10982750Y-9209000D01*
X10920250Y-9146500D02*
X11045250Y-9146500D01*
X10982750Y-10100000D02*
X10982750Y-10225000D01*
X10920250Y-10162500D02*
X11045250Y-10162500D01*
X10982750Y-11116000D02*
X10982750Y-11241000D01*
X10920250Y-11178500D02*
X11045250Y-11178500D01*
X11682750Y-5340000D02*
X11682750Y-5465000D01*
X11620250Y-5402500D02*
X11745250Y-5402500D01*
X11682750Y-6356000D02*
X11682750Y-6481000D01*
X11620250Y-6418500D02*
X11745250Y-6418500D01*
X11682750Y-7372000D02*
X11682750Y-7497000D01*
X11620250Y-7434500D02*
X11745250Y-7434500D01*
X11682750Y-8388000D02*
X11682750Y-8513000D01*
X11620250Y-8450500D02*
X11745250Y-8450500D01*
X11682750Y-9404000D02*
X11682750Y-9529000D01*
X11620250Y-9466500D02*
X11745250Y-9466500D01*
X11682750Y-10420000D02*
X11682750Y-10545000D01*
X11620250Y-10482500D02*
X11745250Y-10482500D01*
X11682750Y-11436000D02*
X11682750Y-11561000D01*
X11620250Y-11498500D02*
X11745250Y-11498500D01*
X11997750Y-5020000D02*
X11997750Y-5145000D01*
X11935250Y-5082500D02*
X12060250Y-5082500D01*
X11997750Y-6036000D02*
X11997750Y-6161000D01*
X11935250Y-6098500D02*
X12060250Y-6098500D01*
X11997750Y-7052000D02*
X11997750Y-7177000D01*
X11935250Y-7114500D02*
X12060250Y-7114500D01*
X11997750Y-8068000D02*
X11997750Y-8193000D01*
X11935250Y-8130500D02*
X12060250Y-8130500D01*
X11997750Y-9084000D02*
X11997750Y-9209000D01*
X11935250Y-9146500D02*
X12060250Y-9146500D01*
X11997750Y-10100000D02*
X11997750Y-10225000D01*
X11935250Y-10162500D02*
X12060250Y-10162500D01*
X11997750Y-11116000D02*
X11997750Y-11241000D01*
X11935250Y-11178500D02*
X12060250Y-11178500D01*
X12697750Y-5340000D02*
X12697750Y-5465000D01*
X12635250Y-5402500D02*
X12760250Y-5402500D01*
X12697750Y-6356000D02*
X12697750Y-6481000D01*
X12635250Y-6418500D02*
X12760250Y-6418500D01*
X12697750Y-7372000D02*
X12697750Y-7497000D01*
X12635250Y-7434500D02*
X12760250Y-7434500D01*
X12697750Y-8388000D02*
X12697750Y-8513000D01*
X12635250Y-8450500D02*
X12760250Y-8450500D01*
X12697750Y-9404000D02*
X12697750Y-9529000D01*
X12635250Y-9466500D02*
X12760250Y-9466500D01*
X12697750Y-10420000D02*
X12697750Y-10545000D01*
X12635250Y-10482500D02*
X12760250Y-10482500D01*
X12697750Y-11436000D02*
X12697750Y-11561000D01*
X12635250Y-11498500D02*
X12760250Y-11498500D01*
X13012750Y-5020000D02*
X13012750Y-5145000D01*
X12950250Y-5082500D02*
X13075250Y-5082500D01*
X13012750Y-6036000D02*
X13012750Y-6161000D01*
X12950250Y-6098500D02*
X13075250Y-6098500D01*
X13012750Y-7052000D02*
X13012750Y-7177000D01*
X12950250Y-7114500D02*
X13075250Y-7114500D01*
X13012750Y-8068000D02*
X13012750Y-8193000D01*
X12950250Y-8130500D02*
X13075250Y-8130500D01*
X13012750Y-9084000D02*
X13012750Y-9209000D01*
X12950250Y-9146500D02*
X13075250Y-9146500D01*
X13012750Y-10100000D02*
X13012750Y-10225000D01*
X12950250Y-10162500D02*
X13075250Y-10162500D01*
X13012750Y-11116000D02*
X13012750Y-11241000D01*
X12950250Y-11178500D02*
X13075250Y-11178500D01*
X13712750Y-5340000D02*
X13712750Y-5465000D01*
X13650250Y-5402500D02*
X13775250Y-5402500D01*
X13712750Y-6356000D02*
X13712750Y-6481000D01*
X13650250Y-6418500D02*
X13775250Y-6418500D01*
X13712750Y-7372000D02*
X13712750Y-7497000D01*
X13650250Y-7434500D02*
X13775250Y-7434500D01*
X13712750Y-8388000D02*
X13712750Y-8513000D01*
X13650250Y-8450500D02*
X13775250Y-8450500D01*
X13712750Y-9404000D02*
X13712750Y-9529000D01*
X13650250Y-9466500D02*
X13775250Y-9466500D01*
X13712750Y-10420000D02*
X13712750Y-10545000D01*
X13650250Y-10482500D02*
X13775250Y-10482500D01*
X13712750Y-11436000D02*
X13712750Y-11561000D01*
X13650250Y-11498500D02*
X13775250Y-11498500D01*
X14027750Y-5020000D02*
X14027750Y-5145000D01*
X13965250Y-5082500D02*
X14090250Y-5082500D01*
X14027750Y-6036000D02*
X14027750Y-6161000D01*
X13965250Y-6098500D02*
X14090250Y-6098500D01*
X14027750Y-7052000D02*
X14027750Y-7177000D01*
X13965250Y-7114500D02*
X14090250Y-7114500D01*
X14027750Y-8068000D02*
X14027750Y-8193000D01*
X13965250Y-8130500D02*
X14090250Y-8130500D01*
X14027750Y-9084000D02*
X14027750Y-9209000D01*
X13965250Y-9146500D02*
X14090250Y-9146500D01*
X14027750Y-10100000D02*
X14027750Y-10225000D01*
X13965250Y-10162500D02*
X14090250Y-10162500D01*
X14027750Y-11116000D02*
X14027750Y-11241000D01*
X13965250Y-11178500D02*
X14090250Y-11178500D01*
X14727750Y-5340000D02*
X14727750Y-5465000D01*
X14665250Y-5402500D02*
X14790250Y-5402500D01*
X14727750Y-6356000D02*
X14727750Y-6481000D01*
X14665250Y-6418500D02*
X14790250Y-6418500D01*
X14727750Y-7372000D02*
X14727750Y-7497000D01*
X14665250Y-7434500D02*
X14790250Y-7434500D01*
X14727750Y-8388000D02*
X14727750Y-8513000D01*
X14665250Y-8450500D02*
X14790250Y-8450500D01*
X14727750Y-9404000D02*
X14727750Y-9529000D01*
X14665250Y-9466500D02*
X14790250Y-9466500D01*
X14727750Y-10420000D02*
X14727750Y-10545000D01*
X14665250Y-10482500D02*
X14790250Y-10482500D01*
X14727750Y-11436000D02*
X14727750Y-11561000D01*
X14665250Y-11498500D02*
X14790250Y-11498500D01*
X15042500Y-5020000D02*
X15042500Y-5145000D01*
X14980000Y-5082500D02*
X15105000Y-5082500D01*
X15042500Y-6036000D02*
X15042500Y-6161000D01*
X14980000Y-6098500D02*
X15105000Y-6098500D01*
X15042500Y-7052000D02*
X15042500Y-7177000D01*
X14980000Y-7114500D02*
X15105000Y-7114500D01*
X15042500Y-8068000D02*
X15042500Y-8193000D01*
X14980000Y-8130500D02*
X15105000Y-8130500D01*
X15042500Y-9084000D02*
X15042500Y-9209000D01*
X14980000Y-9146500D02*
X15105000Y-9146500D01*
X15042500Y-10100000D02*
X15042500Y-10225000D01*
X14980000Y-10162500D02*
X15105000Y-10162500D01*
X15042500Y-11116000D02*
X15042500Y-11241000D01*
X14980000Y-11178500D02*
X15105000Y-11178500D01*
X15742500Y-5340000D02*
X15742500Y-5465000D01*
X15680000Y-5402500D02*
X15805000Y-5402500D01*
X15742500Y-6356000D02*
X15742500Y-6481000D01*
X15680000Y-6418500D02*
X15805000Y-6418500D01*
X15742500Y-7372000D02*
X15742500Y-7497000D01*
X15680000Y-7434500D02*
X15805000Y-7434500D01*
X15742500Y-8388000D02*
X15742500Y-8513000D01*
X15680000Y-8450500D02*
X15805000Y-8450500D01*
X15742500Y-9404000D02*
X15742500Y-9529000D01*
X15680000Y-9466500D02*
X15805000Y-9466500D01*
X15742500Y-10420000D02*
X15742500Y-10545000D01*
X15680000Y-10482500D02*
X15805000Y-10482500D01*
X15742500Y-11436000D02*
X15742500Y-11561000D01*
X15680000Y-11498500D02*
X15805000Y-11498500D01*
X16057500Y-5020000D02*
X16057500Y-5145000D01*
X15995000Y-5082500D02*
X16120000Y-5082500D01*
X16057500Y-6036000D02*
X16057500Y-6161000D01*
X15995000Y-6098500D02*
X16120000Y-6098500D01*
X16057500Y-7052000D02*
X16057500Y-7177000D01*
X15995000Y-7114500D02*
X16120000Y-7114500D01*
X16057500Y-8068000D02*
X16057500Y-8193000D01*
X15995000Y-8130500D02*
X16120000Y-8130500D01*
X16057500Y-9084000D02*
X16057500Y-9209000D01*
X15995000Y-9146500D02*
X16120000Y-9146500D01*
X16057500Y-10100000D02*
X16057500Y-10225000D01*
X15995000Y-10162500D02*
X16120000Y-10162500D01*
X16057500Y-11116000D02*
X16057500Y-11241000D01*
X15995000Y-11178500D02*
X16120000Y-11178500D01*
X16757500Y-5340000D02*
X16757500Y-5465000D01*
X16695000Y-5402500D02*
X16820000Y-5402500D01*
X16757500Y-6356000D02*
X16757500Y-6481000D01*
X16695000Y-6418500D02*
X16820000Y-6418500D01*
X16757500Y-7372000D02*
X16757500Y-7497000D01*
X16695000Y-7434500D02*
X16820000Y-7434500D01*
X16757500Y-8388000D02*
X16757500Y-8513000D01*
X16695000Y-8450500D02*
X16820000Y-8450500D01*
X16757500Y-9404000D02*
X16757500Y-9529000D01*
X16695000Y-9466500D02*
X16820000Y-9466500D01*
X16757500Y-10420000D02*
X16757500Y-10545000D01*
X16695000Y-10482500D02*
X16820000Y-10482500D01*
X16757500Y-11436000D02*
X16757500Y-11561000D01*
X16695000Y-11498500D02*
X16820000Y-11498500D01*
X17072500Y-5020000D02*
X17072500Y-5145000D01*
X17010000Y-5082500D02*
X17135000Y-5082500D01*
X17072500Y-6036000D02*
X17072500Y-6161000D01*
X17010000Y-6098500D02*
X17135000Y-6098500D01*
X17072500Y-7052000D02*
X17072500Y-7177000D01*
X17010000Y-7114500D02*
X17135000Y-7114500D01*
X17072500Y-8068000D02*
X17072500Y-8193000D01*
X17010000Y-8130500D02*
X17135000Y-8130500D01*
X17072500Y-9084000D02*
X17072500Y-9209000D01*
X17010000Y-9146500D02*
X17135000Y-9146500D01*
X17072500Y-10100000D02*
X17072500Y-10225000D01*
X17010000Y-10162500D02*
X17135000Y-10162500D01*
X17072500Y-11116000D02*
X17072500Y-11241000D01*
X17010000Y-11178500D02*
X17135000Y-11178500D01*
X17772500Y-5340000D02*
X17772500Y-5465000D01*
X17710000Y-5402500D02*
X17835000Y-5402500D01*
X17772500Y-6356000D02*
X17772500Y-6481000D01*
X17710000Y-6418500D02*
X17835000Y-6418500D01*
X17772500Y-7372000D02*
X17772500Y-7497000D01*
X17710000Y-7434500D02*
X17835000Y-7434500D01*
X17772500Y-8388000D02*
X17772500Y-8513000D01*
X17710000Y-8450500D02*
X17835000Y-8450500D01*
X17772500Y-9404000D02*
X17772500Y-9529000D01*
X17710000Y-9466500D02*
X17835000Y-9466500D01*
X17772500Y-10420000D02*
X17772500Y-10545000D01*
X17710000Y-10482500D02*
X17835000Y-10482500D01*
X17772500Y-11436000D02*
X17772500Y-11561000D01*
X17710000Y-11498500D02*
X17835000Y-11498500D01*
X18087500Y-5020000D02*
X18087500Y-5145000D01*
X18025000Y-5082500D02*
X18150000Y-5082500D01*
X18087500Y-6036000D02*
X18087500Y-6161000D01*
X18025000Y-6098500D02*
X18150000Y-6098500D01*
X18087500Y-7052000D02*
X18087500Y-7177000D01*
X18025000Y-7114500D02*
X18150000Y-7114500D01*
X18087500Y-8068000D02*
X18087500Y-8193000D01*
X18025000Y-8130500D02*
X18150000Y-8130500D01*
X18087500Y-9084000D02*
X18087500Y-9209000D01*
X18025000Y-9146500D02*
X18150000Y-9146500D01*
X18087500Y-10100000D02*
X18087500Y-10225000D01*
X18025000Y-10162500D02*
X18150000Y-10162500D01*
X18087500Y-11116000D02*
X18087500Y-11241000D01*
X18025000Y-11178500D02*
X18150000Y-11178500D01*
X18787500Y-5340000D02*
X18787500Y-5465000D01*
X18725000Y-5402500D02*
X18850000Y-5402500D01*
X18787500Y-6356000D02*
X18787500Y-6481000D01*
X18725000Y-6418500D02*
X18850000Y-6418500D01*
X18787500Y-7372000D02*
X18787500Y-7497000D01*
X18725000Y-7434500D02*
X18850000Y-7434500D01*
X18787500Y-8388000D02*
X18787500Y-8513000D01*
X18725000Y-8450500D02*
X18850000Y-8450500D01*
X18787500Y-9404000D02*
X18787500Y-9529000D01*
X18725000Y-9466500D02*
X18850000Y-9466500D01*
X18787500Y-10420000D02*
X18787500Y-10545000D01*
X18725000Y-10482500D02*
X18850000Y-10482500D01*
X18787500Y-11436000D02*
X18787500Y-11561000D01*
X18725000Y-11498500D02*
X18850000Y-11498500D01*
X19102500Y-5020000D02*
X19102500Y-5145000D01*
X19040000Y-5082500D02*
X19165000Y-5082500D01*
X19102500Y-6036000D02*
X19102500Y-6161000D01*
X19040000Y-6098500D02*
X19165000Y-6098500D01*
X19102500Y-7052000D02*
X19102500Y-7177000D01*
X19040000Y-7114500D02*
X19165000Y-7114500D01*
X19102500Y-8068000D02*
X19102500Y-8193000D01*
X19040000Y-8130500D02*
X19165000Y-8130500D01*
X19102500Y-9084000D02*
X19102500Y-9209000D01*
X19040000Y-9146500D02*
X19165000Y-9146500D01*
X19102500Y-10100000D02*
X19102500Y-10225000D01*
X19040000Y-10162500D02*
X19165000Y-10162500D01*
X19102500Y-11116000D02*
X19102500Y-11241000D01*
X19040000Y-11178500D02*
X19165000Y-11178500D01*
X19802500Y-5340000D02*
X19802500Y-5465000D01*
X19740000Y-5402500D02*
X19865000Y-5402500D01*
X19802500Y-6356000D02*
X19802500Y-6481000D01*
X19740000Y-6418500D02*
X19865000Y-6418500D01*
X19802500Y-7372000D02*
X19802500Y-7497000D01*
X19740000Y-7434500D02*
X19865000Y-7434500D01*
X19802500Y-8388000D02*
X19802500Y-8513000D01*
X19740000Y-8450500D02*
X19865000Y-8450500D01*
X19802500Y-9404000D02*
X19802500Y-9529000D01*
X19740000Y-9466500D02*
X19865000Y-9466500D01*
X19802500Y-10420000D02*
X19802500Y-10545000D01*
X19740000Y-10482500D02*
X19865000Y-10482500D01*
X19802500Y-11436000D02*
X19802500Y-11561000D01*
X19740000Y-11498500D02*
X19865000Y-11498500D01*
X20117500Y-5020000D02*
X20117500Y-5145000D01*
X20055000Y-5082500D02*
X20180000Y-5082500D01*
X20117500Y-6036000D02*
X20117500Y-6161000D01*
X20055000Y-6098500D02*
X20180000Y-6098500D01*
X20117500Y-7052000D02*
X20117500Y-7177000D01*
X20055000Y-7114500D02*
X20180000Y-7114500D01*
X20117500Y-8068000D02*
X20117500Y-8193000D01*
X20055000Y-8130500D02*
X20180000Y-8130500D01*
X20117500Y-9084000D02*
X20117500Y-9209000D01*
X20055000Y-9146500D02*
X20180000Y-9146500D01*
X20117500Y-10100000D02*
X20117500Y-10225000D01*
X20055000Y-10162500D02*
X20180000Y-10162500D01*
X20117500Y-11116000D02*
X20117500Y-11241000D01*
X20055000Y-11178500D02*
X20180000Y-11178500D01*
X20817500Y-5340000D02*
X20817500Y-5465000D01*
X20755000Y-5402500D02*
X20880000Y-5402500D01*
X20817500Y-6356000D02*
X20817500Y-6481000D01*
X20755000Y-6418500D02*
X20880000Y-6418500D01*
X20817500Y-7372000D02*
X20817500Y-7497000D01*
X20755000Y-7434500D02*
X20880000Y-7434500D01*
X20817500Y-8388000D02*
X20817500Y-8513000D01*
X20755000Y-8450500D02*
X20880000Y-8450500D01*
X20817500Y-9404000D02*
X20817500Y-9529000D01*
X20755000Y-9466500D02*
X20880000Y-9466500D01*
X20817500Y-10420000D02*
X20817500Y-10545000D01*
X20755000Y-10482500D02*
X20880000Y-10482500D01*
X20817500Y-11436000D02*
X20817500Y-11561000D01*
X20755000Y-11498500D02*
X20880000Y-11498500D01*
X21132500Y-5020000D02*
X21132500Y-5145000D01*
X21070000Y-5082500D02*
X21195000Y-5082500D01*
X21132500Y-6036000D02*
X21132500Y-6161000D01*
X21070000Y-6098500D02*
X21195000Y-6098500D01*
X21132500Y-7052000D02*
X21132500Y-7177000D01*
X21070000Y-7114500D02*
X21195000Y-7114500D01*
X21132500Y-8068000D02*
X21132500Y-8193000D01*
X21070000Y-8130500D02*
X21195000Y-8130500D01*
X21132500Y-9084000D02*
X21132500Y-9209000D01*
X21070000Y-9146500D02*
X21195000Y-9146500D01*
X21132500Y-10100000D02*
X21132500Y-10225000D01*
X21070000Y-10162500D02*
X21195000Y-10162500D01*
X21132500Y-11116000D02*
X21132500Y-11241000D01*
X21070000Y-11178500D02*
X21195000Y-11178500D01*
X21832500Y-5340000D02*
X21832500Y-5465000D01*
X21770000Y-5402500D02*
X21895000Y-5402500D01*
X21832500Y-6356000D02*
X21832500Y-6481000D01*
X21770000Y-6418500D02*
X21895000Y-6418500D01*
X21832500Y-7372000D02*
X21832500Y-7497000D01*
X21770000Y-7434500D02*
X21895000Y-7434500D01*
X21832500Y-8388000D02*
X21832500Y-8513000D01*
X21770000Y-8450500D02*
X21895000Y-8450500D01*
X21832500Y-9404000D02*
X21832500Y-9529000D01*
X21770000Y-9466500D02*
X21895000Y-9466500D01*
X21832500Y-10420000D02*
X21832500Y-10545000D01*
X21770000Y-10482500D02*
X21895000Y-10482500D01*
X21832500Y-11436000D02*
X21832500Y-11561000D01*
X21770000Y-11498500D02*
X21895000Y-11498500D01*
X22147500Y-5020000D02*
X22147500Y-5145000D01*
X22085000Y-5082500D02*
X22210000Y-5082500D01*
X22147500Y-6036000D02*
X22147500Y-6161000D01*
X22085000Y-6098500D02*
X22210000Y-6098500D01*
X22147500Y-7052000D02*
X22147500Y-7177000D01*
X22085000Y-7114500D02*
X22210000Y-7114500D01*
X22147500Y-8068000D02*
X22147500Y-8193000D01*
X22085000Y-8130500D02*
X22210000Y-8130500D01*
X22147500Y-9084000D02*
X22147500Y-9209000D01*
X22085000Y-9146500D02*
X22210000Y-9146500D01*
X22147500Y-10100000D02*
X22147500Y-10225000D01*
X22085000Y-10162500D02*
X22210000Y-10162500D01*
X22147500Y-11116000D02*
X22147500Y-11241000D01*
X22085000Y-11178500D02*
X22210000Y-11178500D01*
X22847500Y-5340000D02*
X22847500Y-5465000D01*
X22785000Y-5402500D02*
X22910000Y-5402500D01*
X22847500Y-6356000D02*
X22847500Y-6481000D01*
X22785000Y-6418500D02*
X22910000Y-6418500D01*
X22847500Y-7372000D02*
X22847500Y-7497000D01*
X22785000Y-7434500D02*
X22910000Y-7434500D01*
X22847500Y-8388000D02*
X22847500Y-8513000D01*
X22785000Y-8450500D02*
X22910000Y-8450500D01*
X22847500Y-9404000D02*
X22847500Y-9529000D01*
X22785000Y-9466500D02*
X22910000Y-9466500D01*
X22847500Y-10420000D02*
X22847500Y-10545000D01*
X22785000Y-10482500D02*
X22910000Y-10482500D01*
X22847500Y-11436000D02*
X22847500Y-11561000D01*
X22785000Y-11498500D02*
X22910000Y-11498500D01*
X23162500Y-5020000D02*
X23162500Y-5145000D01*
X23100000Y-5082500D02*
X23225000Y-5082500D01*
X23162500Y-6036000D02*
X23162500Y-6161000D01*
X23100000Y-6098500D02*
X23225000Y-6098500D01*
X23162500Y-7052000D02*
X23162500Y-7177000D01*
X23100000Y-7114500D02*
X23225000Y-7114500D01*
X23162500Y-8068000D02*
X23162500Y-8193000D01*
X23100000Y-8130500D02*
X23225000Y-8130500D01*
X23162500Y-9084000D02*
X23162500Y-9209000D01*
X23100000Y-9146500D02*
X23225000Y-9146500D01*
X23162500Y-10100000D02*
X23162500Y-10225000D01*
X23100000Y-10162500D02*
X23225000Y-10162500D01*
X23162500Y-11116000D02*
X23162500Y-11241000D01*
X23100000Y-11178500D02*
X23225000Y-11178500D01*
X23862500Y-5340000D02*
X23862500Y-5465000D01*
X23800000Y-5402500D02*
X23925000Y-5402500D01*
X23862500Y-6356000D02*
X23862500Y-6481000D01*
X23800000Y-6418500D02*
X23925000Y-6418500D01*
X23862500Y-7372000D02*
X23862500Y-7497000D01*
X23800000Y-7434500D02*
X23925000Y-7434500D01*
X23862500Y-8388000D02*
X23862500Y-8513000D01*
X23800000Y-8450500D02*
X23925000Y-8450500D01*
X23862500Y-9404000D02*
X23862500Y-9529000D01*
X23800000Y-9466500D02*
X23925000Y-9466500D01*
X23862500Y-10420000D02*
X23862500Y-10545000D01*
X23800000Y-10482500D02*
X23925000Y-10482500D01*
X23862500Y-11436000D02*
X23862500Y-11561000D01*
X23800000Y-11498500D02*
X23925000Y-11498500D01*
X24177500Y-5020000D02*
X24177500Y-5145000D01*
X24115000Y-5082500D02*
X24240000Y-5082500D01*
X24177500Y-6036000D02*
X24177500Y-6161000D01*
X24115000Y-6098500D02*
X24240000Y-6098500D01*
X24177500Y-7052000D02*
X24177500Y-7177000D01*
X24115000Y-7114500D02*
X24240000Y-7114500D01*
X24177500Y-8068000D02*
X24177500Y-8193000D01*
X24115000Y-8130500D02*
X24240000Y-8130500D01*
X24177500Y-9084000D02*
X24177500Y-9209000D01*
X24115000Y-9146500D02*
X24240000Y-9146500D01*
X24177500Y-10100000D02*
X24177500Y-10225000D01*
X24115000Y-10162500D02*
X24240000Y-10162500D01*
X24177500Y-11116000D02*
X24177500Y-11241000D01*
X24115000Y-11178500D02*
X24240000Y-11178500D01*
X24877500Y-5340000D02*
X24877500Y-5465000D01*
X24815000Y-5402500D02*
X24940000Y-5402500D01*
X24877500Y-6356000D02*
X24877500Y-6481000D01*
X24815000Y-6418500D02*
X24940000Y-6418500D01*
X24877500Y-7372000D02*
X24877500Y-7497000D01*
X24815000Y-7434500D02*
X24940000Y-7434500D01*
X24877500Y-8388000D02*
X24877500Y-8513000D01*
X24815000Y-8450500D02*
X24940000Y-8450500D01*
X24877500Y-9404000D02*
X24877500Y-9529000D01*
X24815000Y-9466500D02*
X24940000Y-9466500D01*
X24877500Y-10420000D02*
X24877500Y-10545000D01*
X24815000Y-10482500D02*
X24940000Y-10482500D01*
X24877500Y-11436000D02*
X24877500Y-11561000D01*
X24815000Y-11498500D02*
X24940000Y-11498500D01*
X25192500Y-5020000D02*
X25192500Y-5145000D01*
X25130000Y-5082500D02*
X25255000Y-5082500D01*
X25192500Y-6036000D02*
X25192500Y-6161000D01*
X25130000Y-6098500D02*
X25255000Y-6098500D01*
X25192500Y-7052000D02*
X25192500Y-7177000D01*
X25130000Y-7114500D02*
X25255000Y-7114500D01*
X25192500Y-8068000D02*
X25192500Y-8193000D01*
X25130000Y-8130500D02*
X25255000Y-8130500D01*
X25192500Y-9084000D02*
X25192500Y-9209000D01*
X25130000Y-9146500D02*
X25255000Y-9146500D01*
X25192500Y-10100000D02*
X25192500Y-10225000D01*
X25130000Y-10162500D02*
X25255000Y-10162500D01*
X25192500Y-11116000D02*
X25192500Y-11241000D01*
X25130000Y-11178500D02*
X25255000Y-11178500D01*
X25892500Y-5340000D02*
X25892500Y-5465000D01*
X25830000Y-5402500D02*
X25955000Y-5402500D01*
X25892500Y-6356000D02*
X25892500Y-6481000D01*
X25830000Y-6418500D02*
X25955000Y-6418500D01*
X25892500Y-7372000D02*
X25892500Y-7497000D01*
X25830000Y-7434500D02*
X25955000Y-7434500D01*
X25892500Y-8388000D02*
X25892500Y-8513000D01*
X25830000Y-8450500D02*
X25955000Y-8450500D01*
X25892500Y-9404000D02*
X25892500Y-9529000D01*
X25830000Y-9466500D02*
X25955000Y-9466500D01*
X25892500Y-10420000D02*
X25892500Y-10545000D01*
X25830000Y-10482500D02*
X25955000Y-10482500D01*
X25892500Y-11436000D02*
X25892500Y-11561000D01*
X25830000Y-11498500D02*
X25955000Y-11498500D01*
D10*
X4730777Y-12421484D02*
X4730777Y-12221484D01*
X4730777Y-12221484D02*
X4778396Y-12221484D01*
X4778396Y-12221484D02*
X4806967Y-12231008D01*
X4806967Y-12231008D02*
X4826015Y-12250055D01*
X4826015Y-12250055D02*
X4835539Y-12269103D01*
X4835539Y-12269103D02*
X4845063Y-12307198D01*
X4845063Y-12307198D02*
X4845063Y-12335769D01*
X4845063Y-12335769D02*
X4835539Y-12373865D01*
X4835539Y-12373865D02*
X4826015Y-12392912D01*
X4826015Y-12392912D02*
X4806967Y-12411960D01*
X4806967Y-12411960D02*
X4778396Y-12421484D01*
X4778396Y-12421484D02*
X4730777Y-12421484D01*
X4930777Y-12421484D02*
X4930777Y-12288150D01*
X4930777Y-12326246D02*
X4940301Y-12307198D01*
X4940301Y-12307198D02*
X4949824Y-12297674D01*
X4949824Y-12297674D02*
X4968872Y-12288150D01*
X4968872Y-12288150D02*
X4987920Y-12288150D01*
X5054586Y-12421484D02*
X5054586Y-12288150D01*
X5054586Y-12221484D02*
X5045063Y-12231008D01*
X5045063Y-12231008D02*
X5054586Y-12240531D01*
X5054586Y-12240531D02*
X5064110Y-12231008D01*
X5064110Y-12231008D02*
X5054586Y-12221484D01*
X5054586Y-12221484D02*
X5054586Y-12240531D01*
X5178396Y-12421484D02*
X5159348Y-12411960D01*
X5159348Y-12411960D02*
X5149824Y-12392912D01*
X5149824Y-12392912D02*
X5149824Y-12221484D01*
X5283158Y-12421484D02*
X5264110Y-12411960D01*
X5264110Y-12411960D02*
X5254586Y-12392912D01*
X5254586Y-12392912D02*
X5254586Y-12221484D01*
X5511729Y-12421484D02*
X5511729Y-12221484D01*
X5511729Y-12221484D02*
X5578396Y-12364341D01*
X5578396Y-12364341D02*
X5645062Y-12221484D01*
X5645062Y-12221484D02*
X5645062Y-12421484D01*
X5826015Y-12421484D02*
X5826015Y-12316722D01*
X5826015Y-12316722D02*
X5816491Y-12297674D01*
X5816491Y-12297674D02*
X5797443Y-12288150D01*
X5797443Y-12288150D02*
X5759348Y-12288150D01*
X5759348Y-12288150D02*
X5740301Y-12297674D01*
X5826015Y-12411960D02*
X5806967Y-12421484D01*
X5806967Y-12421484D02*
X5759348Y-12421484D01*
X5759348Y-12421484D02*
X5740301Y-12411960D01*
X5740301Y-12411960D02*
X5730777Y-12392912D01*
X5730777Y-12392912D02*
X5730777Y-12373865D01*
X5730777Y-12373865D02*
X5740301Y-12354817D01*
X5740301Y-12354817D02*
X5759348Y-12345293D01*
X5759348Y-12345293D02*
X5806967Y-12345293D01*
X5806967Y-12345293D02*
X5826015Y-12335769D01*
X5921253Y-12288150D02*
X5921253Y-12488150D01*
X5921253Y-12297674D02*
X5940301Y-12288150D01*
X5940301Y-12288150D02*
X5978396Y-12288150D01*
X5978396Y-12288150D02*
X5997443Y-12297674D01*
X5997443Y-12297674D02*
X6006967Y-12307198D01*
X6006967Y-12307198D02*
X6016491Y-12326246D01*
X6016491Y-12326246D02*
X6016491Y-12383388D01*
X6016491Y-12383388D02*
X6006967Y-12402436D01*
X6006967Y-12402436D02*
X5997443Y-12411960D01*
X5997443Y-12411960D02*
X5978396Y-12421484D01*
X5978396Y-12421484D02*
X5940301Y-12421484D01*
X5940301Y-12421484D02*
X5921253Y-12411960D01*
X6102205Y-12402436D02*
X6111729Y-12411960D01*
X6111729Y-12411960D02*
X6102205Y-12421484D01*
X6102205Y-12421484D02*
X6092682Y-12411960D01*
X6092682Y-12411960D02*
X6102205Y-12402436D01*
X6102205Y-12402436D02*
X6102205Y-12421484D01*
X6102205Y-12297674D02*
X6111729Y-12307198D01*
X6111729Y-12307198D02*
X6102205Y-12316722D01*
X6102205Y-12316722D02*
X6092682Y-12307198D01*
X6092682Y-12307198D02*
X6102205Y-12297674D01*
X6102205Y-12297674D02*
X6102205Y-12316722D01*
D11*
X4430000Y-12730000D02*
X4470000Y-12770000D01*
X4470000Y-12730000D02*
X4430000Y-12770000D01*
D10*
X4768872Y-12641484D02*
X4787920Y-12641484D01*
X4787920Y-12641484D02*
X4806967Y-12651008D01*
X4806967Y-12651008D02*
X4816491Y-12660531D01*
X4816491Y-12660531D02*
X4826015Y-12679579D01*
X4826015Y-12679579D02*
X4835539Y-12717674D01*
X4835539Y-12717674D02*
X4835539Y-12765293D01*
X4835539Y-12765293D02*
X4826015Y-12803388D01*
X4826015Y-12803388D02*
X4816491Y-12822436D01*
X4816491Y-12822436D02*
X4806967Y-12831960D01*
X4806967Y-12831960D02*
X4787920Y-12841484D01*
X4787920Y-12841484D02*
X4768872Y-12841484D01*
X4768872Y-12841484D02*
X4749824Y-12831960D01*
X4749824Y-12831960D02*
X4740301Y-12822436D01*
X4740301Y-12822436D02*
X4730777Y-12803388D01*
X4730777Y-12803388D02*
X4721253Y-12765293D01*
X4721253Y-12765293D02*
X4721253Y-12717674D01*
X4721253Y-12717674D02*
X4730777Y-12679579D01*
X4730777Y-12679579D02*
X4740301Y-12660531D01*
X4740301Y-12660531D02*
X4749824Y-12651008D01*
X4749824Y-12651008D02*
X4768872Y-12641484D01*
X4921253Y-12822436D02*
X4930777Y-12831960D01*
X4930777Y-12831960D02*
X4921253Y-12841484D01*
X4921253Y-12841484D02*
X4911729Y-12831960D01*
X4911729Y-12831960D02*
X4921253Y-12822436D01*
X4921253Y-12822436D02*
X4921253Y-12841484D01*
X5102205Y-12708150D02*
X5102205Y-12841484D01*
X5054586Y-12631960D02*
X5006967Y-12774817D01*
X5006967Y-12774817D02*
X5130777Y-12774817D01*
X5245063Y-12641484D02*
X5264110Y-12641484D01*
X5264110Y-12641484D02*
X5283158Y-12651008D01*
X5283158Y-12651008D02*
X5292682Y-12660531D01*
X5292682Y-12660531D02*
X5302205Y-12679579D01*
X5302205Y-12679579D02*
X5311729Y-12717674D01*
X5311729Y-12717674D02*
X5311729Y-12765293D01*
X5311729Y-12765293D02*
X5302205Y-12803388D01*
X5302205Y-12803388D02*
X5292682Y-12822436D01*
X5292682Y-12822436D02*
X5283158Y-12831960D01*
X5283158Y-12831960D02*
X5264110Y-12841484D01*
X5264110Y-12841484D02*
X5245063Y-12841484D01*
X5245063Y-12841484D02*
X5226015Y-12831960D01*
X5226015Y-12831960D02*
X5216491Y-12822436D01*
X5216491Y-12822436D02*
X5206967Y-12803388D01*
X5206967Y-12803388D02*
X5197444Y-12765293D01*
X5197444Y-12765293D02*
X5197444Y-12717674D01*
X5197444Y-12717674D02*
X5206967Y-12679579D01*
X5206967Y-12679579D02*
X5216491Y-12660531D01*
X5216491Y-12660531D02*
X5226015Y-12651008D01*
X5226015Y-12651008D02*
X5245063Y-12641484D01*
X5435539Y-12641484D02*
X5454586Y-12641484D01*
X5454586Y-12641484D02*
X5473634Y-12651008D01*
X5473634Y-12651008D02*
X5483158Y-12660531D01*
X5483158Y-12660531D02*
X5492682Y-12679579D01*
X5492682Y-12679579D02*
X5502205Y-12717674D01*
X5502205Y-12717674D02*
X5502205Y-12765293D01*
X5502205Y-12765293D02*
X5492682Y-12803388D01*
X5492682Y-12803388D02*
X5483158Y-12822436D01*
X5483158Y-12822436D02*
X5473634Y-12831960D01*
X5473634Y-12831960D02*
X5454586Y-12841484D01*
X5454586Y-12841484D02*
X5435539Y-12841484D01*
X5435539Y-12841484D02*
X5416491Y-12831960D01*
X5416491Y-12831960D02*
X5406967Y-12822436D01*
X5406967Y-12822436D02*
X5397444Y-12803388D01*
X5397444Y-12803388D02*
X5387920Y-12765293D01*
X5387920Y-12765293D02*
X5387920Y-12717674D01*
X5387920Y-12717674D02*
X5397444Y-12679579D01*
X5397444Y-12679579D02*
X5406967Y-12660531D01*
X5406967Y-12660531D02*
X5416491Y-12651008D01*
X5416491Y-12651008D02*
X5435539Y-12641484D01*
X5587920Y-12841484D02*
X5587920Y-12708150D01*
X5587920Y-12727198D02*
X5597443Y-12717674D01*
X5597443Y-12717674D02*
X5616491Y-12708150D01*
X5616491Y-12708150D02*
X5645063Y-12708150D01*
X5645063Y-12708150D02*
X5664110Y-12717674D01*
X5664110Y-12717674D02*
X5673634Y-12736722D01*
X5673634Y-12736722D02*
X5673634Y-12841484D01*
X5673634Y-12736722D02*
X5683158Y-12717674D01*
X5683158Y-12717674D02*
X5702205Y-12708150D01*
X5702205Y-12708150D02*
X5730777Y-12708150D01*
X5730777Y-12708150D02*
X5749824Y-12717674D01*
X5749824Y-12717674D02*
X5759348Y-12736722D01*
X5759348Y-12736722D02*
X5759348Y-12841484D01*
X5854586Y-12841484D02*
X5854586Y-12708150D01*
X5854586Y-12727198D02*
X5864110Y-12717674D01*
X5864110Y-12717674D02*
X5883158Y-12708150D01*
X5883158Y-12708150D02*
X5911729Y-12708150D01*
X5911729Y-12708150D02*
X5930777Y-12717674D01*
X5930777Y-12717674D02*
X5940301Y-12736722D01*
X5940301Y-12736722D02*
X5940301Y-12841484D01*
X5940301Y-12736722D02*
X5949824Y-12717674D01*
X5949824Y-12717674D02*
X5968872Y-12708150D01*
X5968872Y-12708150D02*
X5997443Y-12708150D01*
X5997443Y-12708150D02*
X6016491Y-12717674D01*
X6016491Y-12717674D02*
X6026015Y-12736722D01*
X6026015Y-12736722D02*
X6026015Y-12841484D01*
X6416491Y-12631960D02*
X6245063Y-12889103D01*
X6673634Y-12641484D02*
X6692682Y-12641484D01*
X6692682Y-12641484D02*
X6711729Y-12651008D01*
X6711729Y-12651008D02*
X6721253Y-12660531D01*
X6721253Y-12660531D02*
X6730777Y-12679579D01*
X6730777Y-12679579D02*
X6740301Y-12717674D01*
X6740301Y-12717674D02*
X6740301Y-12765293D01*
X6740301Y-12765293D02*
X6730777Y-12803388D01*
X6730777Y-12803388D02*
X6721253Y-12822436D01*
X6721253Y-12822436D02*
X6711729Y-12831960D01*
X6711729Y-12831960D02*
X6692682Y-12841484D01*
X6692682Y-12841484D02*
X6673634Y-12841484D01*
X6673634Y-12841484D02*
X6654586Y-12831960D01*
X6654586Y-12831960D02*
X6645063Y-12822436D01*
X6645063Y-12822436D02*
X6635539Y-12803388D01*
X6635539Y-12803388D02*
X6626015Y-12765293D01*
X6626015Y-12765293D02*
X6626015Y-12717674D01*
X6626015Y-12717674D02*
X6635539Y-12679579D01*
X6635539Y-12679579D02*
X6645063Y-12660531D01*
X6645063Y-12660531D02*
X6654586Y-12651008D01*
X6654586Y-12651008D02*
X6673634Y-12641484D01*
X6826015Y-12822436D02*
X6835539Y-12831960D01*
X6835539Y-12831960D02*
X6826015Y-12841484D01*
X6826015Y-12841484D02*
X6816491Y-12831960D01*
X6816491Y-12831960D02*
X6826015Y-12822436D01*
X6826015Y-12822436D02*
X6826015Y-12841484D01*
X6959348Y-12641484D02*
X6978396Y-12641484D01*
X6978396Y-12641484D02*
X6997444Y-12651008D01*
X6997444Y-12651008D02*
X7006967Y-12660531D01*
X7006967Y-12660531D02*
X7016491Y-12679579D01*
X7016491Y-12679579D02*
X7026015Y-12717674D01*
X7026015Y-12717674D02*
X7026015Y-12765293D01*
X7026015Y-12765293D02*
X7016491Y-12803388D01*
X7016491Y-12803388D02*
X7006967Y-12822436D01*
X7006967Y-12822436D02*
X6997444Y-12831960D01*
X6997444Y-12831960D02*
X6978396Y-12841484D01*
X6978396Y-12841484D02*
X6959348Y-12841484D01*
X6959348Y-12841484D02*
X6940301Y-12831960D01*
X6940301Y-12831960D02*
X6930777Y-12822436D01*
X6930777Y-12822436D02*
X6921253Y-12803388D01*
X6921253Y-12803388D02*
X6911729Y-12765293D01*
X6911729Y-12765293D02*
X6911729Y-12717674D01*
X6911729Y-12717674D02*
X6921253Y-12679579D01*
X6921253Y-12679579D02*
X6930777Y-12660531D01*
X6930777Y-12660531D02*
X6940301Y-12651008D01*
X6940301Y-12651008D02*
X6959348Y-12641484D01*
X7216491Y-12841484D02*
X7102206Y-12841484D01*
X7159348Y-12841484D02*
X7159348Y-12641484D01*
X7159348Y-12641484D02*
X7140301Y-12670055D01*
X7140301Y-12670055D02*
X7121253Y-12689103D01*
X7121253Y-12689103D02*
X7102206Y-12698627D01*
X7397444Y-12641484D02*
X7302206Y-12641484D01*
X7302206Y-12641484D02*
X7292682Y-12736722D01*
X7292682Y-12736722D02*
X7302206Y-12727198D01*
X7302206Y-12727198D02*
X7321253Y-12717674D01*
X7321253Y-12717674D02*
X7368872Y-12717674D01*
X7368872Y-12717674D02*
X7387920Y-12727198D01*
X7387920Y-12727198D02*
X7397444Y-12736722D01*
X7397444Y-12736722D02*
X7406967Y-12755769D01*
X7406967Y-12755769D02*
X7406967Y-12803388D01*
X7406967Y-12803388D02*
X7397444Y-12822436D01*
X7397444Y-12822436D02*
X7387920Y-12831960D01*
X7387920Y-12831960D02*
X7368872Y-12841484D01*
X7368872Y-12841484D02*
X7321253Y-12841484D01*
X7321253Y-12841484D02*
X7302206Y-12831960D01*
X7302206Y-12831960D02*
X7292682Y-12822436D01*
X7473634Y-12641484D02*
X7606967Y-12641484D01*
X7606967Y-12641484D02*
X7521253Y-12841484D01*
X7673634Y-12641484D02*
X7673634Y-12679579D01*
X7749825Y-12641484D02*
X7749825Y-12679579D01*
X8045063Y-12917674D02*
X8035539Y-12908150D01*
X8035539Y-12908150D02*
X8016491Y-12879579D01*
X8016491Y-12879579D02*
X8006968Y-12860531D01*
X8006968Y-12860531D02*
X7997444Y-12831960D01*
X7997444Y-12831960D02*
X7987920Y-12784341D01*
X7987920Y-12784341D02*
X7987920Y-12746246D01*
X7987920Y-12746246D02*
X7997444Y-12698627D01*
X7997444Y-12698627D02*
X8006968Y-12670055D01*
X8006968Y-12670055D02*
X8016491Y-12651008D01*
X8016491Y-12651008D02*
X8035539Y-12622436D01*
X8035539Y-12622436D02*
X8045063Y-12612912D01*
X8226015Y-12841484D02*
X8111729Y-12841484D01*
X8168872Y-12841484D02*
X8168872Y-12641484D01*
X8168872Y-12641484D02*
X8149825Y-12670055D01*
X8149825Y-12670055D02*
X8130777Y-12689103D01*
X8130777Y-12689103D02*
X8111729Y-12698627D01*
X8292682Y-12641484D02*
X8416491Y-12641484D01*
X8416491Y-12641484D02*
X8349825Y-12717674D01*
X8349825Y-12717674D02*
X8378396Y-12717674D01*
X8378396Y-12717674D02*
X8397444Y-12727198D01*
X8397444Y-12727198D02*
X8406968Y-12736722D01*
X8406968Y-12736722D02*
X8416491Y-12755769D01*
X8416491Y-12755769D02*
X8416491Y-12803388D01*
X8416491Y-12803388D02*
X8406968Y-12822436D01*
X8406968Y-12822436D02*
X8397444Y-12831960D01*
X8397444Y-12831960D02*
X8378396Y-12841484D01*
X8378396Y-12841484D02*
X8321253Y-12841484D01*
X8321253Y-12841484D02*
X8302206Y-12831960D01*
X8302206Y-12831960D02*
X8292682Y-12822436D01*
X8654587Y-12841484D02*
X8654587Y-12641484D01*
X8740301Y-12841484D02*
X8740301Y-12736722D01*
X8740301Y-12736722D02*
X8730777Y-12717674D01*
X8730777Y-12717674D02*
X8711730Y-12708150D01*
X8711730Y-12708150D02*
X8683158Y-12708150D01*
X8683158Y-12708150D02*
X8664111Y-12717674D01*
X8664111Y-12717674D02*
X8654587Y-12727198D01*
X8864111Y-12841484D02*
X8845063Y-12831960D01*
X8845063Y-12831960D02*
X8835539Y-12822436D01*
X8835539Y-12822436D02*
X8826015Y-12803388D01*
X8826015Y-12803388D02*
X8826015Y-12746246D01*
X8826015Y-12746246D02*
X8835539Y-12727198D01*
X8835539Y-12727198D02*
X8845063Y-12717674D01*
X8845063Y-12717674D02*
X8864111Y-12708150D01*
X8864111Y-12708150D02*
X8892682Y-12708150D01*
X8892682Y-12708150D02*
X8911730Y-12717674D01*
X8911730Y-12717674D02*
X8921253Y-12727198D01*
X8921253Y-12727198D02*
X8930777Y-12746246D01*
X8930777Y-12746246D02*
X8930777Y-12803388D01*
X8930777Y-12803388D02*
X8921253Y-12822436D01*
X8921253Y-12822436D02*
X8911730Y-12831960D01*
X8911730Y-12831960D02*
X8892682Y-12841484D01*
X8892682Y-12841484D02*
X8864111Y-12841484D01*
X9045063Y-12841484D02*
X9026015Y-12831960D01*
X9026015Y-12831960D02*
X9016492Y-12812912D01*
X9016492Y-12812912D02*
X9016492Y-12641484D01*
X9197444Y-12831960D02*
X9178396Y-12841484D01*
X9178396Y-12841484D02*
X9140301Y-12841484D01*
X9140301Y-12841484D02*
X9121253Y-12831960D01*
X9121253Y-12831960D02*
X9111730Y-12812912D01*
X9111730Y-12812912D02*
X9111730Y-12736722D01*
X9111730Y-12736722D02*
X9121253Y-12717674D01*
X9121253Y-12717674D02*
X9140301Y-12708150D01*
X9140301Y-12708150D02*
X9178396Y-12708150D01*
X9178396Y-12708150D02*
X9197444Y-12717674D01*
X9197444Y-12717674D02*
X9206968Y-12736722D01*
X9206968Y-12736722D02*
X9206968Y-12755769D01*
X9206968Y-12755769D02*
X9111730Y-12774817D01*
X9283158Y-12831960D02*
X9302206Y-12841484D01*
X9302206Y-12841484D02*
X9340301Y-12841484D01*
X9340301Y-12841484D02*
X9359349Y-12831960D01*
X9359349Y-12831960D02*
X9368873Y-12812912D01*
X9368873Y-12812912D02*
X9368873Y-12803388D01*
X9368873Y-12803388D02*
X9359349Y-12784341D01*
X9359349Y-12784341D02*
X9340301Y-12774817D01*
X9340301Y-12774817D02*
X9311730Y-12774817D01*
X9311730Y-12774817D02*
X9292682Y-12765293D01*
X9292682Y-12765293D02*
X9283158Y-12746246D01*
X9283158Y-12746246D02*
X9283158Y-12736722D01*
X9283158Y-12736722D02*
X9292682Y-12717674D01*
X9292682Y-12717674D02*
X9311730Y-12708150D01*
X9311730Y-12708150D02*
X9340301Y-12708150D01*
X9340301Y-12708150D02*
X9359349Y-12717674D01*
X9435539Y-12917674D02*
X9445063Y-12908150D01*
X9445063Y-12908150D02*
X9464111Y-12879579D01*
X9464111Y-12879579D02*
X9473634Y-12860531D01*
X9473634Y-12860531D02*
X9483158Y-12831960D01*
X9483158Y-12831960D02*
X9492682Y-12784341D01*
X9492682Y-12784341D02*
X9492682Y-12746246D01*
X9492682Y-12746246D02*
X9483158Y-12698627D01*
X9483158Y-12698627D02*
X9473634Y-12670055D01*
X9473634Y-12670055D02*
X9464111Y-12651008D01*
X9464111Y-12651008D02*
X9445063Y-12622436D01*
X9445063Y-12622436D02*
X9435539Y-12612912D01*
D11*
X4470000Y-13014000D02*
G75*
G02*
X4390000Y-13014000I-40000J0D01*
G01*
X4390000Y-13014000D02*
G75*
G02*
X4470000Y-13014000I40000J0D01*
G01*
D10*
X4768872Y-12905484D02*
X4787920Y-12905484D01*
X4787920Y-12905484D02*
X4806967Y-12915008D01*
X4806967Y-12915008D02*
X4816491Y-12924531D01*
X4816491Y-12924531D02*
X4826015Y-12943579D01*
X4826015Y-12943579D02*
X4835539Y-12981674D01*
X4835539Y-12981674D02*
X4835539Y-13029293D01*
X4835539Y-13029293D02*
X4826015Y-13067388D01*
X4826015Y-13067388D02*
X4816491Y-13086436D01*
X4816491Y-13086436D02*
X4806967Y-13095960D01*
X4806967Y-13095960D02*
X4787920Y-13105484D01*
X4787920Y-13105484D02*
X4768872Y-13105484D01*
X4768872Y-13105484D02*
X4749824Y-13095960D01*
X4749824Y-13095960D02*
X4740301Y-13086436D01*
X4740301Y-13086436D02*
X4730777Y-13067388D01*
X4730777Y-13067388D02*
X4721253Y-13029293D01*
X4721253Y-13029293D02*
X4721253Y-12981674D01*
X4721253Y-12981674D02*
X4730777Y-12943579D01*
X4730777Y-12943579D02*
X4740301Y-12924531D01*
X4740301Y-12924531D02*
X4749824Y-12915008D01*
X4749824Y-12915008D02*
X4768872Y-12905484D01*
X4921253Y-13086436D02*
X4930777Y-13095960D01*
X4930777Y-13095960D02*
X4921253Y-13105484D01*
X4921253Y-13105484D02*
X4911729Y-13095960D01*
X4911729Y-13095960D02*
X4921253Y-13086436D01*
X4921253Y-13086436D02*
X4921253Y-13105484D01*
X5045063Y-12991198D02*
X5026015Y-12981674D01*
X5026015Y-12981674D02*
X5016491Y-12972150D01*
X5016491Y-12972150D02*
X5006967Y-12953103D01*
X5006967Y-12953103D02*
X5006967Y-12943579D01*
X5006967Y-12943579D02*
X5016491Y-12924531D01*
X5016491Y-12924531D02*
X5026015Y-12915008D01*
X5026015Y-12915008D02*
X5045063Y-12905484D01*
X5045063Y-12905484D02*
X5083158Y-12905484D01*
X5083158Y-12905484D02*
X5102205Y-12915008D01*
X5102205Y-12915008D02*
X5111729Y-12924531D01*
X5111729Y-12924531D02*
X5121253Y-12943579D01*
X5121253Y-12943579D02*
X5121253Y-12953103D01*
X5121253Y-12953103D02*
X5111729Y-12972150D01*
X5111729Y-12972150D02*
X5102205Y-12981674D01*
X5102205Y-12981674D02*
X5083158Y-12991198D01*
X5083158Y-12991198D02*
X5045063Y-12991198D01*
X5045063Y-12991198D02*
X5026015Y-13000722D01*
X5026015Y-13000722D02*
X5016491Y-13010246D01*
X5016491Y-13010246D02*
X5006967Y-13029293D01*
X5006967Y-13029293D02*
X5006967Y-13067388D01*
X5006967Y-13067388D02*
X5016491Y-13086436D01*
X5016491Y-13086436D02*
X5026015Y-13095960D01*
X5026015Y-13095960D02*
X5045063Y-13105484D01*
X5045063Y-13105484D02*
X5083158Y-13105484D01*
X5083158Y-13105484D02*
X5102205Y-13095960D01*
X5102205Y-13095960D02*
X5111729Y-13086436D01*
X5111729Y-13086436D02*
X5121253Y-13067388D01*
X5121253Y-13067388D02*
X5121253Y-13029293D01*
X5121253Y-13029293D02*
X5111729Y-13010246D01*
X5111729Y-13010246D02*
X5102205Y-13000722D01*
X5102205Y-13000722D02*
X5083158Y-12991198D01*
X5245063Y-12905484D02*
X5264110Y-12905484D01*
X5264110Y-12905484D02*
X5283158Y-12915008D01*
X5283158Y-12915008D02*
X5292682Y-12924531D01*
X5292682Y-12924531D02*
X5302205Y-12943579D01*
X5302205Y-12943579D02*
X5311729Y-12981674D01*
X5311729Y-12981674D02*
X5311729Y-13029293D01*
X5311729Y-13029293D02*
X5302205Y-13067388D01*
X5302205Y-13067388D02*
X5292682Y-13086436D01*
X5292682Y-13086436D02*
X5283158Y-13095960D01*
X5283158Y-13095960D02*
X5264110Y-13105484D01*
X5264110Y-13105484D02*
X5245063Y-13105484D01*
X5245063Y-13105484D02*
X5226015Y-13095960D01*
X5226015Y-13095960D02*
X5216491Y-13086436D01*
X5216491Y-13086436D02*
X5206967Y-13067388D01*
X5206967Y-13067388D02*
X5197444Y-13029293D01*
X5197444Y-13029293D02*
X5197444Y-12981674D01*
X5197444Y-12981674D02*
X5206967Y-12943579D01*
X5206967Y-12943579D02*
X5216491Y-12924531D01*
X5216491Y-12924531D02*
X5226015Y-12915008D01*
X5226015Y-12915008D02*
X5245063Y-12905484D01*
X5435539Y-12905484D02*
X5454586Y-12905484D01*
X5454586Y-12905484D02*
X5473634Y-12915008D01*
X5473634Y-12915008D02*
X5483158Y-12924531D01*
X5483158Y-12924531D02*
X5492682Y-12943579D01*
X5492682Y-12943579D02*
X5502205Y-12981674D01*
X5502205Y-12981674D02*
X5502205Y-13029293D01*
X5502205Y-13029293D02*
X5492682Y-13067388D01*
X5492682Y-13067388D02*
X5483158Y-13086436D01*
X5483158Y-13086436D02*
X5473634Y-13095960D01*
X5473634Y-13095960D02*
X5454586Y-13105484D01*
X5454586Y-13105484D02*
X5435539Y-13105484D01*
X5435539Y-13105484D02*
X5416491Y-13095960D01*
X5416491Y-13095960D02*
X5406967Y-13086436D01*
X5406967Y-13086436D02*
X5397444Y-13067388D01*
X5397444Y-13067388D02*
X5387920Y-13029293D01*
X5387920Y-13029293D02*
X5387920Y-12981674D01*
X5387920Y-12981674D02*
X5397444Y-12943579D01*
X5397444Y-12943579D02*
X5406967Y-12924531D01*
X5406967Y-12924531D02*
X5416491Y-12915008D01*
X5416491Y-12915008D02*
X5435539Y-12905484D01*
X5587920Y-13105484D02*
X5587920Y-12972150D01*
X5587920Y-12991198D02*
X5597443Y-12981674D01*
X5597443Y-12981674D02*
X5616491Y-12972150D01*
X5616491Y-12972150D02*
X5645063Y-12972150D01*
X5645063Y-12972150D02*
X5664110Y-12981674D01*
X5664110Y-12981674D02*
X5673634Y-13000722D01*
X5673634Y-13000722D02*
X5673634Y-13105484D01*
X5673634Y-13000722D02*
X5683158Y-12981674D01*
X5683158Y-12981674D02*
X5702205Y-12972150D01*
X5702205Y-12972150D02*
X5730777Y-12972150D01*
X5730777Y-12972150D02*
X5749824Y-12981674D01*
X5749824Y-12981674D02*
X5759348Y-13000722D01*
X5759348Y-13000722D02*
X5759348Y-13105484D01*
X5854586Y-13105484D02*
X5854586Y-12972150D01*
X5854586Y-12991198D02*
X5864110Y-12981674D01*
X5864110Y-12981674D02*
X5883158Y-12972150D01*
X5883158Y-12972150D02*
X5911729Y-12972150D01*
X5911729Y-12972150D02*
X5930777Y-12981674D01*
X5930777Y-12981674D02*
X5940301Y-13000722D01*
X5940301Y-13000722D02*
X5940301Y-13105484D01*
X5940301Y-13000722D02*
X5949824Y-12981674D01*
X5949824Y-12981674D02*
X5968872Y-12972150D01*
X5968872Y-12972150D02*
X5997443Y-12972150D01*
X5997443Y-12972150D02*
X6016491Y-12981674D01*
X6016491Y-12981674D02*
X6026015Y-13000722D01*
X6026015Y-13000722D02*
X6026015Y-13105484D01*
X6416491Y-12895960D02*
X6245063Y-13153103D01*
X6673634Y-12905484D02*
X6692682Y-12905484D01*
X6692682Y-12905484D02*
X6711729Y-12915008D01*
X6711729Y-12915008D02*
X6721253Y-12924531D01*
X6721253Y-12924531D02*
X6730777Y-12943579D01*
X6730777Y-12943579D02*
X6740301Y-12981674D01*
X6740301Y-12981674D02*
X6740301Y-13029293D01*
X6740301Y-13029293D02*
X6730777Y-13067388D01*
X6730777Y-13067388D02*
X6721253Y-13086436D01*
X6721253Y-13086436D02*
X6711729Y-13095960D01*
X6711729Y-13095960D02*
X6692682Y-13105484D01*
X6692682Y-13105484D02*
X6673634Y-13105484D01*
X6673634Y-13105484D02*
X6654586Y-13095960D01*
X6654586Y-13095960D02*
X6645063Y-13086436D01*
X6645063Y-13086436D02*
X6635539Y-13067388D01*
X6635539Y-13067388D02*
X6626015Y-13029293D01*
X6626015Y-13029293D02*
X6626015Y-12981674D01*
X6626015Y-12981674D02*
X6635539Y-12943579D01*
X6635539Y-12943579D02*
X6645063Y-12924531D01*
X6645063Y-12924531D02*
X6654586Y-12915008D01*
X6654586Y-12915008D02*
X6673634Y-12905484D01*
X6826015Y-13086436D02*
X6835539Y-13095960D01*
X6835539Y-13095960D02*
X6826015Y-13105484D01*
X6826015Y-13105484D02*
X6816491Y-13095960D01*
X6816491Y-13095960D02*
X6826015Y-13086436D01*
X6826015Y-13086436D02*
X6826015Y-13105484D01*
X6959348Y-12905484D02*
X6978396Y-12905484D01*
X6978396Y-12905484D02*
X6997444Y-12915008D01*
X6997444Y-12915008D02*
X7006967Y-12924531D01*
X7006967Y-12924531D02*
X7016491Y-12943579D01*
X7016491Y-12943579D02*
X7026015Y-12981674D01*
X7026015Y-12981674D02*
X7026015Y-13029293D01*
X7026015Y-13029293D02*
X7016491Y-13067388D01*
X7016491Y-13067388D02*
X7006967Y-13086436D01*
X7006967Y-13086436D02*
X6997444Y-13095960D01*
X6997444Y-13095960D02*
X6978396Y-13105484D01*
X6978396Y-13105484D02*
X6959348Y-13105484D01*
X6959348Y-13105484D02*
X6940301Y-13095960D01*
X6940301Y-13095960D02*
X6930777Y-13086436D01*
X6930777Y-13086436D02*
X6921253Y-13067388D01*
X6921253Y-13067388D02*
X6911729Y-13029293D01*
X6911729Y-13029293D02*
X6911729Y-12981674D01*
X6911729Y-12981674D02*
X6921253Y-12943579D01*
X6921253Y-12943579D02*
X6930777Y-12924531D01*
X6930777Y-12924531D02*
X6940301Y-12915008D01*
X6940301Y-12915008D02*
X6959348Y-12905484D01*
X7092682Y-12905484D02*
X7216491Y-12905484D01*
X7216491Y-12905484D02*
X7149825Y-12981674D01*
X7149825Y-12981674D02*
X7178396Y-12981674D01*
X7178396Y-12981674D02*
X7197444Y-12991198D01*
X7197444Y-12991198D02*
X7206967Y-13000722D01*
X7206967Y-13000722D02*
X7216491Y-13019769D01*
X7216491Y-13019769D02*
X7216491Y-13067388D01*
X7216491Y-13067388D02*
X7206967Y-13086436D01*
X7206967Y-13086436D02*
X7197444Y-13095960D01*
X7197444Y-13095960D02*
X7178396Y-13105484D01*
X7178396Y-13105484D02*
X7121253Y-13105484D01*
X7121253Y-13105484D02*
X7102206Y-13095960D01*
X7102206Y-13095960D02*
X7092682Y-13086436D01*
X7406967Y-13105484D02*
X7292682Y-13105484D01*
X7349825Y-13105484D02*
X7349825Y-12905484D01*
X7349825Y-12905484D02*
X7330777Y-12934055D01*
X7330777Y-12934055D02*
X7311729Y-12953103D01*
X7311729Y-12953103D02*
X7292682Y-12962627D01*
X7587920Y-12905484D02*
X7492682Y-12905484D01*
X7492682Y-12905484D02*
X7483158Y-13000722D01*
X7483158Y-13000722D02*
X7492682Y-12991198D01*
X7492682Y-12991198D02*
X7511729Y-12981674D01*
X7511729Y-12981674D02*
X7559348Y-12981674D01*
X7559348Y-12981674D02*
X7578396Y-12991198D01*
X7578396Y-12991198D02*
X7587920Y-13000722D01*
X7587920Y-13000722D02*
X7597444Y-13019769D01*
X7597444Y-13019769D02*
X7597444Y-13067388D01*
X7597444Y-13067388D02*
X7587920Y-13086436D01*
X7587920Y-13086436D02*
X7578396Y-13095960D01*
X7578396Y-13095960D02*
X7559348Y-13105484D01*
X7559348Y-13105484D02*
X7511729Y-13105484D01*
X7511729Y-13105484D02*
X7492682Y-13095960D01*
X7492682Y-13095960D02*
X7483158Y-13086436D01*
X7673634Y-12905484D02*
X7673634Y-12943579D01*
X7749825Y-12905484D02*
X7749825Y-12943579D01*
X8045063Y-13181674D02*
X8035539Y-13172150D01*
X8035539Y-13172150D02*
X8016491Y-13143579D01*
X8016491Y-13143579D02*
X8006968Y-13124531D01*
X8006968Y-13124531D02*
X7997444Y-13095960D01*
X7997444Y-13095960D02*
X7987920Y-13048341D01*
X7987920Y-13048341D02*
X7987920Y-13010246D01*
X7987920Y-13010246D02*
X7997444Y-12962627D01*
X7997444Y-12962627D02*
X8006968Y-12934055D01*
X8006968Y-12934055D02*
X8016491Y-12915008D01*
X8016491Y-12915008D02*
X8035539Y-12886436D01*
X8035539Y-12886436D02*
X8045063Y-12876912D01*
X8206968Y-12972150D02*
X8206968Y-13105484D01*
X8159348Y-12895960D02*
X8111729Y-13038817D01*
X8111729Y-13038817D02*
X8235539Y-13038817D01*
X8349825Y-12905484D02*
X8368872Y-12905484D01*
X8368872Y-12905484D02*
X8387920Y-12915008D01*
X8387920Y-12915008D02*
X8397444Y-12924531D01*
X8397444Y-12924531D02*
X8406968Y-12943579D01*
X8406968Y-12943579D02*
X8416491Y-12981674D01*
X8416491Y-12981674D02*
X8416491Y-13029293D01*
X8416491Y-13029293D02*
X8406968Y-13067388D01*
X8406968Y-13067388D02*
X8397444Y-13086436D01*
X8397444Y-13086436D02*
X8387920Y-13095960D01*
X8387920Y-13095960D02*
X8368872Y-13105484D01*
X8368872Y-13105484D02*
X8349825Y-13105484D01*
X8349825Y-13105484D02*
X8330777Y-13095960D01*
X8330777Y-13095960D02*
X8321253Y-13086436D01*
X8321253Y-13086436D02*
X8311729Y-13067388D01*
X8311729Y-13067388D02*
X8302206Y-13029293D01*
X8302206Y-13029293D02*
X8302206Y-12981674D01*
X8302206Y-12981674D02*
X8311729Y-12943579D01*
X8311729Y-12943579D02*
X8321253Y-12924531D01*
X8321253Y-12924531D02*
X8330777Y-12915008D01*
X8330777Y-12915008D02*
X8349825Y-12905484D01*
X8654587Y-13105484D02*
X8654587Y-12905484D01*
X8740301Y-13105484D02*
X8740301Y-13000722D01*
X8740301Y-13000722D02*
X8730777Y-12981674D01*
X8730777Y-12981674D02*
X8711730Y-12972150D01*
X8711730Y-12972150D02*
X8683158Y-12972150D01*
X8683158Y-12972150D02*
X8664111Y-12981674D01*
X8664111Y-12981674D02*
X8654587Y-12991198D01*
X8864111Y-13105484D02*
X8845063Y-13095960D01*
X8845063Y-13095960D02*
X8835539Y-13086436D01*
X8835539Y-13086436D02*
X8826015Y-13067388D01*
X8826015Y-13067388D02*
X8826015Y-13010246D01*
X8826015Y-13010246D02*
X8835539Y-12991198D01*
X8835539Y-12991198D02*
X8845063Y-12981674D01*
X8845063Y-12981674D02*
X8864111Y-12972150D01*
X8864111Y-12972150D02*
X8892682Y-12972150D01*
X8892682Y-12972150D02*
X8911730Y-12981674D01*
X8911730Y-12981674D02*
X8921253Y-12991198D01*
X8921253Y-12991198D02*
X8930777Y-13010246D01*
X8930777Y-13010246D02*
X8930777Y-13067388D01*
X8930777Y-13067388D02*
X8921253Y-13086436D01*
X8921253Y-13086436D02*
X8911730Y-13095960D01*
X8911730Y-13095960D02*
X8892682Y-13105484D01*
X8892682Y-13105484D02*
X8864111Y-13105484D01*
X9045063Y-13105484D02*
X9026015Y-13095960D01*
X9026015Y-13095960D02*
X9016492Y-13076912D01*
X9016492Y-13076912D02*
X9016492Y-12905484D01*
X9197444Y-13095960D02*
X9178396Y-13105484D01*
X9178396Y-13105484D02*
X9140301Y-13105484D01*
X9140301Y-13105484D02*
X9121253Y-13095960D01*
X9121253Y-13095960D02*
X9111730Y-13076912D01*
X9111730Y-13076912D02*
X9111730Y-13000722D01*
X9111730Y-13000722D02*
X9121253Y-12981674D01*
X9121253Y-12981674D02*
X9140301Y-12972150D01*
X9140301Y-12972150D02*
X9178396Y-12972150D01*
X9178396Y-12972150D02*
X9197444Y-12981674D01*
X9197444Y-12981674D02*
X9206968Y-13000722D01*
X9206968Y-13000722D02*
X9206968Y-13019769D01*
X9206968Y-13019769D02*
X9111730Y-13038817D01*
X9283158Y-13095960D02*
X9302206Y-13105484D01*
X9302206Y-13105484D02*
X9340301Y-13105484D01*
X9340301Y-13105484D02*
X9359349Y-13095960D01*
X9359349Y-13095960D02*
X9368873Y-13076912D01*
X9368873Y-13076912D02*
X9368873Y-13067388D01*
X9368873Y-13067388D02*
X9359349Y-13048341D01*
X9359349Y-13048341D02*
X9340301Y-13038817D01*
X9340301Y-13038817D02*
X9311730Y-13038817D01*
X9311730Y-13038817D02*
X9292682Y-13029293D01*
X9292682Y-13029293D02*
X9283158Y-13010246D01*
X9283158Y-13010246D02*
X9283158Y-13000722D01*
X9283158Y-13000722D02*
X9292682Y-12981674D01*
X9292682Y-12981674D02*
X9311730Y-12972150D01*
X9311730Y-12972150D02*
X9340301Y-12972150D01*
X9340301Y-12972150D02*
X9359349Y-12981674D01*
X9435539Y-13181674D02*
X9445063Y-13172150D01*
X9445063Y-13172150D02*
X9464111Y-13143579D01*
X9464111Y-13143579D02*
X9473634Y-13124531D01*
X9473634Y-13124531D02*
X9483158Y-13095960D01*
X9483158Y-13095960D02*
X9492682Y-13048341D01*
X9492682Y-13048341D02*
X9492682Y-13010246D01*
X9492682Y-13010246D02*
X9483158Y-12962627D01*
X9483158Y-12962627D02*
X9473634Y-12934055D01*
X9473634Y-12934055D02*
X9464111Y-12915008D01*
X9464111Y-12915008D02*
X9445063Y-12886436D01*
X9445063Y-12886436D02*
X9435539Y-12876912D01*
D12*
X4407500Y-13215500D02*
X4407500Y-13340500D01*
X4345000Y-13278000D02*
X4470000Y-13278000D01*
D10*
X4835539Y-13369484D02*
X4721253Y-13369484D01*
X4778396Y-13369484D02*
X4778396Y-13169484D01*
X4778396Y-13169484D02*
X4759348Y-13198055D01*
X4759348Y-13198055D02*
X4740301Y-13217103D01*
X4740301Y-13217103D02*
X4721253Y-13226627D01*
X4921253Y-13350436D02*
X4930777Y-13359960D01*
X4930777Y-13359960D02*
X4921253Y-13369484D01*
X4921253Y-13369484D02*
X4911729Y-13359960D01*
X4911729Y-13359960D02*
X4921253Y-13350436D01*
X4921253Y-13350436D02*
X4921253Y-13369484D01*
X5006967Y-13188531D02*
X5016491Y-13179008D01*
X5016491Y-13179008D02*
X5035539Y-13169484D01*
X5035539Y-13169484D02*
X5083158Y-13169484D01*
X5083158Y-13169484D02*
X5102205Y-13179008D01*
X5102205Y-13179008D02*
X5111729Y-13188531D01*
X5111729Y-13188531D02*
X5121253Y-13207579D01*
X5121253Y-13207579D02*
X5121253Y-13226627D01*
X5121253Y-13226627D02*
X5111729Y-13255198D01*
X5111729Y-13255198D02*
X4997444Y-13369484D01*
X4997444Y-13369484D02*
X5121253Y-13369484D01*
X5302205Y-13169484D02*
X5206967Y-13169484D01*
X5206967Y-13169484D02*
X5197444Y-13264722D01*
X5197444Y-13264722D02*
X5206967Y-13255198D01*
X5206967Y-13255198D02*
X5226015Y-13245674D01*
X5226015Y-13245674D02*
X5273634Y-13245674D01*
X5273634Y-13245674D02*
X5292682Y-13255198D01*
X5292682Y-13255198D02*
X5302205Y-13264722D01*
X5302205Y-13264722D02*
X5311729Y-13283769D01*
X5311729Y-13283769D02*
X5311729Y-13331388D01*
X5311729Y-13331388D02*
X5302205Y-13350436D01*
X5302205Y-13350436D02*
X5292682Y-13359960D01*
X5292682Y-13359960D02*
X5273634Y-13369484D01*
X5273634Y-13369484D02*
X5226015Y-13369484D01*
X5226015Y-13369484D02*
X5206967Y-13359960D01*
X5206967Y-13359960D02*
X5197444Y-13350436D01*
X5435539Y-13169484D02*
X5454586Y-13169484D01*
X5454586Y-13169484D02*
X5473634Y-13179008D01*
X5473634Y-13179008D02*
X5483158Y-13188531D01*
X5483158Y-13188531D02*
X5492682Y-13207579D01*
X5492682Y-13207579D02*
X5502205Y-13245674D01*
X5502205Y-13245674D02*
X5502205Y-13293293D01*
X5502205Y-13293293D02*
X5492682Y-13331388D01*
X5492682Y-13331388D02*
X5483158Y-13350436D01*
X5483158Y-13350436D02*
X5473634Y-13359960D01*
X5473634Y-13359960D02*
X5454586Y-13369484D01*
X5454586Y-13369484D02*
X5435539Y-13369484D01*
X5435539Y-13369484D02*
X5416491Y-13359960D01*
X5416491Y-13359960D02*
X5406967Y-13350436D01*
X5406967Y-13350436D02*
X5397444Y-13331388D01*
X5397444Y-13331388D02*
X5387920Y-13293293D01*
X5387920Y-13293293D02*
X5387920Y-13245674D01*
X5387920Y-13245674D02*
X5397444Y-13207579D01*
X5397444Y-13207579D02*
X5406967Y-13188531D01*
X5406967Y-13188531D02*
X5416491Y-13179008D01*
X5416491Y-13179008D02*
X5435539Y-13169484D01*
X5587920Y-13369484D02*
X5587920Y-13236150D01*
X5587920Y-13255198D02*
X5597443Y-13245674D01*
X5597443Y-13245674D02*
X5616491Y-13236150D01*
X5616491Y-13236150D02*
X5645063Y-13236150D01*
X5645063Y-13236150D02*
X5664110Y-13245674D01*
X5664110Y-13245674D02*
X5673634Y-13264722D01*
X5673634Y-13264722D02*
X5673634Y-13369484D01*
X5673634Y-13264722D02*
X5683158Y-13245674D01*
X5683158Y-13245674D02*
X5702205Y-13236150D01*
X5702205Y-13236150D02*
X5730777Y-13236150D01*
X5730777Y-13236150D02*
X5749824Y-13245674D01*
X5749824Y-13245674D02*
X5759348Y-13264722D01*
X5759348Y-13264722D02*
X5759348Y-13369484D01*
X5854586Y-13369484D02*
X5854586Y-13236150D01*
X5854586Y-13255198D02*
X5864110Y-13245674D01*
X5864110Y-13245674D02*
X5883158Y-13236150D01*
X5883158Y-13236150D02*
X5911729Y-13236150D01*
X5911729Y-13236150D02*
X5930777Y-13245674D01*
X5930777Y-13245674D02*
X5940301Y-13264722D01*
X5940301Y-13264722D02*
X5940301Y-13369484D01*
X5940301Y-13264722D02*
X5949824Y-13245674D01*
X5949824Y-13245674D02*
X5968872Y-13236150D01*
X5968872Y-13236150D02*
X5997443Y-13236150D01*
X5997443Y-13236150D02*
X6016491Y-13245674D01*
X6016491Y-13245674D02*
X6026015Y-13264722D01*
X6026015Y-13264722D02*
X6026015Y-13369484D01*
X6416491Y-13159960D02*
X6245063Y-13417103D01*
X6673634Y-13169484D02*
X6692682Y-13169484D01*
X6692682Y-13169484D02*
X6711729Y-13179008D01*
X6711729Y-13179008D02*
X6721253Y-13188531D01*
X6721253Y-13188531D02*
X6730777Y-13207579D01*
X6730777Y-13207579D02*
X6740301Y-13245674D01*
X6740301Y-13245674D02*
X6740301Y-13293293D01*
X6740301Y-13293293D02*
X6730777Y-13331388D01*
X6730777Y-13331388D02*
X6721253Y-13350436D01*
X6721253Y-13350436D02*
X6711729Y-13359960D01*
X6711729Y-13359960D02*
X6692682Y-13369484D01*
X6692682Y-13369484D02*
X6673634Y-13369484D01*
X6673634Y-13369484D02*
X6654586Y-13359960D01*
X6654586Y-13359960D02*
X6645063Y-13350436D01*
X6645063Y-13350436D02*
X6635539Y-13331388D01*
X6635539Y-13331388D02*
X6626015Y-13293293D01*
X6626015Y-13293293D02*
X6626015Y-13245674D01*
X6626015Y-13245674D02*
X6635539Y-13207579D01*
X6635539Y-13207579D02*
X6645063Y-13188531D01*
X6645063Y-13188531D02*
X6654586Y-13179008D01*
X6654586Y-13179008D02*
X6673634Y-13169484D01*
X6826015Y-13350436D02*
X6835539Y-13359960D01*
X6835539Y-13359960D02*
X6826015Y-13369484D01*
X6826015Y-13369484D02*
X6816491Y-13359960D01*
X6816491Y-13359960D02*
X6826015Y-13350436D01*
X6826015Y-13350436D02*
X6826015Y-13369484D01*
X6959348Y-13169484D02*
X6978396Y-13169484D01*
X6978396Y-13169484D02*
X6997444Y-13179008D01*
X6997444Y-13179008D02*
X7006967Y-13188531D01*
X7006967Y-13188531D02*
X7016491Y-13207579D01*
X7016491Y-13207579D02*
X7026015Y-13245674D01*
X7026015Y-13245674D02*
X7026015Y-13293293D01*
X7026015Y-13293293D02*
X7016491Y-13331388D01*
X7016491Y-13331388D02*
X7006967Y-13350436D01*
X7006967Y-13350436D02*
X6997444Y-13359960D01*
X6997444Y-13359960D02*
X6978396Y-13369484D01*
X6978396Y-13369484D02*
X6959348Y-13369484D01*
X6959348Y-13369484D02*
X6940301Y-13359960D01*
X6940301Y-13359960D02*
X6930777Y-13350436D01*
X6930777Y-13350436D02*
X6921253Y-13331388D01*
X6921253Y-13331388D02*
X6911729Y-13293293D01*
X6911729Y-13293293D02*
X6911729Y-13245674D01*
X6911729Y-13245674D02*
X6921253Y-13207579D01*
X6921253Y-13207579D02*
X6930777Y-13188531D01*
X6930777Y-13188531D02*
X6940301Y-13179008D01*
X6940301Y-13179008D02*
X6959348Y-13169484D01*
X7197444Y-13236150D02*
X7197444Y-13369484D01*
X7149825Y-13159960D02*
X7102206Y-13302817D01*
X7102206Y-13302817D02*
X7226015Y-13302817D01*
X7311729Y-13369484D02*
X7349825Y-13369484D01*
X7349825Y-13369484D02*
X7368872Y-13359960D01*
X7368872Y-13359960D02*
X7378396Y-13350436D01*
X7378396Y-13350436D02*
X7397444Y-13321865D01*
X7397444Y-13321865D02*
X7406967Y-13283769D01*
X7406967Y-13283769D02*
X7406967Y-13207579D01*
X7406967Y-13207579D02*
X7397444Y-13188531D01*
X7397444Y-13188531D02*
X7387920Y-13179008D01*
X7387920Y-13179008D02*
X7368872Y-13169484D01*
X7368872Y-13169484D02*
X7330777Y-13169484D01*
X7330777Y-13169484D02*
X7311729Y-13179008D01*
X7311729Y-13179008D02*
X7302206Y-13188531D01*
X7302206Y-13188531D02*
X7292682Y-13207579D01*
X7292682Y-13207579D02*
X7292682Y-13255198D01*
X7292682Y-13255198D02*
X7302206Y-13274246D01*
X7302206Y-13274246D02*
X7311729Y-13283769D01*
X7311729Y-13283769D02*
X7330777Y-13293293D01*
X7330777Y-13293293D02*
X7368872Y-13293293D01*
X7368872Y-13293293D02*
X7387920Y-13283769D01*
X7387920Y-13283769D02*
X7397444Y-13274246D01*
X7397444Y-13274246D02*
X7406967Y-13255198D01*
X7483158Y-13188531D02*
X7492682Y-13179008D01*
X7492682Y-13179008D02*
X7511729Y-13169484D01*
X7511729Y-13169484D02*
X7559348Y-13169484D01*
X7559348Y-13169484D02*
X7578396Y-13179008D01*
X7578396Y-13179008D02*
X7587920Y-13188531D01*
X7587920Y-13188531D02*
X7597444Y-13207579D01*
X7597444Y-13207579D02*
X7597444Y-13226627D01*
X7597444Y-13226627D02*
X7587920Y-13255198D01*
X7587920Y-13255198D02*
X7473634Y-13369484D01*
X7473634Y-13369484D02*
X7597444Y-13369484D01*
X7673634Y-13169484D02*
X7673634Y-13207579D01*
X7749825Y-13169484D02*
X7749825Y-13207579D01*
X8045063Y-13445674D02*
X8035539Y-13436150D01*
X8035539Y-13436150D02*
X8016491Y-13407579D01*
X8016491Y-13407579D02*
X8006968Y-13388531D01*
X8006968Y-13388531D02*
X7997444Y-13359960D01*
X7997444Y-13359960D02*
X7987920Y-13312341D01*
X7987920Y-13312341D02*
X7987920Y-13274246D01*
X7987920Y-13274246D02*
X7997444Y-13226627D01*
X7997444Y-13226627D02*
X8006968Y-13198055D01*
X8006968Y-13198055D02*
X8016491Y-13179008D01*
X8016491Y-13179008D02*
X8035539Y-13150436D01*
X8035539Y-13150436D02*
X8045063Y-13140912D01*
X8111729Y-13188531D02*
X8121253Y-13179008D01*
X8121253Y-13179008D02*
X8140301Y-13169484D01*
X8140301Y-13169484D02*
X8187920Y-13169484D01*
X8187920Y-13169484D02*
X8206968Y-13179008D01*
X8206968Y-13179008D02*
X8216491Y-13188531D01*
X8216491Y-13188531D02*
X8226015Y-13207579D01*
X8226015Y-13207579D02*
X8226015Y-13226627D01*
X8226015Y-13226627D02*
X8216491Y-13255198D01*
X8216491Y-13255198D02*
X8102206Y-13369484D01*
X8102206Y-13369484D02*
X8226015Y-13369484D01*
X8321253Y-13369484D02*
X8359348Y-13369484D01*
X8359348Y-13369484D02*
X8378396Y-13359960D01*
X8378396Y-13359960D02*
X8387920Y-13350436D01*
X8387920Y-13350436D02*
X8406968Y-13321865D01*
X8406968Y-13321865D02*
X8416491Y-13283769D01*
X8416491Y-13283769D02*
X8416491Y-13207579D01*
X8416491Y-13207579D02*
X8406968Y-13188531D01*
X8406968Y-13188531D02*
X8397444Y-13179008D01*
X8397444Y-13179008D02*
X8378396Y-13169484D01*
X8378396Y-13169484D02*
X8340301Y-13169484D01*
X8340301Y-13169484D02*
X8321253Y-13179008D01*
X8321253Y-13179008D02*
X8311729Y-13188531D01*
X8311729Y-13188531D02*
X8302206Y-13207579D01*
X8302206Y-13207579D02*
X8302206Y-13255198D01*
X8302206Y-13255198D02*
X8311729Y-13274246D01*
X8311729Y-13274246D02*
X8321253Y-13283769D01*
X8321253Y-13283769D02*
X8340301Y-13293293D01*
X8340301Y-13293293D02*
X8378396Y-13293293D01*
X8378396Y-13293293D02*
X8397444Y-13283769D01*
X8397444Y-13283769D02*
X8406968Y-13274246D01*
X8406968Y-13274246D02*
X8416491Y-13255198D01*
X8587920Y-13236150D02*
X8587920Y-13369484D01*
X8540301Y-13159960D02*
X8492682Y-13302817D01*
X8492682Y-13302817D02*
X8616491Y-13302817D01*
X8845063Y-13369484D02*
X8845063Y-13169484D01*
X8930777Y-13369484D02*
X8930777Y-13264722D01*
X8930777Y-13264722D02*
X8921253Y-13245674D01*
X8921253Y-13245674D02*
X8902206Y-13236150D01*
X8902206Y-13236150D02*
X8873634Y-13236150D01*
X8873634Y-13236150D02*
X8854587Y-13245674D01*
X8854587Y-13245674D02*
X8845063Y-13255198D01*
X9054587Y-13369484D02*
X9035539Y-13359960D01*
X9035539Y-13359960D02*
X9026015Y-13350436D01*
X9026015Y-13350436D02*
X9016492Y-13331388D01*
X9016492Y-13331388D02*
X9016492Y-13274246D01*
X9016492Y-13274246D02*
X9026015Y-13255198D01*
X9026015Y-13255198D02*
X9035539Y-13245674D01*
X9035539Y-13245674D02*
X9054587Y-13236150D01*
X9054587Y-13236150D02*
X9083158Y-13236150D01*
X9083158Y-13236150D02*
X9102206Y-13245674D01*
X9102206Y-13245674D02*
X9111730Y-13255198D01*
X9111730Y-13255198D02*
X9121253Y-13274246D01*
X9121253Y-13274246D02*
X9121253Y-13331388D01*
X9121253Y-13331388D02*
X9111730Y-13350436D01*
X9111730Y-13350436D02*
X9102206Y-13359960D01*
X9102206Y-13359960D02*
X9083158Y-13369484D01*
X9083158Y-13369484D02*
X9054587Y-13369484D01*
X9235539Y-13369484D02*
X9216492Y-13359960D01*
X9216492Y-13359960D02*
X9206968Y-13340912D01*
X9206968Y-13340912D02*
X9206968Y-13169484D01*
X9387920Y-13359960D02*
X9368873Y-13369484D01*
X9368873Y-13369484D02*
X9330777Y-13369484D01*
X9330777Y-13369484D02*
X9311730Y-13359960D01*
X9311730Y-13359960D02*
X9302206Y-13340912D01*
X9302206Y-13340912D02*
X9302206Y-13264722D01*
X9302206Y-13264722D02*
X9311730Y-13245674D01*
X9311730Y-13245674D02*
X9330777Y-13236150D01*
X9330777Y-13236150D02*
X9368873Y-13236150D01*
X9368873Y-13236150D02*
X9387920Y-13245674D01*
X9387920Y-13245674D02*
X9397444Y-13264722D01*
X9397444Y-13264722D02*
X9397444Y-13283769D01*
X9397444Y-13283769D02*
X9302206Y-13302817D01*
X9473634Y-13359960D02*
X9492682Y-13369484D01*
X9492682Y-13369484D02*
X9530777Y-13369484D01*
X9530777Y-13369484D02*
X9549825Y-13359960D01*
X9549825Y-13359960D02*
X9559349Y-13340912D01*
X9559349Y-13340912D02*
X9559349Y-13331388D01*
X9559349Y-13331388D02*
X9549825Y-13312341D01*
X9549825Y-13312341D02*
X9530777Y-13302817D01*
X9530777Y-13302817D02*
X9502206Y-13302817D01*
X9502206Y-13302817D02*
X9483158Y-13293293D01*
X9483158Y-13293293D02*
X9473634Y-13274246D01*
X9473634Y-13274246D02*
X9473634Y-13264722D01*
X9473634Y-13264722D02*
X9483158Y-13245674D01*
X9483158Y-13245674D02*
X9502206Y-13236150D01*
X9502206Y-13236150D02*
X9530777Y-13236150D01*
X9530777Y-13236150D02*
X9549825Y-13245674D01*
X9626015Y-13445674D02*
X9635539Y-13436150D01*
X9635539Y-13436150D02*
X9654587Y-13407579D01*
X9654587Y-13407579D02*
X9664111Y-13388531D01*
X9664111Y-13388531D02*
X9673634Y-13359960D01*
X9673634Y-13359960D02*
X9683158Y-13312341D01*
X9683158Y-13312341D02*
X9683158Y-13274246D01*
X9683158Y-13274246D02*
X9673634Y-13226627D01*
X9673634Y-13226627D02*
X9664111Y-13198055D01*
X9664111Y-13198055D02*
X9654587Y-13179008D01*
X9654587Y-13179008D02*
X9635539Y-13150436D01*
X9635539Y-13150436D02*
X9626015Y-13140912D01*
M02*
