G04 #@! TF.GenerationSoftware,KiCad,Pcbnew,8.0.5-8.0.5-0~ubuntu24.04.1*
G04 #@! TF.CreationDate,2024-10-16T20:18:24-04:00*
G04 #@! TF.ProjectId,array,61727261-792e-46b6-9963-61645f706362,rev?*
G04 #@! TF.SameCoordinates,Original*
G04 #@! TF.FileFunction,Paste,Top*
G04 #@! TF.FilePolarity,Positive*
%FSLAX46Y46*%
G04 Gerber Fmt 4.6, Leading zero omitted, Abs format (unit mm)*
G04 Created by KiCad (PCBNEW 8.0.5-8.0.5-0~ubuntu24.04.1) date 2024-10-16 20:18:24*
%MOMM*%
%LPD*%
G01*
G04 APERTURE LIST*
%ADD10R,0.889000X0.812800*%
G04 APERTURE END LIST*
D10*
X162557499Y-88864999D03*
X162557499Y-86815001D03*
X160667500Y-87840000D03*
X101642499Y-88874999D03*
X101642499Y-86825001D03*
X99752500Y-87850000D03*
X101642499Y-99024999D03*
X101642499Y-96975001D03*
X99752500Y-98000000D03*
X101642499Y-68524999D03*
X101642499Y-66475001D03*
X99752500Y-67500000D03*
X121919999Y-109164999D03*
X121919999Y-107115001D03*
X120030000Y-108140000D03*
X132104999Y-109164999D03*
X132104999Y-107115001D03*
X130215000Y-108140000D03*
X152404999Y-109164999D03*
X152404999Y-107115001D03*
X150515000Y-108140000D03*
X101639999Y-109174999D03*
X101639999Y-107125001D03*
X99750000Y-108150000D03*
X152407499Y-68514999D03*
X152407499Y-66465001D03*
X150517500Y-67490000D03*
X111742499Y-88874999D03*
X111742499Y-86825001D03*
X109852500Y-87850000D03*
X132107499Y-58364999D03*
X132107499Y-56315001D03*
X130217500Y-57340000D03*
X142209999Y-119314999D03*
X142209999Y-117265001D03*
X140320000Y-118290000D03*
X132107499Y-88864999D03*
X132107499Y-86815001D03*
X130217500Y-87840000D03*
X162559999Y-119314999D03*
X162559999Y-117265001D03*
X160670000Y-118290000D03*
X111744999Y-119324999D03*
X111744999Y-117275001D03*
X109855000Y-118300000D03*
X152407499Y-78714999D03*
X152407499Y-76665001D03*
X150517500Y-77690000D03*
X121924999Y-119314999D03*
X121924999Y-117265001D03*
X120035000Y-118290000D03*
X121922499Y-78714999D03*
X121922499Y-76665001D03*
X120032500Y-77690000D03*
X111742499Y-68524999D03*
X111742499Y-66475001D03*
X109852500Y-67500000D03*
X101642499Y-58374999D03*
X101642499Y-56325001D03*
X99752500Y-57350000D03*
X111739999Y-109174999D03*
X111739999Y-107125001D03*
X109850000Y-108150000D03*
X121922499Y-88864999D03*
X121922499Y-86815001D03*
X120032500Y-87840000D03*
X111742499Y-78724999D03*
X111742499Y-76675001D03*
X109852500Y-77700000D03*
X142207499Y-68514999D03*
X142207499Y-66465001D03*
X140317500Y-67490000D03*
X142207499Y-58364999D03*
X142207499Y-56315001D03*
X140317500Y-57340000D03*
X142204999Y-109164999D03*
X142204999Y-107115001D03*
X140315000Y-108140000D03*
X121922499Y-99014999D03*
X121922499Y-96965001D03*
X120032500Y-97990000D03*
X162557499Y-99014999D03*
X162557499Y-96965001D03*
X160667500Y-97990000D03*
X142207499Y-78714999D03*
X142207499Y-76665001D03*
X140317500Y-77690000D03*
X121922499Y-68514999D03*
X121922499Y-66465001D03*
X120032500Y-67490000D03*
X162557499Y-68514999D03*
X162557499Y-66465001D03*
X160667500Y-67490000D03*
X142207499Y-88864999D03*
X142207499Y-86815001D03*
X140317500Y-87840000D03*
X111742499Y-58374999D03*
X111742499Y-56325001D03*
X109852500Y-57350000D03*
X162557499Y-78714999D03*
X162557499Y-76665001D03*
X160667500Y-77690000D03*
X132107499Y-68514999D03*
X132107499Y-66465001D03*
X130217500Y-67490000D03*
X132107499Y-78714999D03*
X132107499Y-76665001D03*
X130217500Y-77690000D03*
X142207499Y-99014999D03*
X142207499Y-96965001D03*
X140317500Y-97990000D03*
X111742499Y-99024999D03*
X111742499Y-96975001D03*
X109852500Y-98000000D03*
X101644999Y-119324999D03*
X101644999Y-117275001D03*
X99755000Y-118300000D03*
X132107499Y-99014999D03*
X132107499Y-96965001D03*
X130217500Y-97990000D03*
X152407499Y-88864999D03*
X152407499Y-86815001D03*
X150517500Y-87840000D03*
X152407499Y-58364999D03*
X152407499Y-56315001D03*
X150517500Y-57340000D03*
X121922499Y-58364999D03*
X121922499Y-56315001D03*
X120032500Y-57340000D03*
X152407499Y-99014999D03*
X152407499Y-96965001D03*
X150517500Y-97990000D03*
X162554999Y-109164999D03*
X162554999Y-107115001D03*
X160665000Y-108140000D03*
X132109999Y-119314999D03*
X132109999Y-117265001D03*
X130220000Y-118290000D03*
X101642499Y-78724999D03*
X101642499Y-76675001D03*
X99752500Y-77700000D03*
X162557499Y-58364999D03*
X162557499Y-56315001D03*
X160667500Y-57340000D03*
X152409999Y-119314999D03*
X152409999Y-117265001D03*
X150520000Y-118290000D03*
M02*
