M48
; DRILL file {KiCad 8.0.6-8.0.6-0~ubuntu24.04.1} date 2024-11-10T23:40:12-0500
; FORMAT={-:-/ absolute / metric / decimal}
; #@! TF.CreationDate,2024-11-10T23:40:12-05:00
; #@! TF.GenerationSoftware,Kicad,Pcbnew,8.0.6-8.0.6-0~ubuntu24.04.1
; #@! TF.FileFunction,Plated,1,2,PTH
FMAT,2
METRIC
; #@! TA.AperFunction,Plated,PTH,ViaDrill
T1C0.400
; #@! TA.AperFunction,Plated,PTH,ComponentDrill
T2C0.800
; #@! TA.AperFunction,Plated,PTH,ComponentDrill
T3C1.250
%
G90
G05
T1
X116.83Y-88.93
X120.16Y-86.78
X120.3Y-96.65
X178.965Y-89.105
X180.72Y-88.62
X180.9Y-98.25
X181.91Y-106.45
X181.94Y-74.6
X182.46Y-97.2
X184.16Y-57.39
X185.49Y-56.46
X185.83Y-65.51
X187.08Y-65.8
T2
X123.122Y-59.71
X123.122Y-62.25
X123.122Y-64.79
X123.122Y-67.33
X123.122Y-69.87
X123.122Y-72.41
X123.122Y-74.95
X123.122Y-77.49
X123.122Y-80.03
X123.122Y-82.57
X123.122Y-85.11
X123.122Y-87.65
X123.122Y-90.19
X123.122Y-92.73
X123.122Y-95.27
X123.122Y-97.81
X123.122Y-100.35
X123.122Y-102.89
X123.122Y-105.43
X123.122Y-107.97
X184.022Y-59.71
X184.022Y-62.25
X184.022Y-64.79
X184.022Y-67.33
X184.022Y-69.87
X184.022Y-72.41
X184.022Y-74.95
X184.022Y-77.49
X184.022Y-80.03
X184.022Y-82.57
X184.022Y-85.11
X184.022Y-87.65
X184.022Y-90.19
X184.022Y-92.73
X184.022Y-95.27
X184.022Y-97.81
X184.022Y-100.35
X184.022Y-102.89
X184.022Y-105.43
X184.022Y-107.97
T3
X48.95Y-50.825
X48.95Y-60.985
X48.95Y-71.145
X48.95Y-81.305
X48.95Y-91.465
X48.95Y-101.625
X48.95Y-111.785
X55.95Y-54.025
X55.95Y-64.185
X55.95Y-74.345
X55.95Y-84.505
X55.95Y-94.665
X55.95Y-104.825
X55.95Y-114.985
X59.1Y-50.825
X59.1Y-60.985
X59.1Y-71.145
X59.1Y-81.305
X59.1Y-91.465
X59.1Y-101.625
X59.1Y-111.785
X66.1Y-54.025
X66.1Y-64.185
X66.1Y-74.345
X66.1Y-84.505
X66.1Y-94.665
X66.1Y-104.825
X66.1Y-114.985
X69.227Y-50.825
X69.227Y-60.985
X69.227Y-71.145
X69.227Y-81.305
X69.227Y-91.465
X69.227Y-101.625
X69.227Y-111.785
X76.227Y-54.025
X76.227Y-64.185
X76.227Y-74.345
X76.227Y-84.505
X76.227Y-94.665
X76.227Y-104.825
X76.227Y-114.985
X79.377Y-50.825
X79.377Y-60.985
X79.377Y-71.145
X79.377Y-81.305
X79.377Y-91.465
X79.377Y-101.625
X79.377Y-111.785
X86.377Y-54.025
X86.377Y-64.185
X86.377Y-74.345
X86.377Y-84.505
X86.377Y-94.665
X86.377Y-104.825
X86.377Y-114.985
X89.527Y-50.825
X89.527Y-60.985
X89.527Y-71.145
X89.527Y-81.305
X89.527Y-91.465
X89.527Y-101.625
X89.527Y-111.785
X96.527Y-54.025
X96.527Y-64.185
X96.527Y-74.345
X96.527Y-84.505
X96.527Y-94.665
X96.527Y-104.825
X96.527Y-114.985
X99.677Y-50.825
X99.677Y-60.985
X99.677Y-71.145
X99.677Y-81.305
X99.677Y-91.465
X99.677Y-101.625
X99.677Y-111.785
X106.677Y-54.025
X106.677Y-64.185
X106.677Y-74.345
X106.677Y-84.505
X106.677Y-94.665
X106.677Y-104.825
X106.677Y-114.985
X109.828Y-50.825
X109.828Y-60.985
X109.828Y-71.145
X109.828Y-81.305
X109.828Y-91.465
X109.828Y-101.625
X109.828Y-111.785
X116.828Y-54.025
X116.828Y-64.185
X116.828Y-74.345
X116.828Y-84.505
X116.828Y-94.665
X116.828Y-104.825
X116.828Y-114.985
X119.977Y-50.825
X119.977Y-60.985
X119.977Y-71.145
X119.977Y-81.305
X119.977Y-91.465
X119.977Y-101.625
X119.977Y-111.785
X126.977Y-54.025
X126.977Y-64.185
X126.977Y-74.345
X126.977Y-84.505
X126.977Y-94.665
X126.977Y-104.825
X126.977Y-114.985
X130.127Y-50.825
X130.127Y-60.985
X130.127Y-71.145
X130.127Y-81.305
X130.127Y-91.465
X130.127Y-101.625
X130.127Y-111.785
X137.127Y-54.025
X137.127Y-64.185
X137.127Y-74.345
X137.127Y-84.505
X137.127Y-94.665
X137.127Y-104.825
X137.127Y-114.985
X140.278Y-50.825
X140.278Y-60.985
X140.278Y-71.145
X140.278Y-81.305
X140.278Y-91.465
X140.278Y-101.625
X140.278Y-111.785
X147.278Y-54.025
X147.278Y-64.185
X147.278Y-74.345
X147.278Y-84.505
X147.278Y-94.665
X147.278Y-104.825
X147.278Y-114.985
X150.425Y-50.825
X150.425Y-60.985
X150.425Y-71.145
X150.425Y-81.305
X150.425Y-91.465
X150.425Y-101.625
X150.425Y-111.785
X157.425Y-54.025
X157.425Y-64.185
X157.425Y-74.345
X157.425Y-84.505
X157.425Y-94.665
X157.425Y-104.825
X157.425Y-114.985
X160.575Y-50.825
X160.575Y-60.985
X160.575Y-71.145
X160.575Y-81.305
X160.575Y-91.465
X160.575Y-101.625
X160.575Y-111.785
X167.575Y-54.025
X167.575Y-64.185
X167.575Y-74.345
X167.575Y-84.505
X167.575Y-94.665
X167.575Y-104.825
X167.575Y-114.985
X170.725Y-50.825
X170.725Y-60.985
X170.725Y-71.145
X170.725Y-81.305
X170.725Y-91.465
X170.725Y-101.625
X170.725Y-111.785
X177.725Y-54.025
X177.725Y-64.185
X177.725Y-74.345
X177.725Y-84.505
X177.725Y-94.665
X177.725Y-104.825
X177.725Y-114.985
X180.875Y-50.825
X180.875Y-60.985
X180.875Y-71.145
X180.875Y-81.305
X180.875Y-91.465
X180.875Y-101.625
X180.875Y-111.785
X187.875Y-54.025
X187.875Y-64.185
X187.875Y-74.345
X187.875Y-84.505
X187.875Y-94.665
X187.875Y-104.825
X187.875Y-114.985
X191.025Y-50.825
X191.025Y-60.985
X191.025Y-71.145
X191.025Y-81.305
X191.025Y-91.465
X191.025Y-101.625
X191.025Y-111.785
X198.025Y-54.025
X198.025Y-64.185
X198.025Y-74.345
X198.025Y-84.505
X198.025Y-94.665
X198.025Y-104.825
X198.025Y-114.985
X201.175Y-50.825
X201.175Y-60.985
X201.175Y-71.145
X201.175Y-81.305
X201.175Y-91.465
X201.175Y-101.625
X201.175Y-111.785
X208.175Y-54.025
X208.175Y-64.185
X208.175Y-74.345
X208.175Y-84.505
X208.175Y-94.665
X208.175Y-104.825
X208.175Y-114.985
X211.325Y-50.825
X211.325Y-60.985
X211.325Y-71.145
X211.325Y-81.305
X211.325Y-91.465
X211.325Y-101.625
X211.325Y-111.785
X218.325Y-54.025
X218.325Y-64.185
X218.325Y-74.345
X218.325Y-84.505
X218.325Y-94.665
X218.325Y-104.825
X218.325Y-114.985
X221.475Y-50.825
X221.475Y-60.985
X221.475Y-71.145
X221.475Y-81.305
X221.475Y-91.465
X221.475Y-101.625
X221.475Y-111.785
X228.475Y-54.025
X228.475Y-64.185
X228.475Y-74.345
X228.475Y-84.505
X228.475Y-94.665
X228.475Y-104.825
X228.475Y-114.985
X231.625Y-50.825
X231.625Y-60.985
X231.625Y-71.145
X231.625Y-81.305
X231.625Y-91.465
X231.625Y-101.625
X231.625Y-111.785
X238.625Y-54.025
X238.625Y-64.185
X238.625Y-74.345
X238.625Y-84.505
X238.625Y-94.665
X238.625Y-104.825
X238.625Y-114.985
X241.775Y-50.825
X241.775Y-60.985
X241.775Y-71.145
X241.775Y-81.305
X241.775Y-91.465
X241.775Y-101.625
X241.775Y-111.785
X248.775Y-54.025
X248.775Y-64.185
X248.775Y-74.345
X248.775Y-84.505
X248.775Y-94.665
X248.775Y-104.825
X248.775Y-114.985
X251.925Y-50.825
X251.925Y-60.985
X251.925Y-71.145
X251.925Y-81.305
X251.925Y-91.465
X251.925Y-101.625
X251.925Y-111.785
X258.925Y-54.025
X258.925Y-64.185
X258.925Y-74.345
X258.925Y-84.505
X258.925Y-94.665
X258.925Y-104.825
X258.925Y-114.985
M30
