G04 #@! TF.GenerationSoftware,KiCad,Pcbnew,8.0.6-8.0.6-0~ubuntu24.04.1*
G04 #@! TF.CreationDate,2024-11-10T23:39:51-05:00*
G04 #@! TF.ProjectId,array,61727261-792e-46b6-9963-61645f706362,rev?*
G04 #@! TF.SameCoordinates,Original*
G04 #@! TF.FileFunction,Soldermask,Top*
G04 #@! TF.FilePolarity,Negative*
%FSLAX46Y46*%
G04 Gerber Fmt 4.6, Leading zero omitted, Abs format (unit mm)*
G04 Created by KiCad (PCBNEW 8.0.6-8.0.6-0~ubuntu24.04.1) date 2024-11-10 23:39:51*
%MOMM*%
%LPD*%
G01*
G04 APERTURE LIST*
%ADD10R,0.889000X0.812800*%
%ADD11C,1.500000*%
%ADD12C,2.000000*%
G04 APERTURE END LIST*
D10*
X168082499Y-92499999D03*
X168082499Y-90450001D03*
X166192500Y-91475000D03*
D11*
X123122500Y-107970000D03*
X123122500Y-105430000D03*
X123122500Y-102890000D03*
X123122500Y-100350000D03*
X123122500Y-97810000D03*
X123122500Y-95270000D03*
X123122500Y-92730000D03*
X123122500Y-90190000D03*
X123122500Y-87650000D03*
X123122500Y-85110000D03*
X123122500Y-82570000D03*
X123122500Y-80030000D03*
X123122500Y-77490000D03*
X123122500Y-74950000D03*
X123122500Y-72410000D03*
X123122500Y-69870000D03*
X123122500Y-67330000D03*
X123122500Y-64790000D03*
X123122500Y-62250000D03*
X123122500Y-59710000D03*
D10*
X208682499Y-61999999D03*
X208682499Y-59950001D03*
X206792500Y-60975000D03*
X107184999Y-82349999D03*
X107184999Y-80300001D03*
X105295000Y-81325000D03*
X168084999Y-112799999D03*
X168084999Y-110750001D03*
X166195000Y-111775000D03*
X208682499Y-92499999D03*
X208682499Y-90450001D03*
X206792500Y-91475000D03*
X56442499Y-82359999D03*
X56442499Y-80310001D03*
X54552500Y-81335000D03*
X56442499Y-92509999D03*
X56442499Y-90460001D03*
X54552500Y-91485000D03*
D12*
X69227500Y-50825000D03*
X69227500Y-60985000D03*
X69227500Y-71145000D03*
X69227500Y-81305000D03*
X69227500Y-91465000D03*
X69227500Y-101625000D03*
X69227500Y-111785000D03*
X76227500Y-54025000D03*
X76227500Y-64185000D03*
X76227500Y-74345000D03*
X76227500Y-84505000D03*
X76227500Y-94665000D03*
X76227500Y-104825000D03*
X76227500Y-114985000D03*
D10*
X117334999Y-72199999D03*
X117334999Y-70150001D03*
X115445000Y-71175000D03*
X255757499Y-102659999D03*
X255757499Y-100610001D03*
X253867500Y-101635000D03*
X239132499Y-51849999D03*
X239132499Y-49800001D03*
X237242500Y-50825000D03*
X218834999Y-112799999D03*
X218834999Y-110750001D03*
X216945000Y-111775000D03*
X56442499Y-62009999D03*
X56442499Y-59960001D03*
X54552500Y-60985000D03*
X137634999Y-92499999D03*
X137634999Y-90450001D03*
X135745000Y-91475000D03*
X76737499Y-112799999D03*
X76737499Y-110750001D03*
X74847500Y-111775000D03*
X239134999Y-112799999D03*
X239134999Y-110750001D03*
X237245000Y-111775000D03*
X255759999Y-82359999D03*
X255759999Y-80310001D03*
X253870000Y-81335000D03*
X97032499Y-102649999D03*
X97032499Y-100600001D03*
X95142500Y-101625000D03*
X147784999Y-82349999D03*
X147784999Y-80300001D03*
X145895000Y-81325000D03*
X56439999Y-102659999D03*
X56439999Y-100610001D03*
X54550000Y-101635000D03*
X86884999Y-82349999D03*
X86884999Y-80300001D03*
X84995000Y-81325000D03*
X198529999Y-102649999D03*
X198529999Y-100600001D03*
X196640000Y-101625000D03*
X208682499Y-82349999D03*
X208682499Y-80300001D03*
X206792500Y-81325000D03*
D12*
X119977500Y-50825000D03*
X119977500Y-60985000D03*
X119977500Y-71145000D03*
X119977500Y-81305000D03*
X119977500Y-91465000D03*
X119977500Y-101625000D03*
X119977500Y-111785000D03*
X126977500Y-54025000D03*
X126977500Y-64185000D03*
X126977500Y-74345000D03*
X126977500Y-84505000D03*
X126977500Y-94665000D03*
X126977500Y-104825000D03*
X126977500Y-114985000D03*
D10*
X97034999Y-61999999D03*
X97034999Y-59950001D03*
X95145000Y-60975000D03*
D12*
X48950000Y-50825000D03*
X48950000Y-60985000D03*
X48950000Y-71145000D03*
X48950000Y-81305000D03*
X48950000Y-91465000D03*
X48950000Y-101625000D03*
X48950000Y-111785000D03*
X55950000Y-54025000D03*
X55950000Y-64185000D03*
X55950000Y-74345000D03*
X55950000Y-84505000D03*
X55950000Y-94665000D03*
X55950000Y-104825000D03*
X55950000Y-114985000D03*
D10*
X76732499Y-102649999D03*
X76732499Y-100600001D03*
X74842500Y-101625000D03*
X208679999Y-102649999D03*
X208679999Y-100600001D03*
X206790000Y-101625000D03*
D12*
X251925000Y-50825000D03*
X251925000Y-60985000D03*
X251925000Y-71145000D03*
X251925000Y-81305000D03*
X251925000Y-91465000D03*
X251925000Y-101625000D03*
X251925000Y-111785000D03*
X258925000Y-54025000D03*
X258925000Y-64185000D03*
X258925000Y-74345000D03*
X258925000Y-84505000D03*
X258925000Y-94665000D03*
X258925000Y-104825000D03*
X258925000Y-114985000D03*
D10*
X137634999Y-61999999D03*
X137634999Y-59950001D03*
X135745000Y-60975000D03*
X239129999Y-102649999D03*
X239129999Y-100600001D03*
X237240000Y-101625000D03*
X66542499Y-82359999D03*
X66542499Y-80310001D03*
X64652500Y-81335000D03*
X255762499Y-112809999D03*
X255762499Y-110760001D03*
X253872500Y-111785000D03*
X228979999Y-102649999D03*
X228979999Y-100600001D03*
X227090000Y-101625000D03*
D12*
X140277500Y-50825000D03*
X140277500Y-60985000D03*
X140277500Y-71145000D03*
X140277500Y-81305000D03*
X140277500Y-91465000D03*
X140277500Y-101625000D03*
X140277500Y-111785000D03*
X147277500Y-54025000D03*
X147277500Y-64185000D03*
X147277500Y-74345000D03*
X147277500Y-84505000D03*
X147277500Y-94665000D03*
X147277500Y-104825000D03*
X147277500Y-114985000D03*
D10*
X249284999Y-112799999D03*
X249284999Y-110750001D03*
X247395000Y-111775000D03*
X168082499Y-61999999D03*
X168082499Y-59950001D03*
X166192500Y-60975000D03*
X249282499Y-82349999D03*
X249282499Y-80300001D03*
X247392500Y-81325000D03*
D12*
X160575000Y-50825000D03*
X160575000Y-60985000D03*
X160575000Y-71145000D03*
X160575000Y-81305000D03*
X160575000Y-91465000D03*
X160575000Y-101625000D03*
X160575000Y-111785000D03*
X167575000Y-54025000D03*
X167575000Y-64185000D03*
X167575000Y-74345000D03*
X167575000Y-84505000D03*
X167575000Y-94665000D03*
X167575000Y-104825000D03*
X167575000Y-114985000D03*
X130127500Y-50825000D03*
X130127500Y-60985000D03*
X130127500Y-71145000D03*
X130127500Y-81305000D03*
X130127500Y-91465000D03*
X130127500Y-101625000D03*
X130127500Y-111785000D03*
X137127500Y-54025000D03*
X137127500Y-64185000D03*
X137127500Y-74345000D03*
X137127500Y-84505000D03*
X137127500Y-94665000D03*
X137127500Y-104825000D03*
X137127500Y-114985000D03*
X79377500Y-50825000D03*
X79377500Y-60985000D03*
X79377500Y-71145000D03*
X79377500Y-81305000D03*
X79377500Y-91465000D03*
X79377500Y-101625000D03*
X79377500Y-111785000D03*
X86377500Y-54025000D03*
X86377500Y-64185000D03*
X86377500Y-74345000D03*
X86377500Y-84505000D03*
X86377500Y-94665000D03*
X86377500Y-104825000D03*
X86377500Y-114985000D03*
D10*
X117334999Y-92499999D03*
X117334999Y-90450001D03*
X115445000Y-91475000D03*
X178232499Y-82349999D03*
X178232499Y-80300001D03*
X176342500Y-81325000D03*
X127484999Y-51849999D03*
X127484999Y-49800001D03*
X125595000Y-50825000D03*
D12*
X211325000Y-50825000D03*
X211325000Y-60985000D03*
X211325000Y-71145000D03*
X211325000Y-81305000D03*
X211325000Y-91465000D03*
X211325000Y-101625000D03*
X211325000Y-111785000D03*
X218325000Y-54025000D03*
X218325000Y-64185000D03*
X218325000Y-74345000D03*
X218325000Y-84505000D03*
X218325000Y-94665000D03*
X218325000Y-104825000D03*
X218325000Y-114985000D03*
X180875000Y-50825000D03*
X180875000Y-60985000D03*
X180875000Y-71145000D03*
X180875000Y-81305000D03*
X180875000Y-91465000D03*
X180875000Y-101625000D03*
X180875000Y-111785000D03*
X187875000Y-54025000D03*
X187875000Y-64185000D03*
X187875000Y-74345000D03*
X187875000Y-84505000D03*
X187875000Y-94665000D03*
X187875000Y-104825000D03*
X187875000Y-114985000D03*
D10*
X198532499Y-82349999D03*
X198532499Y-80300001D03*
X196642500Y-81325000D03*
X117332499Y-102649999D03*
X117332499Y-100600001D03*
X115442500Y-101625000D03*
X86884999Y-72199999D03*
X86884999Y-70150001D03*
X84995000Y-71175000D03*
D12*
X241775000Y-50825000D03*
X241775000Y-60985000D03*
X241775000Y-71145000D03*
X241775000Y-81305000D03*
X241775000Y-91465000D03*
X241775000Y-101625000D03*
X241775000Y-111785000D03*
X248775000Y-54025000D03*
X248775000Y-64185000D03*
X248775000Y-74345000D03*
X248775000Y-84505000D03*
X248775000Y-94665000D03*
X248775000Y-104825000D03*
X248775000Y-114985000D03*
D10*
X249282499Y-92499999D03*
X249282499Y-90450001D03*
X247392500Y-91475000D03*
X249282499Y-61999999D03*
X249282499Y-59950001D03*
X247392500Y-60975000D03*
D12*
X109827500Y-50825000D03*
X109827500Y-60985000D03*
X109827500Y-71145000D03*
X109827500Y-81305000D03*
X109827500Y-91465000D03*
X109827500Y-101625000D03*
X109827500Y-111785000D03*
X116827500Y-54025000D03*
X116827500Y-64185000D03*
X116827500Y-74345000D03*
X116827500Y-84505000D03*
X116827500Y-94665000D03*
X116827500Y-104825000D03*
X116827500Y-114985000D03*
D10*
X228982499Y-61999999D03*
X228982499Y-59950001D03*
X227092500Y-60975000D03*
X86887499Y-112799999D03*
X86887499Y-110750001D03*
X84997500Y-111775000D03*
D12*
X59100000Y-50825000D03*
X59100000Y-60985000D03*
X59100000Y-71145000D03*
X59100000Y-81305000D03*
X59100000Y-91465000D03*
X59100000Y-101625000D03*
X59100000Y-111785000D03*
X66100000Y-54025000D03*
X66100000Y-64185000D03*
X66100000Y-74345000D03*
X66100000Y-84505000D03*
X66100000Y-94665000D03*
X66100000Y-104825000D03*
X66100000Y-114985000D03*
D10*
X188382499Y-82349999D03*
X188382499Y-80300001D03*
X186492500Y-81325000D03*
X249282499Y-72199999D03*
X249282499Y-70150001D03*
X247392500Y-71175000D03*
X147784999Y-72199999D03*
X147784999Y-70150001D03*
X145895000Y-71175000D03*
X107187499Y-112799999D03*
X107187499Y-110750001D03*
X105297500Y-111775000D03*
X66544999Y-112809999D03*
X66544999Y-110760001D03*
X64655000Y-111785000D03*
X76734999Y-72199999D03*
X76734999Y-70150001D03*
X74845000Y-71175000D03*
X157929999Y-102649999D03*
X157929999Y-100600001D03*
X156040000Y-101625000D03*
X157932499Y-51849999D03*
X157932499Y-49800001D03*
X156042500Y-50825000D03*
X198532499Y-61999999D03*
X198532499Y-59950001D03*
X196642500Y-60975000D03*
X147784999Y-61999999D03*
X147784999Y-59950001D03*
X145895000Y-60975000D03*
X97034999Y-72199999D03*
X97034999Y-70150001D03*
X95145000Y-71175000D03*
X218832499Y-61999999D03*
X218832499Y-59950001D03*
X216942500Y-60975000D03*
X127484999Y-61999999D03*
X127484999Y-59950001D03*
X125595000Y-60975000D03*
X178232499Y-51849999D03*
X178232499Y-49800001D03*
X176342500Y-50825000D03*
D12*
X99677500Y-50825000D03*
X99677500Y-60985000D03*
X99677500Y-71145000D03*
X99677500Y-81305000D03*
X99677500Y-91465000D03*
X99677500Y-101625000D03*
X99677500Y-111785000D03*
X106677500Y-54025000D03*
X106677500Y-64185000D03*
X106677500Y-74345000D03*
X106677500Y-84505000D03*
X106677500Y-94665000D03*
X106677500Y-104825000D03*
X106677500Y-114985000D03*
D10*
X218832499Y-82349999D03*
X218832499Y-80300001D03*
X216942500Y-81325000D03*
X127484999Y-92499999D03*
X127484999Y-90450001D03*
X125595000Y-91475000D03*
X239132499Y-82349999D03*
X239132499Y-80300001D03*
X237242500Y-81325000D03*
X228982499Y-82349999D03*
X228982499Y-80300001D03*
X227092500Y-81325000D03*
X66542499Y-62009999D03*
X66542499Y-59960001D03*
X64652500Y-60985000D03*
X56442499Y-51859999D03*
X56442499Y-49810001D03*
X54552500Y-50835000D03*
D12*
X231625000Y-50825000D03*
X231625000Y-60985000D03*
X231625000Y-71145000D03*
X231625000Y-81305000D03*
X231625000Y-91465000D03*
X231625000Y-101625000D03*
X231625000Y-111785000D03*
X238625000Y-54025000D03*
X238625000Y-64185000D03*
X238625000Y-74345000D03*
X238625000Y-84505000D03*
X238625000Y-94665000D03*
X238625000Y-104825000D03*
X238625000Y-114985000D03*
D10*
X66539999Y-102659999D03*
X66539999Y-100610001D03*
X64650000Y-101635000D03*
D12*
X89527500Y-50825000D03*
X89527500Y-60985000D03*
X89527500Y-71145000D03*
X89527500Y-81305000D03*
X89527500Y-91465000D03*
X89527500Y-101625000D03*
X89527500Y-111785000D03*
X96527500Y-54025000D03*
X96527500Y-64185000D03*
X96527500Y-74345000D03*
X96527500Y-84505000D03*
X96527500Y-94665000D03*
X96527500Y-104825000D03*
X96527500Y-114985000D03*
D10*
X188384999Y-112799999D03*
X188384999Y-110750001D03*
X186495000Y-111775000D03*
X117334999Y-61999999D03*
X117334999Y-59950001D03*
X115445000Y-60975000D03*
X66542499Y-72209999D03*
X66542499Y-70160001D03*
X64652500Y-71185000D03*
D12*
X170725000Y-50825000D03*
X170725000Y-60985000D03*
X170725000Y-71145000D03*
X170725000Y-81305000D03*
X170725000Y-91465000D03*
X170725000Y-101625000D03*
X170725000Y-111785000D03*
X177725000Y-54025000D03*
X177725000Y-64185000D03*
X177725000Y-74345000D03*
X177725000Y-84505000D03*
X177725000Y-94665000D03*
X177725000Y-104825000D03*
X177725000Y-114985000D03*
D10*
X208684999Y-112799999D03*
X208684999Y-110750001D03*
X206795000Y-111775000D03*
X188382499Y-51849999D03*
X188382499Y-49800001D03*
X186492500Y-50825000D03*
X86884999Y-51849999D03*
X86884999Y-49800001D03*
X84995000Y-50825000D03*
X76734999Y-92499999D03*
X76734999Y-90450001D03*
X74845000Y-91475000D03*
X86882499Y-102649999D03*
X86882499Y-100600001D03*
X84992500Y-101625000D03*
X76734999Y-51849999D03*
X76734999Y-49800001D03*
X74845000Y-50825000D03*
X157934999Y-112799999D03*
X157934999Y-110750001D03*
X156045000Y-111775000D03*
X168079999Y-102649999D03*
X168079999Y-100600001D03*
X166190000Y-101625000D03*
X157932499Y-82349999D03*
X157932499Y-80300001D03*
X156042500Y-81325000D03*
D12*
X191025000Y-50825000D03*
X191025000Y-60985000D03*
X191025000Y-71145000D03*
X191025000Y-81305000D03*
X191025000Y-91465000D03*
X191025000Y-101625000D03*
X191025000Y-111785000D03*
X198025000Y-54025000D03*
X198025000Y-64185000D03*
X198025000Y-74345000D03*
X198025000Y-84505000D03*
X198025000Y-94665000D03*
X198025000Y-104825000D03*
X198025000Y-114985000D03*
D10*
X127482499Y-102649999D03*
X127482499Y-100600001D03*
X125592500Y-101625000D03*
X198532499Y-72199999D03*
X198532499Y-70150001D03*
X196642500Y-71175000D03*
X157932499Y-72199999D03*
X157932499Y-70150001D03*
X156042500Y-71175000D03*
X137632499Y-102649999D03*
X137632499Y-100600001D03*
X135742500Y-101625000D03*
X107184999Y-92499999D03*
X107184999Y-90450001D03*
X105295000Y-91475000D03*
X86884999Y-61999999D03*
X86884999Y-59950001D03*
X84995000Y-60975000D03*
X198532499Y-92499999D03*
X198532499Y-90450001D03*
X196642500Y-91475000D03*
X127484999Y-72199999D03*
X127484999Y-70150001D03*
X125595000Y-71175000D03*
X255759999Y-72209999D03*
X255759999Y-70160001D03*
X253870000Y-71185000D03*
X208682499Y-51849999D03*
X208682499Y-49800001D03*
X206792500Y-50825000D03*
X249282499Y-51849999D03*
X249282499Y-49800001D03*
X247392500Y-50825000D03*
X127484999Y-82349999D03*
X127484999Y-80300001D03*
X125595000Y-81325000D03*
X178234999Y-112799999D03*
X178234999Y-110750001D03*
X176345000Y-111775000D03*
X107184999Y-61999999D03*
X107184999Y-59950001D03*
X105295000Y-60975000D03*
X228982499Y-51849999D03*
X228982499Y-49800001D03*
X227092500Y-50825000D03*
D12*
X150425000Y-50825000D03*
X150425000Y-60985000D03*
X150425000Y-71145000D03*
X150425000Y-81305000D03*
X150425000Y-91465000D03*
X150425000Y-101625000D03*
X150425000Y-111785000D03*
X157425000Y-54025000D03*
X157425000Y-64185000D03*
X157425000Y-74345000D03*
X157425000Y-84505000D03*
X157425000Y-94665000D03*
X157425000Y-104825000D03*
X157425000Y-114985000D03*
D11*
X184022500Y-59710000D03*
X184022500Y-62250000D03*
X184022500Y-64790000D03*
X184022500Y-67330000D03*
X184022500Y-69870000D03*
X184022500Y-72410000D03*
X184022500Y-74950000D03*
X184022500Y-77490000D03*
X184022500Y-80030000D03*
X184022500Y-82570000D03*
X184022500Y-85110000D03*
X184022500Y-87650000D03*
X184022500Y-90190000D03*
X184022500Y-92730000D03*
X184022500Y-95270000D03*
X184022500Y-97810000D03*
X184022500Y-100350000D03*
X184022500Y-102890000D03*
X184022500Y-105430000D03*
X184022500Y-107970000D03*
D10*
X137634999Y-72199999D03*
X137634999Y-70150001D03*
X135745000Y-71175000D03*
X218832499Y-51849999D03*
X218832499Y-49800001D03*
X216942500Y-50825000D03*
X178232499Y-72199999D03*
X178232499Y-70150001D03*
X176342500Y-71175000D03*
X255759999Y-62009999D03*
X255759999Y-59960001D03*
X253870000Y-60985000D03*
X255759999Y-92509999D03*
X255759999Y-90460001D03*
X253870000Y-91485000D03*
X228982499Y-92499999D03*
X228982499Y-90450001D03*
X227092500Y-91475000D03*
X255759999Y-51859999D03*
X255759999Y-49810001D03*
X253870000Y-50835000D03*
X218832499Y-92499999D03*
X218832499Y-90450001D03*
X216942500Y-91475000D03*
X147782499Y-102649999D03*
X147782499Y-100600001D03*
X145892500Y-101625000D03*
X137634999Y-82349999D03*
X137634999Y-80300001D03*
X135745000Y-81325000D03*
X218829999Y-102649999D03*
X218829999Y-100600001D03*
X216940000Y-101625000D03*
X66542499Y-51859999D03*
X66542499Y-49810001D03*
X64652500Y-50835000D03*
X127487499Y-112799999D03*
X127487499Y-110750001D03*
X125597500Y-111775000D03*
X117334999Y-51849999D03*
X117334999Y-49800001D03*
X115445000Y-50825000D03*
X107184999Y-72199999D03*
X107184999Y-70150001D03*
X105295000Y-71175000D03*
X137634999Y-51849999D03*
X137634999Y-49800001D03*
X135745000Y-50825000D03*
X249279999Y-102649999D03*
X249279999Y-100600001D03*
X247390000Y-101625000D03*
X117337499Y-112799999D03*
X117337499Y-110750001D03*
X115447500Y-111775000D03*
X218832499Y-72199999D03*
X218832499Y-70150001D03*
X216942500Y-71175000D03*
X157932499Y-61999999D03*
X157932499Y-59950001D03*
X156042500Y-60975000D03*
X188382499Y-61999999D03*
X188382499Y-59950001D03*
X186492500Y-60975000D03*
X198534999Y-112799999D03*
X198534999Y-110750001D03*
X196645000Y-111775000D03*
X239132499Y-72199999D03*
X239132499Y-70150001D03*
X237242500Y-71175000D03*
X66542499Y-92509999D03*
X66542499Y-90460001D03*
X64652500Y-91485000D03*
X86884999Y-92499999D03*
X86884999Y-90450001D03*
X84995000Y-91475000D03*
X228982499Y-72199999D03*
X228982499Y-70150001D03*
X227092500Y-71175000D03*
D12*
X201175000Y-50825000D03*
X201175000Y-60985000D03*
X201175000Y-71145000D03*
X201175000Y-81305000D03*
X201175000Y-91465000D03*
X201175000Y-101625000D03*
X201175000Y-111785000D03*
X208175000Y-54025000D03*
X208175000Y-64185000D03*
X208175000Y-74345000D03*
X208175000Y-84505000D03*
X208175000Y-94665000D03*
X208175000Y-104825000D03*
X208175000Y-114985000D03*
D10*
X178229999Y-102649999D03*
X178229999Y-100600001D03*
X176340000Y-101625000D03*
X56444999Y-112809999D03*
X56444999Y-110760001D03*
X54555000Y-111785000D03*
X117334999Y-82349999D03*
X117334999Y-80300001D03*
X115445000Y-81325000D03*
D12*
X221475000Y-50825000D03*
X221475000Y-60985000D03*
X221475000Y-71145000D03*
X221475000Y-81305000D03*
X221475000Y-91465000D03*
X221475000Y-101625000D03*
X221475000Y-111785000D03*
X228475000Y-54025000D03*
X228475000Y-64185000D03*
X228475000Y-74345000D03*
X228475000Y-84505000D03*
X228475000Y-94665000D03*
X228475000Y-104825000D03*
X228475000Y-114985000D03*
D10*
X188382499Y-72199999D03*
X188382499Y-70150001D03*
X186492500Y-71175000D03*
X228984999Y-112799999D03*
X228984999Y-110750001D03*
X227095000Y-111775000D03*
X97034999Y-82349999D03*
X97034999Y-80300001D03*
X95145000Y-81325000D03*
X188379999Y-102649999D03*
X188379999Y-100600001D03*
X186490000Y-101625000D03*
X188382499Y-92499999D03*
X188382499Y-90450001D03*
X186492500Y-91475000D03*
X208682499Y-72199999D03*
X208682499Y-70150001D03*
X206792500Y-71175000D03*
X97034999Y-51849999D03*
X97034999Y-49800001D03*
X95145000Y-50825000D03*
X168082499Y-72199999D03*
X168082499Y-70150001D03*
X166192500Y-71175000D03*
X97034999Y-92499999D03*
X97034999Y-90450001D03*
X95145000Y-91475000D03*
X147787499Y-112799999D03*
X147787499Y-110750001D03*
X145897500Y-111775000D03*
X107182499Y-102649999D03*
X107182499Y-100600001D03*
X105292500Y-101625000D03*
X56442499Y-72209999D03*
X56442499Y-70160001D03*
X54552500Y-71185000D03*
X168082499Y-51849999D03*
X168082499Y-49800001D03*
X166192500Y-50825000D03*
X168082499Y-82349999D03*
X168082499Y-80300001D03*
X166192500Y-81325000D03*
X137637499Y-112799999D03*
X137637499Y-110750001D03*
X135747500Y-111775000D03*
X107184999Y-51849999D03*
X107184999Y-49800001D03*
X105295000Y-50825000D03*
X178232499Y-61999999D03*
X178232499Y-59950001D03*
X176342500Y-60975000D03*
X76734999Y-61999999D03*
X76734999Y-59950001D03*
X74845000Y-60975000D03*
X147784999Y-51849999D03*
X147784999Y-49800001D03*
X145895000Y-50825000D03*
X239132499Y-61999999D03*
X239132499Y-59950001D03*
X237242500Y-60975000D03*
X239132499Y-92499999D03*
X239132499Y-90450001D03*
X237242500Y-91475000D03*
X147784999Y-92499999D03*
X147784999Y-90450001D03*
X145895000Y-91475000D03*
X198532499Y-51849999D03*
X198532499Y-49800001D03*
X196642500Y-50825000D03*
X76734999Y-82349999D03*
X76734999Y-80300001D03*
X74845000Y-81325000D03*
X97037499Y-112799999D03*
X97037499Y-110750001D03*
X95147500Y-111775000D03*
X157932499Y-92499999D03*
X157932499Y-90450001D03*
X156042500Y-91475000D03*
X178232499Y-92499999D03*
X178232499Y-90450001D03*
X176342500Y-91475000D03*
M02*
