G04 #@! TF.GenerationSoftware,KiCad,Pcbnew,8.0.5-8.0.5-0~ubuntu24.04.1*
G04 #@! TF.CreationDate,2024-10-16T20:18:24-04:00*
G04 #@! TF.ProjectId,array,61727261-792e-46b6-9963-61645f706362,rev?*
G04 #@! TF.SameCoordinates,Original*
G04 #@! TF.FileFunction,Copper,L1,Top*
G04 #@! TF.FilePolarity,Positive*
%FSLAX46Y46*%
G04 Gerber Fmt 4.6, Leading zero omitted, Abs format (unit mm)*
G04 Created by KiCad (PCBNEW 8.0.5-8.0.5-0~ubuntu24.04.1) date 2024-10-16 20:18:24*
%MOMM*%
%LPD*%
G01*
G04 APERTURE LIST*
G04 #@! TA.AperFunction,ComponentPad*
%ADD10C,1.500000*%
G04 #@! TD*
G04 #@! TA.AperFunction,SMDPad,CuDef*
%ADD11R,0.889000X0.812800*%
G04 #@! TD*
G04 #@! TA.AperFunction,ComponentPad*
%ADD12C,1.750000*%
G04 #@! TD*
G04 #@! TA.AperFunction,Conductor*
%ADD13C,0.300000*%
G04 #@! TD*
G04 APERTURE END LIST*
D10*
X127800000Y-117070000D03*
X127800000Y-114530000D03*
X127800000Y-111990000D03*
X127800000Y-109450000D03*
X127800000Y-106910000D03*
X127800000Y-104370000D03*
X127800000Y-101830000D03*
X127800000Y-99290000D03*
X127800000Y-96750000D03*
X127800000Y-94210000D03*
X127800000Y-91670000D03*
X127800000Y-89130000D03*
X127800000Y-86590000D03*
X127800000Y-84050000D03*
X127800000Y-81510000D03*
X127800000Y-78970000D03*
X127800000Y-76430000D03*
X127800000Y-73890000D03*
X127800000Y-71350000D03*
X127800000Y-68810000D03*
X127800000Y-66270000D03*
X127800000Y-63730000D03*
D11*
X162557499Y-88864999D03*
X162557499Y-86815001D03*
X160667500Y-87840000D03*
X101642499Y-88874999D03*
X101642499Y-86825001D03*
X99752500Y-87850000D03*
X101642499Y-99024999D03*
X101642499Y-96975001D03*
X99752500Y-98000000D03*
X101642499Y-68524999D03*
X101642499Y-66475001D03*
X99752500Y-67500000D03*
X121919999Y-109164999D03*
X121919999Y-107115001D03*
X120030000Y-108140000D03*
D12*
X124600000Y-57340000D03*
X124600000Y-67500000D03*
X124600000Y-77660000D03*
X124600000Y-87820000D03*
X124600000Y-97980000D03*
X124600000Y-108140000D03*
X124600000Y-118300000D03*
X131600000Y-60540000D03*
X131600000Y-70700000D03*
X131600000Y-80860000D03*
X131600000Y-91020000D03*
X131600000Y-101180000D03*
X131600000Y-111340000D03*
X131600000Y-121500000D03*
D11*
X132104999Y-109164999D03*
X132104999Y-107115001D03*
X130215000Y-108140000D03*
X152404999Y-109164999D03*
X152404999Y-107115001D03*
X150515000Y-108140000D03*
X101639999Y-109174999D03*
X101639999Y-107125001D03*
X99750000Y-108150000D03*
X152407499Y-68514999D03*
X152407499Y-66465001D03*
X150517500Y-67490000D03*
D12*
X94150000Y-57340000D03*
X94150000Y-67500000D03*
X94150000Y-77660000D03*
X94150000Y-87820000D03*
X94150000Y-97980000D03*
X94150000Y-108140000D03*
X94150000Y-118300000D03*
X101150000Y-60540000D03*
X101150000Y-70700000D03*
X101150000Y-80860000D03*
X101150000Y-91020000D03*
X101150000Y-101180000D03*
X101150000Y-111340000D03*
X101150000Y-121500000D03*
D11*
X111742499Y-88874999D03*
X111742499Y-86825001D03*
X109852500Y-87850000D03*
X132107499Y-58364999D03*
X132107499Y-56315001D03*
X130217500Y-57340000D03*
X142209999Y-119314999D03*
X142209999Y-117265001D03*
X140320000Y-118290000D03*
D12*
X104300000Y-57340000D03*
X104300000Y-67500000D03*
X104300000Y-77660000D03*
X104300000Y-87820000D03*
X104300000Y-97980000D03*
X104300000Y-108140000D03*
X104300000Y-118300000D03*
X111300000Y-60540000D03*
X111300000Y-70700000D03*
X111300000Y-80860000D03*
X111300000Y-91020000D03*
X111300000Y-101180000D03*
X111300000Y-111340000D03*
X111300000Y-121500000D03*
D11*
X132107499Y-88864999D03*
X132107499Y-86815001D03*
X130217500Y-87840000D03*
X162559999Y-119314999D03*
X162559999Y-117265001D03*
X160670000Y-118290000D03*
X111744999Y-119324999D03*
X111744999Y-117275001D03*
X109855000Y-118300000D03*
X152407499Y-78714999D03*
X152407499Y-76665001D03*
X150517500Y-77690000D03*
X121924999Y-119314999D03*
X121924999Y-117265001D03*
X120035000Y-118290000D03*
X121922499Y-78714999D03*
X121922499Y-76665001D03*
X120032500Y-77690000D03*
D12*
X155050000Y-57340000D03*
X155050000Y-67500000D03*
X155050000Y-77660000D03*
X155050000Y-87820000D03*
X155050000Y-97980000D03*
X155050000Y-108140000D03*
X155050000Y-118300000D03*
X162050000Y-60540000D03*
X162050000Y-70700000D03*
X162050000Y-80860000D03*
X162050000Y-91020000D03*
X162050000Y-101180000D03*
X162050000Y-111340000D03*
X162050000Y-121500000D03*
D11*
X111742499Y-68524999D03*
X111742499Y-66475001D03*
X109852500Y-67500000D03*
X101642499Y-58374999D03*
X101642499Y-56325001D03*
X99752500Y-57350000D03*
X111739999Y-109174999D03*
X111739999Y-107125001D03*
X109850000Y-108150000D03*
D12*
X144900000Y-57340000D03*
X144900000Y-67500000D03*
X144900000Y-77660000D03*
X144900000Y-87820000D03*
X144900000Y-97980000D03*
X144900000Y-108140000D03*
X144900000Y-118300000D03*
X151900000Y-60540000D03*
X151900000Y-70700000D03*
X151900000Y-80860000D03*
X151900000Y-91020000D03*
X151900000Y-101180000D03*
X151900000Y-111340000D03*
X151900000Y-121500000D03*
D11*
X121922499Y-88864999D03*
X121922499Y-86815001D03*
X120032500Y-87840000D03*
X111742499Y-78724999D03*
X111742499Y-76675001D03*
X109852500Y-77700000D03*
X142207499Y-68514999D03*
X142207499Y-66465001D03*
X140317500Y-67490000D03*
X142207499Y-58364999D03*
X142207499Y-56315001D03*
X140317500Y-57340000D03*
X142204999Y-109164999D03*
X142204999Y-107115001D03*
X140315000Y-108140000D03*
X121922499Y-99014999D03*
X121922499Y-96965001D03*
X120032500Y-97990000D03*
X162557499Y-99014999D03*
X162557499Y-96965001D03*
X160667500Y-97990000D03*
X142207499Y-78714999D03*
X142207499Y-76665001D03*
X140317500Y-77690000D03*
X121922499Y-68514999D03*
X121922499Y-66465001D03*
X120032500Y-67490000D03*
X162557499Y-68514999D03*
X162557499Y-66465001D03*
X160667500Y-67490000D03*
X142207499Y-88864999D03*
X142207499Y-86815001D03*
X140317500Y-87840000D03*
D12*
X134750000Y-57340000D03*
X134750000Y-67500000D03*
X134750000Y-77660000D03*
X134750000Y-87820000D03*
X134750000Y-97980000D03*
X134750000Y-108140000D03*
X134750000Y-118300000D03*
X141750000Y-60540000D03*
X141750000Y-70700000D03*
X141750000Y-80860000D03*
X141750000Y-91020000D03*
X141750000Y-101180000D03*
X141750000Y-111340000D03*
X141750000Y-121500000D03*
D11*
X111742499Y-58374999D03*
X111742499Y-56325001D03*
X109852500Y-57350000D03*
X162557499Y-78714999D03*
X162557499Y-76665001D03*
X160667500Y-77690000D03*
X132107499Y-68514999D03*
X132107499Y-66465001D03*
X130217500Y-67490000D03*
X132107499Y-78714999D03*
X132107499Y-76665001D03*
X130217500Y-77690000D03*
X142207499Y-99014999D03*
X142207499Y-96965001D03*
X140317500Y-97990000D03*
X111742499Y-99024999D03*
X111742499Y-96975001D03*
X109852500Y-98000000D03*
X101644999Y-119324999D03*
X101644999Y-117275001D03*
X99755000Y-118300000D03*
D12*
X114450000Y-57340000D03*
X114450000Y-67500000D03*
X114450000Y-77660000D03*
X114450000Y-87820000D03*
X114450000Y-97980000D03*
X114450000Y-108140000D03*
X114450000Y-118300000D03*
X121450000Y-60540000D03*
X121450000Y-70700000D03*
X121450000Y-80860000D03*
X121450000Y-91020000D03*
X121450000Y-101180000D03*
X121450000Y-111340000D03*
X121450000Y-121500000D03*
D11*
X132107499Y-99014999D03*
X132107499Y-96965001D03*
X130217500Y-97990000D03*
X152407499Y-88864999D03*
X152407499Y-86815001D03*
X150517500Y-87840000D03*
X152407499Y-58364999D03*
X152407499Y-56315001D03*
X150517500Y-57340000D03*
X121922499Y-58364999D03*
X121922499Y-56315001D03*
X120032500Y-57340000D03*
X152407499Y-99014999D03*
X152407499Y-96965001D03*
X150517500Y-97990000D03*
X162554999Y-109164999D03*
X162554999Y-107115001D03*
X160665000Y-108140000D03*
X132109999Y-119314999D03*
X132109999Y-117265001D03*
X130220000Y-118290000D03*
X101642499Y-78724999D03*
X101642499Y-76675001D03*
X99752500Y-77700000D03*
X162557499Y-58364999D03*
X162557499Y-56315001D03*
X160667500Y-57340000D03*
X152409999Y-119314999D03*
X152409999Y-117265001D03*
X150520000Y-118290000D03*
D13*
X121947500Y-69247500D02*
X123450000Y-70750000D01*
X121922499Y-58364999D02*
X122900000Y-59342500D01*
X101642499Y-79394999D02*
X101647500Y-79400000D01*
X132300000Y-59050000D02*
X142197500Y-59050000D01*
X123000000Y-67200000D02*
X123000000Y-69200000D01*
X101644999Y-117275001D02*
X101644999Y-116605001D01*
X162547500Y-58374998D02*
X162557499Y-58364999D01*
X124550000Y-91492500D02*
X124550000Y-91500000D01*
X139750000Y-70700000D02*
X141750000Y-70700000D01*
X128860000Y-91640000D02*
X127800000Y-91640000D01*
X124550000Y-91500000D02*
X124690000Y-91640000D01*
X127800000Y-109420000D02*
X125830000Y-109420000D01*
X121919999Y-109164999D02*
X122085001Y-109164999D01*
X123100000Y-118300000D02*
X123100000Y-117700000D01*
X142197500Y-76000000D02*
X152397500Y-76000000D01*
X111745000Y-109850000D02*
X121945000Y-109850000D01*
X129200000Y-69920000D02*
X129200000Y-69600000D01*
X111697500Y-66430002D02*
X111742499Y-66475001D01*
X142197500Y-86150000D02*
X152397500Y-86150000D01*
X111697500Y-86780002D02*
X111742499Y-86825001D01*
X132107499Y-79390001D02*
X132097500Y-79400000D01*
X152397500Y-69200000D02*
X162547500Y-69200000D01*
X130200000Y-70250000D02*
X131150000Y-69300000D01*
X111700000Y-117230002D02*
X111744999Y-117275001D01*
X114427500Y-67490000D02*
X120032500Y-67490000D01*
X134712500Y-77690000D02*
X140317500Y-77690000D01*
X123450000Y-70750000D02*
X123450000Y-73100000D01*
X104247500Y-98000000D02*
X109852500Y-98000000D01*
X142200000Y-120000000D02*
X152400000Y-120000000D01*
X131984999Y-86815001D02*
X131150000Y-87650000D01*
X142209999Y-119314999D02*
X142209999Y-119990001D01*
X123450000Y-73100000D02*
X126750000Y-76400000D01*
X152400000Y-116600000D02*
X162550000Y-116600000D01*
X114427500Y-97990000D02*
X120032500Y-97990000D01*
X101650000Y-116600000D02*
X111700000Y-116600000D01*
X131640000Y-99260000D02*
X127800000Y-99260000D01*
X101642499Y-55655001D02*
X101647500Y-55650000D01*
X152407499Y-86159999D02*
X152397500Y-86150000D01*
X130200000Y-81620000D02*
X127800000Y-84020000D01*
X94147500Y-67500000D02*
X99752500Y-67500000D01*
X144912500Y-87840000D02*
X150517500Y-87840000D01*
X132109999Y-119990001D02*
X132100000Y-120000000D01*
X111697500Y-96930002D02*
X111742499Y-96975001D01*
X111697500Y-86150000D02*
X111697500Y-86780002D01*
X121922499Y-76025001D02*
X121947500Y-76000000D01*
X130200000Y-73250000D02*
X130200000Y-70250000D01*
X101642499Y-65805001D02*
X101647500Y-65800000D01*
X128070000Y-81480000D02*
X127800000Y-81480000D01*
X111750000Y-120000000D02*
X111750000Y-119330000D01*
X132107499Y-89540001D02*
X132097500Y-89550000D01*
X142207499Y-88864999D02*
X142207499Y-89540001D01*
X121922499Y-56672499D02*
X121922499Y-56315001D01*
X127800000Y-66240000D02*
X123550000Y-61990000D01*
X152397500Y-99700000D02*
X162547500Y-99700000D01*
X144910000Y-108140000D02*
X150515000Y-108140000D01*
X111747500Y-78730000D02*
X111742499Y-78724999D01*
X131150000Y-69300000D02*
X131150000Y-67422500D01*
X121922499Y-79374999D02*
X125597500Y-83050000D01*
X121922499Y-99014999D02*
X122185001Y-99014999D01*
X132104999Y-109840001D02*
X132095000Y-109850000D01*
X121922499Y-88864999D02*
X124550000Y-91492500D01*
X152407499Y-79390001D02*
X152397500Y-79400000D01*
X132107499Y-76665001D02*
X131150000Y-77622500D01*
X111747500Y-69200000D02*
X111747500Y-68530000D01*
X124690000Y-91640000D02*
X127800000Y-91640000D01*
X152407499Y-56315001D02*
X152407499Y-55659999D01*
X142207499Y-99690001D02*
X142197500Y-99700000D01*
X130217500Y-77690000D02*
X130217500Y-78432500D01*
X124300000Y-93870000D02*
X124300000Y-93900000D01*
X132107499Y-59040001D02*
X132097500Y-59050000D01*
X131050000Y-59050000D02*
X132300000Y-59050000D01*
X126300000Y-114500000D02*
X127800000Y-114500000D01*
X123550000Y-61990000D02*
X123550000Y-58300000D01*
X101642499Y-59044999D02*
X101647500Y-59050000D01*
X135150000Y-75300000D02*
X139750000Y-70700000D01*
X111697500Y-65800000D02*
X121947500Y-65800000D01*
X111697500Y-65800000D02*
X111697500Y-66430002D01*
X144912500Y-97990000D02*
X150517500Y-97990000D01*
X162547500Y-86150000D02*
X162547500Y-86805002D01*
X132107499Y-88864999D02*
X131635001Y-88864999D01*
X121922499Y-65825001D02*
X121947500Y-65800000D01*
X152397500Y-96300000D02*
X162547500Y-96300000D01*
X132197500Y-55650000D02*
X121500000Y-55650000D01*
X142207499Y-68514999D02*
X142207499Y-69190001D01*
X142207499Y-76009999D02*
X142197500Y-76000000D01*
X123000000Y-78100000D02*
X126380000Y-81480000D01*
X101644999Y-116605001D02*
X101650000Y-116600000D01*
X162545000Y-107105002D02*
X162554999Y-107115001D01*
X125830000Y-109420000D02*
X122550000Y-112700000D01*
X111747500Y-59050000D02*
X121947500Y-59050000D01*
X134712500Y-67490000D02*
X140317500Y-67490000D01*
X114430000Y-118290000D02*
X120035000Y-118290000D01*
X132097500Y-69200000D02*
X133150000Y-69200000D01*
X129700000Y-69800000D02*
X129700000Y-71600000D01*
X123100000Y-107550000D02*
X123770000Y-106880000D01*
X142197500Y-59050000D02*
X152397500Y-59050000D01*
X130530000Y-106880000D02*
X127800000Y-106880000D01*
X131100000Y-79400000D02*
X130200000Y-80300000D01*
X101642499Y-86825001D02*
X101642499Y-86155001D01*
X152397500Y-76000000D02*
X162547500Y-76000000D01*
X162545000Y-109174998D02*
X162554999Y-109164999D01*
X132107499Y-78714999D02*
X132107499Y-79390001D01*
X121500000Y-55650000D02*
X121947500Y-55650000D01*
X121947500Y-69200000D02*
X121947500Y-69247500D01*
X130217500Y-69282500D02*
X129700000Y-69800000D01*
X155060000Y-108140000D02*
X160665000Y-108140000D01*
X121919999Y-107115001D02*
X121919999Y-106475001D01*
X142207499Y-59040001D02*
X142197500Y-59050000D01*
X132107499Y-96390001D02*
X132197500Y-96300000D01*
X131150000Y-78400000D02*
X128070000Y-81480000D01*
X111695000Y-106450000D02*
X111695000Y-107080002D01*
X142207499Y-78714999D02*
X142207499Y-79390001D01*
X152397500Y-59050000D02*
X162547500Y-59050000D01*
X111747500Y-69200000D02*
X121947500Y-69200000D01*
X142204999Y-106459999D02*
X142195000Y-106450000D01*
X126950000Y-102650000D02*
X127800000Y-101800000D01*
X142207499Y-96965001D02*
X142207499Y-96309999D01*
X124612500Y-57340000D02*
X130217500Y-57340000D01*
X123000000Y-69200000D02*
X124000000Y-70200000D01*
X127800000Y-73860000D02*
X129590000Y-73860000D01*
X124300000Y-93900000D02*
X124580000Y-94180000D01*
X122900000Y-59342500D02*
X122900000Y-63700000D01*
X162547500Y-59050000D02*
X162547500Y-58374998D01*
X124610000Y-108140000D02*
X130215000Y-108140000D01*
X131150000Y-67422500D02*
X132107499Y-66465001D01*
X130950000Y-75300000D02*
X135150000Y-75300000D01*
X128900000Y-66300000D02*
X130150000Y-65050000D01*
X94147500Y-98000000D02*
X99752500Y-98000000D01*
X142204999Y-109840001D02*
X142195000Y-109850000D01*
X121922499Y-66465001D02*
X122265001Y-66465001D01*
X142207499Y-96309999D02*
X142197500Y-96300000D01*
X129700000Y-71600000D02*
X128700000Y-72600000D01*
X162547500Y-96300000D02*
X162547500Y-96955002D01*
X101647500Y-86150000D02*
X111697500Y-86150000D01*
X121922499Y-76665001D02*
X123000000Y-77742502D01*
X101642499Y-99694999D02*
X101647500Y-99700000D01*
X142197500Y-79400000D02*
X152397500Y-79400000D01*
X132195000Y-106450000D02*
X142195000Y-106450000D01*
X132097500Y-59050000D02*
X132300000Y-59050000D01*
X142204999Y-109164999D02*
X142204999Y-109840001D01*
X162547500Y-69200000D02*
X162547500Y-68524998D01*
X121922499Y-76665001D02*
X121922499Y-76025001D01*
X152397500Y-65800000D02*
X162547500Y-65800000D01*
X127800000Y-68780000D02*
X128900000Y-67680000D01*
X162547500Y-89550000D02*
X162547500Y-88874998D01*
X155062500Y-77690000D02*
X160667500Y-77690000D01*
X101642499Y-76005001D02*
X101647500Y-76000000D01*
X142197500Y-55650000D02*
X152397500Y-55650000D01*
X134710000Y-108140000D02*
X140315000Y-108140000D01*
X101647500Y-76000000D02*
X111697500Y-76000000D01*
X121922499Y-78714999D02*
X121922499Y-79374999D01*
X152397500Y-89550000D02*
X162547500Y-89550000D01*
X101642499Y-96975001D02*
X101642499Y-96305001D01*
X162547500Y-65800000D02*
X162547500Y-66455002D01*
X131150000Y-58200000D02*
X131150000Y-57272500D01*
X142195000Y-106450000D02*
X152395000Y-106450000D01*
X121922499Y-96325001D02*
X126975001Y-96325001D01*
X104250000Y-118300000D02*
X109855000Y-118300000D01*
X132109999Y-119314999D02*
X131150000Y-118355000D01*
X129200000Y-77050000D02*
X130950000Y-75300000D01*
X124000000Y-72050000D02*
X125810000Y-73860000D01*
X111697500Y-76000000D02*
X121947500Y-76000000D01*
X152400000Y-120000000D02*
X162550000Y-120000000D01*
X142209999Y-117265001D02*
X142209999Y-116609999D01*
X162547500Y-99024998D02*
X162557499Y-99014999D01*
X127100000Y-80200000D02*
X127100000Y-80160000D01*
X122900000Y-63700000D02*
X127800000Y-68600000D01*
X101639999Y-106455001D02*
X101645000Y-106450000D01*
X122550000Y-112700000D02*
X104150000Y-112700000D01*
X127800000Y-66240000D02*
X129650000Y-64390000D01*
X155065000Y-118290000D02*
X160670000Y-118290000D01*
X129200000Y-77540000D02*
X129200000Y-77050000D01*
X152397500Y-55650000D02*
X162547500Y-55650000D01*
X124612500Y-97990000D02*
X130217500Y-97990000D01*
X122085001Y-109164999D02*
X123100000Y-108150000D01*
X111747500Y-89550000D02*
X111747500Y-88880000D01*
X162550000Y-119324998D02*
X162559999Y-119314999D01*
X152407499Y-55659999D02*
X152397500Y-55650000D01*
X132104999Y-109164999D02*
X132104999Y-109840001D01*
X111700000Y-116600000D02*
X121950000Y-116600000D01*
X132107499Y-68514999D02*
X132107499Y-69190001D01*
X125600000Y-83050000D02*
X126570000Y-84020000D01*
X162550000Y-117255002D02*
X162559999Y-117265001D01*
X152404999Y-109164999D02*
X152404999Y-109840001D01*
X132107499Y-66465001D02*
X132107499Y-65890001D01*
X152407499Y-76665001D02*
X152407499Y-76009999D01*
X130150000Y-65050000D02*
X130150000Y-59950000D01*
X111697500Y-55650000D02*
X121500000Y-55650000D01*
X123100000Y-117700000D02*
X126300000Y-114500000D01*
X101642499Y-69194999D02*
X101647500Y-69200000D01*
X152407499Y-76009999D02*
X152397500Y-76000000D01*
X121919999Y-109164999D02*
X121919999Y-109824999D01*
X122430002Y-99260000D02*
X127800000Y-99260000D01*
X128150000Y-76400000D02*
X133150000Y-71400000D01*
X127800000Y-68600000D02*
X127800000Y-68780000D01*
X114427500Y-57340000D02*
X120032500Y-57340000D01*
X134712500Y-57340000D02*
X140317500Y-57340000D01*
X142207499Y-79390001D02*
X142197500Y-79400000D01*
X142197500Y-89550000D02*
X152397500Y-89550000D01*
X123100000Y-108150000D02*
X123100000Y-107550000D01*
X142207499Y-86815001D02*
X142207499Y-86159999D01*
X152407499Y-66465001D02*
X152407499Y-65809999D01*
X134712500Y-97990000D02*
X140317500Y-97990000D01*
X132100000Y-120000000D02*
X142200000Y-120000000D01*
X122165001Y-86815001D02*
X123050000Y-87700000D01*
X121922499Y-79374999D02*
X121947500Y-79400000D01*
X111700000Y-116600000D02*
X111700000Y-117230002D01*
X121922499Y-99674999D02*
X121947500Y-99700000D01*
X127800000Y-78940000D02*
X129200000Y-77540000D01*
X101642499Y-99024999D02*
X101642499Y-99694999D01*
X114427500Y-87840000D02*
X120032500Y-87840000D01*
X142207499Y-56315001D02*
X142207499Y-55659999D01*
X111697500Y-76630002D02*
X111742499Y-76675001D01*
X162547500Y-86805002D02*
X162557499Y-86815001D01*
X104247500Y-67500000D02*
X109852500Y-67500000D01*
X122265001Y-66465001D02*
X123000000Y-67200000D01*
X155062500Y-87840000D02*
X160667500Y-87840000D01*
X111747500Y-99700000D02*
X111747500Y-99030000D01*
X123550000Y-58300000D02*
X121922499Y-56672499D01*
X131150000Y-88300000D02*
X130350000Y-89100000D01*
X152395000Y-109850000D02*
X162545000Y-109850000D01*
X131150000Y-57272500D02*
X132107499Y-56315001D01*
X142207499Y-76665001D02*
X142207499Y-76009999D01*
X101642499Y-56325001D02*
X101642499Y-55655001D01*
X132107499Y-86815001D02*
X131984999Y-86815001D01*
X101642499Y-76675001D02*
X101642499Y-76005001D01*
X152409999Y-116609999D02*
X152400000Y-116600000D01*
X144912500Y-77690000D02*
X150517500Y-77690000D01*
X132107499Y-99014999D02*
X132107499Y-99690001D01*
X119900000Y-102650000D02*
X126950000Y-102650000D01*
X152409999Y-119990001D02*
X152400000Y-120000000D01*
X101639999Y-107125001D02*
X101639999Y-106455001D01*
X121919999Y-106475001D02*
X121945000Y-106450000D01*
X127800000Y-71320000D02*
X129200000Y-69920000D01*
X132107499Y-69190001D02*
X132097500Y-69200000D01*
X152407499Y-68514999D02*
X152407499Y-69190001D01*
X111747500Y-58380000D02*
X111742499Y-58374999D01*
X162550000Y-120000000D02*
X162550000Y-119324998D01*
X132107499Y-86815001D02*
X132107499Y-86240001D01*
X155062500Y-67490000D02*
X160667500Y-67490000D01*
X152407499Y-96309999D02*
X152397500Y-96300000D01*
X162545000Y-106450000D02*
X162545000Y-107105002D01*
X94150000Y-118300000D02*
X99755000Y-118300000D01*
X111300000Y-101180000D02*
X118430000Y-101180000D01*
X101642499Y-58374999D02*
X101642499Y-59044999D01*
X152409999Y-117265001D02*
X152409999Y-116609999D01*
X121922499Y-55675001D02*
X121947500Y-55650000D01*
X128450000Y-80200000D02*
X127100000Y-80200000D01*
X129340000Y-104340000D02*
X127800000Y-104340000D01*
X152397500Y-79400000D02*
X162547500Y-79400000D01*
X130150000Y-59950000D02*
X131050000Y-59050000D01*
X132104999Y-106540001D02*
X132195000Y-106450000D01*
X131764999Y-109164999D02*
X131150000Y-108550000D01*
X125810000Y-73860000D02*
X127800000Y-73860000D01*
X94147500Y-87850000D02*
X99752500Y-87850000D01*
X101639999Y-109174999D02*
X101639999Y-109844999D01*
X94145000Y-108150000D02*
X99750000Y-108150000D01*
X129650000Y-59700000D02*
X131150000Y-58200000D01*
X162547500Y-68524998D02*
X162557499Y-68514999D01*
X131150000Y-117850000D02*
X127800000Y-114500000D01*
X127370000Y-96720000D02*
X127800000Y-96720000D01*
X127100000Y-80160000D02*
X124600000Y-77660000D01*
X132109999Y-117265001D02*
X132109999Y-116269999D01*
X111747500Y-99030000D02*
X111742499Y-99024999D01*
X121924999Y-117265001D02*
X122494999Y-117265001D01*
X127250000Y-72600000D02*
X124600000Y-69950000D01*
X111695000Y-107080002D02*
X111739999Y-107125001D01*
X123770000Y-106880000D02*
X127800000Y-106880000D01*
X121924999Y-119314999D02*
X122085001Y-119314999D01*
X152404999Y-109840001D02*
X152395000Y-109850000D01*
X133150000Y-71400000D02*
X133150000Y-69200000D01*
X123050000Y-88400000D02*
X123750000Y-89100000D01*
X127800000Y-76400000D02*
X128150000Y-76400000D01*
X124600000Y-69950000D02*
X124600000Y-67500000D01*
X121922499Y-69174999D02*
X121947500Y-69200000D01*
X144912500Y-67490000D02*
X150517500Y-67490000D01*
X162547500Y-78724998D02*
X162557499Y-78714999D01*
X130350000Y-89100000D02*
X127800000Y-89100000D01*
X121922499Y-58364999D02*
X121922499Y-59024999D01*
X111747500Y-79400000D02*
X111747500Y-78730000D01*
X152407499Y-88864999D02*
X152407499Y-89540001D01*
X152397500Y-86150000D02*
X162547500Y-86150000D01*
X130200000Y-80300000D02*
X130200000Y-81620000D01*
X155062500Y-97990000D02*
X160667500Y-97990000D01*
X121922499Y-86175001D02*
X121947500Y-86150000D01*
X111695000Y-106450000D02*
X121945000Y-106450000D01*
X132097500Y-99700000D02*
X142197500Y-99700000D01*
X111697500Y-96300000D02*
X121947500Y-96300000D01*
X132107499Y-99014999D02*
X131885001Y-99014999D01*
X124000000Y-70200000D02*
X124000000Y-72050000D01*
X152409999Y-119314999D02*
X152409999Y-119990001D01*
X111747500Y-59050000D02*
X111747500Y-58380000D01*
X101645000Y-109850000D02*
X111745000Y-109850000D01*
X131150000Y-107500000D02*
X130530000Y-106880000D01*
X144915000Y-118290000D02*
X150520000Y-118290000D01*
X101642499Y-66475001D02*
X101642499Y-65805001D01*
X152407499Y-58364999D02*
X152407499Y-59040001D01*
X128700000Y-72600000D02*
X127250000Y-72600000D01*
X152407499Y-65809999D02*
X152397500Y-65800000D01*
X111697500Y-56280002D02*
X111742499Y-56325001D01*
X132107499Y-55740001D02*
X132197500Y-55650000D01*
X132197500Y-76000000D02*
X142197500Y-76000000D01*
X142207499Y-86159999D02*
X142197500Y-86150000D01*
X162547500Y-56305002D02*
X162557499Y-56315001D01*
X121922499Y-96325001D02*
X121947500Y-96300000D01*
X101642499Y-96305001D02*
X101647500Y-96300000D01*
X121922499Y-96965001D02*
X121922499Y-96325001D01*
X101647500Y-99700000D02*
X111747500Y-99700000D01*
X142207499Y-99014999D02*
X142207499Y-99690001D01*
X111745000Y-109850000D02*
X111745000Y-109180000D01*
X121924999Y-117265001D02*
X121924999Y-116625001D01*
X130217500Y-78432500D02*
X128450000Y-80200000D01*
X142197500Y-96300000D02*
X152397500Y-96300000D01*
X101647500Y-65800000D02*
X111697500Y-65800000D01*
X111747500Y-99700000D02*
X121947500Y-99700000D01*
X129590000Y-73860000D02*
X130200000Y-73250000D01*
X132197500Y-55650000D02*
X142197500Y-55650000D01*
X142207499Y-69190001D02*
X142197500Y-69200000D01*
X101642499Y-86155001D02*
X101647500Y-86150000D01*
X132107499Y-76090001D02*
X132197500Y-76000000D01*
X102790000Y-111340000D02*
X101150000Y-111340000D01*
X132104999Y-109164999D02*
X131764999Y-109164999D01*
X129400000Y-69400000D02*
X129400000Y-66550000D01*
X121922499Y-86815001D02*
X122165001Y-86815001D01*
X122085001Y-119314999D02*
X123100000Y-118300000D01*
X121924999Y-116625001D02*
X121950000Y-116600000D01*
X111697500Y-86150000D02*
X121947500Y-86150000D01*
X123000000Y-77742502D02*
X123000000Y-78100000D01*
X101647500Y-79400000D02*
X111747500Y-79400000D01*
X142197500Y-69200000D02*
X152397500Y-69200000D01*
X131150000Y-118355000D02*
X131150000Y-117850000D01*
X132095000Y-109850000D02*
X142195000Y-109850000D01*
X126750000Y-76400000D02*
X127800000Y-76400000D01*
X131635001Y-88864999D02*
X128860000Y-91640000D01*
X111697500Y-55650000D02*
X111697500Y-56280002D01*
X101647500Y-89550000D02*
X111747500Y-89550000D01*
X121922499Y-66465001D02*
X121922499Y-65825001D01*
X144912500Y-57340000D02*
X150517500Y-57340000D01*
X111697500Y-76000000D02*
X111697500Y-76630002D01*
X132097500Y-79400000D02*
X131100000Y-79400000D01*
X121922499Y-88864999D02*
X121922499Y-89524999D01*
X132107499Y-96965001D02*
X132107499Y-96390001D01*
X104245000Y-108150000D02*
X109850000Y-108150000D01*
X101650000Y-120000000D02*
X111750000Y-120000000D01*
X101642499Y-78724999D02*
X101642499Y-79394999D01*
X162550000Y-116600000D02*
X162550000Y-117255002D01*
X111747500Y-68530000D02*
X111742499Y-68524999D01*
X121924999Y-119314999D02*
X121924999Y-119974999D01*
X142195000Y-109850000D02*
X152395000Y-109850000D01*
X101642499Y-68524999D02*
X101642499Y-69194999D01*
X126975001Y-96325001D02*
X127370000Y-96720000D01*
X124695000Y-104340000D02*
X121919999Y-107115001D01*
X118430000Y-101180000D02*
X119900000Y-102650000D01*
X155062500Y-57340000D02*
X160667500Y-57340000D01*
X142207499Y-58364999D02*
X142207499Y-59040001D01*
X147440000Y-65000000D02*
X151900000Y-60540000D01*
X122185001Y-99014999D02*
X122430002Y-99260000D01*
X152407499Y-99014999D02*
X152407499Y-99690001D01*
X131150000Y-108550000D02*
X131150000Y-107500000D01*
X104247500Y-57350000D02*
X109852500Y-57350000D01*
X162547500Y-79400000D02*
X162547500Y-78724998D01*
X132107499Y-58364999D02*
X132107499Y-59040001D01*
X124615000Y-118290000D02*
X130220000Y-118290000D01*
X101644999Y-119994999D02*
X101650000Y-120000000D01*
X129200000Y-69600000D02*
X129400000Y-69400000D01*
X128900000Y-67680000D02*
X128900000Y-66300000D01*
X152404999Y-106459999D02*
X152395000Y-106450000D01*
X123750000Y-89100000D02*
X127800000Y-89100000D01*
X128220000Y-96300000D02*
X127800000Y-96720000D01*
X142204999Y-107115001D02*
X142204999Y-106459999D01*
X142209999Y-119990001D02*
X142200000Y-120000000D01*
X130217500Y-67490000D02*
X130217500Y-69282500D01*
X122494999Y-117265001D02*
X127800000Y-111960000D01*
X132107499Y-76665001D02*
X132107499Y-76090001D01*
X162547500Y-76655002D02*
X162557499Y-76665001D01*
X104247500Y-77700000D02*
X109852500Y-77700000D01*
X132200000Y-116600000D02*
X142200000Y-116600000D01*
X162547500Y-76000000D02*
X162547500Y-76655002D01*
X111697500Y-96300000D02*
X111697500Y-96930002D01*
X132197500Y-65800000D02*
X142197500Y-65800000D01*
X132109999Y-119314999D02*
X132109999Y-119990001D01*
X152407499Y-59040001D02*
X152397500Y-59050000D01*
X132104999Y-107115001D02*
X132104999Y-106540001D01*
X111747500Y-79400000D02*
X121947500Y-79400000D01*
X111745000Y-109180000D02*
X111739999Y-109174999D01*
X131600000Y-82760000D02*
X131600000Y-80860000D01*
X111747500Y-88880000D02*
X111742499Y-88874999D01*
X162547500Y-88874998D02*
X162557499Y-88864999D01*
X101647500Y-69200000D02*
X111747500Y-69200000D01*
X121922499Y-89524999D02*
X121947500Y-89550000D01*
X132109999Y-116269999D02*
X127800000Y-111960000D01*
X126380000Y-81480000D02*
X127800000Y-81480000D01*
X104150000Y-112700000D02*
X102790000Y-111340000D01*
X162547500Y-99700000D02*
X162547500Y-99024998D01*
X152407499Y-96965001D02*
X152407499Y-96309999D01*
X121922499Y-56315001D02*
X121922499Y-55675001D01*
X142207499Y-66465001D02*
X142207499Y-65809999D01*
X101639999Y-109844999D02*
X101645000Y-109850000D01*
X127800000Y-104340000D02*
X124695000Y-104340000D01*
X142197500Y-65800000D02*
X152397500Y-65800000D01*
X142197500Y-99700000D02*
X152397500Y-99700000D01*
X152407499Y-78714999D02*
X152407499Y-79390001D01*
X101644999Y-119324999D02*
X101644999Y-119994999D01*
X132107499Y-86240001D02*
X132197500Y-86150000D01*
X132197500Y-96300000D02*
X128220000Y-96300000D01*
X131150000Y-77622500D02*
X131150000Y-78400000D01*
X121919999Y-109824999D02*
X121945000Y-109850000D01*
X133150000Y-69200000D02*
X142197500Y-69200000D01*
X130950000Y-65000000D02*
X147440000Y-65000000D01*
X121924999Y-119974999D02*
X121950000Y-120000000D01*
X162545000Y-109850000D02*
X162545000Y-109174998D01*
X101647500Y-96300000D02*
X111697500Y-96300000D01*
X123050000Y-87700000D02*
X123050000Y-88400000D01*
X101647500Y-55650000D02*
X111697500Y-55650000D01*
X134715000Y-118290000D02*
X140320000Y-118290000D01*
X132107499Y-99690001D02*
X132097500Y-99700000D01*
X121922499Y-86815001D02*
X121922499Y-86175001D01*
X152407499Y-69190001D02*
X152397500Y-69200000D01*
X132104999Y-107104999D02*
X129340000Y-104340000D01*
X132109999Y-116690001D02*
X132200000Y-116600000D01*
X111750000Y-119330000D02*
X111744999Y-119324999D01*
X101642499Y-88874999D02*
X101642499Y-89544999D01*
X132104999Y-107115001D02*
X132104999Y-107104999D01*
X125597500Y-83050000D02*
X125600000Y-83050000D01*
X132107499Y-65890001D02*
X132197500Y-65800000D01*
X152407499Y-99690001D02*
X152397500Y-99700000D01*
X129400000Y-66550000D02*
X130950000Y-65000000D01*
X162547500Y-66455002D02*
X162557499Y-66465001D01*
X104247500Y-87850000D02*
X109852500Y-87850000D01*
X152407499Y-86815001D02*
X152407499Y-86159999D01*
X142207499Y-89540001D02*
X142197500Y-89550000D01*
X142207499Y-55659999D02*
X142197500Y-55650000D01*
X111747500Y-89550000D02*
X121947500Y-89550000D01*
X121450000Y-91020000D02*
X124300000Y-93870000D01*
X162547500Y-55650000D02*
X162547500Y-56305002D01*
X152407499Y-89540001D02*
X152397500Y-89550000D01*
X131150000Y-87650000D02*
X131150000Y-88300000D01*
X129650000Y-64390000D02*
X129650000Y-59700000D01*
X114425000Y-108140000D02*
X120030000Y-108140000D01*
X132107499Y-88864999D02*
X132107499Y-89540001D01*
X132107499Y-56315001D02*
X132107499Y-55740001D01*
X126570000Y-84020000D02*
X127800000Y-84020000D01*
X124612500Y-87840000D02*
X130217500Y-87840000D01*
X121922499Y-59024999D02*
X121947500Y-59050000D01*
X142200000Y-116600000D02*
X152400000Y-116600000D01*
X162547500Y-96955002D02*
X162557499Y-96965001D01*
X142207499Y-65809999D02*
X142197500Y-65800000D01*
X121922499Y-68514999D02*
X121922499Y-69174999D01*
X121922499Y-99014999D02*
X121922499Y-99674999D01*
X134712500Y-87840000D02*
X140317500Y-87840000D01*
X152395000Y-106450000D02*
X162545000Y-106450000D01*
X101642499Y-89544999D02*
X101647500Y-89550000D01*
X132197500Y-96300000D02*
X142197500Y-96300000D01*
X127800000Y-86560000D02*
X131600000Y-82760000D01*
X94147500Y-77700000D02*
X99752500Y-77700000D01*
X101645000Y-106450000D02*
X111695000Y-106450000D01*
X132109999Y-117265001D02*
X132109999Y-116690001D01*
X114427500Y-77690000D02*
X120032500Y-77690000D01*
X111750000Y-120000000D02*
X121950000Y-120000000D01*
X142209999Y-116609999D02*
X142200000Y-116600000D01*
X131885001Y-99014999D02*
X131640000Y-99260000D01*
X132197500Y-86150000D02*
X142197500Y-86150000D01*
X94147500Y-57350000D02*
X99752500Y-57350000D01*
X101647500Y-59050000D02*
X111747500Y-59050000D01*
X124580000Y-94180000D02*
X127800000Y-94180000D01*
X132097500Y-79400000D02*
X142197500Y-79400000D01*
X152404999Y-107115001D02*
X152404999Y-106459999D01*
X132097500Y-89550000D02*
X142197500Y-89550000D01*
M02*
