%TF.GenerationSoftware,KiCad,Pcbnew,8.0.6-8.0.6-0~ubuntu24.04.1*%
%TF.CreationDate,2024-11-10T23:40:15-05:00*%
%TF.ProjectId,array,61727261-792e-46b6-9963-61645f706362,rev?*%
%TF.SameCoordinates,Original*%
%TF.FileFunction,Drillmap*%
%TF.FilePolarity,Positive*%
%FSLAX45Y45*%
G04 Gerber Fmt 4.5, Leading zero omitted, Abs format (unit mm)*
G04 Created by KiCad (PCBNEW 8.0.6-8.0.6-0~ubuntu24.04.1) date 2024-11-10 23:40:15*
%MOMM*%
%LPD*%
G01*
G04 APERTURE LIST*
%ADD10C,0.200000*%
G04 APERTURE END LIST*
D10*
X4480000Y-4481000D02*
X26307500Y-4481000D01*
X26307500Y-12100000D01*
X4480000Y-12100000D01*
X4480000Y-4481000D01*
X4730777Y-12421484D02*
X4730777Y-12221484D01*
X4730777Y-12221484D02*
X4778396Y-12221484D01*
X4778396Y-12221484D02*
X4806967Y-12231008D01*
X4806967Y-12231008D02*
X4826015Y-12250055D01*
X4826015Y-12250055D02*
X4835539Y-12269103D01*
X4835539Y-12269103D02*
X4845063Y-12307198D01*
X4845063Y-12307198D02*
X4845063Y-12335769D01*
X4845063Y-12335769D02*
X4835539Y-12373865D01*
X4835539Y-12373865D02*
X4826015Y-12392912D01*
X4826015Y-12392912D02*
X4806967Y-12411960D01*
X4806967Y-12411960D02*
X4778396Y-12421484D01*
X4778396Y-12421484D02*
X4730777Y-12421484D01*
X4930777Y-12421484D02*
X4930777Y-12288150D01*
X4930777Y-12326246D02*
X4940301Y-12307198D01*
X4940301Y-12307198D02*
X4949824Y-12297674D01*
X4949824Y-12297674D02*
X4968872Y-12288150D01*
X4968872Y-12288150D02*
X4987920Y-12288150D01*
X5054586Y-12421484D02*
X5054586Y-12288150D01*
X5054586Y-12221484D02*
X5045063Y-12231008D01*
X5045063Y-12231008D02*
X5054586Y-12240531D01*
X5054586Y-12240531D02*
X5064110Y-12231008D01*
X5064110Y-12231008D02*
X5054586Y-12221484D01*
X5054586Y-12221484D02*
X5054586Y-12240531D01*
X5178396Y-12421484D02*
X5159348Y-12411960D01*
X5159348Y-12411960D02*
X5149824Y-12392912D01*
X5149824Y-12392912D02*
X5149824Y-12221484D01*
X5283158Y-12421484D02*
X5264110Y-12411960D01*
X5264110Y-12411960D02*
X5254586Y-12392912D01*
X5254586Y-12392912D02*
X5254586Y-12221484D01*
X5511729Y-12421484D02*
X5511729Y-12221484D01*
X5511729Y-12221484D02*
X5578396Y-12364341D01*
X5578396Y-12364341D02*
X5645062Y-12221484D01*
X5645062Y-12221484D02*
X5645062Y-12421484D01*
X5826015Y-12421484D02*
X5826015Y-12316722D01*
X5826015Y-12316722D02*
X5816491Y-12297674D01*
X5816491Y-12297674D02*
X5797443Y-12288150D01*
X5797443Y-12288150D02*
X5759348Y-12288150D01*
X5759348Y-12288150D02*
X5740301Y-12297674D01*
X5826015Y-12411960D02*
X5806967Y-12421484D01*
X5806967Y-12421484D02*
X5759348Y-12421484D01*
X5759348Y-12421484D02*
X5740301Y-12411960D01*
X5740301Y-12411960D02*
X5730777Y-12392912D01*
X5730777Y-12392912D02*
X5730777Y-12373865D01*
X5730777Y-12373865D02*
X5740301Y-12354817D01*
X5740301Y-12354817D02*
X5759348Y-12345293D01*
X5759348Y-12345293D02*
X5806967Y-12345293D01*
X5806967Y-12345293D02*
X5826015Y-12335769D01*
X5921253Y-12288150D02*
X5921253Y-12488150D01*
X5921253Y-12297674D02*
X5940301Y-12288150D01*
X5940301Y-12288150D02*
X5978396Y-12288150D01*
X5978396Y-12288150D02*
X5997443Y-12297674D01*
X5997443Y-12297674D02*
X6006967Y-12307198D01*
X6006967Y-12307198D02*
X6016491Y-12326246D01*
X6016491Y-12326246D02*
X6016491Y-12383388D01*
X6016491Y-12383388D02*
X6006967Y-12402436D01*
X6006967Y-12402436D02*
X5997443Y-12411960D01*
X5997443Y-12411960D02*
X5978396Y-12421484D01*
X5978396Y-12421484D02*
X5940301Y-12421484D01*
X5940301Y-12421484D02*
X5921253Y-12411960D01*
X6102205Y-12402436D02*
X6111729Y-12411960D01*
X6111729Y-12411960D02*
X6102205Y-12421484D01*
X6102205Y-12421484D02*
X6092682Y-12411960D01*
X6092682Y-12411960D02*
X6102205Y-12402436D01*
X6102205Y-12402436D02*
X6102205Y-12421484D01*
X6102205Y-12297674D02*
X6111729Y-12307198D01*
X6111729Y-12307198D02*
X6102205Y-12316722D01*
X6102205Y-12316722D02*
X6092682Y-12307198D01*
X6092682Y-12307198D02*
X6102205Y-12297674D01*
X6102205Y-12297674D02*
X6102205Y-12316722D01*
M02*
