G04 #@! TF.GenerationSoftware,KiCad,Pcbnew,8.0.6-8.0.6-0~ubuntu24.04.1*
G04 #@! TF.CreationDate,2024-11-10T23:39:52-05:00*
G04 #@! TF.ProjectId,array,61727261-792e-46b6-9963-61645f706362,rev?*
G04 #@! TF.SameCoordinates,Original*
G04 #@! TF.FileFunction,Soldermask,Bot*
G04 #@! TF.FilePolarity,Negative*
%FSLAX46Y46*%
G04 Gerber Fmt 4.6, Leading zero omitted, Abs format (unit mm)*
G04 Created by KiCad (PCBNEW 8.0.6-8.0.6-0~ubuntu24.04.1) date 2024-11-10 23:39:52*
%MOMM*%
%LPD*%
G01*
G04 APERTURE LIST*
%ADD10C,1.500000*%
%ADD11C,2.000000*%
G04 APERTURE END LIST*
D10*
X123122500Y-107970000D03*
X123122500Y-105430000D03*
X123122500Y-102890000D03*
X123122500Y-100350000D03*
X123122500Y-97810000D03*
X123122500Y-95270000D03*
X123122500Y-92730000D03*
X123122500Y-90190000D03*
X123122500Y-87650000D03*
X123122500Y-85110000D03*
X123122500Y-82570000D03*
X123122500Y-80030000D03*
X123122500Y-77490000D03*
X123122500Y-74950000D03*
X123122500Y-72410000D03*
X123122500Y-69870000D03*
X123122500Y-67330000D03*
X123122500Y-64790000D03*
X123122500Y-62250000D03*
X123122500Y-59710000D03*
D11*
X69227500Y-50825000D03*
X69227500Y-60985000D03*
X69227500Y-71145000D03*
X69227500Y-81305000D03*
X69227500Y-91465000D03*
X69227500Y-101625000D03*
X69227500Y-111785000D03*
X76227500Y-54025000D03*
X76227500Y-64185000D03*
X76227500Y-74345000D03*
X76227500Y-84505000D03*
X76227500Y-94665000D03*
X76227500Y-104825000D03*
X76227500Y-114985000D03*
X119977500Y-50825000D03*
X119977500Y-60985000D03*
X119977500Y-71145000D03*
X119977500Y-81305000D03*
X119977500Y-91465000D03*
X119977500Y-101625000D03*
X119977500Y-111785000D03*
X126977500Y-54025000D03*
X126977500Y-64185000D03*
X126977500Y-74345000D03*
X126977500Y-84505000D03*
X126977500Y-94665000D03*
X126977500Y-104825000D03*
X126977500Y-114985000D03*
X48950000Y-50825000D03*
X48950000Y-60985000D03*
X48950000Y-71145000D03*
X48950000Y-81305000D03*
X48950000Y-91465000D03*
X48950000Y-101625000D03*
X48950000Y-111785000D03*
X55950000Y-54025000D03*
X55950000Y-64185000D03*
X55950000Y-74345000D03*
X55950000Y-84505000D03*
X55950000Y-94665000D03*
X55950000Y-104825000D03*
X55950000Y-114985000D03*
X251925000Y-50825000D03*
X251925000Y-60985000D03*
X251925000Y-71145000D03*
X251925000Y-81305000D03*
X251925000Y-91465000D03*
X251925000Y-101625000D03*
X251925000Y-111785000D03*
X258925000Y-54025000D03*
X258925000Y-64185000D03*
X258925000Y-74345000D03*
X258925000Y-84505000D03*
X258925000Y-94665000D03*
X258925000Y-104825000D03*
X258925000Y-114985000D03*
X140277500Y-50825000D03*
X140277500Y-60985000D03*
X140277500Y-71145000D03*
X140277500Y-81305000D03*
X140277500Y-91465000D03*
X140277500Y-101625000D03*
X140277500Y-111785000D03*
X147277500Y-54025000D03*
X147277500Y-64185000D03*
X147277500Y-74345000D03*
X147277500Y-84505000D03*
X147277500Y-94665000D03*
X147277500Y-104825000D03*
X147277500Y-114985000D03*
X160575000Y-50825000D03*
X160575000Y-60985000D03*
X160575000Y-71145000D03*
X160575000Y-81305000D03*
X160575000Y-91465000D03*
X160575000Y-101625000D03*
X160575000Y-111785000D03*
X167575000Y-54025000D03*
X167575000Y-64185000D03*
X167575000Y-74345000D03*
X167575000Y-84505000D03*
X167575000Y-94665000D03*
X167575000Y-104825000D03*
X167575000Y-114985000D03*
X130127500Y-50825000D03*
X130127500Y-60985000D03*
X130127500Y-71145000D03*
X130127500Y-81305000D03*
X130127500Y-91465000D03*
X130127500Y-101625000D03*
X130127500Y-111785000D03*
X137127500Y-54025000D03*
X137127500Y-64185000D03*
X137127500Y-74345000D03*
X137127500Y-84505000D03*
X137127500Y-94665000D03*
X137127500Y-104825000D03*
X137127500Y-114985000D03*
X79377500Y-50825000D03*
X79377500Y-60985000D03*
X79377500Y-71145000D03*
X79377500Y-81305000D03*
X79377500Y-91465000D03*
X79377500Y-101625000D03*
X79377500Y-111785000D03*
X86377500Y-54025000D03*
X86377500Y-64185000D03*
X86377500Y-74345000D03*
X86377500Y-84505000D03*
X86377500Y-94665000D03*
X86377500Y-104825000D03*
X86377500Y-114985000D03*
X211325000Y-50825000D03*
X211325000Y-60985000D03*
X211325000Y-71145000D03*
X211325000Y-81305000D03*
X211325000Y-91465000D03*
X211325000Y-101625000D03*
X211325000Y-111785000D03*
X218325000Y-54025000D03*
X218325000Y-64185000D03*
X218325000Y-74345000D03*
X218325000Y-84505000D03*
X218325000Y-94665000D03*
X218325000Y-104825000D03*
X218325000Y-114985000D03*
X180875000Y-50825000D03*
X180875000Y-60985000D03*
X180875000Y-71145000D03*
X180875000Y-81305000D03*
X180875000Y-91465000D03*
X180875000Y-101625000D03*
X180875000Y-111785000D03*
X187875000Y-54025000D03*
X187875000Y-64185000D03*
X187875000Y-74345000D03*
X187875000Y-84505000D03*
X187875000Y-94665000D03*
X187875000Y-104825000D03*
X187875000Y-114985000D03*
X241775000Y-50825000D03*
X241775000Y-60985000D03*
X241775000Y-71145000D03*
X241775000Y-81305000D03*
X241775000Y-91465000D03*
X241775000Y-101625000D03*
X241775000Y-111785000D03*
X248775000Y-54025000D03*
X248775000Y-64185000D03*
X248775000Y-74345000D03*
X248775000Y-84505000D03*
X248775000Y-94665000D03*
X248775000Y-104825000D03*
X248775000Y-114985000D03*
X109827500Y-50825000D03*
X109827500Y-60985000D03*
X109827500Y-71145000D03*
X109827500Y-81305000D03*
X109827500Y-91465000D03*
X109827500Y-101625000D03*
X109827500Y-111785000D03*
X116827500Y-54025000D03*
X116827500Y-64185000D03*
X116827500Y-74345000D03*
X116827500Y-84505000D03*
X116827500Y-94665000D03*
X116827500Y-104825000D03*
X116827500Y-114985000D03*
X59100000Y-50825000D03*
X59100000Y-60985000D03*
X59100000Y-71145000D03*
X59100000Y-81305000D03*
X59100000Y-91465000D03*
X59100000Y-101625000D03*
X59100000Y-111785000D03*
X66100000Y-54025000D03*
X66100000Y-64185000D03*
X66100000Y-74345000D03*
X66100000Y-84505000D03*
X66100000Y-94665000D03*
X66100000Y-104825000D03*
X66100000Y-114985000D03*
X99677500Y-50825000D03*
X99677500Y-60985000D03*
X99677500Y-71145000D03*
X99677500Y-81305000D03*
X99677500Y-91465000D03*
X99677500Y-101625000D03*
X99677500Y-111785000D03*
X106677500Y-54025000D03*
X106677500Y-64185000D03*
X106677500Y-74345000D03*
X106677500Y-84505000D03*
X106677500Y-94665000D03*
X106677500Y-104825000D03*
X106677500Y-114985000D03*
X231625000Y-50825000D03*
X231625000Y-60985000D03*
X231625000Y-71145000D03*
X231625000Y-81305000D03*
X231625000Y-91465000D03*
X231625000Y-101625000D03*
X231625000Y-111785000D03*
X238625000Y-54025000D03*
X238625000Y-64185000D03*
X238625000Y-74345000D03*
X238625000Y-84505000D03*
X238625000Y-94665000D03*
X238625000Y-104825000D03*
X238625000Y-114985000D03*
X89527500Y-50825000D03*
X89527500Y-60985000D03*
X89527500Y-71145000D03*
X89527500Y-81305000D03*
X89527500Y-91465000D03*
X89527500Y-101625000D03*
X89527500Y-111785000D03*
X96527500Y-54025000D03*
X96527500Y-64185000D03*
X96527500Y-74345000D03*
X96527500Y-84505000D03*
X96527500Y-94665000D03*
X96527500Y-104825000D03*
X96527500Y-114985000D03*
X170725000Y-50825000D03*
X170725000Y-60985000D03*
X170725000Y-71145000D03*
X170725000Y-81305000D03*
X170725000Y-91465000D03*
X170725000Y-101625000D03*
X170725000Y-111785000D03*
X177725000Y-54025000D03*
X177725000Y-64185000D03*
X177725000Y-74345000D03*
X177725000Y-84505000D03*
X177725000Y-94665000D03*
X177725000Y-104825000D03*
X177725000Y-114985000D03*
X191025000Y-50825000D03*
X191025000Y-60985000D03*
X191025000Y-71145000D03*
X191025000Y-81305000D03*
X191025000Y-91465000D03*
X191025000Y-101625000D03*
X191025000Y-111785000D03*
X198025000Y-54025000D03*
X198025000Y-64185000D03*
X198025000Y-74345000D03*
X198025000Y-84505000D03*
X198025000Y-94665000D03*
X198025000Y-104825000D03*
X198025000Y-114985000D03*
X150425000Y-50825000D03*
X150425000Y-60985000D03*
X150425000Y-71145000D03*
X150425000Y-81305000D03*
X150425000Y-91465000D03*
X150425000Y-101625000D03*
X150425000Y-111785000D03*
X157425000Y-54025000D03*
X157425000Y-64185000D03*
X157425000Y-74345000D03*
X157425000Y-84505000D03*
X157425000Y-94665000D03*
X157425000Y-104825000D03*
X157425000Y-114985000D03*
D10*
X184022500Y-59710000D03*
X184022500Y-62250000D03*
X184022500Y-64790000D03*
X184022500Y-67330000D03*
X184022500Y-69870000D03*
X184022500Y-72410000D03*
X184022500Y-74950000D03*
X184022500Y-77490000D03*
X184022500Y-80030000D03*
X184022500Y-82570000D03*
X184022500Y-85110000D03*
X184022500Y-87650000D03*
X184022500Y-90190000D03*
X184022500Y-92730000D03*
X184022500Y-95270000D03*
X184022500Y-97810000D03*
X184022500Y-100350000D03*
X184022500Y-102890000D03*
X184022500Y-105430000D03*
X184022500Y-107970000D03*
D11*
X201175000Y-50825000D03*
X201175000Y-60985000D03*
X201175000Y-71145000D03*
X201175000Y-81305000D03*
X201175000Y-91465000D03*
X201175000Y-101625000D03*
X201175000Y-111785000D03*
X208175000Y-54025000D03*
X208175000Y-64185000D03*
X208175000Y-74345000D03*
X208175000Y-84505000D03*
X208175000Y-94665000D03*
X208175000Y-104825000D03*
X208175000Y-114985000D03*
X221475000Y-50825000D03*
X221475000Y-60985000D03*
X221475000Y-71145000D03*
X221475000Y-81305000D03*
X221475000Y-91465000D03*
X221475000Y-101625000D03*
X221475000Y-111785000D03*
X228475000Y-54025000D03*
X228475000Y-64185000D03*
X228475000Y-74345000D03*
X228475000Y-84505000D03*
X228475000Y-94665000D03*
X228475000Y-104825000D03*
X228475000Y-114985000D03*
M02*
